<svg xmlns="http://www.w3.org/2000/svg" width="392.744" height="408.919" viewBox="0 0 392.744 408.919">
  <g id="Grupo_88894" data-name="Grupo 88894" transform="translate(-285 -561.696)">
    <g id="Grupo_88885" data-name="Grupo 88885" transform="translate(-2369.299 -1583.281)">
      <path id="Trazado_110669" data-name="Trazado 110669" d="M3281.772,2607.213a94.306,94.306,0,0,1-137.348,28.89l66.561,115.287h.025l-.02.011,15.021,26.017,7.682-28.671a191.162,191.162,0,0,0,62.253-22.751c91.645-52.911,123.045-170.1,70.133-261.741-.289-.5-.586-1-.879-1.493l-83.407,144.465Z" transform="translate(-344.741 -223.521)" fill="#3b4454"/>
      <path id="Trazado_110670" data-name="Trazado 110670" d="M3284.531,2602.486h0l-2.737,4.74-.022-.013a94.306,94.306,0,0,1-137.348,28.89,102.68,102.68,0,0,0,153.863-25.675l.013.008.35-.606c.323-.547.64-1.1.953-1.651l74.345-128.769q-3.572-7.674-7.868-15.155c-.289-.5-.586-1-.879-1.493Z" transform="translate(-344.741 -223.521)" fill="#2a323d"/>
      <path id="Trazado_110671" data-name="Trazado 110671" d="M2773.82,2633.438a94.305,94.305,0,0,1,43.655-133.392H2684.353l-.011.023v-.023H2654.3l20.99,20.989a191.158,191.158,0,0,0-11.425,65.288c0,105.822,85.785,191.608,191.608,191.608.579,0,1.155-.01,1.733-.015L2773.8,2633.451Z" transform="translate(0 -249.746)" fill="#60c1dd"/>
      <path id="Trazado_110672" data-name="Trazado 110672" d="M3003.437,2638.191h0l-2.737-4.74.022-.013a94.306,94.306,0,0,1,43.655-133.392,102.681,102.681,0,0,0-54.7,146.087l-.013.007.35.606c.312.554.631,1.1.953,1.651l74.344,128.769c5.622.5,11.308.764,17.059.764.579,0,1.156-.01,1.733-.015Z" transform="translate(-226.903 -249.746)" fill="#4badc4"/>
      <path id="Trazado_110673" data-name="Trazado 110673" d="M2936.791,2242.346a94.306,94.306,0,0,1,93.694,104.5l66.561-115.286-.014-.021.019.011,15.021-26.018-28.671,7.683a191.164,191.164,0,0,0-50.83-42.538c-91.644-52.911-208.83-21.512-261.741,70.133-.29.5-.569,1-.853,1.508h166.813Z" transform="translate(-81.365)" fill="#2e9daa"/>
      <path id="Trazado_110674" data-name="Trazado 110674" d="M2931.317,2435.435h5.473v.026a94.306,94.306,0,0,1,93.694,104.5,102.681,102.681,0,0,0-99.167-120.412v-.015h-.7c-.636-.007-1.272-.005-1.907,0h-148.69q-4.86,6.93-9.191,14.391c-.29.5-.569,1-.853,1.508Z" transform="translate(-81.365 -193.115)" fill="#258e93"/>
      <path id="Trazado_110675" data-name="Trazado 110675" d="M3404.124,3203.307a.923.923,0,0,0-.924.924v1.847a.924.924,0,0,0,1.847,0v-1.847A.924.924,0,0,0,3404.124,3203.307Zm2.771-8.313h-5.542a8.322,8.322,0,0,0-8.313,8.313v15.7a8.322,8.322,0,0,0,8.313,8.313h5.542a8.322,8.322,0,0,0,8.313-8.313v-15.7A8.322,8.322,0,0,0,3406.9,3194.994Zm6.465,24.015a6.473,6.473,0,0,1-6.465,6.465h-5.542a6.473,6.473,0,0,1-6.466-6.465v-15.7a6.473,6.473,0,0,1,6.466-6.465h1.847v4.618a.924.924,0,0,0,1.847,0v-4.618h1.847a6.473,6.473,0,0,1,6.465,6.465Zm13.855-15.7h-3.694a3.7,3.7,0,0,1-3.7-3.694V3191.3a8.313,8.313,0,0,0-16.625,0v1.847a.924.924,0,1,0,1.847,0V3191.3a6.465,6.465,0,1,1,12.931,0v8.313a5.548,5.548,0,0,0,5.542,5.542h3.694a.924.924,0,0,0,0-1.847Z" transform="translate(-519.61 -730.108)" fill="#fff"/>
      <path id="Trazado_110676" data-name="Trazado 110676" d="M2845.874,2603.321a2.785,2.785,0,0,0-.573.061l-7.444-12.181a2.743,2.743,0,0,0,.628-1.735,2.764,2.764,0,0,0-5.372-.924h-13.271a2.762,2.762,0,1,0-4.744,2.659l-7.444,12.181a2.74,2.74,0,0,0-.573-.062,2.771,2.771,0,1,0,.573,5.48l7.444,12.181a2.761,2.761,0,1,0,4.744,2.659h13.271a2.762,2.762,0,1,0,4.744-2.659l7.444-12.181a2.77,2.77,0,1,0,.573-5.48Zm-10.16,16.625a2.766,2.766,0,0,0-2.6,1.847h-13.271a2.751,2.751,0,0,0-3.174-1.786l-7.444-12.18a2.71,2.71,0,0,0,0-3.47l7.444-12.182a2.747,2.747,0,0,0,3.174-1.786h13.271a2.747,2.747,0,0,0,3.174,1.786l7.444,12.181a2.711,2.711,0,0,0,0,3.47l-7.444,12.181A2.775,2.775,0,0,0,2835.714,2619.946Zm0-31.4a.924.924,0,1,1-.924.924A.925.925,0,0,1,2835.714,2588.542Zm-18.473,0a.924.924,0,1,1-.923.924A.925.925,0,0,1,2817.241,2588.542Zm-11.084,17.549a.924.924,0,1,1,.924.924A.925.925,0,0,1,2806.157,2606.092Zm11.084,17.55a.924.924,0,1,1,.924-.924A.924.924,0,0,1,2817.241,2623.641Zm18.473,0a.924.924,0,1,1,.924-.924A.925.925,0,0,1,2835.714,2623.641Zm10.16-16.626a.924.924,0,1,1,.924-.924A.925.925,0,0,1,2845.874,2607.015Z" transform="translate(-105.514 -310.693)" fill="#fff"/>
      <path id="Trazado_110677" data-name="Trazado 110677" d="M3623.708,2430.676a.924.924,0,0,0-.924.924v2.771a.923.923,0,0,0,.923.924h0a.924.924,0,0,0,.924-.924V2431.6A.924.924,0,0,0,3623.708,2430.676Zm28.895-4.505-9.148-3.739a.92.92,0,0,0-.9.116l-6.835,5.126-6.835-5.126a.92.92,0,0,0-.9-.116l-9.09,3.717c-1.9.631-4.415,1.884-4.415,5.45v2.771a.924.924,0,0,0,1.847,0V2431.6c0-1.906.884-2.942,3.208-3.719l8.664-3.541,6.6,4.95v5.081a.924.924,0,0,0,1.847,0v-5.081l6.6-4.95,8.722,3.562c2.267.756,3.15,1.792,3.15,3.7v2.771a.924.924,0,0,0,1.847,0V2431.6C3656.96,2428.033,3654.44,2426.781,3652.6,2426.17Zm-4.88,4.505a.924.924,0,0,0-.923.924v2.771a.924.924,0,1,0,1.847,0V2431.6A.924.924,0,0,0,3647.723,2430.676Zm-18.474-15.585v1.731h-.923a.923.923,0,0,0,0,1.847h.924v1.847a.924.924,0,0,0,1.847,0v-1.847h9.237v1.847a.924.924,0,0,0,1.848,0v-1.847h.924a.923.923,0,0,0,0-1.847h-.924v-1.73a12.932,12.932,0,1,0-12.932,0Zm6.466-22.284a11.085,11.085,0,0,1,5.115,20.919.924.924,0,0,0-.5.819v2.276h-1.847v-6.083l2.5-2.5a.924.924,0,0,0-1.306-1.306l-2.771,2.771a.924.924,0,0,0-.271.653v6.466h-1.847v-6.466a.924.924,0,0,0-.271-.653l-2.771-2.771a.924.924,0,0,0-1.306,1.306l2.5,2.5v6.083H3631.1v-2.277a.924.924,0,0,0-.5-.819,11.085,11.085,0,0,1,5.116-20.918Zm-3.694,12.931a.923.923,0,0,0,.923-.924v-2.771a.924.924,0,1,1,1.847,0,.924.924,0,0,0,1.847,0,.923.923,0,1,1,1.847,0v2.771a.924.924,0,0,0,1.847,0v-2.771a4.974,4.974,0,0,0-9.236,0v2.771A.924.924,0,0,0,3632.021,2405.738Zm2.771,18.473a.924.924,0,0,0,0,1.847h1.847a.924.924,0,0,0,0-1.847Zm4.618-2.771a.923.923,0,0,0-.924-.924h-5.542a.924.924,0,0,0,0,1.847h5.542A.923.923,0,0,0,3639.41,2421.439Z" transform="translate(-675.36 -173.017)" fill="#fff"/>
    </g>
    <path id="Trazado_112889" data-name="Trazado 112889" d="M-55.375-2.344h-4.109L-60.266,0h-2.492l4.234-11.375h2.172L-52.094,0h-2.492Zm-3.477-1.9h2.844L-57.437-8.5Zm14.906.094a5.07,5.07,0,0,1-.887,3.129A2.843,2.843,0,0,1-47.227.156,2.633,2.633,0,0,1-49.3-.734V3.25h-2.258v-11.7h2.094l.078.828a2.654,2.654,0,0,1,2.141-.984,2.862,2.862,0,0,1,2.43,1.156,5.207,5.207,0,0,1,.867,3.188ZM-46.2-4.321a3.345,3.345,0,0,0-.418-1.826,1.36,1.36,0,0,0-1.215-.643,1.478,1.478,0,0,0-1.461.815V-2.5a1.5,1.5,0,0,0,1.477.839Q-46.2-1.664-46.2-4.321ZM-38.656.156A4.15,4.15,0,0,1-41.684-.984a4.054,4.054,0,0,1-1.168-3.039v-.219a5.106,5.106,0,0,1,.492-2.277,3.612,3.612,0,0,1,1.395-1.547,3.914,3.914,0,0,1,2.059-.543,3.508,3.508,0,0,1,2.73,1.094,4.444,4.444,0,0,1,1,3.1v.922h-5.383a2.1,2.1,0,0,0,.66,1.328,2,2,0,0,0,1.395.5,2.437,2.437,0,0,0,2.039-.945l1.109,1.242A3.389,3.389,0,0,1-36.734-.246,4.511,4.511,0,0,1-38.656.156Zm-.258-6.945A1.411,1.411,0,0,0-40-6.334a2.357,2.357,0,0,0-.535,1.3H-37.4v-.181A1.681,1.681,0,0,0-37.8-6.377,1.456,1.456,0,0,0-38.914-6.789Zm9.766.453a6.134,6.134,0,0,0-.812-.062,1.654,1.654,0,0,0-1.68.867V0H-33.9V-8.453h2.133l.063,1.008A2.092,2.092,0,0,1-29.82-8.609a2.366,2.366,0,0,1,.7.1Zm4.18-4.2v2.078h1.445V-6.8h-1.445v4.219a1.007,1.007,0,0,0,.18.672.9.9,0,0,0,.688.2,3.6,3.6,0,0,0,.664-.055V-.047a4.648,4.648,0,0,1-1.367.2,2.156,2.156,0,0,1-2.422-2.4V-6.8h-1.234V-8.453h1.234v-2.078ZM-17.2-.859A2.831,2.831,0,0,1-19.516.156,2.67,2.67,0,0,1-21.59-.625a3.335,3.335,0,0,1-.73-2.289V-8.453h2.258v5.467q0,1.322,1.2,1.322a1.63,1.63,0,0,0,1.578-.8V-8.453h2.266V0h-2.125Zm8.641-5.477A6.134,6.134,0,0,0-9.375-6.4a1.654,1.654,0,0,0-1.68.867V0h-2.258V-8.453h2.133l.063,1.008A2.092,2.092,0,0,1-9.234-8.609a2.366,2.366,0,0,1,.7.1ZM-2.812,0a2.507,2.507,0,0,1-.227-.758A2.732,2.732,0,0,1-5.172.156,3,3,0,0,1-7.23-.562a2.312,2.312,0,0,1-.816-1.812,2.389,2.389,0,0,1,1-2.062,4.915,4.915,0,0,1,2.879-.727h1.039v-.484a1.393,1.393,0,0,0-.3-.937,1.183,1.183,0,0,0-.949-.352,1.345,1.345,0,0,0-.895.273.929.929,0,0,0-.324.75H-7.859a2.268,2.268,0,0,1,.453-1.359,3,3,0,0,1,1.281-.98,4.669,4.669,0,0,1,1.859-.355,3.689,3.689,0,0,1,2.48.785A2.747,2.747,0,0,1-.867-5.617v3.664A4.041,4.041,0,0,0-.531-.133V0ZM-4.68-1.57a1.945,1.945,0,0,0,.922-.223,1.462,1.462,0,0,0,.625-.6V-3.844h-.844q-1.7,0-1.8,1.172l-.008.133a.9.9,0,0,0,.3.7A1.153,1.153,0,0,0-4.68-1.57Z" transform="translate(524 619)" fill="#fff"/>
    <path id="Trazado_112891" data-name="Trazado 112891" d="M1.016,15V3.625h3.5A5.315,5.315,0,0,1,7.2,4.3,4.712,4.712,0,0,1,9.047,6.223a5.928,5.928,0,0,1,.664,2.832v.523a5.945,5.945,0,0,1-.652,2.82,4.672,4.672,0,0,1-1.84,1.914A5.355,5.355,0,0,1,4.539,15ZM3.359,5.523v7.594H4.492a2.545,2.545,0,0,0,2.1-.9,4.06,4.06,0,0,0,.742-2.57v-.6a4.124,4.124,0,0,0-.719-2.629,2.537,2.537,0,0,0-2.1-.895Zm11.8,9.633a4.15,4.15,0,0,1-3.027-1.141,4.054,4.054,0,0,1-1.168-3.039v-.219a5.106,5.106,0,0,1,.492-2.277,3.612,3.612,0,0,1,1.395-1.547,3.914,3.914,0,0,1,2.059-.543,3.508,3.508,0,0,1,2.73,1.094,4.444,4.444,0,0,1,1,3.1v.922H13.25a2.1,2.1,0,0,0,.66,1.328,2,2,0,0,0,1.395.5,2.437,2.437,0,0,0,2.039-.945l1.109,1.242a3.389,3.389,0,0,1-1.375,1.121A4.511,4.511,0,0,1,15.156,15.156ZM14.9,8.211a1.411,1.411,0,0,0-1.09.455,2.357,2.357,0,0,0-.535,1.3h3.141V9.788a1.681,1.681,0,0,0-.406-1.165A1.456,1.456,0,0,0,14.9,8.211Zm9.594,4.453a.727.727,0,0,0-.41-.652,4.659,4.659,0,0,0-1.316-.426q-3.016-.633-3.016-2.562a2.323,2.323,0,0,1,.934-1.879,3.766,3.766,0,0,1,2.441-.754,4.053,4.053,0,0,1,2.574.758,2.388,2.388,0,0,1,.965,1.969H24.406a1.092,1.092,0,0,0-.312-.8A1.322,1.322,0,0,0,23.117,8a1.351,1.351,0,0,0-.883.258.814.814,0,0,0-.312.656.7.7,0,0,0,.355.605,3.657,3.657,0,0,0,1.2.4A9.8,9.8,0,0,1,24.9,10.3a2.336,2.336,0,0,1,1.789,2.273,2.2,2.2,0,0,1-.992,1.871,4.28,4.28,0,0,1-2.562.715,4.47,4.47,0,0,1-1.887-.379,3.166,3.166,0,0,1-1.293-1.039,2.414,2.414,0,0,1-.469-1.426h2.141a1.179,1.179,0,0,0,.445.922,1.766,1.766,0,0,0,1.109.32,1.635,1.635,0,0,0,.98-.246A.766.766,0,0,0,24.492,12.664ZM33.039,15a2.507,2.507,0,0,1-.227-.758,2.732,2.732,0,0,1-2.133.914,3,3,0,0,1-2.059-.719,2.312,2.312,0,0,1-.816-1.812,2.389,2.389,0,0,1,1-2.062,4.915,4.915,0,0,1,2.879-.727h1.039V9.352a1.393,1.393,0,0,0-.3-.937,1.183,1.183,0,0,0-.949-.352,1.345,1.345,0,0,0-.895.273.929.929,0,0,0-.324.75H27.992a2.268,2.268,0,0,1,.453-1.359,3,3,0,0,1,1.281-.98,4.669,4.669,0,0,1,1.859-.355,3.689,3.689,0,0,1,2.48.785,2.747,2.747,0,0,1,.918,2.207v3.664a4.041,4.041,0,0,0,.336,1.82V15Zm-1.867-1.57a1.945,1.945,0,0,0,.922-.223,1.462,1.462,0,0,0,.625-.6V11.156h-.844q-1.7,0-1.8,1.172l-.008.133a.9.9,0,0,0,.3.7A1.153,1.153,0,0,0,31.172,13.43Zm10.3-4.766a6.134,6.134,0,0,0-.812-.062,1.654,1.654,0,0,0-1.68.867V15H36.719V6.547h2.133l.063,1.008A2.092,2.092,0,0,1,40.8,6.391a2.366,2.366,0,0,1,.7.1Zm5.836,0a6.134,6.134,0,0,0-.812-.062,1.654,1.654,0,0,0-1.68.867V15H42.555V6.547h2.133l.063,1.008a2.092,2.092,0,0,1,1.883-1.164,2.366,2.366,0,0,1,.7.1Zm.453,2.031a5.013,5.013,0,0,1,.484-2.242A3.546,3.546,0,0,1,49.637,6.93a4.069,4.069,0,0,1,2.113-.539,3.849,3.849,0,0,1,2.793,1.047,4.2,4.2,0,0,1,1.207,2.844l.016.578A4.418,4.418,0,0,1,54.68,13.98a4.209,4.209,0,0,1-5.832,0,4.5,4.5,0,0,1-1.09-3.187Zm2.258.16a3.16,3.16,0,0,0,.453,1.843,1.628,1.628,0,0,0,2.578.008,3.457,3.457,0,0,0,.461-2.015,3.128,3.128,0,0,0-.461-1.831,1.5,1.5,0,0,0-1.3-.649,1.474,1.474,0,0,0-1.281.646A3.516,3.516,0,0,0,50.016,10.856ZM59.539,15H57.273V3h2.266Zm4.242,0H61.516V3h2.266Zm1.508-4.3a5.013,5.013,0,0,1,.484-2.242A3.546,3.546,0,0,1,67.168,6.93a4.069,4.069,0,0,1,2.113-.539,3.849,3.849,0,0,1,2.793,1.047,4.2,4.2,0,0,1,1.207,2.844l.016.578a4.418,4.418,0,0,1-1.086,3.121,4.209,4.209,0,0,1-5.832,0,4.5,4.5,0,0,1-1.09-3.187Zm2.258.16A3.16,3.16,0,0,0,68,12.7a1.628,1.628,0,0,0,2.578.008,3.457,3.457,0,0,0,.461-2.015,3.128,3.128,0,0,0-.461-1.831,1.5,1.5,0,0,0-1.3-.649A1.474,1.474,0,0,0,68,8.856,3.516,3.516,0,0,0,67.547,10.856Z" transform="translate(565 832)" fill="#fff"/>
    <path id="Trazado_112890" data-name="Trazado 112890" d="M9.945,11.211A4.025,4.025,0,0,1,8.59,14.1a4.76,4.76,0,0,1-3.223,1.055,4.28,4.28,0,0,1-3.441-1.473A6.038,6.038,0,0,1,.672,9.641v-.7A6.819,6.819,0,0,1,1.25,6.055,4.332,4.332,0,0,1,2.9,4.137a4.629,4.629,0,0,1,2.5-.668A4.637,4.637,0,0,1,8.57,4.523,4.326,4.326,0,0,1,9.961,7.484H7.617A2.376,2.376,0,0,0,7,5.887a2.271,2.271,0,0,0-1.605-.5,1.991,1.991,0,0,0-1.754.84,4.707,4.707,0,0,0-.6,2.605V9.7a5.038,5.038,0,0,0,.559,2.7,1.954,1.954,0,0,0,1.762.852,2.314,2.314,0,0,0,1.621-.5A2.241,2.241,0,0,0,7.6,11.211ZM13.719,15H11.453V6.547h2.266ZM11.32,4.359a1.112,1.112,0,0,1,.34-.836,1.277,1.277,0,0,1,.926-.328,1.28,1.28,0,0,1,.922.328,1.105,1.105,0,0,1,.344.836A1.108,1.108,0,0,1,13.5,5.2a1.448,1.448,0,0,1-1.836,0A1.108,1.108,0,0,1,11.32,4.359Zm8.148,10.8a4.15,4.15,0,0,1-3.027-1.141,4.054,4.054,0,0,1-1.168-3.039v-.219a5.106,5.106,0,0,1,.492-2.277A3.612,3.612,0,0,1,17.16,6.934a3.914,3.914,0,0,1,2.059-.543,3.508,3.508,0,0,1,2.73,1.094,4.444,4.444,0,0,1,1,3.1v.922H17.563a2.1,2.1,0,0,0,.66,1.328,2,2,0,0,0,1.395.5,2.437,2.437,0,0,0,2.039-.945l1.109,1.242a3.389,3.389,0,0,1-1.375,1.121A4.511,4.511,0,0,1,19.469,15.156Zm-.258-6.945a1.411,1.411,0,0,0-1.09.455,2.357,2.357,0,0,0-.535,1.3h3.141V9.788a1.681,1.681,0,0,0-.406-1.165A1.456,1.456,0,0,0,19.211,8.211Zm9.766.453a6.134,6.134,0,0,0-.812-.062,1.654,1.654,0,0,0-1.68.867V15H24.227V6.547h2.133l.063,1.008A2.092,2.092,0,0,1,28.3,6.391a2.366,2.366,0,0,1,.7.1Zm5.836,0A6.134,6.134,0,0,0,34,8.6a1.654,1.654,0,0,0-1.68.867V15H30.063V6.547H32.2l.063,1.008a2.092,2.092,0,0,1,1.883-1.164,2.366,2.366,0,0,1,.7.1Zm4.828,6.492a4.15,4.15,0,0,1-3.027-1.141,4.054,4.054,0,0,1-1.168-3.039v-.219a5.106,5.106,0,0,1,.492-2.277,3.612,3.612,0,0,1,1.395-1.547,3.914,3.914,0,0,1,2.059-.543,3.508,3.508,0,0,1,2.73,1.094,4.444,4.444,0,0,1,1,3.1v.922H37.734a2.1,2.1,0,0,0,.66,1.328,2,2,0,0,0,1.395.5,2.437,2.437,0,0,0,2.039-.945l1.109,1.242a3.389,3.389,0,0,1-1.375,1.121A4.511,4.511,0,0,1,39.641,15.156Zm-.258-6.945a1.411,1.411,0,0,0-1.09.455,2.357,2.357,0,0,0-.535,1.3H40.9V9.788a1.681,1.681,0,0,0-.406-1.165A1.456,1.456,0,0,0,39.383,8.211Z" transform="translate(336 832)" fill="#fff"/>
    <g id="Accounting" transform="translate(298.341 530.863)">
      <g id="Paper_Sheet" data-name="Paper Sheet" transform="translate(132.105 162)">
        <path id="Trazado_110678" data-name="Trazado 110678" d="M279.983,162h-58.57V265.542h77.952V177.157C293.073,164.362,279.983,162,279.983,162Z" transform="translate(-221.413 -162)" fill="#f4f4f4"/>
        <rect id="Rectángulo_35117" data-name="Rectángulo 35117" width="25.689" height="5.659" transform="translate(44.692 10.433)" fill="#c4c4c4"/>
        <rect id="Rectángulo_35118" data-name="Rectángulo 35118" width="25.689" height="1.575" transform="translate(44.692 17.716)" fill="#c4c4c4"/>
        <rect id="Rectángulo_35119" data-name="Rectángulo 35119" width="25.689" height="1.575" transform="translate(44.692 19.685)" fill="#c4c4c4"/>
        <path id="Trazado_110679" data-name="Trazado 110679" d="M622.223,162c5.906,8.464,3.248,18.012,3.248,18.012,9.547-5.61,16.135-2.854,16.135-2.854C635.314,164.362,622.223,162,622.223,162Z" transform="translate(-563.653 -162)" fill="#d8d8d8"/>
        <rect id="Rectángulo_35120" data-name="Rectángulo 35120" width="3.74" height="29.724" transform="translate(12.507 30.118)" fill="#42aa92"/>
        <rect id="Rectángulo_35121" data-name="Rectángulo 35121" width="3.74" height="18.569" transform="translate(17.231 41.273)" fill="#342f2d"/>
        <rect id="Rectángulo_35122" data-name="Rectángulo 35122" width="3.74" height="23.95" transform="translate(22.349 35.892)" fill="#41cfc1"/>
        <path id="Trazado_110680" data-name="Trazado 110680" d="M283.92,347.092V305.8h-.492v41.781h41.535v-.492Z" transform="translate(-274.366 -284.79)" fill="#3c3c3b"/>
        <rect id="Rectángulo_35123" data-name="Rectángulo 35123" width="3.74" height="15.453" transform="translate(39.081 44.389)" fill="#42aa92"/>
        <rect id="Rectángulo_35124" data-name="Rectángulo 35124" width="3.74" height="23.95" transform="translate(34.456 35.892)" fill="#342f2d"/>
        <rect id="Rectángulo_35125" data-name="Rectángulo 35125" width="3.74" height="20.866" transform="translate(44.003 38.976)" fill="#41cfc1"/>
        <circle id="Elipse_4795" data-name="Elipse 4795" cx="6.496" cy="6.496" r="6.496" transform="translate(28.74 9.596)" fill="#42aa92"/>
        <rect id="Rectángulo_35126" data-name="Rectángulo 35126" width="4.856" height="4.856" transform="translate(52.008 39.829)" fill="#42aa92"/>
        <rect id="Rectángulo_35127" data-name="Rectángulo 35127" width="4.856" height="4.856" transform="translate(52.008 47.703)" fill="#342f2d"/>
        <rect id="Rectángulo_35128" data-name="Rectángulo 35128" width="4.856" height="4.856" transform="translate(52.008 55.577)" fill="#41cfc1"/>
        <rect id="Rectángulo_35129" data-name="Rectángulo 35129" width="11.155" height="1.444" transform="translate(59.226 39.829)" fill="#c4c4c4"/>
        <rect id="Rectángulo_35130" data-name="Rectángulo 35130" width="11.155" height="2.098" transform="translate(59.226 41.946)" fill="#c4c4c4"/>
        <rect id="Rectángulo_35131" data-name="Rectángulo 35131" width="11.155" height="1.444" transform="translate(59.226 47.703)" fill="#c4c4c4"/>
        <rect id="Rectángulo_35132" data-name="Rectángulo 35132" width="11.155" height="2.098" transform="translate(59.226 49.82)" fill="#c4c4c4"/>
        <rect id="Rectángulo_35133" data-name="Rectángulo 35133" width="11.155" height="1.444" transform="translate(59.226 55.577)" fill="#c4c4c4"/>
        <rect id="Rectángulo_35134" data-name="Rectángulo 35134" width="11.155" height="2.098" transform="translate(59.226 57.694)" fill="#c4c4c4"/>
        <rect id="Rectángulo_35135" data-name="Rectángulo 35135" width="31.89" height="8.071" transform="translate(9.062 66.732)" fill="#c4c4c4"/>
        <rect id="Rectángulo_35136" data-name="Rectángulo 35136" width="13.287" height="12.664" transform="translate(9.062 76.509)" fill="#335951"/>
        <rect id="Rectángulo_35137" data-name="Rectángulo 35137" width="16.732" height="0.853" transform="translate(24.219 76.509)" fill="#c4c4c4"/>
        <rect id="Rectángulo_35138" data-name="Rectángulo 35138" width="16.732" height="0.853" transform="translate(24.219 78.477)" fill="#c4c4c4"/>
        <rect id="Rectángulo_35139" data-name="Rectángulo 35139" width="16.732" height="0.853" transform="translate(24.219 80.446)" fill="#c4c4c4"/>
        <rect id="Rectángulo_35140" data-name="Rectángulo 35140" width="16.732" height="0.853" transform="translate(24.219 82.414)" fill="#c4c4c4"/>
        <rect id="Rectángulo_35141" data-name="Rectángulo 35141" width="16.732" height="0.853" transform="translate(24.219 84.383)" fill="#c4c4c4"/>
        <rect id="Rectángulo_35142" data-name="Rectángulo 35142" width="16.732" height="0.853" transform="translate(24.219 86.351)" fill="#c4c4c4"/>
        <rect id="Rectángulo_35143" data-name="Rectángulo 35143" width="16.732" height="0.853" transform="translate(24.219 88.32)" fill="#c4c4c4"/>
        <rect id="Rectángulo_35144" data-name="Rectángulo 35144" width="31.89" height="3.346" transform="translate(9.062 91.141)" fill="#c4c4c4"/>
        <rect id="Rectángulo_35145" data-name="Rectángulo 35145" width="24.508" height="1.903" transform="translate(45.873 66.732)" fill="#c4c4c4"/>
        <rect id="Rectángulo_35146" data-name="Rectángulo 35146" width="24.508" height="14.042" transform="translate(45.873 70.767)" fill="#c4c4c4"/>
        <rect id="Rectángulo_35147" data-name="Rectángulo 35147" width="16.732" height="0.853" transform="translate(53.648 85.925)" fill="#c4c4c4"/>
        <rect id="Rectángulo_35148" data-name="Rectángulo 35148" width="16.732" height="0.853" transform="translate(53.648 87.893)" fill="#c4c4c4"/>
        <rect id="Rectángulo_35149" data-name="Rectángulo 35149" width="16.732" height="0.853" transform="translate(53.648 89.862)" fill="#c4c4c4"/>
      </g>
      <g id="Calculator" transform="translate(204.373 207.561)">
        <path id="Rectángulo_35150" data-name="Rectángulo 35150" d="M16.553,0h20.1A16.551,16.551,0,0,1,53.206,16.551V52.715A16.551,16.551,0,0,1,36.655,69.266H16.549A16.549,16.549,0,0,1,0,52.717V16.553A16.553,16.553,0,0,1,16.553,0Z" fill="#352f2d"/>
        <path id="Trazado_110681" data-name="Trazado 110681" d="M788.232,508.042h-39.5a2.419,2.419,0,0,0-2.418,2.419v11.018a2.419,2.419,0,0,0,2.418,2.419h39.5a2.419,2.419,0,0,0,2.419-2.419V510.461A2.419,2.419,0,0,0,788.232,508.042Z" transform="translate(-741.876 -503.037)" fill="#88bfb7"/>
        <path id="Trazado_110682" data-name="Trazado 110682" d="M878.574,508.042h-5.194L861.6,523.371a2.16,2.16,0,0,0-.3.526h5.314l11.571-15.061A2.133,2.133,0,0,0,878.574,508.042Z" transform="translate(-840.068 -503.037)" fill="#ccfef8"/>
        <path id="Trazado_110683" data-name="Trazado 110683" d="M954.935,517.557a1.168,1.168,0,0,0,1.638-.214l7.146-9.3h-2.945l-6.053,7.878A1.168,1.168,0,0,0,954.935,517.557Z" transform="translate(-919.625 -503.037)" fill="#ccfef8"/>
        <path id="Rectángulo_35151" data-name="Rectángulo 35151" d="M5.442,0h0a5.441,5.441,0,0,1,5.441,5.441V15.788A5.442,5.442,0,0,1,5.442,21.23h0A5.442,5.442,0,0,1,0,15.788V5.442A5.442,5.442,0,0,1,5.442,0Z" transform="translate(37.825 42.695)" fill="#41cfc1"/>
        <path id="Rectángulo_35152" data-name="Rectángulo 35152" d="M4.884,0h0A4.885,4.885,0,0,1,9.77,4.885v0A4.885,4.885,0,0,1,4.885,9.77h0A4.885,4.885,0,0,1,0,4.885v0A4.884,4.884,0,0,1,4.884,0Z" transform="translate(4.535 54.155)" fill="#776b69"/>
        <path id="Rectángulo_35153" data-name="Rectángulo 35153" d="M4.885,0h0A4.885,4.885,0,0,1,9.77,4.885v0A4.885,4.885,0,0,1,4.885,9.77h0A4.885,4.885,0,0,1,0,4.885v0A4.885,4.885,0,0,1,4.885,0Z" transform="translate(15.525 54.155)" fill="#776b69"/>
        <path id="Rectángulo_35154" data-name="Rectángulo 35154" d="M4.884,0h0A4.885,4.885,0,0,1,9.77,4.885v0A4.885,4.885,0,0,1,4.885,9.77h0A4.884,4.884,0,0,1,0,4.886v0A4.884,4.884,0,0,1,4.884,0Z" transform="translate(26.812 54.155)" fill="#776b69"/>
        <path id="Rectángulo_35155" data-name="Rectángulo 35155" d="M4.884,0h0A4.885,4.885,0,0,1,9.77,4.885v0A4.885,4.885,0,0,1,4.885,9.77h0A4.885,4.885,0,0,1,0,4.885v0A4.884,4.884,0,0,1,4.884,0Z" transform="translate(4.535 42.695)" fill="#776b69"/>
        <path id="Rectángulo_35156" data-name="Rectángulo 35156" d="M4.885,0h0A4.885,4.885,0,0,1,9.77,4.885v0A4.885,4.885,0,0,1,4.885,9.77h0A4.885,4.885,0,0,1,0,4.885v0A4.885,4.885,0,0,1,4.885,0Z" transform="translate(15.525 42.695)" fill="#776b69"/>
        <path id="Rectángulo_35157" data-name="Rectángulo 35157" d="M4.884,0h0A4.885,4.885,0,0,1,9.77,4.885v0A4.885,4.885,0,0,1,4.885,9.77h0A4.884,4.884,0,0,1,0,4.885v0A4.884,4.884,0,0,1,4.884,0Z" transform="translate(26.812 42.695)" fill="#776b69"/>
        <rect id="Rectángulo_35158" data-name="Rectángulo 35158" width="9.77" height="9.77" rx="4.885" transform="translate(4.387 31.207)" fill="#776b69"/>
        <path id="Rectángulo_35159" data-name="Rectángulo 35159" d="M4.885,0h0A4.884,4.884,0,0,1,9.77,4.884v0A4.885,4.885,0,0,1,4.885,9.77h0A4.885,4.885,0,0,1,0,4.885v0A4.885,4.885,0,0,1,4.885,0Z" transform="translate(15.377 31.207)" fill="#776b69"/>
        <path id="Rectángulo_35160" data-name="Rectángulo 35160" d="M4.885,0h0A4.885,4.885,0,0,1,9.77,4.885v0A4.885,4.885,0,0,1,4.885,9.77h0A4.884,4.884,0,0,1,0,4.885v0A4.885,4.885,0,0,1,4.885,0Z" transform="translate(26.664 31.207)" fill="#776b69"/>
        <path id="Rectángulo_35161" data-name="Rectángulo 35161" d="M4.885,0H6a4.884,4.884,0,0,1,4.884,4.884v0A4.884,4.884,0,0,1,6,9.77H4.885A4.885,4.885,0,0,1,0,4.885v0A4.885,4.885,0,0,1,4.885,0Z" transform="translate(37.825 31.207)" fill="#42aa92"/>
        <path id="Rectángulo_35162" data-name="Rectángulo 35162" d="M2.452,0H29.594a2.452,2.452,0,0,1,2.452,2.452v0A2.452,2.452,0,0,1,29.595,4.9H2.452A2.452,2.452,0,0,1,0,2.452v0A2.452,2.452,0,0,1,2.452,0Z" transform="translate(4.387 23.682)" fill="#e04327"/>
        <path id="Rectángulo_35163" data-name="Rectángulo 35163" d="M2.536,0H7.666A2.536,2.536,0,0,1,10.2,2.536v0A2.536,2.536,0,0,1,7.666,5.073H2.536A2.536,2.536,0,0,1,0,2.536v0A2.536,2.536,0,0,1,2.536,0Z" transform="translate(38.506 23.682)" fill="#982023"/>
      </g>
      <g id="Pen" transform="translate(116.822 218.662)">
        <path id="Trazado_110684" data-name="Trazado 110684" d="M124.034,559.284a2.219,2.219,0,0,1-3.116-.377l-3.623-4.621a2.22,2.22,0,0,1,.377-3.116l1.2-.941a2.22,2.22,0,0,1,3.116.377l3.624,4.621a2.22,2.22,0,0,1-.377,3.116Z" transform="translate(-116.822 -549.756)" fill="#352f2d"/>
        <path id="Trazado_110685" data-name="Trazado 110685" d="M174.9,618.953a2.215,2.215,0,0,0-.354-.658L148.3,584.835l-1.541-1.964-1.363-1.738c-.027-.035-.057-.067-.086-.1a2.218,2.218,0,0,0-3.03-.278l-2.838,2.226a2.22,2.22,0,0,0-.377,3.116l1.363,1.738,1.541,1.965,26.238,33.46a2.2,2.2,0,0,0,.587.52c.085.07.172.137.26.2,2.242,1.653,5.361,1.727,5.871,1.327C175.57,624.807,176.2,621.571,174.9,618.953Z" transform="translate(-135.415 -575.822)" fill="#e04327"/>
        <path id="Trazado_110686" data-name="Trazado 110686" d="M378.385,876.766a.74.74,0,0,1-1.039-.126l-2.368-3.02a.74.74,0,0,1,.125-1.039h0a.74.74,0,0,1,1.039.125l2.368,3.02a.74.74,0,0,1-.125,1.039Z" transform="translate(-337.12 -825.273)" fill="#352f2d"/>
        <path id="Trazado_110687" data-name="Trazado 110687" d="M214.185,629.689c.64-.5,1.267-3.737-.033-6.355a2.216,2.216,0,0,0-.354-.658l-26.238-33.46-1.541-1.964-1.363-1.739c-.027-.035-.057-.067-.086-.1l23.744,42.949C210.556,630.015,213.674,630.089,214.185,629.689Z" transform="translate(-174.669 -580.203)" fill="#ed5b48"/>
        <rect id="Rectángulo_35164" data-name="Rectángulo 35164" width="8.046" height="2.497" transform="matrix(0.787, -0.617, 0.617, 0.787, 5.018, 12.013)" fill="#352f2d"/>
        <path id="Trazado_110688" data-name="Trazado 110688" d="M175.731,610.06a.909.909,0,0,1-1.277-.154l-9.986-12.735a.909.909,0,0,1,.154-1.277h0a.909.909,0,0,1,1.277.154l9.986,12.734a.909.909,0,0,1-.154,1.277Z" transform="translate(-157.34 -588.987)" fill="#352f2d"/>
      </g>
      <g id="Pie_Chart" data-name="Pie Chart" transform="translate(201.008 167.642)">
        <path id="Trazado_110689" data-name="Trazado 110689" d="M812.121,200.611v16.206h16.205A16.2,16.2,0,0,0,812.121,200.611Z" transform="translate(-794.705 -200.611)" fill="#42aa92"/>
        <path id="Trazado_110690" data-name="Trazado 110690" d="M709.142,211.156a16.206,16.206,0,1,0,12,27.1l-12-10.9Z" transform="translate(-692.936 -209.615)" fill="#ed5b48"/>
        <path id="Trazado_110691" data-name="Trazado 110691" d="M812.876,318.29l12,10.9a16.147,16.147,0,0,0,4.21-10.9Z" transform="translate(-795.349 -301.094)" fill="#342f2d"/>
      </g>
      <g id="Coin" transform="translate(122.708 258.304)">
        <g id="Grupo_88889" data-name="Grupo 88889" transform="translate(54.991 0.923)">
          <g id="Grupo_88886" data-name="Grupo 88886" transform="translate(2.455 9.3)">
            <path id="Trazado_110692" data-name="Trazado 110692" d="M572.316,913.942c0-1.235-.724-2.236-1.617-2.236H551.84c-.893,0-1.617,1-1.617,2.236v2.345c0,.07,0,.139.008.207,0,.044-.008.088-.008.133,0,2.718,4.945,4.922,11.046,4.922s11.046-2.2,11.046-4.922c0-.044,0-.089-.008-.133.005-.068.008-.137.008-.207Z" transform="translate(-550.223 -908.68)" fill="#f4bd31"/>
            <path id="Trazado_110693" data-name="Trazado 110693" d="M572.316,895.921c0,2.718-4.946,4.921-11.046,4.921s-11.046-2.2-11.046-4.921S555.168,891,561.269,891,572.316,893.2,572.316,895.921Z" transform="translate(-550.223 -891)" fill="#f2d453"/>
          </g>
          <g id="Grupo_88887" data-name="Grupo 88887" transform="translate(0 4.614)">
            <path id="Trazado_110694" data-name="Trazado 110694" d="M555.516,881.871c0-1.235-.724-2.236-1.617-2.236H535.04c-.893,0-1.617,1-1.617,2.236v2.345c0,.07,0,.139.008.207,0,.044-.008.089-.008.133,0,2.718,4.946,4.921,11.046,4.921s11.046-2.2,11.046-4.921c0-.045,0-.089-.008-.133,0-.068.008-.137.008-.207Z" transform="translate(-533.423 -876.609)" fill="#f4bd31"/>
            <path id="Trazado_110695" data-name="Trazado 110695" d="M555.516,863.852c0,2.718-4.946,4.921-11.046,4.921s-11.046-2.2-11.046-4.921,4.946-4.921,11.046-4.921S555.516,861.134,555.516,863.852Z" transform="translate(-533.423 -858.931)" fill="#f2d453"/>
          </g>
          <g id="Grupo_88888" data-name="Grupo 88888" transform="translate(3.332)">
            <path id="Trazado_110696" data-name="Trazado 110696" d="M578.316,850.3c0-1.234-.724-2.236-1.617-2.236H557.84c-.893,0-1.617,1-1.617,2.236v2.346c0,.07,0,.139.008.207,0,.044-.008.089-.008.133,0,2.718,4.945,4.922,11.046,4.922s11.046-2.2,11.046-4.922c0-.044,0-.089-.008-.133.005-.068.008-.137.008-.207Z" transform="translate(-556.223 -845.035)" fill="#f4bd31"/>
            <path id="Trazado_110697" data-name="Trazado 110697" d="M578.316,832.278c0,2.718-4.946,4.921-11.046,4.921s-11.046-2.2-11.046-4.921,4.945-4.921,11.046-4.921S578.316,829.56,578.316,832.278Z" transform="translate(-556.223 -827.357)" fill="#f2d453"/>
          </g>
        </g>
        <g id="Grupo_88890" data-name="Grupo 88890" transform="translate(32.78 12.825)">
          <path id="Trazado_110698" data-name="Trazado 110698" d="M402.8,930.041c.026-1.192-.651-2.173-1.513-2.192l-18.2-.4c-.861-.019-1.582.932-1.608,2.123l-.05,2.263c0,.067,0,.134,0,.2,0,.043-.009.086-.01.129-.058,2.623,4.667,4.855,10.555,4.985s10.707-1.891,10.765-4.513c0-.043,0-.086,0-.129.006-.066.01-.132.012-.2Z" transform="translate(-381.425 -924.721)" fill="#f4bd31"/>
          <path id="Trazado_110699" data-name="Trazado 110699" d="M403.189,913.8c-.058,2.623-4.877,4.643-10.765,4.513s-10.613-2.362-10.555-4.985,4.877-4.643,10.765-4.513S403.247,911.173,403.189,913.8Z" transform="translate(-381.804 -908.804)" fill="#f2d453"/>
        </g>
        <g id="Grupo_88891" data-name="Grupo 88891" transform="translate(1.754 6.36)">
          <path id="Trazado_110700" data-name="Trazado 110700" d="M191.3,887.612c0-1.241-.727-2.247-1.624-2.247h-18.95c-.9,0-1.625,1.006-1.625,2.247v2.357c0,.07,0,.139.008.208,0,.044-.008.089-.008.134,0,2.731,4.969,4.945,11.1,4.945s11.1-2.214,11.1-4.945c0-.045,0-.089-.008-.134,0-.069.008-.138.008-.208Z" transform="translate(-169.103 -882.325)" fill="#f4bd31"/>
          <path id="Trazado_110701" data-name="Trazado 110701" d="M191.3,869.508c0,2.731-4.969,4.945-11.1,4.945s-11.1-2.214-11.1-4.945,4.969-4.945,11.1-4.945S191.3,866.777,191.3,869.508Z" transform="translate(-169.103 -864.563)" fill="#f2d453"/>
        </g>
        <g id="Grupo_88892" data-name="Grupo 88892" transform="translate(42.929)">
          <path id="Trazado_110702" data-name="Trazado 110702" d="M467.75,822.877a1.938,1.938,0,0,0-2.645-.372l-12.651,13.16a1.939,1.939,0,0,0,.476,2.628l1.637,1.573c.049.047.1.091.15.134.029.031.057.065.088.095,1.9,1.823,6.752-.15,10.844-4.408s5.872-9.186,3.976-11.009c-.031-.03-.065-.056-.1-.084-.045-.049-.091-.1-.14-.144Z" transform="translate(-451.934 -821.969)" fill="#f4bd31"/>
          <path id="Trazado_110703" data-name="Trazado 110703" d="M466.457,821.721c1.9,1.823.117,6.752-3.975,11.01s-8.948,6.23-10.844,4.407-.117-6.752,3.976-11.009S464.561,819.9,466.457,821.721Z" transform="translate(-450.878 -821.042)" fill="#f2d453"/>
        </g>
        <g id="Grupo_88893" data-name="Grupo 88893" transform="translate(0 2.405)">
          <path id="Trazado_110704" data-name="Trazado 110704" d="M179.3,860.548c0-1.241-.727-2.247-1.624-2.247h-18.95c-.9,0-1.625,1.006-1.625,2.247V862.9c0,.07,0,.139.008.208,0,.044-.008.089-.008.134,0,2.731,4.969,4.945,11.1,4.945s11.1-2.214,11.1-4.945c0-.045,0-.09-.008-.134,0-.069.008-.138.008-.208Z" transform="translate(-157.103 -855.261)" fill="#f4bd31"/>
          <ellipse id="Elipse_4796" data-name="Elipse 4796" cx="11.099" cy="4.945" rx="11.099" ry="4.945" fill="#f2d453"/>
        </g>
      </g>
    </g>
  </g>
</svg>
