<svg xmlns="http://www.w3.org/2000/svg" xmlns:xlink="http://www.w3.org/1999/xlink" width="519.458" height="455.721" viewBox="0 0 519.458 455.721">
  <defs>
    <clipPath id="clip-path">
      <path id="Trazado_112798" data-name="Trazado 112798" d="M120.972,287.3S79.79,336.3,83.34,398.778,103.2,490.294,103.2,490.294h63.192l7.121-63.826,2.844,63.826h60.352s44.727-118.5-31.245-203.7Z" transform="translate(-83.123 -286.594)" fill="none"/>
    </clipPath>
    <clipPath id="clip-path-2">
      <path id="Rectángulo_35257" data-name="Rectángulo 35257" d="M1.654,0H25.367a1.654,1.654,0,0,1,1.654,1.654V5.715A1.654,1.654,0,0,1,25.367,7.37H1.655A1.655,1.655,0,0,1,0,5.715V1.654A1.654,1.654,0,0,1,1.654,0Z" fill="none"/>
    </clipPath>
    <clipPath id="clip-path-3">
      <rect id="Rectángulo_35273" data-name="Rectángulo 35273" width="27.022" height="7.37" rx="1.654" fill="none"/>
    </clipPath>
  </defs>
  <g id="Grupo_90439" data-name="Grupo 90439" transform="translate(-874.031 -435.137)">
    <g id="Grupo_90438" data-name="Grupo 90438">
      <g id="Grupo_90437" data-name="Grupo 90437">
        <g id="Grupo_90339" data-name="Grupo 90339" transform="translate(609.033 -981.035)">
          <rect id="Rectángulo_33014" data-name="Rectángulo 33014" width="287.062" height="287.062" rx="65.683" transform="translate(264.999 1619.156) rotate(-45)" fill="#3b4454"/>
        </g>
      </g>
    </g>
    <g id="Grupo_90408" data-name="Grupo 90408" transform="translate(926.672 411.319)">
      <g id="Grupo_90366" data-name="Grupo 90366" transform="translate(15.359 50.097)">
        <g id="Grupo_90344" data-name="Grupo 90344" transform="translate(89.869 4.214)">
          <g id="Grupo_90342" data-name="Grupo 90342">
            <g id="Grupo_90340" data-name="Grupo 90340" transform="translate(51.391)">
              <path id="Trazado_112783" data-name="Trazado 112783" d="M163.671,59.483s9.712-9.59,29.821-2.13C215.5,65.518,222.6,89.3,217.988,132.97c-4.208,39.806,28.046,38.341-2.84,68.872-24.475,24.193-51.8-10.54-51.8-10.54Z" transform="translate(-163.35 -54.512)" fill="#76413b"/>
              <path id="Trazado_112784" data-name="Trazado 112784" d="M166.29,63.929a21.542,21.542,0,0,1,10.884-4.907,34.071,34.071,0,0,1,12.1.246l2.963.692c.983.249,1.936.6,2.907.89a36.862,36.862,0,0,1,5.65,2.3,33.965,33.965,0,0,1,9.78,7.335,39.057,39.057,0,0,1,3.761,4.867,41.685,41.685,0,0,1,2.9,5.408,57.35,57.35,0,0,1,3.718,11.624,111.534,111.534,0,0,1,2.035,24.141q-.09,6.049-.554,12.073-.225,3.011-.519,6.014l-.3,3-.251,2.952a57.417,57.417,0,0,0,.367,11.793,50.313,50.313,0,0,0,3.007,11.4c1.4,3.7,3.285,7.222,4.9,10.943a28.356,28.356,0,0,1,1.9,5.837,16.149,16.149,0,0,1,0,6.185,27.2,27.2,0,0,1-5.566,10.759,79.086,79.086,0,0,1-8.209,8.809,92.6,92.6,0,0,0,7.756-9.146l.866-1.218.793-1.262c.557-.825.983-1.722,1.458-2.589a20.852,20.852,0,0,0,1.876-5.545,15.278,15.278,0,0,0-.153-5.759,27.084,27.084,0,0,0-1.95-5.527c-1.664-3.593-3.665-7.111-5.194-10.879a52.6,52.6,0,0,1-3.867-23.928l.232-3.041.286-2.983q.283-2.982.49-5.969.438-5.971.5-11.949a111.342,111.342,0,0,0-1.876-23.7c-1.546-7.718-4.448-15.3-9.625-21.22a32.415,32.415,0,0,0-9.185-7.238,35.565,35.565,0,0,0-5.422-2.356c-.939-.309-1.866-.673-2.819-.939l-2.873-.756a33.285,33.285,0,0,0-11.8-.706,24.808,24.808,0,0,0-5.77,1.434A17.948,17.948,0,0,0,166.29,63.929Z" transform="translate(-163.484 -54.697)" fill="#76413b"/>
            </g>
            <g id="Grupo_90341" data-name="Grupo 90341" transform="translate(0 82.656)">
              <path id="Trazado_112785" data-name="Trazado 112785" d="M135.662,144.364s8.875,35.145-1.775,40.116-30.176-11.715-22.72,9.94,63.192,25.206,68.872,3.9-12.781,10.651-9.231-29.82S135.662,144.364,135.662,144.364Z" transform="translate(-109.51 -141.107)" fill="#ffac9d"/>
              <path id="Trazado_112786" data-name="Trazado 112786" d="M135.662,144.364s8.875,35.145-1.775,40.116-30.176-11.715-22.72,9.94,63.192,25.206,68.872,3.9-12.781,10.651-9.231-29.82S135.662,144.364,135.662,144.364Z" transform="translate(-109.51 -141.107)" fill="#e58f83"/>
            </g>
            <path id="Trazado_112787" data-name="Trazado 112787" d="M162.448,75.712s33.016-1.064,39.683,25.211c9.8,38.6-2.788,72.371-29.033,71.352-33.759-1.311-40.454-29.953-43.759-54.02C125.316,88.963,139.7,78.865,162.448,75.712Z" transform="translate(-110.381 -55.476)" fill="#ffac9d"/>
          </g>
          <g id="Grupo_90343" data-name="Grupo 90343" transform="translate(40.718 49.647)">
            <path id="Trazado_112788" data-name="Trazado 112788" d="M182.912,125.39a39.746,39.746,0,0,0,1.456,4.234c.545,1.354,1.159,2.66,1.822,3.933.693,1.257,1.379,2.51,2.187,3.7.772,1.209,1.646,2.352,2.511,3.521l.844,1.139-1.082.544-1.826.917c-.6.313-1.236.58-1.854.872s-1.26.541-1.889.813c-.642.25-1.284.5-1.949.717.492-.5,1.008-.953,1.521-1.413.528-.438,1.041-.9,1.581-1.316s1.064-.861,1.617-1.259l1.645-1.212-.239,1.683a23.168,23.168,0,0,1-3.029-3.563,21.187,21.187,0,0,1-2.237-4.13,19.3,19.3,0,0,1-1.208-4.531A12.63,12.63,0,0,1,182.912,125.39Z" transform="translate(-153.553 -107.383)" fill="#c66161"/>
            <path id="Trazado_112789" data-name="Trazado 112789" d="M164.14,151.615a26.1,26.1,0,0,0,6.962,3.565,25.361,25.361,0,0,0,7.422,1.247,29.713,29.713,0,0,0,3.775-.281,15.912,15.912,0,0,0,1.89-.29c.622-.15,1.252-.283,1.889-.409a16.364,16.364,0,0,0,1.876-.528l1.9-.55c1.245-.441,2.482-.931,3.81-1.311-1.032.877-2.136,1.684-3.266,2.467a32.643,32.643,0,0,1-3.688,1.854,20.334,20.334,0,0,1-4,1.2,22.063,22.063,0,0,1-4.2.448,18.887,18.887,0,0,1-8.189-1.984A15.058,15.058,0,0,1,164.14,151.615Z" transform="translate(-152.712 -108.575)" fill="#c66161"/>
            <path id="Trazado_112790" data-name="Trazado 112790" d="M201.691,120.989a10.962,10.962,0,0,1,.723,6.427,6,6,0,0,1-1.741,3.236,5.782,5.782,0,0,1-3.526,1.474,7.243,7.243,0,0,1-3.6-.613,8.348,8.348,0,0,1-2.818-2.086,9.085,9.085,0,0,1-2.427-6.012,15.722,15.722,0,0,0,3.856,4.486,7.137,7.137,0,0,0,4.791,1.639,3.916,3.916,0,0,0,2.15-.72,4.8,4.8,0,0,0,1.443-1.98A20.167,20.167,0,0,0,201.691,120.989Z" transform="translate(-153.811 -107.182)" fill="#352c38"/>
            <path id="Trazado_112791" data-name="Trazado 112791" d="M171.774,126.793a10.958,10.958,0,0,1,.723,6.428,6.005,6.005,0,0,1-1.74,3.236,5.787,5.787,0,0,1-3.526,1.474,7.229,7.229,0,0,1-3.6-.614,8.346,8.346,0,0,1-2.819-2.085,9.091,9.091,0,0,1-2.426-6.012,15.718,15.718,0,0,0,3.855,4.486,7.144,7.144,0,0,0,4.791,1.639,3.935,3.935,0,0,0,2.151-.72,4.813,4.813,0,0,0,1.442-1.98A20.136,20.136,0,0,0,171.774,126.793Z" transform="translate(-152.451 -107.446)" fill="#352c38"/>
            <path id="Trazado_112792" data-name="Trazado 112792" d="M204.082,114.264a40.538,40.538,0,0,0-5.295-3.723,9.009,9.009,0,0,0-5.436-1.372,6.18,6.18,0,0,0-2.494.94,13.4,13.4,0,0,0-2.242,1.917,53.41,53.41,0,0,0-3.921,5.165,15.776,15.776,0,0,1,2.312-6.407,10.731,10.731,0,0,1,2.433-2.7,7.653,7.653,0,0,1,3.562-1.5,7.95,7.95,0,0,1,3.809.455,10.735,10.735,0,0,1,3.116,1.822A14.661,14.661,0,0,1,204.082,114.264Z" transform="translate(-153.647 -106.525)" fill="#352c38"/>
            <path id="Trazado_112793" data-name="Trazado 112793" d="M173.378,118.376a41.921,41.921,0,0,0-5.709-3.2,12.617,12.617,0,0,0-5.8-1.217,9.293,9.293,0,0,0-5.258,2.254,33.2,33.2,0,0,0-4.446,4.746,13.866,13.866,0,0,1,3.048-6.178,9.37,9.37,0,0,1,6.48-3.38,11.233,11.233,0,0,1,6.931,2.025A15.139,15.139,0,0,1,173.378,118.376Z" transform="translate(-152.168 -106.745)" fill="#352c38"/>
          </g>
        </g>
        <g id="Grupo_90349" data-name="Grupo 90349" transform="translate(64.681 225.741)">
          <g id="Grupo_90347" data-name="Grupo 90347">
            <path id="Trazado_112794" data-name="Trazado 112794" d="M120.972,287.3S79.79,336.3,83.34,398.778,103.2,490.294,103.2,490.294h63.192l7.121-63.826,2.844,63.826h60.352s44.727-118.5-31.245-203.7Z" transform="translate(-83.123 -286.594)" fill="#352c38"/>
            <g id="Grupo_90346" data-name="Grupo 90346" opacity="0.5">
              <g id="Grupo_90345" data-name="Grupo 90345" clip-path="url(#clip-path)">
                <path id="Trazado_112795" data-name="Trazado 112795" d="M154.338,507.047l-.531-.046c3.564-40.637,3.73-43.5,12.376-193.456l1.807-31.331H157.813c-13.377,39.325-19.9,86.71-19.4,140.842a612.96,612.96,0,0,0,5.912,79.889l.115.8H136.1l-.04-.22c-14.934-81.783-14.933-84.654-14.916-119.788l0-3.8c0-40,26.838-94.24,29-98.547l-7.348-2.671c-1.92,2.465-26.464,34.821-33.907,84.216-7.583,50.323,15.128,130.116,17.743,139.05l.106.363-12.629-.744-.056-.174c-1.044-3.279-25.521-80.811-20.6-127.2S128.7,283.655,129,283.214l.437.3c-.3.439-30.549,44.5-35.455,90.759-4.842,45.652,18.877,121.61,20.524,126.81l11.511.678c-3.068-10.547-25.159-89.1-17.652-138.916,7.731-51.308,33.873-84.293,34.136-84.619l.119-.149,8.273,3.009-.137.268c-.291.568-29.082,57.225-29.082,98.572v3.8c-.016,35.058-.017,37.957,14.868,119.473h7.281l-.028-.185a613.573,613.573,0,0,1-5.918-79.962c-.5-54.275,6.054-101.782,19.491-141.2l.061-.18h11.123l-1.839,31.894C158.068,463.537,157.9,466.4,154.338,507.047Z" transform="translate(-83.563 -286.207)" fill="#fdedee"/>
                <path id="Trazado_112796" data-name="Trazado 112796" d="M182.977,505.38l-.531-.049c.135-1.447,13.254-145.658-6.388-226.333l-.052-.214,9.7-4.475.1.28c.076.223,7.7,22.829,12.351,62.232,4.287,36.3,6.864,94.67-5.174,166.785l15.056-2.738a832.725,832.725,0,0,0,5.3-83.97c.484-42.3-2.63-100.186-20.211-135.716l-.109-.22,3.956-2.375.147.176c.116.138,11.68,14.272,20.645,48.791,14.976,57.665,11.361,126.989,5.689,174.991l-.529-.063c5.664-47.936,9.279-117.163-5.661-174.74-8.4-32.354-19.063-46.733-20.411-48.46l-3.14,1.883c17.533,35.643,20.641,93.469,20.157,135.743a830.149,830.149,0,0,1-5.324,84.219l-.025.194-.192.034-15.994,2.908.063-.374c12.1-72.214,9.523-130.667,5.235-166.988-4.368-36.99-11.349-59.148-12.235-61.862l-8.762,4.044C196.219,359.886,183.112,503.933,182.977,505.38Z" transform="translate(-87.347 -286.035)" fill="#fdedee"/>
                <path id="Trazado_112797" data-name="Trazado 112797" d="M231.019,502.089l-.514-.141c9.223-33.653,13.47-66.3,12.627-97.028a246.116,246.116,0,0,0-11.639-69.606,193.615,193.615,0,0,0-19.218-41.948,105.1,105.1,0,0,0-10.114-14.039l.392-.36a105.534,105.534,0,0,1,10.16,14.1,194.167,194.167,0,0,1,19.277,42.055,246.674,246.674,0,0,1,11.675,69.765C244.512,435.672,240.258,468.377,231.019,502.089Z" transform="translate(-88.537 -286.247)" fill="#fdedee"/>
              </g>
            </g>
          </g>
          <g id="Grupo_90348" data-name="Grupo 90348" transform="translate(24.988)" opacity="0.3">
            <path id="Trazado_112799" data-name="Trazado 112799" d="M177.333,437.344c-.345.081-.689.166-1.035.241l-.7,17.9Z" transform="translate(-112.316 -293.45)"/>
            <path id="Trazado_112800" data-name="Trazado 112800" d="M213.682,295.014q-3.332-4.26-7.027-8.42l-84.492.71A153.437,153.437,0,0,0,109.3,306.131C131.6,307.7,180.228,309.074,213.682,295.014Z" transform="translate(-109.301 -286.594)"/>
            <path id="Trazado_112801" data-name="Trazado 112801" d="M177.82,430.794l2.844,63.826h60.352s19.968-51.712,10.541-112.912C241.011,399.554,218.291,422.274,177.82,430.794Z" transform="translate(-112.417 -290.92)"/>
          </g>
        </g>
        <g id="Grupo_90362" data-name="Grupo 90362" transform="translate(0 94.725)">
          <g id="Grupo_90350" data-name="Grupo 90350" transform="translate(0 39.423)">
            <path id="Trazado_112802" data-name="Trazado 112802" d="M100.139,313.649s25.028-30.886-4.793-2.663c-3.558,3.368-6.335,6.116-8.481,8.353L56.472,271.579s48.992-36.743,53.252-40.471-6.922-40.472-6.922-40.472S87.358,191.7,58.6,214.6s-44.732,46.33-43.134,56.979,62.3,75.085,71.357,71.89,9.053-15.975,9.053-15.975,39.406,17.573,2.13-4.26c0,0,43.666,4.26,1.6-4.793C99.606,318.441,141.675,315.246,100.139,313.649Z" transform="translate(-15.359 -190.637)" fill="#ffac9d"/>
            <path id="Trazado_112803" data-name="Trazado 112803" d="M74.144,259.462c14.691-11.066,34.494-26.044,37.134-28.353,4.26-3.727-6.922-40.472-6.922-40.472S88.912,191.7,60.156,214.6q-5.658,4.506-10.639,9.008C53.153,238.017,62.615,249.754,74.144,259.462Z" transform="translate(-16.913 -190.637)" fill="#e58f83"/>
          </g>
          <g id="Grupo_90351" data-name="Grupo 90351" transform="translate(164.571)">
            <path id="Trazado_112804" data-name="Trazado 112804" d="M388.616,160c-1.065-3.195-26.858-14.275-34.313-9.482-1.984,1.275-24.91,19.63-47.814,38.047l-26.014,20.7s-58.544-17.972-64.065-19.221-28.639,29.422-28.639,29.422,9.952,11.856,45.39,21.621,63.783,8.885,71.452,1.324c5.719-5.638,40.683-50.1,54.823-74.609,6.641.717,12.4-3.807,12.4-3.807-29.821,35.145,5.325,3.727,5.325,3.727-18.638,48.459,5.592,1.863,5.592,1.863C383.291,213.787,389.681,163.2,388.616,160Z" transform="translate(-187.772 -149.335)" fill="#ffac9d"/>
            <path id="Trazado_112805" data-name="Trazado 112805" d="M261.192,205.31c-17.594-5.361-41.36-12.552-44.78-13.326-5.521-1.249-28.639,29.422-28.639,29.422s9.952,11.856,45.39,21.621q6.973,1.921,13.545,3.3C256.215,234.9,260.132,220.345,261.192,205.31Z" transform="translate(-187.772 -151.273)" fill="#e58f83"/>
          </g>
          <g id="Grupo_90361" data-name="Grupo 90361" transform="translate(39.693 24.868)">
            <g id="Grupo_90352" data-name="Grupo 90352" transform="translate(130.289 11.959)">
              <path id="Trazado_112806" data-name="Trazado 112806" d="M208.706,240.57s19.171,8.165,29.821,9.585c0,0,15.976-37.276,14.555-52.9,0,0-16.685-2.84-25.561-5.68s-15.62-6.745-34.08.355Z" transform="translate(-193.441 -187.917)" fill="#fdedee"/>
              <path id="Trazado_112807" data-name="Trazado 112807" d="M253.768,197.534s-9.291-1.582-17.7-3.565c-2.821,17.048-14.434,31.848-27.549,44.107l.869,2.769s19.171,8.165,29.821,9.585C239.213,250.431,255.189,213.155,253.768,197.534Z" transform="translate(-194.127 -188.193)" fill="#ead6d8"/>
            </g>
            <g id="Grupo_90353" data-name="Grupo 90353" transform="translate(30.732 11.093)">
              <path id="Trazado_112808" data-name="Trazado 112808" d="M119.47,285.97s-11.716-4.969-17.4-22.72-18.816-55.381-9.94-69.582,25.915-.71,43.666-4.26l27.336,18.105L178.4,190.472a34.819,34.819,0,0,0,21.655,0c11.361-3.9,18.46,10.651,19.171,19.526s19.526,50.767-10.3,64.257c0,0,0,4.97-3.195,7.81C205.738,282.065,173.077,292.715,119.47,285.97Z" transform="translate(-89.14 -187.01)" fill="#fdedee"/>
              <path id="Trazado_112809" data-name="Trazado 112809" d="M113.434,244.079c-11.709-17.19-10.131-43.12-8.149-57.058-5.28-.128-9.8,1.283-13.151,6.647-8.875,14.2,4.26,51.831,9.94,69.582s17.4,22.72,17.4,22.72c53.607,6.746,86.268-3.9,86.268-3.9,3.195-2.84,3.195-7.81,3.195-7.81A26.521,26.521,0,0,0,222.7,260.97C201.115,285.191,129.915,268.274,113.434,244.079Z" transform="translate(-89.14 -187.01)" fill="#ead6d8"/>
            </g>
            <path id="Trazado_112810" data-name="Trazado 112810" d="M134.337,189.236s-23.076-10.3-38.7-3.906-38.7,24.851-38.7,24.851,8.52,31.6,30.175,47.216l24.851-18.105Z" transform="translate(-56.944 -175.745)" fill="#fdedee"/>
            <path id="Trazado_112811" data-name="Trazado 112811" d="M235.468,185.059" transform="translate(-65.063 -175.828)" fill="#ead6d8"/>
            <g id="Grupo_90360" data-name="Grupo 90360" transform="translate(65.322)">
              <g id="Grupo_90358" data-name="Grupo 90358">
                <g id="Grupo_90355" data-name="Grupo 90355" transform="translate(39.406 4.97)">
                  <path id="Trazado_112812" data-name="Trazado 112812" d="M166.662,207.221l2.13-9.94,17.04-16.685,9.94,8.52-17.4,30.531-6.39-15.265Z" transform="translate(-166.662 -180.595)" fill="#ead6d8"/>
                  <g id="Grupo_90354" data-name="Grupo 90354" transform="translate(0 16.826)">
                    <path id="Trazado_112813" data-name="Trazado 112813" d="M166.662,208.023l5.325-2.84-3.225-6.96Z" transform="translate(-166.662 -198.223)" fill="#ddc7cb"/>
                  </g>
                </g>
                <g id="Grupo_90357" data-name="Grupo 90357">
                  <path id="Trazado_112814" data-name="Trazado 112814" d="M164.784,206.984l-3.2-10.3-24.141-21.3-12.07,7.455,19.881,36.921,12.425-16.33Z" transform="translate(-125.378 -175.388)" fill="#ead6d8"/>
                  <g id="Grupo_90356" data-name="Grupo 90356" transform="translate(32.306 21.411)">
                    <path id="Trazado_112815" data-name="Trazado 112815" d="M159.223,204.454l7.1,3.55-3.161-10.185Z" transform="translate(-159.223 -197.82)" fill="#ddc7cb"/>
                  </g>
                </g>
              </g>
              <g id="Grupo_90359" data-name="Grupo 90359" transform="translate(39.717 41.698)">
                <path id="Trazado_112816" data-name="Trazado 112816" d="M172.11,221.748a2.562,2.562,0,1,1-2.448-2.672A2.562,2.562,0,0,1,172.11,221.748Z" transform="translate(-166.987 -219.073)" fill="#ddc7cb"/>
                <path id="Trazado_112817" data-name="Trazado 112817" d="M173.191,248.227a2.563,2.563,0,1,1-2.449-2.672A2.563,2.563,0,0,1,173.191,248.227Z" transform="translate(-167.036 -220.278)" fill="#ddc7cb"/>
                <path id="Trazado_112818" data-name="Trazado 112818" d="M172.785,274.641a2.563,2.563,0,1,1-2.449-2.672A2.563,2.563,0,0,1,172.785,274.641Z" transform="translate(-167.018 -221.479)" fill="#ddc7cb"/>
              </g>
            </g>
          </g>
        </g>
        <g id="Grupo_90365" data-name="Grupo 90365" transform="translate(66.573)">
          <g id="Grupo_90363" data-name="Grupo 90363">
            <path id="Trazado_112819" data-name="Trazado 112819" d="M87.349,179.046a3.179,3.179,0,0,0,.957-1.274A5.326,5.326,0,0,1,89.2,176.4l0,0,.009-.007c2.655-2.034,5.48-3.84,8.043-5.941,2.55-2.078,4.918-4.511,6.023-7.524a11.465,11.465,0,0,0,.585-2.3,6.809,6.809,0,0,0,.11-1.2l.053-1.225a48.053,48.053,0,0,0-.167-4.931,71.057,71.057,0,0,0-1.606-9.77c-1.481-6.456-3.24-12.977-4.09-19.682a74.339,74.339,0,0,1,.018-20.248,62.686,62.686,0,0,1,2.33-9.878c.258-.793.479-1.613.721-2.419.262-.807.551-1.618.846-2.419a41.947,41.947,0,0,1,2.138-4.655,47.432,47.432,0,0,1,13.143-15.417,46.836,46.836,0,0,1,18.221-8.616,38.579,38.579,0,0,1,19.922.871,39.47,39.47,0,0,0-19.685.126,45.889,45.889,0,0,0-17.458,8.888,47.634,47.634,0,0,0-12.371,15.076,45.868,45.868,0,0,0-1.995,4.46c-.277.766-.544,1.53-.8,2.311-.234.794-.443,1.587-.7,2.383a60.532,60.532,0,0,0-2.219,9.6,73.149,73.149,0,0,0-.094,19.684c.388,3.283.951,6.538,1.634,9.788s1.463,6.5,2.1,9.8a72.522,72.522,0,0,1,1.354,10.021,49.493,49.493,0,0,1,.028,5.077l-.093,1.274a7.431,7.431,0,0,1-.156,1.284,12.675,12.675,0,0,1-.719,2.527,13.848,13.848,0,0,1-2.821,4.324A27.836,27.836,0,0,1,97.685,171c-2.711,2-5.58,3.7-8.357,5.551l.012-.01a5.181,5.181,0,0,0-.945,1.278A3.229,3.229,0,0,1,87.349,179.046Z" transform="translate(-85.206 -50.514)" fill="#965450"/>
            <path id="Trazado_112820" data-name="Trazado 112820" d="M102.6,80.227a51.109,51.109,0,0,1,37.277-29.466c28.4-5.679,40.116,26.626,28.756,36.922-9.86,8.935-29.821,15.975-30.886,35.145s14.555,66.032-10.3,67.807S109.7,174.66,94.79,180.34l-8.875,4.26s-4.26-13.135,6.746-19.526,15.62-12.07,9.23-37.986S102.6,80.227,102.6,80.227Z" transform="translate(-85.104 -50.097)" fill="#965450"/>
            <path id="Trazado_112821" data-name="Trazado 112821" d="M169.01,63.5a30.138,30.138,0,0,1,4.729,11.066,22.094,22.094,0,0,1-.676,12.145,13.715,13.715,0,0,1-3.536,5.225,56.117,56.117,0,0,1-4.646,3.767c-3.182,2.343-6.437,4.495-9.536,6.811a59.318,59.318,0,0,0-8.614,7.573,28.218,28.218,0,0,0-5.833,9.56,26.339,26.339,0,0,0-1.274,5.459,38.781,38.781,0,0,0-.174,5.686c.138,3.843.581,7.712,1.015,11.583.9,7.745,1.992,15.514,2.414,23.374a76.14,76.14,0,0,1-.168,11.836c-.453,3.92-1.291,7.946-3.465,11.416a13.152,13.152,0,0,1-4.306,4.28,14.173,14.173,0,0,1-5.731,1.872,15.823,15.823,0,0,1-5.977-.4,14.668,14.668,0,0,1-5.259-2.815c-3.1-2.511-5.278-5.836-8.055-8.549a12.908,12.908,0,0,0-4.813-3.166,10.987,10.987,0,0,0-5.762-.27,11.08,11.08,0,0,1,5.812.118,13.153,13.153,0,0,1,4.982,3.087c2.883,2.674,5.157,5.938,8.23,8.28a13.967,13.967,0,0,0,5.072,2.547,15.236,15.236,0,0,0,5.654.243,13.164,13.164,0,0,0,5.281-1.868,12.007,12.007,0,0,0,3.831-4.009c1.926-3.246,2.651-7.11,2.989-10.919a76.969,76.969,0,0,0-.028-11.586c-.535-7.749-1.741-15.459-2.761-23.223-.512-3.884-.965-7.788-1.133-11.758a41.091,41.091,0,0,1,.157-6.021,28.586,28.586,0,0,1,1.354-5.942,30.484,30.484,0,0,1,6.234-10.357,57.553,57.553,0,0,1,8.946-7.9c3.175-2.347,6.454-4.493,9.577-6.77a54,54,0,0,0,4.474-3.59A11.433,11.433,0,0,0,171,85.9a20.087,20.087,0,0,0,.747-10.952,28.23,28.23,0,0,0-4.255-10.42Z" transform="translate(-85.752 -50.706)" fill="#965450"/>
          </g>
          <g id="Grupo_90364" data-name="Grupo 90364" transform="translate(29.568 64.355)">
            <path id="Trazado_112822" data-name="Trazado 112822" d="M130.833,123.307c-2.44-3.767-6.123-7.11-11.059-5.266-9.79,3.658,1.707,32.285,13.284,27.665a14.6,14.6,0,0,0,1.781-.85C132.181,138.1,131.254,130.59,130.833,123.307Z" transform="translate(-116.081 -117.519)" fill="#ffac9d"/>
            <path id="Trazado_112823" data-name="Trazado 112823" d="M130.281,143.12a8.994,8.994,0,0,1-1.786-1.187,3.978,3.978,0,0,1-1.335-1.889,1.929,1.929,0,0,1,.141-1.4,2.757,2.757,0,0,1,.915-.99,7.007,7.007,0,0,1,2.143-.946l-.647.9a62.813,62.813,0,0,0-1.831-7.505,22.872,22.872,0,0,0-1.373-3.494,7.478,7.478,0,0,0-1.982-2.731,2.5,2.5,0,0,0-2.667-.343,2.387,2.387,0,0,0-1.118.785,2.885,2.885,0,0,0-.462,1.43,10.076,10.076,0,0,0,.516,3.637,31.724,31.724,0,0,0,1.387,3.681,17.081,17.081,0,0,1-2.271-3.321,10.008,10.008,0,0,1-1.241-4.022,4.582,4.582,0,0,1,.509-2.355,4.039,4.039,0,0,1,1.879-1.693,6.517,6.517,0,0,1,1.127-.389,4.858,4.858,0,0,1,1.285-.111,4.553,4.553,0,0,1,2.4.873,7.187,7.187,0,0,1,1.626,1.661,12.462,12.462,0,0,1,1.124,1.853,23.793,23.793,0,0,1,1.443,3.888,38.9,38.9,0,0,1,1.3,7.983l.049.779-.7.118a6.518,6.518,0,0,0-1.787.481c-.518.263-.808.545-.786,1.061a3.635,3.635,0,0,0,.764,1.688A12.163,12.163,0,0,0,130.281,143.12Z" transform="translate(-116.199 -117.684)" fill="#c66161"/>
          </g>
        </g>
      </g>
      <g id="Grupo_90407" data-name="Grupo 90407" transform="translate(247.542 163.205)">
        <g id="Grupo_90372" data-name="Grupo 90372" transform="translate(8.091)">
          <g id="Grupo_90367" data-name="Grupo 90367" transform="translate(97.607)">
            <path id="Trazado_112824" data-name="Trazado 112824" d="M371.248,168.594a14.837,14.837,0,0,1-1.909.16v9.791c.48-.745,1.109-1.648,1.909-2.727Z" transform="translate(-369.339 -168.594)" fill="#4d7f8c"/>
            <path id="Trazado_112825" data-name="Trazado 112825" d="M369.339,181.809v77.5h1.909v-78.62A15.009,15.009,0,0,1,369.339,181.809Z" transform="translate(-369.339 -169.144)" fill="#4d7f8c"/>
          </g>
          <g id="Grupo_90370" data-name="Grupo 90370" transform="translate(0 51.373)">
            <g id="Grupo_90368" data-name="Grupo 90368">
              <path id="Trazado_112826" data-name="Trazado 112826" d="M269.947,229.665l99.783,34.394,93.124,32.1c1.389.478-.227-6.495-2.348-7.227l-99.784-34.394-93.123-32.1c-1.389-.478.226,6.5,2.348,7.227Z" transform="translate(-267.081 -222.414)" fill="#4d7f8c"/>
            </g>
            <g id="Grupo_90369" data-name="Grupo 90369" transform="translate(81.288 28.606)">
              <path id="Trazado_112827" data-name="Trazado 112827" d="M364.6,255.9l-10.2-3.516c-.759,1.876-1.469,3.77-2.151,5.676l21.361,7.363,9.729,3.353c.955-1.807,1.894-3.621,2.769-5.463Z" transform="translate(-352.242 -252.383)" fill="#335a63"/>
            </g>
          </g>
          <g id="Grupo_90371" data-name="Grupo 90371" transform="translate(87.592 77.702)">
            <circle id="Elipse_4799" data-name="Elipse 4799" cx="9.414" cy="9.414" r="9.414" transform="translate(0 2.438) rotate(-7.44)" fill="#4d7f8c"/>
            <path id="Trazado_112828" data-name="Trazado 112828" d="M364.594,260.227a5.1,5.1,0,1,0,5.65-4.481A5.1,5.1,0,0,0,364.594,260.227Z" transform="translate(-359.106 -250.258)" fill="#c6eef1"/>
          </g>
        </g>
        <g id="Grupo_90387" data-name="Grupo 90387" transform="translate(129.581 112.61)">
          <g id="Grupo_90385" data-name="Grupo 90385" transform="translate(0 52.91)">
            <g id="Grupo_90383" data-name="Grupo 90383" transform="translate(0 1.151)">
              <g id="Grupo_90377" data-name="Grupo 90377">
                <g id="Grupo_90375" data-name="Grupo 90375">
                  <g id="Grupo_90373" data-name="Grupo 90373" transform="translate(0.357 14.82)">
                    <path id="Trazado_112829" data-name="Trazado 112829" d="M412.726,368.106s-.69-14.077-17.992-7.729C394.734,360.378,402.775,375.78,412.726,368.106Z" transform="translate(-394.734 -358.733)" fill="#419e78"/>
                    <path id="Trazado_112830" data-name="Trazado 112830" d="M412.726,368.185a57.445,57.445,0,0,0-17.992-7.729S400.223,377.255,412.726,368.185Z" transform="translate(-394.734 -358.811)" fill="#5bba91"/>
                  </g>
                  <g id="Grupo_90374" data-name="Grupo 90374">
                    <path id="Trazado_112831" data-name="Trazado 112831" d="M415.359,355.471s.318-17.818-21-10.5C394.36,344.971,402.633,363.425,415.359,355.471Z" transform="translate(-394.36 -343.207)" fill="#419e78"/>
                    <path id="Trazado_112832" data-name="Trazado 112832" d="M415.359,355.555s-4.136-7.636-21-10.5C394.36,345.055,402.633,363.509,415.359,355.555Z" transform="translate(-394.36 -343.291)" fill="#5bba91"/>
                  </g>
                </g>
                <g id="Grupo_90376" data-name="Grupo 90376" transform="translate(4.306 3.388)">
                  <path id="Trazado_112833" data-name="Trazado 112833" d="M422.907,379.555c-7.795-13.494-23.874-17.4-24.036-17.432l.217-.93c.166.039,16.641,4.025,24.646,17.885Z" transform="translate(-398.871 -347.413)" fill="#217a54"/>
                  <path id="Trazado_112834" data-name="Trazado 112834" d="M423.834,379.664c-.87-14.158-6.5-22.1-11.072-26.264a25.034,25.034,0,0,0-9.818-5.716l.221-.929c.2.047,19.915,5.041,21.623,32.85Z" transform="translate(-399.056 -346.756)" fill="#217a54"/>
                </g>
              </g>
              <g id="Grupo_90382" data-name="Grupo 90382" transform="translate(59.658 0.955)">
                <g id="Grupo_90380" data-name="Grupo 90380" transform="translate(9.036)">
                  <g id="Grupo_90378" data-name="Grupo 90378" transform="translate(2.651 14.82)">
                    <path id="Trazado_112835" data-name="Trazado 112835" d="M469.105,369.106s.69-14.077,17.992-7.729C487.1,361.378,479.056,376.78,469.105,369.106Z" transform="translate(-469.105 -359.733)" fill="#419e78"/>
                    <path id="Trazado_112836" data-name="Trazado 112836" d="M469.105,369.185a57.444,57.444,0,0,1,17.992-7.729S481.607,378.255,469.105,369.185Z" transform="translate(-469.105 -359.811)" fill="#5bba91"/>
                  </g>
                  <g id="Grupo_90379" data-name="Grupo 90379">
                    <path id="Trazado_112837" data-name="Trazado 112837" d="M466.328,356.471s-.319-17.818,21-10.5C487.327,345.971,479.055,364.425,466.328,356.471Z" transform="translate(-466.328 -344.207)" fill="#419e78"/>
                    <path id="Trazado_112838" data-name="Trazado 112838" d="M466.328,356.555s4.136-7.636,21-10.5C487.327,346.055,479.055,364.509,466.328,356.555Z" transform="translate(-466.328 -344.291)" fill="#5bba91"/>
                  </g>
                </g>
                <g id="Grupo_90381" data-name="Grupo 90381" transform="translate(0 3.388)">
                  <path id="Trazado_112839" data-name="Trazado 112839" d="M458.6,380.555l-.826-.477c8-13.86,24.48-17.846,24.645-17.885l.218.93C482.47,363.16,466.39,367.061,458.6,380.555Z" transform="translate(-456.902 -348.413)" fill="#217a54"/>
                  <path id="Trazado_112840" data-name="Trazado 112840" d="M457.814,380.664l-.953-.058c1.708-27.809,21.422-32.8,21.622-32.85l.221.929C478.512,348.731,459.476,353.59,457.814,380.664Z" transform="translate(-456.861 -347.756)" fill="#217a54"/>
                </g>
              </g>
            </g>
            <g id="Grupo_90384" data-name="Grupo 90384" transform="translate(29.29)">
              <path id="Trazado_112841" data-name="Trazado 112841" d="M438.219,371.614c-4.777-10.528-17.459-10.7-11.7-23.349,5.689-12.5,17.934-3.747,15.765,4.292,0,0,2.7-9.328,10.69-6.119,7.9,3.172,8.718,16.116-5.843,20.479C442.832,368.2,439.812,370.646,438.219,371.614Z" transform="translate(-425.046 -342.001)" fill="#fc6a5a"/>
              <path id="Trazado_112842" data-name="Trazado 112842" d="M455.479,347.993c.272,6.264-3.637,11.945-11.014,14.518a24.585,24.585,0,0,1-12.863,1.042c2.515,2.152,5.216,4.586,6.916,8.333,1.593-.968,4.613-3.411,8.908-4.7C460.477,363.277,461.168,352.474,455.479,347.993Z" transform="translate(-425.344 -342.274)" fill="#e0463b"/>
            </g>
          </g>
          <g id="Grupo_90386" data-name="Grupo 90386" transform="translate(8.254)">
            <path id="Trazado_112843" data-name="Trazado 112843" d="M467.532,375.316H413.3l27.94-88.746Zm-52.78-1.066H466.1l-24.9-84.03Z" transform="translate(-403.475 -286.57)" fill="#4d7f8c"/>
            <path id="Trazado_112844" data-name="Trazado 112844" d="M403.007,376.2c3.72,10.907,18.485,19.058,36.146,19.058s32.426-8.151,36.147-19.058Z" transform="translate(-403.007 -290.646)" fill="#4d7f8c"/>
          </g>
        </g>
        <g id="Grupo_90406" data-name="Grupo 90406" transform="translate(0 64.668)">
          <g id="Grupo_90404" data-name="Grupo 90404" transform="translate(3.311 39.497)">
            <g id="Grupo_90400" data-name="Grupo 90400" transform="translate(0 15.245)">
              <g id="Grupo_90390" data-name="Grupo 90390" transform="translate(1.591 24.339)">
                <path id="Rectángulo_35242" data-name="Rectángulo 35242" d="M1.654,0H25.367a1.654,1.654,0,0,1,1.654,1.654V5.715A1.654,1.654,0,0,1,25.367,7.37H1.655A1.655,1.655,0,0,1,0,5.715V1.654A1.654,1.654,0,0,1,1.654,0Z" fill="#ffa65b"/>
                <g id="Grupo_90389" data-name="Grupo 90389">
                  <g id="Grupo_90388" data-name="Grupo 90388" clip-path="url(#clip-path-2)">
                    <rect id="Rectángulo_35243" data-name="Rectángulo 35243" width="0.71" height="11.445" transform="translate(17.739 -0.802)" fill="#fcc070"/>
                    <rect id="Rectángulo_35244" data-name="Rectángulo 35244" width="0.71" height="11.445" transform="translate(15.838 -0.802)" fill="#fcc070"/>
                    <rect id="Rectángulo_35245" data-name="Rectángulo 35245" width="0.71" height="11.445" transform="translate(13.938 -0.802)" fill="#fcc070"/>
                    <rect id="Rectángulo_35246" data-name="Rectángulo 35246" width="0.71" height="11.445" transform="translate(12.038 -0.802)" fill="#fcc070"/>
                    <rect id="Rectángulo_35247" data-name="Rectángulo 35247" width="0.71" height="11.445" transform="translate(10.137 -0.802)" fill="#fcc070"/>
                    <rect id="Rectángulo_35248" data-name="Rectángulo 35248" width="0.71" height="11.445" transform="translate(8.237 -0.802)" fill="#fcc070"/>
                    <rect id="Rectángulo_35249" data-name="Rectángulo 35249" width="0.71" height="11.445" transform="translate(6.336 -0.802)" fill="#fcc070"/>
                    <rect id="Rectángulo_35250" data-name="Rectángulo 35250" width="0.71" height="11.445" transform="translate(4.436 -0.802)" fill="#fcc070"/>
                    <rect id="Rectángulo_35251" data-name="Rectángulo 35251" width="0.71" height="11.445" transform="translate(2.535 -0.802)" fill="#fcc070"/>
                    <rect id="Rectángulo_35252" data-name="Rectángulo 35252" width="0.71" height="11.445" transform="translate(0.635 -0.802)" fill="#fcc070"/>
                    <rect id="Rectángulo_35253" data-name="Rectángulo 35253" width="0.71" height="11.445" transform="translate(23.44 -0.802)" fill="#fcc070"/>
                    <rect id="Rectángulo_35254" data-name="Rectángulo 35254" width="0.71" height="11.445" transform="translate(21.54 -0.802)" fill="#fcc070"/>
                    <rect id="Rectángulo_35255" data-name="Rectángulo 35255" width="0.71" height="11.445" transform="translate(19.639 -0.802)" fill="#fcc070"/>
                    <rect id="Rectángulo_35256" data-name="Rectángulo 35256" width="0.71" height="11.445" transform="translate(25.341 -0.802)" fill="#fcc070"/>
                  </g>
                </g>
              </g>
              <g id="Grupo_90393" data-name="Grupo 90393" transform="translate(0 16.226)">
                <rect id="Rectángulo_35258" data-name="Rectángulo 35258" width="27.022" height="7.37" rx="1.654" fill="#ffa65b"/>
                <g id="Grupo_90392" data-name="Grupo 90392">
                  <g id="Grupo_90391" data-name="Grupo 90391" clip-path="url(#clip-path-3)">
                    <rect id="Rectángulo_35259" data-name="Rectángulo 35259" width="0.71" height="11.445" transform="translate(17.739 -0.802)" fill="#fcc070"/>
                    <rect id="Rectángulo_35260" data-name="Rectángulo 35260" width="0.71" height="11.445" transform="translate(15.839 -0.802)" fill="#fcc070"/>
                    <rect id="Rectángulo_35261" data-name="Rectángulo 35261" width="0.71" height="11.445" transform="translate(13.938 -0.802)" fill="#fcc070"/>
                    <rect id="Rectángulo_35262" data-name="Rectángulo 35262" width="0.71" height="11.445" transform="translate(12.038 -0.802)" fill="#fcc070"/>
                    <rect id="Rectángulo_35263" data-name="Rectángulo 35263" width="0.71" height="11.445" transform="translate(10.137 -0.802)" fill="#fcc070"/>
                    <rect id="Rectángulo_35264" data-name="Rectángulo 35264" width="0.71" height="11.445" transform="translate(8.237 -0.802)" fill="#fcc070"/>
                    <rect id="Rectángulo_35265" data-name="Rectángulo 35265" width="0.71" height="11.445" transform="translate(6.336 -0.802)" fill="#fcc070"/>
                    <rect id="Rectángulo_35266" data-name="Rectángulo 35266" width="0.71" height="11.445" transform="translate(4.436 -0.802)" fill="#fcc070"/>
                    <rect id="Rectángulo_35267" data-name="Rectángulo 35267" width="0.71" height="11.445" transform="translate(2.536 -0.802)" fill="#fcc070"/>
                    <rect id="Rectángulo_35268" data-name="Rectángulo 35268" width="0.71" height="11.445" transform="translate(0.635 -0.802)" fill="#fcc070"/>
                    <rect id="Rectángulo_35269" data-name="Rectángulo 35269" width="0.71" height="11.445" transform="translate(23.44 -0.802)" fill="#fcc070"/>
                    <rect id="Rectángulo_35270" data-name="Rectángulo 35270" width="0.71" height="11.445" transform="translate(21.54 -0.802)" fill="#fcc070"/>
                    <rect id="Rectángulo_35271" data-name="Rectángulo 35271" width="0.71" height="11.445" transform="translate(19.639 -0.802)" fill="#fcc070"/>
                    <rect id="Rectángulo_35272" data-name="Rectángulo 35272" width="0.71" height="11.445" transform="translate(25.341 -0.802)" fill="#fcc070"/>
                  </g>
                </g>
              </g>
              <g id="Grupo_90396" data-name="Grupo 90396" transform="translate(2.809 8.113)">
                <path id="Rectángulo_35274" data-name="Rectángulo 35274" d="M1.654,0H25.367a1.654,1.654,0,0,1,1.654,1.654V5.715A1.654,1.654,0,0,1,25.367,7.37H1.655A1.655,1.655,0,0,1,0,5.715V1.654A1.654,1.654,0,0,1,1.654,0Z" fill="#ffa65b"/>
                <g id="Grupo_90395" data-name="Grupo 90395">
                  <g id="Grupo_90394" data-name="Grupo 90394" clip-path="url(#clip-path-2)">
                    <rect id="Rectángulo_35275" data-name="Rectángulo 35275" width="0.71" height="11.445" transform="translate(17.739 -0.802)" fill="#fcc070"/>
                    <rect id="Rectángulo_35276" data-name="Rectángulo 35276" width="0.71" height="11.445" transform="translate(15.839 -0.802)" fill="#fcc070"/>
                    <rect id="Rectángulo_35277" data-name="Rectángulo 35277" width="0.71" height="11.445" transform="translate(13.938 -0.802)" fill="#fcc070"/>
                    <rect id="Rectángulo_35278" data-name="Rectángulo 35278" width="0.71" height="11.445" transform="translate(12.038 -0.802)" fill="#fcc070"/>
                    <rect id="Rectángulo_35279" data-name="Rectángulo 35279" width="0.71" height="11.445" transform="translate(10.137 -0.802)" fill="#fcc070"/>
                    <rect id="Rectángulo_35280" data-name="Rectángulo 35280" width="0.71" height="11.445" transform="translate(8.237 -0.802)" fill="#fcc070"/>
                    <rect id="Rectángulo_35281" data-name="Rectángulo 35281" width="0.71" height="11.445" transform="translate(6.336 -0.802)" fill="#fcc070"/>
                    <rect id="Rectángulo_35282" data-name="Rectángulo 35282" width="0.71" height="11.445" transform="translate(4.436 -0.802)" fill="#fcc070"/>
                    <rect id="Rectángulo_35283" data-name="Rectángulo 35283" width="0.71" height="11.445" transform="translate(2.536 -0.802)" fill="#fcc070"/>
                    <rect id="Rectángulo_35284" data-name="Rectángulo 35284" width="0.71" height="11.445" transform="translate(0.635 -0.802)" fill="#fcc070"/>
                    <rect id="Rectángulo_35285" data-name="Rectángulo 35285" width="0.71" height="11.445" transform="translate(23.44 -0.802)" fill="#fcc070"/>
                    <rect id="Rectángulo_35286" data-name="Rectángulo 35286" width="0.71" height="11.445" transform="translate(21.54 -0.802)" fill="#fcc070"/>
                    <rect id="Rectángulo_35287" data-name="Rectángulo 35287" width="0.71" height="11.445" transform="translate(19.639 -0.802)" fill="#fcc070"/>
                    <rect id="Rectángulo_35288" data-name="Rectángulo 35288" width="0.71" height="11.445" transform="translate(25.341 -0.802)" fill="#fcc070"/>
                  </g>
                </g>
              </g>
              <g id="Grupo_90399" data-name="Grupo 90399">
                <rect id="Rectángulo_35290" data-name="Rectángulo 35290" width="27.022" height="7.37" rx="1.654" fill="#ffa65b"/>
                <g id="Grupo_90398" data-name="Grupo 90398">
                  <g id="Grupo_90397" data-name="Grupo 90397" clip-path="url(#clip-path-3)">
                    <rect id="Rectángulo_35291" data-name="Rectángulo 35291" width="0.71" height="11.445" transform="translate(17.739 -0.802)" fill="#fcc070"/>
                    <rect id="Rectángulo_35292" data-name="Rectángulo 35292" width="0.71" height="11.445" transform="translate(15.839 -0.802)" fill="#fcc070"/>
                    <rect id="Rectángulo_35293" data-name="Rectángulo 35293" width="0.71" height="11.445" transform="translate(13.938 -0.802)" fill="#fcc070"/>
                    <rect id="Rectángulo_35294" data-name="Rectángulo 35294" width="0.71" height="11.445" transform="translate(12.038 -0.802)" fill="#fcc070"/>
                    <rect id="Rectángulo_35295" data-name="Rectángulo 35295" width="0.71" height="11.445" transform="translate(10.137 -0.802)" fill="#fcc070"/>
                    <rect id="Rectángulo_35296" data-name="Rectángulo 35296" width="0.71" height="11.445" transform="translate(8.237 -0.802)" fill="#fcc070"/>
                    <rect id="Rectángulo_35297" data-name="Rectángulo 35297" width="0.71" height="11.445" transform="translate(6.336 -0.802)" fill="#fcc070"/>
                    <rect id="Rectángulo_35298" data-name="Rectángulo 35298" width="0.71" height="11.445" transform="translate(4.436 -0.802)" fill="#fcc070"/>
                    <rect id="Rectángulo_35299" data-name="Rectángulo 35299" width="0.71" height="11.445" transform="translate(2.536 -0.802)" fill="#fcc070"/>
                    <rect id="Rectángulo_35300" data-name="Rectángulo 35300" width="0.71" height="11.445" transform="translate(0.635 -0.802)" fill="#fcc070"/>
                    <rect id="Rectángulo_35301" data-name="Rectángulo 35301" width="0.71" height="11.445" transform="translate(23.44 -0.802)" fill="#fcc070"/>
                    <rect id="Rectángulo_35302" data-name="Rectángulo 35302" width="0.71" height="11.445" transform="translate(21.54 -0.802)" fill="#fcc070"/>
                    <rect id="Rectángulo_35303" data-name="Rectángulo 35303" width="0.71" height="11.445" transform="translate(19.639 -0.802)" fill="#fcc070"/>
                    <rect id="Rectángulo_35304" data-name="Rectángulo 35304" width="0.71" height="11.445" transform="translate(25.341 -0.802)" fill="#fcc070"/>
                  </g>
                </g>
              </g>
            </g>
            <g id="Grupo_90403" data-name="Grupo 90403" transform="translate(19.969)">
              <g id="Grupo_90401" data-name="Grupo 90401">
                <path id="Trazado_112845" data-name="Trazado 112845" d="M308.161,335.325s-24.175.559-25.133-19.606,18.5-25.159,26.4-23.348C324.706,295.872,344.115,327.689,308.161,335.325Z" transform="translate(-282.994 -278.373)" fill="#fff"/>
                <path id="Trazado_112846" data-name="Trazado 112846" d="M322.5,301.955c1.749,9.048-2.707,18.364-20.057,22.049,0,0-11.857.263-19.292-6.5,1.942,18.8,25.019,18.276,25.019,18.276C333.525,330.391,331.344,312.98,322.5,301.955Z" transform="translate(-283.001 -278.824)" fill="#fdedee"/>
                <path id="Trazado_112847" data-name="Trazado 112847" d="M306.4,293.312s-8.272-7-5.727-15.59a16.186,16.186,0,0,0,11.773,2.227C319.442,278.677,306.4,293.312,306.4,293.312Z" transform="translate(-283.776 -277.722)" fill="#fff"/>
              </g>
              <g id="Grupo_90402" data-name="Grupo 90402" transform="translate(12.17 21.713)">
                <path id="Trazado_112848" data-name="Trazado 112848" d="M297.756,306.46a9.016,9.016,0,0,1,1.113-2.287,8.217,8.217,0,0,1,1.786-1.917,8.4,8.4,0,0,1,2.407-1.307,8.975,8.975,0,0,1,3.007-.479,8.571,8.571,0,0,1,4.275,1.019,6.637,6.637,0,0,1,2.7,2.695l-3.57,2.54a3.037,3.037,0,0,0-.636-1.031,3.247,3.247,0,0,0-.873-.647,3.835,3.835,0,0,0-.995-.336,5.6,5.6,0,0,0-.994-.1,3.45,3.45,0,0,0-1.965.529,3.922,3.922,0,0,0-1.246,1.316h4.313l-.959,2.4h-4c0,.255,0,.46.013.612s.019.291.035.419h4.24l-.959,2.395h-2.226a3.72,3.72,0,0,0,1.2.947,3.538,3.538,0,0,0,1.6.347,4.761,4.761,0,0,0,.982-.108,3.685,3.685,0,0,0,.971-.36,3.284,3.284,0,0,0,.839-.646,2.894,2.894,0,0,0,.586-.971l3.809,2.276a4.816,4.816,0,0,1-1.162,1.676,7.407,7.407,0,0,1-1.774,1.247,9.363,9.363,0,0,1-2.13.767,9.814,9.814,0,0,1-2.216.263,8.11,8.11,0,0,1-2.623-.419,8.218,8.218,0,0,1-2.239-1.162,9.035,9.035,0,0,1-3-3.858h-2.323l.957-2.395h.719c-.015-.159-.027-.32-.035-.479s-.013-.344-.013-.552h-1.627l.957-2.4Z" transform="translate(-295.744 -300.47)" fill="#fcc070"/>
              </g>
            </g>
          </g>
          <g id="Grupo_90405" data-name="Grupo 90405">
            <path id="Trazado_112849" data-name="Trazado 112849" d="M323.13,325.09H268.9l27.94-88.747Zm-52.779-1.067H321.7l-24.9-84.03Z" transform="translate(-259.073 -236.343)" fill="#4d7f8c"/>
            <path id="Trazado_112850" data-name="Trazado 112850" d="M258.605,325.975c3.721,10.907,18.486,19.057,36.147,19.057s32.426-8.15,36.147-19.057Z" transform="translate(-258.605 -240.419)" fill="#4d7f8c"/>
          </g>
        </g>
      </g>
    </g>
  </g>
</svg>
