<svg xmlns="http://www.w3.org/2000/svg" xmlns:xlink="http://www.w3.org/1999/xlink" width="358.854" height="369.679" viewBox="0 0 358.854 369.679">
  <defs>
    <linearGradient id="linear-gradient" x1="0.5" x2="0.5" y2="1" gradientUnits="objectBoundingBox">
      <stop offset="0" stop-color="#2e9daa"/>
      <stop offset="1" stop-color="#2a75a9"/>
    </linearGradient>
    <linearGradient id="linear-gradient-3" x1="0.5" x2="0.5" y2="1" gradientUnits="objectBoundingBox">
      <stop offset="0" stop-color="#3b4454"/>
      <stop offset="1" stop-color="#20242d"/>
    </linearGradient>
  </defs>
  <g id="Grupo_87573" data-name="Grupo 87573" transform="translate(-633.799 -117.873)">
    <ellipse id="Elipse_4776" data-name="Elipse 4776" cx="12.489" cy="6.204" rx="12.489" ry="6.204" transform="translate(779.245 406.652) rotate(-1.016)" fill="#a8c4e5" opacity="0.4" style="mix-blend-mode: multiply;isolation: isolate"/>
    <g id="Grupo_87527" data-name="Grupo 87527" transform="translate(781.822 386.958)">
      <path id="Trazado_101079" data-name="Trazado 101079" d="M964.03,757.046l-3,.553c-2.249-.266-3.4-.64-4.056.133l-.187.219c-.66.772-.215,1.617.99,1.878l5.5,2.039a2.793,2.793,0,0,0,2.975-1.3s.3-.581-.727-2.285C964.94,757.313,964.993,757.254,964.03,757.046Z" transform="translate(-956.485 -732.93)" fill="#2c1f9c"/>
      <path id="Trazado_101080" data-name="Trazado 101080" d="M986.105,712.11s-13.533-10.141-19.007-7.051c-5.352,3.02-2.451,24.064-2.451,24.064,1.35,1.113,3.318,1.546,4.144.138l2.3-15.779,17.8,5.57,2.319-10.817Z" transform="translate(-960.478 -704.473)" fill="#ffc2b0"/>
    </g>
    <path id="Trazado_101081" data-name="Trazado 101081" d="M810.187,261.955l-.149-21.893-.184-27.129h0L809.54,166.9h0l-.333-49.022h0L780.64,134.434l-12.967,7.517v-.031l-1.727,1v.031l-27.19,15.763-12.618,7.315v-.021l-1.727,1v.021L684.6,190.109V190.1l-1.727,1v.01l-27.039,15.675-12.769,7.4-1.727,1.052.013,1.945h0l.31,45.534h0L642,312.245h0l.323,47.53,43.261-25.08h0l41.534-24.078h0l41.534-24.079h0l41.534-24.078,0-.5Zm-167.1-45.771,27.039-15.675,12.769-7.4.31,45.534-26.84,15.56-12.967,7.518Zm.324,47.53,19.9-11.539,19.9-11.539.31,45.533-39.807,23.077Zm.633,93.063-.31-45.533,8.651-5.015,31.156-18.062.31,45.533ZM684.618,192.1l39.807-23.077.31,45.534-39.807,23.077Zm.323,47.53,39.807-23.077.31,45.533-26.84,15.56-12.967,7.517Zm.633,93.063-.31-45.533L712.1,271.6l12.967-7.517.31,45.533Zm40.577-164.671,27.19-15.763,12.618-7.315.31,45.533-26.84,15.56-12.968,7.517Zm.323,47.53L753.316,200l12.967-7.518.31,45.534L739.4,253.775l-12.618,7.315Zm.633,93.063-.31-45.533,27.19-15.763,12.618-7.315.31,45.533Zm40.578-164.671,26.84-15.56,12.968-7.518.31,45.533L768,189.481Zm.323,47.529L807.817,168.4l.31,45.534-39.807,23.077Zm.633,93.064-.31-45.533L808.14,215.93l.31,45.533Z" transform="translate(-4.083 0)" fill="#e6f4ff"/>
    <path id="Trazado_101082" data-name="Trazado 101082" d="M1020.806,117.873V280.391l181.326,99.844V217.717Z" transform="translate(-209.479 0)" fill="#e6f4ff"/>
    <path id="Trazado_101083" data-name="Trazado 101083" d="M1055.054,277.338V389.394l-46.964,27.043-.037-112.261Z" transform="translate(-202.576 -86.315)" fill="#a52827"/>
    <path id="Trazado_101084" data-name="Trazado 101084" d="M952.594,304.431l.037,112.056-47.037-27.043V277.43Z" transform="translate(-147.117 -86.365)" fill="#ca4f4e"/>
    <path id="Trazado_101086" data-name="Trazado 101086" d="M952.594,272.57l47-27.043L952.9,218.568l-47.306,26.959Z" transform="translate(-147.117 -54.504)" fill="#ca4f4e"/>
    <path id="Trazado_101087" data-name="Trazado 101087" d="M822.862,448.416l46.665-27.127-46.548-26.874-46.84,27.043Z" transform="translate(-77.046 -149.687)" fill="#1774b4"/>
    <path id="Trazado_101088" data-name="Trazado 101088" d="M877.994,548.8l46.422-27.043V453l-46.422,27.128Z" transform="translate(-132.178 -181.398)" fill="#1c6191"/>
    <path id="Trazado_101089" data-name="Trazado 101089" d="M823.217,548.945,776.8,521.9V453.276l46.422,27Z" transform="translate(-77.401 -181.547)" fill="#2a75a9"/>
    <path id="Trazado_101090" data-name="Trazado 101090" d="M1326.013,596.657" transform="translate(-374.682 -259.156)" fill="none" stroke="#bad4f5" stroke-miterlimit="10" stroke-width="1.784"/>
    <g id="Grupo_87528" data-name="Grupo 87528" transform="translate(788.211 323.049)">
      <path id="Trazado_101091" data-name="Trazado 101091" d="M1161.6,740.81c36.155-20.874,35.971-54.824-.411-75.829l-17.079,9.861c-35.6-11.961-81.846-9.221-112.17,8.287-36.155,20.874-35.971,54.824.411,75.829s95.185,21.112,131.34.238l-65.876-38.034,14.876-8.589Z" transform="translate(-989.102 -619.188)" fill="#a8c4e5" opacity="0.4" style="mix-blend-mode: multiply;isolation: isolate"/>
      <path id="Trazado_101092" data-name="Trazado 101092" d="M1134.7,776.338c-36.155,20.874-94.958,20.768-131.34-.237s-36.566-54.955-.411-75.829,94.958-20.768,131.34.237l-65.464,37.8Z" transform="translate(-973.413 -629.854)" fill="#3899b5"/>
      <path id="Trazado_101093" data-name="Trazado 101093" d="M1252.664,819.017v30.022c-15.51,8.955-34.813,14.5-56.169,15.331l-1.921.1-.6-30C1191.43,821.378,1242.937,818.78,1252.664,819.017Z" transform="translate(-1091.375 -702.557)" fill="#bad0e6"/>
      <path id="Trazado_101094" data-name="Trazado 101094" d="M1319.168,696.069s37.1-15.756,26.807-65.926c-6.659-32.471-28.846,31.882-28.846,31.882Z" transform="translate(-1158.085 -595.376)" fill="#b26565"/>
      <path id="Trazado_101095" data-name="Trazado 101095" d="M988.067,760.825c-24.744-17.93-24.527-78.057,7.356-88.2l24.087,33.4s-18.421,63.982-19.152,63.563A79.207,79.207,0,0,1,988.067,760.825Z" transform="translate(-970.414 -623.324)" fill="url(#linear-gradient)"/>
      <path id="Trazado_101096" data-name="Trazado 101096" d="M1166.146,663.63c-36.382-21.005-95.185-21.112-131.34-.238l65.876,38.033Z" transform="translate(-1005.268 -609.892)" fill="#60c1dd"/>
      <path id="Trazado_101097" data-name="Trazado 101097" d="M1068.709,719.885l.117-.068-65.876-38.033c-8.977,5.183-22.434,16.21-27,24.268v11.763C1005.952,719.222,1047.359,718.928,1068.709,719.885Z" transform="translate(-973.413 -628.283)" fill="#2c1f9c"/>
      <path id="Trazado_101098" data-name="Trazado 101098" d="M1134.7,710.886c-36.155,20.874-94.958,20.768-131.34-.237s-36.566-54.955-.411-75.829,94.958-20.768,131.34.237l-65.464,37.8Z" transform="translate(-973.413 -594.425)" fill="#60c1dd"/>
      <path id="Trazado_101099" data-name="Trazado 101099" d="M1003.362,729.04c-36.382-21.005-36.566-54.955-.411-75.829l65.876,38.033Z" transform="translate(-973.413 -612.817)" fill="url(#linear-gradient)"/>
      <path id="Trazado_101100" data-name="Trazado 101100" d="M1166.146,635.057c-36.382-21.005-95.185-21.111-131.34-.237l65.876,38.033Z" transform="translate(-1005.268 -594.425)" fill="#abcfff"/>
      <path id="Trazado_101101" data-name="Trazado 101101" d="M1243.43,565.153c36.382,21.005,36.566,54.955.411,75.829l-65.876-38.033Z" transform="translate(-1082.758 -565.153)" fill="#ca4f4e"/>
      <path id="Trazado_101102" data-name="Trazado 101102" d="M1068.988,691.312l.117-.068-65.876-38.033c-16.327,9.427-25.241,21.52-26.76,33.883C1006.467,688.5,1047.637,690.355,1068.988,691.312Z" transform="translate(-973.692 -612.817)" fill="url(#linear-gradient-3)"/>
      <path id="Trazado_101103" data-name="Trazado 101103" d="M1178.158,736.19l.117-.067,65.876,38.033c-16.327,9.426-37.273,14.573-58.687,15.45C1183.026,772.287,1179.815,748.517,1178.158,736.19Z" transform="translate(-1082.862 -657.696)" fill="#fff"/>
      <path id="Trazado_101104" data-name="Trazado 101104" d="M1177.966,647.547v23.174l65.875,39.724v-25.8Z" transform="translate(-1082.758 -609.751)" fill="#910b0a"/>
      <path id="Trazado_101105" data-name="Trazado 101105" d="M1035.7,848.542V818.517A97.247,97.247,0,0,0,1051.869,826Z" transform="translate(-1005.753 -702.294)" fill="#3899b5"/>
    </g>
    <path id="Trazado_101106" data-name="Trazado 101106" d="M685.805,600.132l46.84-27.043L686.1,546.214,638.8,573.2Z" transform="translate(-2.706 -231.853)" fill="#f0f8ff"/>
    <path id="Trazado_101107" data-name="Trazado 101107" d="M686.626,669.763,638.8,641.092V605.046l47.829,26.93Z" transform="translate(-2.706 -263.697)" fill="#dbefff"/>
    <g id="Grupo_87531" data-name="Grupo 87531" transform="translate(683.031 341.236)">
      <g id="Grupo_87530" data-name="Grupo 87530">
        <g id="Grupo_87529" data-name="Grupo 87529">
          <path id="Trazado_101108" data-name="Trazado 101108" d="M741.124,669.515V631.843L788.033,604.8l-.068,37.458Z" transform="translate(-741.124 -604.8)" fill="#bad4f5"/>
        </g>
      </g>
    </g>
    <g id="Grupo_87540" data-name="Grupo 87540" transform="translate(724.058 241.409)">
      <ellipse id="Elipse_4777" data-name="Elipse 4777" cx="22.234" cy="12.579" rx="22.234" ry="12.579" transform="translate(7.915 20.835)" fill="#a8c4e5" opacity="0.4" style="mix-blend-mode: multiply;isolation: isolate"/>
      <g id="Grupo_87533" data-name="Grupo 87533" transform="translate(0 13.517)">
        <g id="Grupo_87532" data-name="Grupo 87532">
          <path id="Trazado_101109" data-name="Trazado 101109" d="M877.14,431.63a17.961,17.961,0,0,1-.73,5.515c-.866,3.007-3.58,5.858-8.055,7.955-9.818,4.6-24.366,3.828-32.493-1.725-3.788-2.589-5.511-5.758-5.279-8.871-.039-.29.261-4.154.261-4.154a9.678,9.678,0,0,1,1.768-3.146,16.611,16.611,0,0,1,6.747-5.269c9.818-4.6,24.366-3.828,32.493,1.726C875.276,426,877.008,428.812,877.14,431.63Z" transform="translate(-830.563 -417.884)" fill="#bda547"/>
          <ellipse id="Elipse_4778" data-name="Elipse 4778" cx="23.078" cy="13.056" rx="23.078" ry="13.056" transform="translate(0.24 0.712)" fill="#fff"/>
          <ellipse id="Elipse_4779" data-name="Elipse 4779" cx="23.078" cy="13.056" rx="23.078" ry="13.056" transform="translate(0.24)" fill="#f1ff6e"/>
        </g>
      </g>
      <g id="Grupo_87535" data-name="Grupo 87535" transform="translate(0 7.342)">
        <g id="Grupo_87534" data-name="Grupo 87534">
          <path id="Trazado_101110" data-name="Trazado 101110" d="M877.14,418.168a17.959,17.959,0,0,1-.73,5.515c-.866,3.007-3.58,5.859-8.055,7.955-9.818,4.6-24.366,3.827-32.493-1.726-3.788-2.588-5.511-5.758-5.279-8.871-.039-.291.261-4.154.261-4.154a9.672,9.672,0,0,1,1.768-3.145,16.612,16.612,0,0,1,6.747-5.269c9.818-4.6,24.366-3.827,32.493,1.726C875.276,412.537,877.008,415.351,877.14,418.168Z" transform="translate(-830.563 -404.422)" fill="#bda547"/>
          <ellipse id="Elipse_4780" data-name="Elipse 4780" cx="23.078" cy="13.056" rx="23.078" ry="13.056" transform="translate(0.24 0.712)" fill="#fff"/>
          <ellipse id="Elipse_4781" data-name="Elipse 4781" cx="23.078" cy="13.056" rx="23.078" ry="13.056" transform="translate(0.24)" fill="#f1ff6e"/>
        </g>
      </g>
      <g id="Grupo_87539" data-name="Grupo 87539" transform="translate(0)">
        <g id="Grupo_87538" data-name="Grupo 87538">
          <path id="Trazado_101111" data-name="Trazado 101111" d="M877.14,402.162a17.959,17.959,0,0,1-.73,5.515c-.866,3.007-3.58,5.858-8.055,7.955-9.818,4.6-24.366,3.828-32.493-1.725-3.788-2.588-5.511-5.758-5.279-8.871-.039-.29.261-4.154.261-4.154a9.678,9.678,0,0,1,1.768-3.145,16.615,16.615,0,0,1,6.747-5.269c9.818-4.6,24.366-3.827,32.493,1.726C875.276,396.531,877.008,399.344,877.14,402.162Z" transform="translate(-830.563 -388.416)" fill="#bda547"/>
          <ellipse id="Elipse_4782" data-name="Elipse 4782" cx="23.078" cy="13.056" rx="23.078" ry="13.056" transform="translate(0.24 0.712)" fill="#fff"/>
          <ellipse id="Elipse_4783" data-name="Elipse 4783" cx="23.078" cy="13.056" rx="23.078" ry="13.056" transform="translate(0.24)" fill="#f1ff6e"/>
          <ellipse id="Elipse_4784" data-name="Elipse 4784" cx="16.133" cy="9.127" rx="16.133" ry="9.127" transform="translate(7.167 3.586)" fill="#c9b84c"/>
          <g id="Grupo_87537" data-name="Grupo 87537" transform="translate(3.012 1.472)">
            <g id="Grupo_87536" data-name="Grupo 87536">
              <path id="Trazado_101112" data-name="Trazado 101112" d="M857.5,413.61c-5.839,0-11.637-1.416-15.644-4.154-3.268-2.233-4.939-5.071-4.7-7.99.266-3.289,2.965-6.369,7.406-8.45,8.611-4.035,21.421-3.351,28.556,1.523h0c3.268,2.233,4.939,5.071,4.7,7.99-.266,3.289-2.965,6.369-7.406,8.45A30.979,30.979,0,0,1,857.5,413.61Zm-.02-22.746a30.514,30.514,0,0,0-12.717,2.592c-4.279,2-6.877,4.939-7.129,8.051-.221,2.738,1.375,5.42,4.494,7.551,7.008,4.789,19.6,5.455,28.078,1.484,4.279-2,6.878-4.939,7.128-8.051.222-2.738-1.374-5.42-4.494-7.551C868.908,392.252,863.215,390.863,857.479,390.863Z" transform="translate(-837.13 -390.386)" fill="#c9b84c"/>
            </g>
          </g>
        </g>
        <path id="Trazado_101113" data-name="Trazado 101113" d="M852.035,398.212c6.864-3.216,17.034-2.676,22.715,1.206,2.265,1.547,3.473,3.392,3.674,5.255.241-2.231-.956-4.517-3.674-6.374-5.682-3.882-15.851-4.422-22.715-1.206-4.128,1.934-6.119,4.785-5.815,7.6C846.482,402.257,848.454,399.889,852.035,398.212Z" transform="translate(-839.021 -391.409)" fill="#ab9622"/>
        <path id="Trazado_101114" data-name="Trazado 101114" d="M879.278,402.94l-3.693.995-4.373-.668-2.516.668-1.848.3-.026,2.125a2.02,2.02,0,0,0,0,.287v0h0a12.62,12.62,0,0,0,1.116,2.99l-1.552.309-2.593-.657.7.892,3.551-.015a.865.865,0,0,1-.552.876,2.636,2.636,0,0,1-2.243.1l-.756-.958-.7,0a3.611,3.611,0,0,1-.954-1.968l-1.376.082-1.988-1.814v1.932a3.5,3.5,0,0,0,.734,1.906l-1,.322v1.932l1.913,1.274,2.208-1.093a8.393,8.393,0,0,0,7.153.032c1.105-.547,1.509-1.2,1.554-1.872h0v-.008a2.075,2.075,0,0,0,0-.249V408.99l-.526.061c-.576-1.151-1.292-2.168-.332-2.644a2.643,2.643,0,0,1,2.818.3,2.13,2.13,0,0,1,1.088,1.957l3.243.089a3.364,3.364,0,0,0,0-.754V406.82l-.507-1.228,1.454-.72Z" transform="translate(-846.07 -395.71)" fill="#ab9622"/>
        <path id="Trazado_101115" data-name="Trazado 101115" d="M861.335,408.9a4.661,4.661,0,0,1-1.856-3.11l3.364-.2a3.512,3.512,0,0,0,1.588,2.487,2.857,2.857,0,0,0,3.062.339c2.187-1.083-3.061-4.529.761-6.42a8.131,8.131,0,0,1,6.925.052l2.187-1.082,1.912,1.274-2.144,1.061a3.063,3.063,0,0,1,1.2,2.819l-3.243-.089A2.128,2.128,0,0,0,874,404.074a2.642,2.642,0,0,0-2.818-.3c-2.017,1,3.359,4.382-.7,6.389a8.393,8.393,0,0,1-7.153-.032l-2.208,1.093-1.913-1.274Z" transform="translate(-846.07 -394.641)" fill="#fff"/>
        <path id="Trazado_101116" data-name="Trazado 101116" d="M861.335,408.1a4.659,4.659,0,0,1-1.856-3.11l3.364-.2a3.513,3.513,0,0,0,1.588,2.488,2.858,2.858,0,0,0,3.062.339c2.187-1.082-3.061-4.528.761-6.42a8.129,8.129,0,0,1,6.925.053l2.187-1.083,1.912,1.274-2.144,1.062a3.063,3.063,0,0,1,1.2,2.819l-3.243-.089A2.129,2.129,0,0,0,874,403.271a2.643,2.643,0,0,0-2.818-.3c-2.017,1,3.359,4.382-.7,6.389a8.393,8.393,0,0,1-7.153-.031l-2.208,1.093-1.913-1.274Z" transform="translate(-846.07 -394.207)" fill="#f1ff6e"/>
      </g>
    </g>
    <g id="Grupo_87542" data-name="Grupo 87542" transform="translate(633.799 360.905)">
      <ellipse id="Elipse_4785" data-name="Elipse 4785" cx="12.489" cy="6.204" rx="12.489" ry="6.204" transform="translate(0 86.546) rotate(-1.016)" fill="#a8c4e5" opacity="0.4" style="mix-blend-mode: multiply;isolation: isolate"/>
      <path id="Trazado_101117" data-name="Trazado 101117" d="M640.816,837.785l2.925-.367c1.958-.887,2.872-1.554,3.744-1.05l.247.143c.872.5.761,1.391-.245,1.972l-4.3,3.417a2.838,2.838,0,0,1-3.167-.308s-.481-.434-.137-2.262C640.079,838.287,640.011,838.25,640.816,837.785Z" transform="translate(-637.025 -749.717)" fill="#2c1f9c"/>
      <path id="Trazado_101118" data-name="Trazado 101118" d="M644.953,781.317c-.234,2.022-3.939,2.022-3.939.481l2.053-46.678,12.359-3.484Z" transform="translate(-637.704 -693.122)" fill="#ffc2b0"/>
      <path id="Trazado_101119" data-name="Trazado 101119" d="M666.692,849.385l2.9.546c2.135-.245,3.21-.6,3.886.146l.191.212c.676.746.3,1.557-.837,1.8l-5.14,1.937a2.839,2.839,0,0,1-2.921-1.262s-.325-.56.562-2.195C665.837,849.638,665.783,849.581,666.692,849.385Z" transform="translate(-650.531 -756.857)" fill="#2c1f9c"/>
      <path id="Trazado_101120" data-name="Trazado 101120" d="M663.481,795.844c-.645,1.633-3.475,1.276-3.428-.065,1.322-16.174-1.722-31.449-5.644-46.313l11.869-1.283C666.741,765.575,666.586,780.481,663.481,795.844Z" transform="translate(-644.955 -702.079)" fill="#ffc2b0"/>
      <path id="Trazado_101121" data-name="Trazado 101121" d="M657.606,739.007l4.128,22.654s-10.257,10.164-21.99,0l1.32-21.273Z" transform="translate(-637.017 -697.112)" fill="#636363"/>
      <ellipse id="Elipse_4786" data-name="Elipse 4786" cx="3.791" cy="6.688" rx="3.791" ry="6.688" transform="matrix(0.992, -0.128, 0.128, 0.992, 8.523, 1.94)" fill="#fbddd3"/>
      <path id="Trazado_101122" data-name="Trazado 101122" d="M667.277,659.256c-.883,3.076-4.18,4.189-6.118,2.181s-2.795-6.129-1.912-9.2,3.169-3.942,5.107-1.934S668.159,656.18,667.277,659.256Z" transform="translate(-647.385 -648.51)" fill="#ffc2b0"/>
      <path id="Trazado_101123" data-name="Trazado 101123" d="M658.6,678.121l-.33-.073a2.081,2.081,0,0,1-1.573-2.476l1.4-6.279a2.081,2.081,0,0,1,2.477-1.573l.329.073a2.081,2.081,0,0,1,1.573,2.476l-.459,6.231C661.766,677.614,659.71,678.369,658.6,678.121Z" transform="translate(-646.165 -658.499)" fill="#ffc2b0"/>
      <path id="Trazado_101124" data-name="Trazado 101124" d="M653.1,658.865s-.382,2.133,3.34,2.338c2.978.165,2.093-5.221,5.046-5.7,3.248-.53,3.837-4.542,2.557-6.083s-4.857-2.345-7.448-1.2S648.565,650.192,653.1,658.865Z" transform="translate(-643.302 -647.677)" fill="#12263f"/>
      <path id="Trazado_101125" data-name="Trazado 101125" d="M670.209,666.248a1.409,1.409,0,1,1-.966-1.743A1.409,1.409,0,0,1,670.209,666.248Z" transform="translate(-652.012 -656.756)" fill="#ffc2b0"/>
      <path id="Trazado_101126" data-name="Trazado 101126" d="M642.5,707.36c1.051-5.763-.079-10.318.012-16.445,0-11.015-.528-13.7,5.3-12.028l1.641.436a11.323,11.323,0,0,1,2.278.879c7.678,3.956,9.727,5.176,9.39,9.764.035,7.558-3.484,9.1-1.614,15.716C657.924,710.908,644.26,711.1,642.5,707.36Z" transform="translate(-638.511 -664.323)" fill="#60c1dd"/>
      <path id="Trazado_101127" data-name="Trazado 101127" d="M668.61,677.152l-.334-.772a2.115,2.115,0,0,0,1.726.45A2.713,2.713,0,0,1,668.61,677.152Z" transform="translate(-652.461 -663.213)" fill="#f09a82"/>
      <ellipse id="Elipse_4787" data-name="Elipse 4787" cx="2.683" cy="3.117" rx="2.683" ry="3.117" transform="translate(7.402 2.026)" fill="#fff"/>
      <path id="Trazado_101128" data-name="Trazado 101128" d="M643.944,654.8a1.582,1.582,0,0,0-2.9-.944,6.121,6.121,0,0,0-.72,1.913c-1.083,4.792-9.155,4.1-5.2,12.53,0,0-3.6,5.532,3.093,7.863,3.427,1.193,3.35-7.631,3.35-7.631s1.368-4.058,2.688-7.241a5.921,5.921,0,0,0,.019-4.668A3.685,3.685,0,0,1,643.944,654.8Z" transform="translate(-633.929 -650.635)" fill="#12263f"/>
      <path id="Trazado_101129" data-name="Trazado 101129" d="M656.215,678.693a.922.922,0,0,0-1.115,1.053,2.53,2.53,0,0,0,1.871,2.022,9.1,9.1,0,0,0,4.769.057.261.261,0,0,0,.074-.477A23.437,23.437,0,0,0,656.215,678.693Z" transform="translate(-645.321 -664.451)" fill="#2c1f9c"/>
      <g id="Grupo_87541" data-name="Grupo 87541" transform="translate(24.717 5.88)">
        <path id="Trazado_101130" data-name="Trazado 101130" d="M696.429,680.621l-8.749-5.069,5.149-15.056,8.749,5.069Z" transform="translate(-687.681 -660.496)" fill="#fff"/>
        <path id="Trazado_101131" data-name="Trazado 101131" d="M694.656,682.484l-1.828-1.141,1.062-3.271,1.828,1.141Z" transform="translate(-690.467 -670.009)" fill="#3b2ad1"/>
        <path id="Trazado_101132" data-name="Trazado 101132" d="M699.539,686.868l-1.828-1.141.695-2.139,1.828,1.141Z" transform="translate(-693.11 -672.995)" fill="#abcfff"/>
        <path id="Trazado_101133" data-name="Trazado 101133" d="M704.572,687.474l-1.828-1.141,1.392-4.289,1.828,1.141Z" transform="translate(-695.834 -672.159)" fill="#ff80db"/>
        <path id="Trazado_101134" data-name="Trazado 101134" d="M704.2,672.238l-.922-.591-.009-.007-4.507-2.89a.291.291,0,0,0-.419.119.362.362,0,0,0,.117.463l.922.591.008.007,4.507,2.89a.29.29,0,0,0,.419-.119A.362.362,0,0,0,704.2,672.238Z" transform="translate(-693.432 -664.938)" fill="#bad4f5"/>
        <path id="Trazado_101135" data-name="Trazado 101135" d="M702.133,675a.235.235,0,0,0-.092-.27L697.8,672.01a.29.29,0,0,0-.42.119.362.362,0,0,0,.117.463l.922.591.009.007,3.2,2.049a.377.377,0,0,0,.506-.241Z" transform="translate(-692.912 -666.703)" fill="#bad4f5"/>
        <path id="Trazado_101136" data-name="Trazado 101136" d="M698.362,676.558a.2.2,0,0,0-.083-.21L696.8,675.4a.291.291,0,0,0-.42.119.362.362,0,0,0,.117.463l.922.591.009.007.545.35a.257.257,0,0,0,.348-.179Z" transform="translate(-692.37 -668.539)" fill="#bad4f5"/>
      </g>
      <path id="Trazado_101137" data-name="Trazado 101137" d="M667.974,693.148s7.529,18.307,15.746,9.488,5.33-15.038,5.33-15.038l-1.1-.3s-3.342,11.075-6.9,9.979-8.389-7.934-10.1-8.255S667.974,693.148,667.974,693.148Z" transform="translate(-652.297 -669.123)" fill="#60c1dd"/>
      <path id="Rectángulo_32836" data-name="Rectángulo 32836" d="M1.957,0h0A1.957,1.957,0,0,1,3.915,1.957V3.366A1.957,1.957,0,0,1,1.957,5.324h0A1.957,1.957,0,0,1,0,3.366V1.957A1.957,1.957,0,0,1,1.957,0Z" transform="translate(37.209 22.262) rotate(-167.426)" fill="#ffc2b0"/>
    </g>
    <g id="Grupo_87543" data-name="Grupo 87543" transform="translate(823.203 212.631)">
      <path id="Trazado_101138" data-name="Trazado 101138" d="M1050.721,553.258l29.54,16.492a2.088,2.088,0,0,1,1,2.838,2.3,2.3,0,0,1-3.076.565L1046.7,555.581Z" transform="translate(-1046.697 -448.297)" fill="#12263f" opacity="0.4" style="mix-blend-mode: multiply;isolation: isolate"/>
      <path id="Trazado_101139" data-name="Trazado 101139" d="M1097.039,526.32l4.312-2.489,29.176,16.615a2.088,2.088,0,0,1,1,2.838,2.3,2.3,0,0,1-3.076.565Z" transform="translate(-1073.946 -432.368)" fill="#12263f" opacity="0.4" style="mix-blend-mode: multiply;isolation: isolate"/>
      <path id="Trazado_101140" data-name="Trazado 101140" d="M1053.939,340.782l28.755,107.526c.281,1.05,1.061,1.6,1.733,1.213l.19-.109a2.4,2.4,0,0,0,.712-2.607l-4.5-16.817,21.043-12,4.5,16.817c.281,1.051,1.061,1.6,1.733,1.213l.19-.109a2.407,2.407,0,0,0,.711-2.607l-4.785-17.894h0l-.372-1.39h0l-4.573-17.1h0l-.191-.715-5.107-19.1-.019-.069h0l-4.671-17.466-.274-1.024h0l-4.573-17.1h0l-.372-1.39h0l-3.819-14.281c-.281-1.05-1.061-1.6-1.733-1.213l-.19.108a2.406,2.406,0,0,0-.712,2.607l3.531,13.2-21.044,12-3.531-13.2c-.281-1.05-1.061-1.6-1.733-1.213l-.19.109A2.406,2.406,0,0,0,1053.939,340.782Zm28.157,3.249,4,14.946-21.043,12-4-14.946ZM1066,374.519l21.043-12,4,14.946-21.043,12Zm4.944,18.49,21.043-12,4,14.947-21.043,12Zm8.942,33.437-4-14.946,21.043-12,4,14.947Z" transform="translate(-1050.562 -324.445)" fill="#12263f"/>
    </g>
    <path id="Trazado_101142" data-name="Trazado 101142" d="M973.117,296.148c.812,0,17.073,5.862,17.057-7.605s-20.758,1.909-20.758,1.909Z" transform="translate(-181.663 -89.388)" fill="#727997"/>
    <path id="Trazado_101143" data-name="Trazado 101143" d="M935.757,368.2l5.334-5.421a6.755,6.755,0,0,1,3.458-.495,1.064,1.064,0,0,1,.924.971l.094,1.079c.189,1.551.053,1.777-.9,2.343l-5.64,3.355a3.624,3.624,0,0,1-3.245.178l-.237-.132C934.713,369.606,934.806,368.761,935.757,368.2Z" transform="translate(-163.022 -132.271)" fill="#3b4454"/>
    <path id="Trazado_101144" data-name="Trazado 101144" d="M952.405,357.746c0,1.6-3.884,1.6-3.884,0v-5.189h3.884Z" transform="translate(-170.353 -127.03)" fill="#c6d2f2"/>
    <path id="Trazado_101145" data-name="Trazado 101145" d="M958.248,379.5l4.62-6.041a6.753,6.753,0,0,1,3.37-.92,1.064,1.064,0,0,1,1.038.849l.227,1.059c.381,1.515.273,1.757-.6,2.436l-5.179,4.029a3.625,3.625,0,0,1-3.2.579l-.251-.1C957.388,381.029,957.376,380.178,958.248,379.5Z" transform="translate(-175.268 -137.846)" fill="#3b4454"/>
    <path id="Trazado_101146" data-name="Trazado 101146" d="M972.45,367.85c.2,1.584-3.655,2.066-3.853.482l-.644-5.149,3.853-.482Z" transform="translate(-180.871 -132.521)" fill="#c6d2f2"/>
    <path id="Trazado_101147" data-name="Trazado 101147" d="M960.186,284.86s-12.021,6.152-12.523,9.353c-.441,2.811-.926,19.457-.643,23.368a1.564,1.564,0,0,0,.878,1.3c1.191.567,3.342,1.188,4.06-1.238,1.013-3.421.664-15.114,3.088-18.461s14.451-8.068,14.451-8.068Z" transform="translate(-169.495 -90.387)" fill="#727997"/>
    <path id="Trazado_101148" data-name="Trazado 101148" d="M977.017,297.027s-13.449,6.705-13.844,9.754c-.345,2.661,1.316,17.82,1.743,21.632a1.588,1.588,0,0,0,1,1.3c1.224.483,3.332.932,3.959-1.348.9-3.276.156-14.333,2.473-17.589,1.256-1.766,4.487-3.762,10-6.364,2.521-1.19,4.328-6.146,1.264-6.539Z" transform="translate(-178.258 -96.973)" fill="#727997"/>
    <path id="Trazado_101149" data-name="Trazado 101149" d="M963.748,244.147l-2.565,9.834c-.22,1.169-.618,2.873-.906,4.875a11.722,11.722,0,0,0,2.35,8.826,53.428,53.428,0,0,1,1.817-7.081,78.388,78.388,0,0,0,2.89-8.823C967.327,251.523,963.748,244.147,963.748,244.147Z" transform="translate(-176.655 -68.35)" fill="#ffc2b0"/>
    <path id="Trazado_101150" data-name="Trazado 101150" d="M969.153,229.59l-6.033,10.364a7.757,7.757,0,0,0,4.865,5.855L969.9,233Z" transform="translate(-178.255 -60.47)" fill="#bad4f5"/>
    <path id="Trazado_101151" data-name="Trazado 101151" d="M966.111,249.45s.969,2.864,6.381,4.715" transform="translate(-179.874 -71.22)" fill="none" stroke="#fff" stroke-linecap="round" stroke-linejoin="round" stroke-width="3"/>
    <path id="Trazado_101152" data-name="Trazado 101152" d="M972.185,251.929c.93-5.1.726-8.212-.115-15.251,0-9.747,2.968-13.372,9.109-11.132l2.537.674c7.411,3.992,11.175,3.792,9.85,11.635l-1.3,17.193C992.268,263.9,971.714,262.334,972.185,251.929Z" transform="translate(-183.099 -57.935)" fill="#bad4f5"/>
    <path id="Trazado_101153" data-name="Trazado 101153" d="M987.934,215.284a5.247,5.247,0,0,0,1.46,1c.489.1,5.759-4.155,3.852-8.929-1.207-3.023-6.921-.655-6.921-.655Z" transform="translate(-190.815 -47.602)" fill="#2c1f9c"/>
    <path id="Trazado_101154" data-name="Trazado 101154" d="M989.625,224.625l-.295.05a1.841,1.841,0,0,1-2.117-1.5l-.953-5.611a1.841,1.841,0,0,1,1.5-2.117l.295-.05a1.841,1.841,0,0,1,2.117,1.5l1.708,5.258C992.052,223.149,990.62,224.456,989.625,224.625Z" transform="translate(-190.766 -52.772)" fill="#ffc2b0"/>
    <path id="Trazado_101155" data-name="Trazado 101155" d="M987.689,225.722a5.026,5.026,0,0,0,3.983-2.258s-1.517,3.525-3.716,3.827Z" transform="translate(-191.554 -57.154)" fill="#f09a82"/>
    <path id="Trazado_101156" data-name="Trazado 101156" d="M983.833,212.243c-.559,2.68-2.456,3.563-4.237,1.972s-2.772-5.054-2.212-7.734,2.456-3.564,4.237-1.973S984.392,209.562,983.833,212.243Z" transform="translate(-185.891 -46.465)" fill="#ffc2b0"/>
    <path id="Trazado_101157" data-name="Trazado 101157" d="M988.73,210.3c-.559,2.68-3.3,3.838-5.084,2.247s-2.771-5.054-2.212-7.734,2.455-3.564,4.237-1.973S989.289,207.623,988.73,210.3Z" transform="translate(-188.084 -45.565)" fill="#ffc2b0"/>
    <path id="Trazado_101158" data-name="Trazado 101158" d="M985.016,203.5s.273,5.071,4.4,5.521c0,0,4.012-3.319-.061-7.557-3.591-3.736-7.661.255-7.661.255Z" transform="translate(-188.311 -44.382)" fill="#12263f"/>
    <path id="Trazado_101159" data-name="Trazado 101159" d="M977.234,207.859a4.814,4.814,0,0,1,3.783-2.275l-1.738-1.678S977.1,203.894,977.234,207.859Z" transform="translate(-185.892 -46.567)" fill="#21ded5"/>
    <path id="Trazado_101160" data-name="Trazado 101160" d="M983.222,205.477c-1.124-1.077-3.127-.65-5.817.954-2.628.613-3.512-2.365-3.512-2.365-.7-1.549.253-2.462,1.8-3.158l4.034-1.812a4.565,4.565,0,0,1,5.621,2.082l.155.248C986.2,202.975,984.771,204.781,983.222,205.477Z" transform="translate(-183.961 -43.783)" fill="#12263f"/>
    <circle id="Elipse_4788" data-name="Elipse 4788" cx="1.205" cy="1.205" r="1.205" transform="translate(799.021 163.89)" fill="#ffc2b0"/>
    <path id="Trazado_101161" data-name="Trazado 101161" d="M986.863,228.162s-2.037,2.844.836,4.066c4.551,1.936,5.965-3.216,5.255-3.514l-1.437-.742a1.939,1.939,0,0,1-.455,2.635c-1.07.9-2.993,1.095-3.82-.316Z" transform="translate(-190.727 -59.594)" fill="#fff"/>
    <path id="Trazado_101162" data-name="Trazado 101162" d="M1004.58,250.568v16.693l3.082-1.808Z" transform="translate(-200.697 -71.825)" fill="#98c1f5"/>
    <g id="Grupo_87544" data-name="Grupo 87544" transform="translate(779.256 190.319)">
      <path id="Trazado_101163" data-name="Trazado 101163" d="M976.366,293.442l-1.424-.5-.167-.168-.107-.19L963.939,287a.548.548,0,0,0-.475.019l-4.1,2.4-.007-.067-.772.309.035.319h.006a.179.179,0,0,0,.086.083l11.163,5.805a.064.064,0,0,1,.029.043c.234.855.622,1.62,1.352,1.176l4.536-2.673a1.088,1.088,0,0,0,.571-.976Z" transform="translate(-955.058 -281.841)" fill="#a8c4e5"/>
      <path id="Trazado_101164" data-name="Trazado 101164" d="M968.9,296.212l-12.856-6.685c-.148-.078-.146-.214.006-.3l5.463-3.2a.632.632,0,0,1,.547-.022l12.856,6.685c.149.077.146.214-.006.3l-5.463,3.2A.634.634,0,0,1,968.9,296.212Z" transform="translate(-953.62 -281.294)" fill="#e1eaf4"/>
      <path id="Trazado_101165" data-name="Trazado 101165" d="M981.278,296.007l-3.111-1.618c-.036-.019-.035-.052,0-.073l1.322-.775a.152.152,0,0,1,.132-.006l3.112,1.618c.036.019.035.052,0,.073L981.41,296A.153.153,0,0,1,981.278,296.007Z" transform="translate(-965.641 -285.395)" fill="#a8c4e5"/>
      <path id="Trazado_101166" data-name="Trazado 101166" d="M965.118,283.2a1.457,1.457,0,0,0-.646-.806l-12.753-6.533a.327.327,0,0,0-.271-.041h0a.148.148,0,0,0-.057.046l-.355.4.359-.031,1.913,7.064a1.457,1.457,0,0,0,.646.806l12.059,6.178.41.394.057.1c.236.047.746-.326.746-.326Z" transform="translate(-950.969 -275.804)" fill="#fff"/>
      <path id="Trazado_101167" data-name="Trazado 101167" d="M966.247,291.567s-13.316-7.034-13.4-7.339l-1.934-7.142c-.083-.3.073-.438.348-.3l12.752,6.533a1.459,1.459,0,0,1,.646.806l1.934,7.142C966.677,291.575,966.521,291.708,966.247,291.567Z" transform="translate(-950.892 -276.306)" fill="#5f6ccf"/>
      <path id="Trazado_101168" data-name="Trazado 101168" d="M966.464,292.41c.1.379-.249.464-.785.189a2.43,2.43,0,0,1-1.157-1.184c-.1-.38.249-.465.785-.19A2.432,2.432,0,0,1,966.464,292.41Z" transform="translate(-958.26 -284.064)" fill="#fff"/>
    </g>
    <path id="Trazado_101169" data-name="Trazado 101169" d="M993.235,250.568l1.689,14.961c.066.8-12.236,4.744-12.236,4.744l1.036,4.335,12.582-3.22c3.325-1.394,3.239-3.938,3.2-6.027l-.233-12.964Z" transform="translate(-188.847 -71.825)" fill="#ffc2b0"/>
    <path id="Trazado_101170" data-name="Trazado 101170" d="M1004.707,244.165l1.061,11.082c.313.917,8.59-.975,8.265-2.345-.058-.242-.911-13.52-4.625-16.553C1006.39,233.884,1003.972,239.053,1004.707,244.165Z" transform="translate(-200.693 -63.785)" fill="#bad4f5"/>
    <path id="Trazado_101171" data-name="Trazado 101171" d="M1007.125,269.258s3.43.889,7.679-2.234" transform="translate(-202.074 -80.733)" fill="none" stroke="#fff" stroke-linecap="round" stroke-linejoin="round" stroke-width="3"/>
    <g id="Grupo_87545" data-name="Grupo 87545" transform="translate(867.613 210.534)">
      <path id="Trazado_101172" data-name="Trazado 101172" d="M1143.509,323.1s4.719-6.041,13.421-1.59c6.653,3.4,3.156,3.207,11.136,5.572,4.706,1.394,12.013-6.9,23.623-1.784,21.019,9.257,28.347-9.93,37.482.482v49.047l-85.662-44.353Z" transform="translate(-1143.509 -319.872)" fill="#abcfff"/>
    </g>
    <g id="Grupo_87550" data-name="Grupo 87550" transform="translate(867.324 172.12)">
      <g id="Grupo_87546" data-name="Grupo 87546" transform="translate(0)">
        <path id="Trazado_101173" data-name="Trazado 101173" d="M1143.168,285.708a.289.289,0,0,1-.289-.289v-49a.289.289,0,0,1,.579,0v49A.29.29,0,0,1,1143.168,285.708Z" transform="translate(-1142.879 -236.13)" fill="#5f6ccf"/>
      </g>
      <g id="Grupo_87547" data-name="Grupo 87547" transform="translate(21.336 10.484)">
        <path id="Trazado_101174" data-name="Trazado 101174" d="M1189.68,308.563a.289.289,0,0,1-.289-.289v-49a.289.289,0,1,1,.578,0v49A.289.289,0,0,1,1189.68,308.563Z" transform="translate(-1189.391 -258.985)" fill="#5f6ccf"/>
      </g>
      <g id="Grupo_87548" data-name="Grupo 87548" transform="translate(42.672 21.583)">
        <path id="Trazado_101175" data-name="Trazado 101175" d="M1236.192,332.758a.289.289,0,0,1-.29-.289v-49a.29.29,0,0,1,.579,0v49A.289.289,0,0,1,1236.192,332.758Z" transform="translate(-1235.903 -283.181)" fill="#5f6ccf"/>
      </g>
      <g id="Grupo_87549" data-name="Grupo 87549" transform="translate(64.008 32.67)">
        <path id="Trazado_101176" data-name="Trazado 101176" d="M1282.706,356.927a.289.289,0,0,1-.29-.289v-49a.289.289,0,1,1,.579,0v49A.289.289,0,0,1,1282.706,356.927Z" transform="translate(-1282.416 -307.349)" fill="#5f6ccf"/>
      </g>
    </g>
    <g id="Grupo_87551" data-name="Grupo 87551" transform="translate(952.986 215.959)">
      <path id="Trazado_101177" data-name="Trazado 101177" d="M1329.91,381.276a.289.289,0,0,1-.289-.289v-49a.289.289,0,1,1,.578,0v49A.289.289,0,0,1,1329.91,381.276Z" transform="translate(-1329.621 -331.699)" fill="#5f6ccf"/>
    </g>
    <g id="Grupo_87552" data-name="Grupo 87552" transform="translate(863.851 167.201)">
      <path id="Trazado_101178" data-name="Trazado 101178" d="M1325.03,319.51l-2.813-1.624a1.36,1.36,0,0,1-.566-1.081h0c0-.415.255-.607.566-.428L1325.03,318a1.36,1.36,0,0,1,.566,1.081h0C1325.6,319.5,1325.341,319.69,1325.03,319.51Z" transform="translate(-1236.171 -274.611)" fill="#abcfff"/>
      <path id="Trazado_101179" data-name="Trazado 101179" d="M1277.825,296.962l-2.814-1.624a1.362,1.362,0,0,1-.566-1.081h0c0-.415.255-.608.566-.428l2.814,1.624a1.361,1.361,0,0,1,.566,1.081h0C1278.391,296.949,1278.136,297.142,1277.825,296.962Z" transform="translate(-1210.619 -262.405)" fill="#abcfff"/>
      <path id="Trazado_101180" data-name="Trazado 101180" d="M1231.659,274.657l-2.814-1.624a1.362,1.362,0,0,1-.566-1.081h0c0-.415.255-.608.566-.428l2.814,1.624a1.361,1.361,0,0,1,.566,1.082h0C1232.224,274.644,1231.97,274.837,1231.659,274.657Z" transform="translate(-1185.631 -250.332)" fill="#abcfff"/>
      <path id="Trazado_101181" data-name="Trazado 101181" d="M1184.826,251.79l-2.813-1.624a1.36,1.36,0,0,1-.566-1.081h0c0-.415.255-.607.566-.428l2.813,1.625a1.359,1.359,0,0,1,.566,1.081h0C1185.393,251.777,1185.138,251.97,1184.826,251.79Z" transform="translate(-1160.282 -237.955)" fill="#abcfff"/>
      <path id="Trazado_101182" data-name="Trazado 101182" d="M1138.687,228.607l-2.814-1.624a1.36,1.36,0,0,1-.566-1.081h0c0-.415.255-.607.566-.428l2.814,1.625a1.359,1.359,0,0,1,.566,1.081h0C1139.252,228.594,1139,228.787,1138.687,228.607Z" transform="translate(-1135.307 -225.407)" fill="#abcfff"/>
    </g>
    <g id="Grupo_87553" data-name="Grupo 87553" transform="translate(859.156 218.491)">
      <path id="Trazado_101183" data-name="Trazado 101183" d="M1322.021,442.577l-2.813-1.625-.026-.012-2.089-1.206c-.312-.18-.566.013-.566.428a1.361,1.361,0,0,0,.566,1.082l2.813,1.624.026.012,2.089,1.206c.312.18.566-.013.566-.428A1.359,1.359,0,0,0,1322.021,442.577Z" transform="translate(-1228.703 -392.672)" fill="#abcfff"/>
      <path id="Trazado_101184" data-name="Trazado 101184" d="M1223.389,388.648l-2.814-1.624c-.009-.005-.017-.007-.026-.011l-2.089-1.206c-.311-.18-.566.013-.566.428a1.361,1.361,0,0,0,.566,1.081l2.814,1.624c.009.005.018.007.026.011l2.089,1.206c.312.179.566-.013.566-.428A1.36,1.36,0,0,0,1223.389,388.648Z" transform="translate(-1175.315 -363.481)" fill="#abcfff"/>
      <path id="Trazado_101185" data-name="Trazado 101185" d="M1274.348,415.767l-2.814-1.624c-.009-.005-.017-.007-.026-.011l-2.09-1.206c-.311-.18-.566.013-.566.428a1.362,1.362,0,0,0,.566,1.082l2.814,1.624c.009.005.017.007.026.012l2.089,1.206c.312.18.566-.013.566-.427A1.361,1.361,0,0,0,1274.348,415.767Z" transform="translate(-1202.898 -378.161)" fill="#abcfff"/>
      <path id="Trazado_101186" data-name="Trazado 101186" d="M1178.438,364.453l-2.813-1.625c-.009-.005-.017-.007-.026-.011l-2.089-1.206c-.311-.18-.566.013-.566.428a1.362,1.362,0,0,0,.566,1.082l2.814,1.624.026.012,2.089,1.206c.312.18.566-.013.566-.428A1.359,1.359,0,0,0,1178.438,364.453Z" transform="translate(-1150.984 -350.385)" fill="#abcfff"/>
      <path id="Trazado_101187" data-name="Trazado 101187" d="M1130.567,340.129l-2.814-1.624c-.009-.005-.017-.007-.026-.011l-2.089-1.206c-.312-.18-.566.013-.566.428a1.359,1.359,0,0,0,.566,1.081l2.813,1.624.026.011,2.089,1.206c.311.18.566-.013.566-.428A1.361,1.361,0,0,0,1130.567,340.129Z" transform="translate(-1125.072 -337.219)" fill="#abcfff"/>
    </g>
    <g id="Grupo_87555" data-name="Grupo 87555" transform="translate(896.302 271.423)">
      <ellipse id="Elipse_4789" data-name="Elipse 4789" cx="7.724" cy="15.548" rx="7.724" ry="15.548" transform="matrix(0.022, -1, 1, 0.022, 24.565, 101.499)" fill="#fff"/>
      <path id="Trazado_101188" data-name="Trazado 101188" d="M1239.726,491.714l3.929,8.126a3.292,3.292,0,0,0,4.917,1.216l11.046-8.151-7.36-.393-3.769,3.265a1.311,1.311,0,0,1-1.918-.217l-3.685-5.041Z" transform="translate(-1224.279 -473.128)" fill="#ffc2b0"/>
      <path id="Trazado_101189" data-name="Trazado 101189" d="M1305.453,655.927l3.612-5.9a6.146,6.146,0,0,1,2.962-1.149.968.968,0,0,1,1.018.671l.305.937c.486,1.335.412,1.564-.313,2.26l-4.307,4.133a3.3,3.3,0,0,1-2.839.824l-.237-.069C1304.818,657.391,1304.728,656.622,1305.453,655.927Z" transform="translate(-1259.59 -558.843)" fill="#12263f"/>
      <g id="Grupo_87554" data-name="Grupo 87554" transform="translate(0 4.933)">
        <ellipse id="Elipse_4790" data-name="Elipse 4790" cx="1.257" cy="2.441" rx="1.257" ry="2.441" transform="translate(5.962 4.059) rotate(-16.476)" fill="#8585ff"/>
        <path id="Rectángulo_32837" data-name="Rectángulo 32837" d="M1.948,0h0A1.948,1.948,0,0,1,3.9,1.948v8.644a1.948,1.948,0,0,1-1.948,1.948h0A1.948,1.948,0,0,1,0,10.591V1.948A1.948,1.948,0,0,1,1.948,0Z" transform="translate(17.486 16.694) rotate(-164.504)" fill="url(#linear-gradient)"/>
        <path id="Rectángulo_32838" data-name="Rectángulo 32838" d="M2.3,0h0a2.3,2.3,0,0,1,2.3,2.3V5.418a2.3,2.3,0,0,1-2.3,2.3h0A2.3,2.3,0,0,1,0,5.418V2.3A2.3,2.3,0,0,1,2.3,0Z" transform="translate(16.257 14.808) rotate(-167.093)" fill="#ffc2b0"/>
        <rect id="Rectángulo_32839" data-name="Rectángulo 32839" width="2.297" height="2.383" rx="1.148" transform="translate(19.848 12.31) rotate(-167.105)" fill="#ffc2b0"/>
        <path id="Trazado_101190" data-name="Trazado 101190" d="M1246.288,468.694c.09-.041,2.8-.7,2.9-.71a1.156,1.156,0,0,1,1.181.262,3.691,3.691,0,0,1,1.267,3.09c-.09.663-.439,1.038-.894,1.064-.09.041-2.8.7-2.905.71a1.156,1.156,0,0,1-1.181-.262,3.69,3.69,0,0,1-1.266-3.09C1245.483,469.1,1245.832,468.72,1246.288,468.694Z" transform="translate(-1227.335 -465.825)" fill="#ca4f4e"/>
        <path id="Trazado_101191" data-name="Trazado 101191" d="M1237.744,468.093c.134-.06,4.144-1.041,4.3-1.05a1.709,1.709,0,0,1,1.746.388,5.457,5.457,0,0,1,1.874,4.571c-.133.98-.649,1.536-1.323,1.575-.134.061-4.145,1.041-4.3,1.05a1.709,1.709,0,0,1-1.746-.388,5.46,5.46,0,0,1-1.873-4.571C1236.554,468.687,1237.07,468.132,1237.744,468.093Z" transform="translate(-1222.473 -465.297)" fill="#ca4f4e"/>
        <path id="Trazado_101192" data-name="Trazado 101192" d="M1227.181,467.526l-10.308-1.6,4.1,14.972,9.643-7.306C1230.885,470.627,1229.56,467.436,1227.181,467.526Z" transform="translate(-1211.909 -464.752)" fill="#dbefff"/>
        <path id="Trazado_101193" data-name="Trazado 101193" d="M1220.481,476.38l2.375,8.051s9.745-6.866,9.748-7.087a7.863,7.863,0,0,0-.637-3.267Z" transform="translate(-1213.862 -469.162)" fill="#bad4f5"/>
        <path id="Trazado_101194" data-name="Trazado 101194" d="M1212.324,468.035a12.361,12.361,0,0,0,2.8,10.828c2.5,2.543,5.3,1.819,6.251-1.618a12.359,12.359,0,0,0-2.8-10.828C1216.075,463.874,1213.276,464.6,1212.324,468.035Z" transform="translate(-1209.274 -464.194)" fill="#ca4f4e"/>
        <ellipse id="Elipse_4791" data-name="Elipse 4791" cx="4.566" cy="7.909" rx="4.566" ry="7.909" transform="matrix(0.968, -0.251, 0.251, 0.968, 0, 2.289)" fill="#ca4f4e"/>
        <ellipse id="Elipse_4792" data-name="Elipse 4792" cx="4.234" cy="7.334" rx="4.234" ry="7.334" transform="translate(0.95 2.534) rotate(-14.515)" fill="#fff"/>
        <path id="Trazado_101195" data-name="Trazado 101195" d="M1219.635,471.659a10.36,10.36,0,0,0-2.267-3.828c-2.319-2.358-4.914-1.687-5.8,1.5a9.428,9.428,0,0,0-.125,4.3C1213.434,470.262,1216.763,470.312,1219.635,471.659Z" transform="translate(-1208.879 -465.019)" fill="#dbefff"/>
        <path id="Trazado_101196" data-name="Trazado 101196" d="M1222.174,475.7a1.947,1.947,0,0,0-1.5-.656h.016l-.075.034c-.021,0-.069.023-.09.028l-1.8.214c-.07.009-.162-.127-.229-.123l.369-.026.018.253c.007.107-.99.6-1.169,1.252a4.895,4.895,0,0,0,1.14,4.459c.794.753,1.365.66,1.365.66s.232-.024.282-.039l3.128-.684S1223.285,476.751,1222.174,475.7Z" transform="translate(-1212.29 -469.682)" fill="#d0e7f4"/>
        <path id="Trazado_101197" data-name="Trazado 101197" d="M1222.1,472.7c-.02,0-2.971.964-2.971.964-.064.01-.113.24-.176.244l.092-.006.083-.238c-.132.068-.916.436-1.1,1.085a4.947,4.947,0,0,0,1.122,4.352c.476.484.527.7,1.407.583v0s3.279-.88,3.394-.933A11.554,11.554,0,0,0,1222.1,472.7Z" transform="translate(-1212.466 -468.417)" fill="#60c1dd"/>
        <path id="Trazado_101198" data-name="Trazado 101198" d="M1233.457,469.143l-6.277-.943,1.45,1.882,5.373.009Z" transform="translate(-1217.488 -465.981)" fill="#fff"/>
        <path id="Trazado_101199" data-name="Trazado 101199" d="M1247.362,468.538l-3.605.958-.7-.7,3.656-.912Z" transform="translate(-1226.083 -465.808)" fill="#fff" opacity="0.43"/>
      </g>
      <path id="Trazado_101200" data-name="Trazado 101200" d="M1317.546,645.25c.154,1.444-3.359,1.818-3.513.374l-.5-4.693,3.513-.374Z" transform="translate(-1264.229 -554.342)" fill="#86abd9"/>
      <path id="Trazado_101201" data-name="Trazado 101201" d="M1259.253,644.945l5.589-4.077a6.142,6.142,0,0,1,3.177.068.969.969,0,0,1,.685,1.008l-.075.982c-.059,1.42-.215,1.6-1.151,1.97l-5.557,2.178a3.294,3.294,0,0,1-2.938-.321l-.193-.154C1258.107,646.056,1258.316,645.312,1259.253,644.945Z" transform="translate(-1234.38 -554.413)" fill="#12263f"/>
      <path id="Trazado_101202" data-name="Trazado 101202" d="M1276.1,635.876c-.057,1.451-3.586,1.312-3.53-.139l.186-4.716,3.53.139Z" transform="translate(-1242.056 -549.18)" fill="#86abd9"/>
      <path id="Trazado_101203" data-name="Trazado 101203" d="M1274.45,583.17c-1.476.939-3.762.827-4.417-.359a227.775,227.775,0,0,1,.5-43.767l11.27-2.825C1278.2,553.887,1274.4,569.5,1274.45,583.17Z" transform="translate(-1240.239 -497.865)" fill="#bad4f5"/>
      <path id="Trazado_101204" data-name="Trazado 101204" d="M1300.594,587.329c-.883,1.747-3.395,2.026-4.3.928l-14.171-47.808L1294.8,539.1Z" transform="translate(-1247.227 -499.423)" fill="#bad4f5"/>
      <path id="Trazado_101205" data-name="Trazado 101205" d="M1287.225,560.133l-.809,4.44-2.062-9.566a14.789,14.789,0,0,0,1.739.405Z" transform="translate(-1248.435 -508.035)" fill="#86abd9"/>
      <path id="Trazado_101206" data-name="Trazado 101206" d="M1306.07,509.31c2.706,3.861,5.3,7.817,5.792,13.621.287.736.559,10.414.559,10.414l3.3.544s.035-13.289-.124-14.013l-3.118-14.159Z" transform="translate(-1260.189 -481.355)" fill="#ffc2b0"/>
      <rect id="Rectángulo_32840" data-name="Rectángulo 32840" width="3.487" height="4.744" rx="1.743" transform="translate(51.956 51.118) rotate(-6.166)" fill="#ffc2b0"/>
      <path id="Trazado_101207" data-name="Trazado 101207" d="M1267.907,481.445l-7.027,7.131a7.626,7.626,0,0,0,2.8,6.941l8.161-6.207-2.523-5.206Z" transform="translate(-1235.715 -468.217)" fill="#2e9daa"/>
      <path id="Trazado_101208" data-name="Trazado 101208" d="M1269,506.926a135.707,135.707,0,0,0,.227-17.646c.566-9.565,4.39-12.891,10.286-10.336l2.45.809c7.041,4.348,10.747,4.37,8.991,11.99l-2.272,16.8C1288.164,517.226,1267.929,517.11,1269,506.926Z" transform="translate(-1240.101 -466.415)" fill="#2e9daa"/>
      <path id="Trazado_101209" data-name="Trazado 101209" d="M1306.07,513.551l2.365,13.206.3,1.29.832-6.248Z" transform="translate(-1260.19 -485.596)" fill="url(#linear-gradient)"/>
      <path id="Trazado_101210" data-name="Trazado 101210" d="M1287.608,468.747a5.178,5.178,0,0,0,1.083,1.359c.431.238,6.612-2.24,6.2-7.277-.261-3.19-6.313-2.615-6.313-2.615Z" transform="translate(-1250.196 -456.704)" fill="#727997"/>
      <path id="Trazado_101211" data-name="Trazado 101211" d="M1289.666,478.286l-.292.032a1.81,1.81,0,0,1-1.99-1.6l-.609-5.562a1.809,1.809,0,0,1,1.6-1.99l.292-.032a1.81,1.81,0,0,1,1.99,1.6l1.372,5.259C1292.133,476.979,1290.653,478.178,1289.666,478.286Z" transform="translate(-1249.739 -461.549)" fill="#ffc2b0"/>
      <path id="Trazado_101212" data-name="Trazado 101212" d="M1304.311,498.5l3.025,10.518c.468.83,8.125-2.493,7.564-3.758-.1-.223-3.321-12.9-7.458-15.162C1304.082,488.266,1302.678,493.7,1304.311,498.5Z" transform="translate(-1258.869 -472.705)" fill="#2e9daa"/>
      <path id="Trazado_101213" data-name="Trazado 101213" d="M1287.5,477.763a4.942,4.942,0,0,0,4.039-1.984s-1.694,3.371-3.869,3.54Z" transform="translate(-1250.14 -465.15)" fill="#f09a82"/>
      <path id="Trazado_101214" data-name="Trazado 101214" d="M1284.1,464.567c-1.3,2.357-3.338,2.639-4.551.629s-1.144-5.55.156-7.907,3.338-2.639,4.551-.629S1285.4,462.21,1284.1,464.567Z" transform="translate(-1245.367 -454.076)" fill="#ffc2b0"/>
      <path id="Trazado_101215" data-name="Trazado 101215" d="M1287.884,464.161c-1.3,2.357-5.83,3.321-7.044,1.311s.474-6.219,1.774-8.576,3.338-2.639,4.551-.629S1289.184,461.8,1287.884,464.161Z" transform="translate(-1246.307 -453.863)" fill="#ffc2b0"/>
      <path id="Trazado_101216" data-name="Trazado 101216" d="M1289.085,457.1s-1.208,4.844,2.542,6.46c0,0,4.73-1.959,2.127-7.119-2.294-4.548-7.272-1.974-7.272-1.974Z" transform="translate(-1249.587 -453.221)" fill="#727997"/>
      <path id="Trazado_101217" data-name="Trazado 101217" d="M1278.728,461.858a4.734,4.734,0,0,1,3.48-2.592l-1.862-1.473S1278.216,457.991,1278.728,461.858Z" transform="translate(-1245.347 -455.414)" fill="#2c1f9c"/>
      <path id="Trazado_101218" data-name="Trazado 101218" d="M1285.88,459.644c-.7-1.263-2.532-1.491-5.253-.9a2.311,2.311,0,0,1-1.25-.038c-1.879-.652-1.855-3.086-1.855-3.086-.206-1.656.949-2.24,2.606-2.446l4.314-.537a4.487,4.487,0,0,1,4.68,3.58l.074.278C1289.4,458.154,1287.536,459.438,1285.88,459.644Z" transform="translate(-1244.724 -452.609)" fill="#727997"/>
      <path id="Trazado_101219" data-name="Trazado 101219" d="M1296.072,472.865a1.185,1.185,0,1,1-.465-1.61A1.185,1.185,0,0,1,1296.072,472.865Z" transform="translate(-1253.575 -462.622)" fill="#ffc2b0"/>
    </g>
    <g id="Grupo_87557" data-name="Grupo 87557" transform="translate(674.747 386.969)">
      <path id="Trazado_101220" data-name="Trazado 101220" d="M836.549,768.1,793.5,743.244a2.055,2.055,0,0,0-1.85.077l-4.284,2.473c-.03.015-.061.028-.09.044l-43.287,24.992c-.547.316-.607.794-.133,1.067l43.046,24.853a2.057,2.057,0,0,0,1.85-.077l4.284-2.473c.029-.015.061-.027.089-.044l43.287-24.992C836.963,768.848,837.023,768.37,836.549,768.1Z" transform="translate(-734.148 -725.37)" fill="#e6f4ff"/>
      <g id="Grupo_87556" data-name="Grupo 87556" transform="translate(0)">
        <rect id="Rectángulo_32841" data-name="Rectángulo 32841" width="7.005" height="4.317" transform="translate(0 36.098)" fill="#1f3b82"/>
        <rect id="Rectángulo_32842" data-name="Rectángulo 32842" width="7.005" height="4.317" transform="translate(81.95 35.687)" fill="#363656"/>
        <path id="Trazado_101221" data-name="Trazado 101221" d="M864.4,727.787l0-.01-36.785-21.238a1.606,1.606,0,0,0-2.335.908l-3.036,9.611,6.366,3.073,0,.01,37.016,25.551,4.587-13.1a1.606,1.606,0,0,0-.728-1.874Z" transform="translate(-776.751 -705.486)" fill="#2c1f9c"/>
        <path id="Trazado_101222" data-name="Trazado 101222" d="M766.432,787.148,723.386,762.3c-.474-.273-.415-.752.133-1.067l43.287-24.992a2.056,2.056,0,0,1,1.85-.076L811.7,761.012c.474.274.414.752-.133,1.068l-43.287,24.992A2.055,2.055,0,0,1,766.432,787.148Z" transform="translate(-723.066 -721.536)" fill="#3b4454"/>
        <path id="Trazado_101223" data-name="Trazado 101223" d="M814.357,728.9l-5.084-2.935,0-.01-36.785-21.238a1.606,1.606,0,0,0-2.335.908l-2.968,9.4a1.893,1.893,0,0,0-.382.16L723.519,740.17c-.547.316-.607.794-.133,1.068l43.046,24.852a2.055,2.055,0,0,0,1.849-.076l43.287-24.992a.868.868,0,0,0,.427-.471l.006,0,3.084-9.784A1.606,1.606,0,0,0,814.357,728.9Z" transform="translate(-723.066 -704.497)" fill="#12263f"/>
        <path id="Trazado_101224" data-name="Trazado 101224" d="M811.578,741.821l-5.429-3.134c-.393-.227-.344-.622.11-.884l4.528-2.614a1.7,1.7,0,0,1,1.531-.063l5.429,3.134c.393.227.343.622-.11.884l-4.528,2.614A1.7,1.7,0,0,1,811.578,741.821Z" transform="translate(-767.894 -720.992)" fill="#fff"/>
        <path id="Trazado_101225" data-name="Trazado 101225" d="M835.665,755.727l-5.428-3.134c-.393-.227-.344-.623.11-.884l4.528-2.614a1.7,1.7,0,0,1,1.532-.064l5.428,3.134c.393.227.343.623-.11.884l-4.528,2.614A1.7,1.7,0,0,1,835.665,755.727Z" transform="translate(-780.932 -728.519)" fill="#fff"/>
        <path id="Trazado_101226" data-name="Trazado 101226" d="M859.751,769.633l-5.429-3.134c-.393-.227-.343-.623.11-.884L858.96,763a1.7,1.7,0,0,1,1.532-.064l5.429,3.134c.393.227.344.622-.11.884l-4.528,2.614A1.7,1.7,0,0,1,859.751,769.633Z" transform="translate(-793.969 -736.046)" fill="#fff"/>
        <path id="Trazado_101227" data-name="Trazado 101227" d="M883.838,783.539l-5.429-3.134c-.393-.227-.344-.623.11-.884l4.528-2.614a1.7,1.7,0,0,1,1.532-.064l5.428,3.134c.393.227.344.622-.11.884l-4.528,2.615A1.7,1.7,0,0,1,883.838,783.539Z" transform="translate(-807.007 -743.573)" fill="#fff"/>
        <path id="Trazado_101228" data-name="Trazado 101228" d="M789.062,754.82l-5.428-3.134c-.392-.227-.343-.623.11-.884l4.528-2.614a1.7,1.7,0,0,1,1.532-.064l5.429,3.134c.393.227.344.622-.11.884l-4.528,2.614A1.7,1.7,0,0,1,789.062,754.82Z" transform="translate(-755.707 -728.028)" fill="#fff"/>
        <path id="Trazado_101229" data-name="Trazado 101229" d="M813.149,768.726l-5.428-3.134c-.393-.227-.343-.622.11-.884l4.528-2.614a1.7,1.7,0,0,1,1.531-.064l5.429,3.134c.393.227.344.622-.11.884l-4.528,2.614A1.7,1.7,0,0,1,813.149,768.726Z" transform="translate(-768.744 -735.556)" fill="#fff"/>
        <path id="Trazado_101230" data-name="Trazado 101230" d="M837.236,782.632l-5.429-3.134c-.393-.227-.344-.622.11-.884L836.445,776a1.7,1.7,0,0,1,1.532-.063l5.428,3.134c.393.227.343.622-.11.884l-4.528,2.614A1.7,1.7,0,0,1,837.236,782.632Z" transform="translate(-781.782 -743.083)" fill="#fff"/>
        <path id="Trazado_101231" data-name="Trazado 101231" d="M861.322,796.538l-5.429-3.134c-.392-.227-.343-.622.11-.884l4.528-2.614a1.7,1.7,0,0,1,1.532-.063l5.428,3.134c.393.227.344.622-.11.884l-4.528,2.614A1.7,1.7,0,0,1,861.322,796.538Z" transform="translate(-794.82 -750.61)" fill="#fff"/>
        <path id="Trazado_101232" data-name="Trazado 101232" d="M766.547,767.819l-5.429-3.134c-.393-.227-.344-.622.11-.884l4.528-2.614a1.7,1.7,0,0,1,1.532-.063l5.429,3.134c.393.227.343.622-.11.885l-4.528,2.614A1.7,1.7,0,0,1,766.547,767.819Z" transform="translate(-743.519 -735.065)" fill="#fff"/>
        <path id="Trazado_101233" data-name="Trazado 101233" d="M790.633,781.725l-5.428-3.134c-.393-.227-.344-.622.11-.884l4.528-2.614a1.7,1.7,0,0,1,1.532-.063l5.428,3.134c.393.227.343.622-.11.884l-4.528,2.614A1.7,1.7,0,0,1,790.633,781.725Z" transform="translate(-756.557 -742.592)" fill="#fff"/>
        <path id="Trazado_101234" data-name="Trazado 101234" d="M814.72,795.631l-5.428-3.134c-.393-.227-.343-.622.11-.884L813.929,789a1.7,1.7,0,0,1,1.532-.063l5.429,3.134c.393.227.344.623-.11.884l-4.528,2.614A1.7,1.7,0,0,1,814.72,795.631Z" transform="translate(-769.595 -750.119)" fill="#fff"/>
        <path id="Trazado_101235" data-name="Trazado 101235" d="M838.807,809.538l-5.429-3.134c-.393-.227-.344-.623.11-.884l4.528-2.614a1.7,1.7,0,0,1,1.532-.064l5.428,3.134c.393.227.343.623-.11.884l-4.528,2.614A1.7,1.7,0,0,1,838.807,809.538Z" transform="translate(-782.632 -757.646)" fill="#ff5c97"/>
        <path id="Trazado_101236" data-name="Trazado 101236" d="M744.031,780.819l-5.428-3.134c-.393-.227-.343-.622.11-.884l4.528-2.614a1.7,1.7,0,0,1,1.532-.064l5.428,3.134c.393.227.344.623-.11.884l-4.528,2.614A1.7,1.7,0,0,1,744.031,780.819Z" transform="translate(-731.332 -742.101)" fill="#fff"/>
        <path id="Trazado_101237" data-name="Trazado 101237" d="M768.118,794.725l-5.428-3.134c-.393-.227-.344-.623.11-.884l4.528-2.614a1.7,1.7,0,0,1,1.532-.064l5.429,3.134c.393.227.343.623-.11.884l-4.528,2.614A1.7,1.7,0,0,1,768.118,794.725Z" transform="translate(-744.37 -749.628)" fill="#fff"/>
        <path id="Trazado_101238" data-name="Trazado 101238" d="M792.2,808.631l-5.429-3.134c-.393-.227-.344-.623.11-.884L791.414,802a1.7,1.7,0,0,1,1.532-.064l5.429,3.134c.392.227.343.622-.11.884l-4.528,2.614A1.7,1.7,0,0,1,792.2,808.631Z" transform="translate(-757.407 -757.155)" fill="#fff"/>
        <path id="Trazado_101239" data-name="Trazado 101239" d="M816.208,817.865l-4.79-2.765c-.569-.328-.5-.9.16-1.282l10.578-6.107a2.468,2.468,0,0,1,2.22-.092l4.79,2.765c.569.328.5.9-.16,1.282l-10.579,6.107A2.468,2.468,0,0,1,816.208,817.865Z" transform="translate(-770.681 -760.195)" fill="#ff5c97"/>
        <path id="Trazado_101240" data-name="Trazado 101240" d="M866,732.8l-3.229-1.864,0-.006L837.326,716.24l-.006.019-9.509-5.49a.688.688,0,0,0-1,.389l-1.869,5.93a.688.688,0,0,0,.313.8l3.617,2.089,0,.006,25.445,14.69.006-.019,8.906,5.142a1.248,1.248,0,0,0,1.814-.705l1.525-4.838A1.247,1.247,0,0,0,866,732.8Z" transform="translate(-778.191 -707.842)" fill="#fff"/>
      </g>
    </g>
    <path id="Trazado_101241" data-name="Trazado 101241" d="M723.724,566l-1.32-27.721-7.121-4.244,7.121,4.244-6.149,10.862.544,13.027L723.724,566l-25,14.031-6.456-3.877,26.222-16.405Z" transform="translate(-31.649 -225.258)" fill="#a8c4e5" opacity="0.4" style="mix-blend-mode: multiply;isolation: isolate"/>
    <path id="Trazado_101242" data-name="Trazado 101242" d="M773.731,522.186V524l16.579,9.46.047-1.886Z" transform="translate(-75.742 -218.847)" fill="#2e9daa"/>
    <path id="Trazado_101243" data-name="Trazado 101243" d="M723.724,565.835,716.8,562l-.544-13.027,6.149-10.862-7.121-4.244-23.014,42.193,6.456,3.877L722.4,538.114l1.32,27.721" transform="translate(-31.649 -225.171)" fill="#60c1dd"/>
    <path id="Trazado_101244" data-name="Trazado 101244" d="M749.561,538.275l-7.121-4.244,7.121,4.244-6.15,10.862.544,13.027L750.881,566l18.246-10.829-7.39-4.266-11.269,7.055Z" transform="translate(-58.805 -225.258)" fill="#a8c4e5" opacity="0.4" style="mix-blend-mode: multiply;isolation: isolate"/>
    <path id="Trazado_101245" data-name="Trazado 101245" d="M773.731,511.938l15.831-8.685.785,18.371Z" transform="translate(-75.742 -208.599)" fill="#60c1dd"/>
    <g id="Grupo_87558" data-name="Grupo 87558" transform="translate(643.678 200.045)">
      <path id="Trazado_101246" data-name="Trazado 101246" d="M660.845,388.421l49.02-28.3c3.03-1.75,5.508-6.485,5.508-10.525V301.827c0-4.04-2.478-5.913-5.508-4.164l-49.02,28.3c-3.03,1.749-5.509,6.485-5.509,10.525v47.767C655.336,388.3,657.815,390.17,660.845,388.421Z" transform="translate(-655.336 -297.007)" fill="#f0f8ff"/>
      <ellipse id="Elipse_4793" data-name="Elipse 4793" cx="27.92" cy="16.119" rx="27.92" ry="16.119" transform="matrix(0.505, -0.863, 0.863, 0.505, 3.269, 62.003)" fill="#2a75a9"/>
      <path id="Trazado_101247" data-name="Trazado 101247" d="M684.894,417.031c-2.842-2.293-4.551-6.357-4.551-11.866a34.51,34.51,0,0,1,1.864-10.7l9.233-3.806,10.609,4.695v.567Z" transform="translate(-668.872 -347.697)" fill="#abcfff"/>
      <path id="Trazado_101248" data-name="Trazado 101248" d="M697.492,373.018l-25.568,4.742c1.715-10.108,7.391-20.808,14.862-28.361Z" transform="translate(-664.315 -325.366)" fill="#ca4f4e"/>
    </g>
    <g id="Grupo_87560" data-name="Grupo 87560" transform="translate(723.282 445.074)">
      <path id="Trazado_101249" data-name="Trazado 101249" d="M900.645,852.433c-.389-.149-.779-.288-1.169-.427,2.888-5.185-4.158-10.662-6.649-12.381a2.756,2.756,0,0,0-1.828-.473,51.64,51.64,0,0,0-17.08,4.806,79.112,79.112,0,0,0-14.974,5.89c-.236.126-.465.253-.7.38q-1.342.3-2.68.639a59.582,59.582,0,0,0-14.246,5.591,29.909,29.909,0,0,0-4.3,2.575,2.765,2.765,0,0,0-.294,4.217,27.809,27.809,0,0,0,7.257,5.1,18.307,18.307,0,0,0,1.2,7.033,4.692,4.692,0,0,0,4.356,2.577,2.788,2.788,0,0,0,2.2-.741,1.3,1.3,0,0,0,.44-1.422,16.978,16.978,0,0,1-1.341-5.641,27.26,27.26,0,0,0,9.783-.848c15.657-5.313,5.789-15.409,5.789-15.409l.369-.142,1.145-.438.369-.142s10.171,10.9,26.156,3c.177-.087.348-.175.515-.263,1.973.546,3.188.933,3.235.948,2.222.7,4.013.317,4.777-.45a1.632,1.632,0,0,0,.169-.2C903.742,855.37,903.1,853.41,900.645,852.433ZM896.4,850.5q.118-.464.2-.934A3.635,3.635,0,0,1,896.4,850.5Z" transform="translate(-832.668 -835.482)" fill="#a8c4e5" opacity="0.52" style="mix-blend-mode: multiply;isolation: isolate"/>
      <g id="Grupo_87559" data-name="Grupo 87559">
        <path id="Trazado_101250" data-name="Trazado 101250" d="M847.893,872.04c-.77-5.784-.572-11.827,2.14-15.544A35.888,35.888,0,0,1,862.4,846.211a85.745,85.745,0,0,1,20.7-7.368l.657.787a127.692,127.692,0,0,0-23.8,14.18c-11.281,8.642-6.524,19.1-5.977,20.46.6,1.478-1.053,2.611-2.086,2.6C850.208,876.845,848.348,875.455,847.893,872.04Z" transform="translate(-838.955 -835.321)" fill="#12263f"/>
        <path id="Trazado_101251" data-name="Trazado 101251" d="M850.7,854.16a79.53,79.53,0,0,1,20.825-2.541c8.642.117,16.953,1.053,25.017,4.133,2.5.995,3.151,2.988,2.539,3.847a1.608,1.608,0,0,1-.172.2c-.777.781-2.6,1.169-4.858.457-.188-.06-18.941-6.029-30.529-4.6-18.772,2.31-31.177,6.857-31.3,6.9l.243-.33C832.542,862.182,838.929,857.182,850.7,854.16Z" transform="translate(-830.685 -842.233)" fill="#12263f"/>
        <path id="Trazado_101252" data-name="Trazado 101252" d="M836.624,868.484a9.092,9.092,0,0,0,7.8,7.574c6.979,1.02,16.48.627,18.822-3.683s1.989-10.7-1.413-12.482S841.246,861.24,836.624,868.484Z" transform="translate(-833.067 -846.45)" fill="#12263f" opacity="0.65"/>
        <path id="Trazado_101253" data-name="Trazado 101253" d="M902.621,843.269a9.092,9.092,0,0,0,7.8,7.574c6.978,1.02,16.479.627,18.822-3.684s1.989-10.7-1.413-12.481S907.244,836.026,902.621,843.269Z" transform="translate(-868.79 -832.802)" fill="#12263f" opacity="0.65"/>
        <path id="Trazado_101254" data-name="Trazado 101254" d="M830.022,851.4a2.812,2.812,0,0,0-.3,4.289c3.775,3.663,12.535,10.151,24.3,6.159,15.923-5.4,5.888-15.671,5.888-15.671l.375-.144,1.164-.446.375-.144s10.344,11.08,26.6,3.055c12.4-6.123,1.593-14.6-1.646-16.836a2.8,2.8,0,0,0-1.859-.481c-3.828.362-17.7,2.3-27.373,11.881l-.1.037C841.811,844.386,833.627,848.767,830.022,851.4Zm36.418-6.62h0a2.823,2.823,0,0,1,.039-4.57c6.628-4.762,14.5-5.972,17.332-6.263a2.81,2.81,0,0,1,2,.568c2.6,1.988,9.289,8.049.221,11.956A20.551,20.551,0,0,1,866.44,844.778Zm-31.258,11.61a2.818,2.818,0,0,1,.089-4.729c3.068-1.924,8.724-4.469,18.087-5.462a2.829,2.829,0,0,1,2.184.7l1.6,1.44s7.672,6.78-4.175,10.8A19.989,19.989,0,0,1,835.183,856.388Z" transform="translate(-828.87 -831.165)" fill="#12263f"/>
        <path id="Trazado_101255" data-name="Trazado 101255" d="M850.969,879.955h0a.851.851,0,0,1-.717-.962l.737-5.04a.851.851,0,0,1,.962-.717h0a.852.852,0,0,1,.718.963l-.737,5.04A.85.85,0,0,1,850.969,879.955Z" transform="translate(-840.438 -853.932)" fill="#12263f"/>
        <path id="Trazado_101256" data-name="Trazado 101256" d="M858,878.873h0a.581.581,0,0,1-.49-.657l.814-5.573a.581.581,0,0,1,.657-.489h0a.581.581,0,0,1,.49.657l-.814,5.573A.582.582,0,0,1,858,878.873Z" transform="translate(-844.368 -853.348)" fill="#12263f"/>
        <path id="Trazado_101257" data-name="Trazado 101257" d="M919.641,853.521h0a.852.852,0,0,1-.717-.963l.737-5.04a.851.851,0,0,1,.963-.717h0a.851.851,0,0,1,.717.963L920.6,852.8A.852.852,0,0,1,919.641,853.521Z" transform="translate(-877.609 -839.624)" fill="#12263f"/>
        <path id="Trazado_101258" data-name="Trazado 101258" d="M926.671,852.438h0a.581.581,0,0,1-.489-.657l.814-5.573a.582.582,0,0,1,.657-.49h0a.582.582,0,0,1,.49.657l-.815,5.573A.581.581,0,0,1,926.671,852.438Z" transform="translate(-881.539 -839.039)" fill="#12263f"/>
      </g>
    </g>
    <path id="Trazado_101259" data-name="Trazado 101259" d="M777.483,528.621l1.939-1.816-7.64-4.619-12.447,22.82.619,14.578" transform="translate(-67.95 -218.847)" fill="#60c1dd"/>
    <path id="Trazado_101260" data-name="Trazado 101260" d="M831.839,285.195l3.017-1.742a1.95,1.95,0,0,0,.814-1.556v-3.16c0-.6-.364-.875-.814-.616l-3.017,1.742a1.95,1.95,0,0,0-.814,1.555v3.16C831.025,285.179,831.389,285.454,831.839,285.195Z" transform="translate(-106.755 -86.687)" fill="#4c73db"/>
    <g id="Grupo_87561" data-name="Grupo 87561" transform="translate(712.036 145.46)">
      <path id="Trazado_101261" data-name="Trazado 101261" d="M843.159,178.011v67.144l-33.268,19.222V197.233Z" transform="translate(-807.351 -178.011)" fill="#dbefff"/>
      <path id="Trazado_101262" data-name="Trazado 101262" d="M837.167,227.584l14.965-8.64v-2.657l-14.965,8.64Z" transform="translate(-822.115 -198.729)" fill="#97cbff"/>
      <path id="Trazado_101263" data-name="Trazado 101263" d="M837.167,253.844l14.965-8.64v-2.657l-14.965,8.64Z" transform="translate(-822.115 -212.943)" fill="#97cbff"/>
      <path id="Trazado_101264" data-name="Trazado 101264" d="M837.167,280.1l14.965-8.64v-2.656l-14.965,8.64Z" transform="translate(-822.115 -227.157)" fill="#97cbff"/>
      <path id="Trazado_101265" data-name="Trazado 101265" d="M823.329,240.41l3.018-1.742a1.95,1.95,0,0,0,.814-1.555v-3.16c0-.6-.364-.875-.814-.616l-3.018,1.742a1.95,1.95,0,0,0-.814,1.556v3.16C822.515,240.394,822.879,240.67,823.329,240.41Z" transform="translate(-814.184 -207.905)" fill="#4c73db"/>
      <path id="Trazado_101266" data-name="Trazado 101266" d="M823.329,268.532l3.018-1.742a1.95,1.95,0,0,0,.814-1.555v-3.16c0-.6-.364-.875-.814-.616l-3.018,1.742a1.95,1.95,0,0,0-.814,1.555v3.16C822.515,268.516,822.879,268.792,823.329,268.532Z" transform="translate(-814.184 -223.127)" fill="#4c73db"/>
      <path id="Trazado_101267" data-name="Trazado 101267" d="M823.329,294.52l3.018-1.742a1.951,1.951,0,0,0,.814-1.556v-3.16c0-.6-.364-.875-.814-.615l-3.018,1.742a1.948,1.948,0,0,0-.814,1.555v3.16C822.515,294.5,822.879,294.78,823.329,294.52Z" transform="translate(-814.184 -237.194)" fill="#4c73db"/>
      <path id="Trazado_101268" data-name="Trazado 101268" d="M808.695,324.125,826.2,314.018c2.387-1.378,4.34-5.11,4.34-8.293v-.933c0-3.183-1.953-4.66-4.34-3.281l-17.506,10.107c-2.388,1.378-4.341,5.111-4.341,8.293v.933C804.354,324.027,806.308,325.5,808.695,324.125Z" transform="translate(-804.354 -244.58)" fill="#3b4454"/>
      <path id="Trazado_101269" data-name="Trazado 101269" d="M816.688,324.658l15.192-8.771a1.355,1.355,0,0,0,.564-1.077h0c0-.413-.254-.6-.564-.426l-15.192,8.771a1.355,1.355,0,0,0-.564,1.077h0C816.124,324.645,816.378,324.837,816.688,324.658Z" transform="translate(-810.725 -251.791)" fill="#fff"/>
    </g>
    <g id="Grupo_87562" data-name="Grupo 87562" transform="translate(665.857 455.928)">
      <path id="Trazado_101270" data-name="Trazado 101270" d="M745.912,869.288c-7.26-4.354-19.144-4.551-26.545-.44s-7.515,10.972-.255,15.326,19.015,4.554,26.552.527C753.95,880.275,753.172,873.642,745.912,869.288Z" transform="translate(-709.128 -860.814)" fill="#4a70d6" opacity="0.27"/>
      <path id="Trazado_101271" data-name="Trazado 101271" d="M734.764,867.4c-6.9-4.135-18.182-4.323-25.21-.419s-7.137,10.42-.242,14.555,18.058,4.326,25.217.5C742.4,877.833,741.659,871.535,734.764,867.4Z" transform="translate(-703.969 -859.884)" fill="#2e9daa"/>
      <path id="Trazado_101272" data-name="Trazado 101272" d="M734.238,858.054c-6.895-4.135-18.182-4.323-25.21-.419s-7.137,10.42-.243,14.555,18.059,4.326,25.217.5C741.872,868.488,741.133,862.189,734.238,858.054Z" transform="translate(-703.684 -854.826)" fill="#60c1dd"/>
      <path id="Trazado_101273" data-name="Trazado 101273" d="M730.707,868.05l-2.045,7.025,16.566-3.749" transform="translate(-717.204 -861.984)" fill="none" stroke="#fff" stroke-linecap="round" stroke-linejoin="round" stroke-width="8.025"/>
    </g>
    <g id="Grupo_87566" data-name="Grupo 87566" transform="translate(754.088 294.275)">
      <path id="Trazado_101274" data-name="Trazado 101274" d="M940.946,552.688l-31.33,19.576L896.026,522l31.33-19.575Z" transform="translate(-896.026 -502.426)" fill="#e6f4ff"/>
      <path id="Trazado_101275" data-name="Trazado 101275" d="M927.239,602.384l3.6-2.317a.876.876,0,0,1,.1-.072l5-3.219a.756.756,0,0,1,.111-.058l3.142-2.024c.447-.288.911.019,1.032.683a1.809,1.809,0,0,1-.594,1.73l-5,3.219a.757.757,0,0,1-.111.058l-1.741,1.122a.907.907,0,0,1-.095.072l-5,3.219c-.447.288-.911-.019-1.032-.683A1.809,1.809,0,0,1,927.239,602.384Z" transform="translate(-912.584 -552.31)" fill="#bfdfff"/>
      <path id="Trazado_101276" data-name="Trazado 101276" d="M931.991,621.07l5-3.219a1.81,1.81,0,0,0,.593-1.73h0c-.121-.664-.585-.971-1.032-.683l-5,3.22a1.809,1.809,0,0,0-.593,1.73h0C931.079,621.051,931.544,621.358,931.991,621.07Z" transform="translate(-914.919 -563.538)" fill="#bfdfff"/>
      <g id="Grupo_87563" data-name="Grupo 87563" transform="translate(7.391 20.073)">
        <path id="Trazado_101277" data-name="Trazado 101277" d="M918.628,547.272c-4.612,2.605-7.4,9.071-6.22,14.44s5.869,7.611,10.481,5.006,7.4-9.071,6.219-14.441S923.239,544.667,918.628,547.272Zm.7,3.2c3.092-1.747,6.239-.244,7.028,3.357a9.425,9.425,0,0,1-4.171,9.684c-3.092,1.747-6.239.245-7.028-3.357A9.426,9.426,0,0,1,919.33,550.475Z" transform="translate(-912.138 -546.185)" fill="#29479c"/>
        <path id="Trazado_101278" data-name="Trazado 101278" d="M918.631,547.273c2.822-1.595,5.673-1.371,7.732.271l-1.889,3.079a4.506,4.506,0,0,0-5.141-.147,9.417,9.417,0,0,0-4.348,7.774l-2.84.74C912.205,554.317,914.78,549.449,918.631,547.273Z" transform="translate(-912.142 -546.187)" fill="#5986ff"/>
        <path id="Trazado_101279" data-name="Trazado 101279" d="M942.746,561.14l-2.55-.89a9.14,9.14,0,0,0,.485-5.181,5.346,5.346,0,0,0-2.08-3.351l1.661-3.247a7.943,7.943,0,0,1,3.17,5.044A13.605,13.605,0,0,1,942.746,561.14Z" transform="translate(-926.462 -547.423)" fill="#add5f7"/>
      </g>
      <g id="Grupo_87564" data-name="Grupo 87564" transform="translate(25.763 14.356)">
        <path id="Trazado_101280" data-name="Trazado 101280" d="M953.054,538.406l4.07-2.6a1.488,1.488,0,0,0,.483-1.422h0c-.1-.549-.477-.808-.841-.576l-4.07,2.6a1.489,1.489,0,0,0-.484,1.422h0C952.312,538.38,952.69,538.639,953.054,538.406Z" transform="translate(-952.19 -533.721)" fill="#add5f7"/>
        <path id="Trazado_101281" data-name="Trazado 101281" d="M956.4,551.038l4.07-2.6a1.488,1.488,0,0,0,.484-1.422h0c-.1-.549-.477-.808-.841-.575l-4.07,2.6a1.488,1.488,0,0,0-.483,1.422h0C955.657,551.011,956.036,551.27,956.4,551.038Z" transform="translate(-954.001 -540.558)" fill="#add5f7"/>
        <path id="Trazado_101282" data-name="Trazado 101282" d="M959.632,563.574l4.07-2.6a1.487,1.487,0,0,0,.483-1.422h0c-.1-.549-.477-.809-.841-.576l-4.07,2.6a1.486,1.486,0,0,0-.483,1.422h0C958.889,563.548,959.267,563.807,959.632,563.574Z" transform="translate(-955.75 -547.344)" fill="#add5f7"/>
      </g>
      <g id="Grupo_87565" data-name="Grupo 87565" transform="translate(30.197 37.329)">
        <path id="Trazado_101283" data-name="Trazado 101283" d="M962.069,592.51a7.571,7.571,0,0,1,3.2-8.058,4.065,4.065,0,0,1,3.414-.456h0l.011.005a3.53,3.53,0,0,1,.409.171l2.48,1.124-1.19-.076a5.017,5.017,0,0,1,.913,1.863,7.571,7.571,0,0,1-3.2,8.058,4.675,4.675,0,0,1-1.567.59l-.173.612-1.726-.763c-.094-.034-.187-.073-.278-.115l-.031-.013v0A4.352,4.352,0,0,1,962.069,592.51Z" transform="translate(-961.854 -583.802)" fill="#a31e1d"/>
        <path id="Trazado_101284" data-name="Trazado 101284" d="M967,594.708c.785,2.951,3.488,4.129,6.038,2.631a7.571,7.571,0,0,0,3.2-8.058c-.785-2.951-3.488-4.129-6.038-2.631A7.571,7.571,0,0,0,967,594.708Z" transform="translate(-964.524 -584.991)" fill="#ca4f4e"/>
        <path id="Trazado_101285" data-name="Trazado 101285" d="M977.056,592.235l-1.592,5.863-3.244-2.307" transform="translate(-967.465 -588.366)" fill="none" stroke="#fff" stroke-miterlimit="10" stroke-width="1.77"/>
      </g>
    </g>
    <g id="Grupo_87572" data-name="Grupo 87572" transform="translate(781.466 346.047)">
      <g id="Grupo_87568" data-name="Grupo 87568" transform="translate(6.555 13.699)">
        <g id="Grupo_87567" data-name="Grupo 87567">
          <path id="Trazado_101286" data-name="Trazado 101286" d="M993.209,647.85c-1.709,3.41-4.488,10.193-8.127,11.486-5.035,1.789-10.292-4.266-14.326-7.307-1.806-1.362-.035-4.453,1.8-3.073,3.265,2.461,7.4,4.621,11.534,3.077a11.712,11.712,0,0,0,6.05-5.98c1.026-2.048,4.1-.248,3.073,1.8Z" transform="translate(-970.001 -645.152)" fill="#bad4f5"/>
        </g>
      </g>
      <path id="Trazado_101287" data-name="Trazado 101287" d="M968.205,653.338l-1.531-.931a1.7,1.7,0,0,1-.566-2.326h0a1.7,1.7,0,0,1,2.326-.567l1.531.931a1.7,1.7,0,0,1,.567,2.326h0A1.7,1.7,0,0,1,968.205,653.338Z" transform="translate(-961.206 -633.681)" fill="#ffc2b0"/>
      <path id="Trazado_101288" data-name="Trazado 101288" d="M988.293,632.794a3.619,3.619,0,0,0,1.6-3.066l.014-.01-.074-.607a6,6,0,0,0-3.16,2.2S986.56,633.957,988.293,632.794ZM987,631.429a4.665,4.665,0,0,1,2.465-1.713l.029.472a2.691,2.691,0,0,1-1.192,2.279C987.016,633.333,987,631.429,987,631.429Z" transform="translate(-972.47 -622.77)" fill="#1f3b82"/>
      <path id="Trazado_101289" data-name="Trazado 101289" d="M967.934,704.373c.514-4.824,2.477-8.18,8.163-8.6a2.461,2.461,0,0,1,1.052.162l19.836,5.9s4.335,10.762-6.3,14.021c-5.383,1.65-15.835-3.81-20.589-6.914A4.846,4.846,0,0,1,967.934,704.373Z" transform="translate(-962.312 -658.849)" fill="#60c1dd"/>
      <path id="Trazado_101290" data-name="Trazado 101290" d="M991.852,626.953c1.443,2.717,4.767,3.107,6.19.832s1.407-6.323-.036-9.041-3.767-3.076-5.19-.8S990.408,624.235,991.852,626.953Z" transform="translate(-974.889 -615.915)" fill="#ffc2b0"/>
      <path id="Trazado_101291" data-name="Trazado 101291" d="M1005.481,643.018l.3-.135a2,2,0,0,0,.987-2.643l-2.569-5.627a2,2,0,0,0-2.643-.987l-.3.135a2,2,0,0,0-.986,2.643l1.673,5.77C1002.4,643.173,1004.483,643.474,1005.481,643.018Z" transform="translate(-979.733 -625.117)" fill="#ffc2b0"/>
      <path id="Trazado_101292" data-name="Trazado 101292" d="M998.886,624.73s.785,1.93-2.676,2.866c-2.768.748-3.01-4.5-5.883-4.36-3.161.149-4.515-3.508-3.617-5.212s4.1-3.174,6.767-2.616S1001.426,615.667,998.886,624.73Z" transform="translate(-972.343 -615.288)" fill="#12263f"/>
      <path id="Trazado_101293" data-name="Trazado 101293" d="M1006.228,674.3c-.456-4.653-2.277-4.789-1.819-10.864.122-1.621.165-3.249.147-4.875-.1-8.87-.818-14.893-5.828-13.452l-1.578.419a10.9,10.9,0,0,0-2.19.846c-7.383,3.8-11.072,3.953-9.693,12.113.3,8.082,3.973,6.341,2.432,14.371C987.7,682.479,1006.238,680.311,1006.228,674.3Z" transform="translate(-971.554 -631.315)" fill="#bad4f5"/>
      <path id="Trazado_101294" data-name="Trazado 101294" d="M988.054,677.142l4.024-8.776c.312,5.024-.1,9.527-2.41,12.663Z" transform="translate(-973.218 -644.018)" fill="#8fb6eb"/>
      <path id="Trazado_101295" data-name="Trazado 101295" d="M1000.129,643.335l.16-.792a2.034,2.034,0,0,1-1.535.767A2.608,2.608,0,0,0,1000.129,643.335Z" transform="translate(-979.009 -630.04)" fill="#f09a82"/>
      <path id="Trazado_101296" data-name="Trazado 101296" d="M1000.53,628.011a8.74,8.74,0,0,1,2.153,4.422c.339,3.03,2.286,4.885,4.85,3.235,1.273-.819,2.376-1.741,2.293-2.657-.709-7.789-3.273-12.2-3.273-12.2Z" transform="translate(-979.971 -618.28)" fill="#12263f"/>
      <path id="Trazado_101297" data-name="Trazado 101297" d="M977.528,661.041s-.9,18.71-10.79,12.659c-6.175-3.78-5.547-14.668-5.547-14.668l2.723-.427s2.977,11.742,6.1,10,2.341-10.193,3.885-10.84S977.528,661.041,977.528,661.041Z" transform="translate(-958.668 -638.238)" fill="#bad4f5"/>
      <path id="Trazado_101298" data-name="Trazado 101298" d="M961.48,657.592h0a1.612,1.612,0,0,0,1-2.043l-1.234-3.591a1.612,1.612,0,0,0-2.043-1h0a1.612,1.612,0,0,0-1,2.043l1.234,3.591A1.613,1.613,0,0,0,961.48,657.592Z" transform="translate(-957.013 -634.549)" fill="#ffc2b0"/>
      <g id="Grupo_87569" data-name="Grupo 87569" transform="translate(0 11.188)">
        <path id="Trazado_101299" data-name="Trazado 101299" d="M960.223,651.364l3.856-2.876a.685.685,0,0,0,.155-.834l-3.78-7.668a.453.453,0,0,0-.678-.228l-3.836,2.8a.686.686,0,0,0-.155.834l3.762,7.632c.1.193.192.217.388.265Z" transform="translate(-955.711 -639.677)" fill="#97cbff"/>
        <path id="Trazado_101300" data-name="Trazado 101300" d="M959.8,643.609s4.6,4.338,4.455,4.045l-3.783-7.933-.362-.037a.4.4,0,0,0-.313.074l-3.836,2.8a.584.584,0,0,0-.216.359Z" transform="translate(-955.728 -639.678)" fill="#97cbff"/>
        <path id="Trazado_101301" data-name="Trazado 101301" d="M961.065,651.358l3.824-2.8a.682.682,0,0,0,.142-.833l-3.78-7.668a.447.447,0,0,0-.672-.228l-3.821,2.8a.68.68,0,0,0-.139.832l3.779,7.669A.442.442,0,0,0,961.065,651.358Z" transform="translate(-956.16 -639.718)" fill="#1f3b82"/>
        <path id="Trazado_101302" data-name="Trazado 101302" d="M956.9,649.069l.216.438c.015.03,0,.048-.039.039l.005,0a.131.131,0,0,1-.078-.074l-.216-.438c-.015-.03-.012-.046.024-.037l0,0A.144.144,0,0,1,956.9,649.069Z" transform="translate(-956.288 -644.718)" fill="#45446c"/>
        <path id="Trazado_101303" data-name="Trazado 101303" d="M957.721,650.741l.216.438c.015.031,0,.048-.039.039l.005,0a.131.131,0,0,1-.078-.074l-.216-.438c-.015-.03-.013-.046.024-.037l0,0A.145.145,0,0,1,957.721,650.741Z" transform="translate(-956.733 -645.623)" fill="#45446c"/>
        <path id="Trazado_101304" data-name="Trazado 101304" d="M961.214,651.073l3.766-2.746-3.312-6.765-3.743,2.73,3.345,6.587C961.3,650.935,961.163,651.111,961.214,651.073Z" transform="translate(-956.91 -640.697)" fill="#dbedff"/>
        <path id="Trazado_101305" data-name="Trazado 101305" d="M960.055,643.767l1.183-.863a.124.124,0,0,0,.028-.151h0a.082.082,0,0,0-.123-.041l-1.183.863a.124.124,0,0,0-.028.151h0A.082.082,0,0,0,960.055,643.767Z" transform="translate(-957.988 -641.312)" fill="#fff"/>
      </g>
      <path id="Trazado_101306" data-name="Trazado 101306" d="M986.468,633.331l4.416-.688a.289.289,0,0,0,.241-.33h0a.29.29,0,0,0-.33-.241l-4.416.688a.29.29,0,0,0-.241.33h0A.29.29,0,0,0,986.468,633.331Z" transform="translate(-972.179 -624.371)" fill="#1f3b82"/>
      <circle id="Elipse_4794" data-name="Elipse 4794" cx="1.355" cy="1.355" r="1.355" transform="translate(17.808 9.78) rotate(-72.849)" fill="#ffc2b0"/>
      <g id="Grupo_87571" data-name="Grupo 87571" transform="translate(2.217 13.841)">
        <g id="Grupo_87570" data-name="Grupo 87570">
          <path id="Trazado_101307" data-name="Trazado 101307" d="M960.807,648.528a1.679,1.679,0,0,0,2.485.488,2.111,2.111,0,0,0,.609-2.717,1.678,1.678,0,0,0-2.484-.488A2.11,2.11,0,0,0,960.807,648.528Zm.51-.367a1.415,1.415,0,0,1,.409-1.822,1.125,1.125,0,0,1,1.666.328,1.415,1.415,0,0,1-.409,1.822A1.125,1.125,0,0,1,961.316,648.16Z" transform="translate(-960.544 -645.461)" fill="#2c4482"/>
          <path id="Trazado_101308" data-name="Trazado 101308" d="M960.807,650.042a2.053,2.053,0,0,1-.11-1.784l.541.233a1.376,1.376,0,0,0,.078,1.183,1.11,1.11,0,0,0,1.358.491l.177.6A1.656,1.656,0,0,1,960.807,650.042Z" transform="translate(-960.545 -646.975)" fill="#ff5c97"/>
          <path id="Trazado_101309" data-name="Trazado 101309" d="M962.807,645.476l-.094.64a1.183,1.183,0,0,0-.857.224,1.415,1.415,0,0,0-.507.691l-.564-.17a2.1,2.1,0,0,1,.761-1.049A1.765,1.765,0,0,1,962.807,645.476Z" transform="translate(-960.675 -645.462)" fill="#fff"/>
        </g>
        <path id="Trazado_101310" data-name="Trazado 101310" d="M965.856,654.98l1.648-1.187a.292.292,0,0,0,.058-.379h0a.232.232,0,0,0-.335-.095l-1.648,1.187a.293.293,0,0,0-.058.379h0A.233.233,0,0,0,965.856,654.98Z" transform="translate(-963.214 -649.693)" fill="#fff"/>
        <path id="Trazado_101311" data-name="Trazado 101311" d="M966.956,656.742l1.648-1.187a.292.292,0,0,0,.058-.378h0a.232.232,0,0,0-.335-.1l-1.648,1.187a.292.292,0,0,0-.058.379h0A.232.232,0,0,0,966.956,656.742Z" transform="translate(-963.81 -650.647)" fill="#fff"/>
      </g>
      <path id="Trazado_101312" data-name="Trazado 101312" d="M961,657.307l-.46-.959c.37-.01.8,1.5.792,1.2l-.014-4.274a.626.626,0,0,0-.688-.539h0a.625.625,0,0,0-.657.575l.059,2.111C960.044,655.723,960.634,657.317,961,657.307Z" transform="translate(-958.02 -635.555)" fill="#ffc2b0"/>
    </g>
    <path id="Trazado_101313" data-name="Trazado 101313" d="M909.616,595.362l-7.158-5.28L896.026,545.1Z" transform="translate(-141.939 -231.249)" fill="#a8c4e5" opacity="0.73" style="mix-blend-mode: multiply;isolation: isolate"/>
  </g>
</svg>
