<svg xmlns="http://www.w3.org/2000/svg" width="400" height="336.121" viewBox="0 0 400 336.121">
  <g id="Grupo_90434" data-name="Grupo 90434" transform="translate(-600 -1715.879)">
    <rect id="Rectángulo_35030" data-name="Rectángulo 35030" width="400" height="232" rx="16" transform="translate(600 1820)" fill="#afe0ee" opacity="0.5"/>
    <rect id="Rectángulo_35031" data-name="Rectángulo 35031" width="234" height="68" transform="translate(685 1952)" fill="#fff"/>
    <path id="Trazado_112886" data-name="Trazado 112886" d="M11.443-1.582A4.96,4.96,0,0,1,9.36-.308,8.984,8.984,0,0,1,6.354.176,5.36,5.36,0,0,1,2.338-1.362,6.226,6.226,0,0,1,.729-5.643L.721-6.75a7.637,7.637,0,0,1,.668-3.3A4.96,4.96,0,0,1,3.3-12.221a5.407,5.407,0,0,1,2.878-.76,5.669,5.669,0,0,1,3.713,1.094,4.637,4.637,0,0,1,1.542,3.265H8.464a2.426,2.426,0,0,0-.686-1.529,2.212,2.212,0,0,0-1.494-.457,2.013,2.013,0,0,0-1.793.984A5.256,5.256,0,0,0,3.85-6.812v.773A5.145,5.145,0,0,0,4.5-3.16,2.316,2.316,0,0,0,6.565-2.2a2.592,2.592,0,0,0,1.793-.536V-4.72H6.214V-6.838h5.229ZM18.457,0a3.344,3.344,0,0,1-.281-.853A2.754,2.754,0,0,1,15.891.176a3.374,3.374,0,0,1-2.285-.813,2.588,2.588,0,0,1-.94-2.043,2.66,2.66,0,0,1,1.143-2.338A5.821,5.821,0,0,1,17.13-5.81h.914v-.5q0-1.316-1.134-1.316a.927.927,0,0,0-1.055,1.042H12.894a2.655,2.655,0,0,1,1.173-2.239,4.931,4.931,0,0,1,2.993-.86,4.323,4.323,0,0,1,2.874.888,3.086,3.086,0,0,1,1.081,2.435v4.21a4.311,4.311,0,0,0,.4,2V0ZM16.6-1.934a1.652,1.652,0,0,0,.918-.237,1.487,1.487,0,0,0,.523-.536V-4.228h-.861q-1.547,0-1.547,1.389a.848.848,0,0,0,.272.655A.986.986,0,0,0,16.6-1.934Zm11.03-.738a.684.684,0,0,0-.4-.606,6.016,6.016,0,0,0-1.5-.475A6.853,6.853,0,0,1,23.906-4.4a3.062,3.062,0,0,1-1.1-.971,2.319,2.319,0,0,1-.378-1.31,2.628,2.628,0,0,1,1.081-2.158,4.453,4.453,0,0,1,2.83-.848,4.934,4.934,0,0,1,3.023.853,2.666,2.666,0,0,1,1.143,2.241H27.536q0-1.143-1.2-1.143a1.194,1.194,0,0,0-.782.259.8.8,0,0,0-.316.646.737.737,0,0,0,.387.642,3.654,3.654,0,0,0,1.235.4,10.671,10.671,0,0,1,1.49.378A2.706,2.706,0,0,1,30.489-2.76,2.491,2.491,0,0,1,29.333-.642a5.068,5.068,0,0,1-2.993.817,5.172,5.172,0,0,1-2.18-.439,3.645,3.645,0,0,1-1.494-1.2,2.707,2.707,0,0,1-.536-1.591H24.9a1.145,1.145,0,0,0,.439.962,1.808,1.808,0,0,0,1.081.3,1.422,1.422,0,0,0,.91-.246A.787.787,0,0,0,27.633-2.672Zm7.69-9.2V-9.51h1.564v2.057H35.323V-3.1a1.111,1.111,0,0,0,.193.747,1.037,1.037,0,0,0,.765.211A4.345,4.345,0,0,0,37.02-2.2V-.079a5.466,5.466,0,0,1-1.67.255,3.1,3.1,0,0,1-2.259-.721,2.954,2.954,0,0,1-.729-2.188v-4.72H31.148V-9.51h1.213v-2.364Zm2.092,7.031a5.613,5.613,0,0,1,.554-2.536A3.96,3.96,0,0,1,39.56-9.088a4.791,4.791,0,0,1,2.435-.6A4.373,4.373,0,0,1,45.36-8.363a5.076,5.076,0,0,1,1.23,3.6v.105a4.925,4.925,0,0,1-1.235,3.529A4.384,4.384,0,0,1,42.012.176a4.434,4.434,0,0,1-3.261-1.217,4.761,4.761,0,0,1-1.327-3.3Zm2.962.185a3.538,3.538,0,0,0,.413,1.934,1.376,1.376,0,0,0,1.222.615q1.582,0,1.617-2.435v-.3q0-2.558-1.635-2.558-1.485,0-1.608,2.206Zm12.5,1.986a.684.684,0,0,0-.4-.606,6.016,6.016,0,0,0-1.5-.475A6.853,6.853,0,0,1,49.148-4.4a3.062,3.062,0,0,1-1.1-.971,2.319,2.319,0,0,1-.378-1.31,2.628,2.628,0,0,1,1.081-2.158,4.453,4.453,0,0,1,2.83-.848,4.934,4.934,0,0,1,3.023.853,2.666,2.666,0,0,1,1.143,2.241H52.778q0-1.143-1.2-1.143a1.194,1.194,0,0,0-.782.259.8.8,0,0,0-.316.646.737.737,0,0,0,.387.642,3.654,3.654,0,0,0,1.235.4,10.671,10.671,0,0,1,1.49.378A2.706,2.706,0,0,1,55.731-2.76,2.491,2.491,0,0,1,54.576-.642a5.068,5.068,0,0,1-2.993.817A5.172,5.172,0,0,1,49.4-.264a3.645,3.645,0,0,1-1.494-1.2,2.707,2.707,0,0,1-.536-1.591h2.769a1.145,1.145,0,0,0,.439.962,1.808,1.808,0,0,0,1.081.3,1.422,1.422,0,0,0,.91-.246A.787.787,0,0,0,52.875-2.672Z" transform="translate(771 1929)" fill="#3b4454"/>
    <path id="Trazado_112885" data-name="Trazado 112885" d="M6.688-2.93a1.626,1.626,0,0,0-.5-1.211,4.508,4.508,0,0,0-1.7-.891A5.447,5.447,0,0,1,2.059-6.355,2.921,2.921,0,0,1,1.3-8.43a3,3,0,0,1,.746-2.1,3.17,3.17,0,0,1,2.051-.977v-1.711H5.258V-11.5A3.011,3.011,0,0,1,7.3-10.4a3.959,3.959,0,0,1,.73,2.523H6.594A2.721,2.721,0,0,0,6.07-9.631a1.72,1.72,0,0,0-1.414-.651A1.951,1.951,0,0,0,3.234-9.8a1.791,1.791,0,0,0-.492,1.342,1.636,1.636,0,0,0,.52,1.272,4.786,4.786,0,0,0,1.711.861,7.2,7.2,0,0,1,1.859.852,2.991,2.991,0,0,1,.984,1.082,3.128,3.128,0,0,1,.316,1.445A2.9,2.9,0,0,1,7.34-.82,3.516,3.516,0,0,1,5.117.133V1.625H3.961V.133A3.369,3.369,0,0,1,1.684-.9,3.493,3.493,0,0,1,.859-3.352H2.3a2.3,2.3,0,0,0,.57,1.672,2.153,2.153,0,0,0,1.617.586A2.426,2.426,0,0,0,6.1-1.586,1.662,1.662,0,0,0,6.688-2.93ZM14.68,0H13.227V-9.633l-2.914,1.07V-9.875l4.141-1.555h.227Zm4.414-.758a.905.905,0,0,1,.223-.625.848.848,0,0,1,.668-.25.874.874,0,0,1,.676.25.887.887,0,0,1,.23.625.839.839,0,0,1-.23.6.89.89,0,0,1-.676.242.863.863,0,0,1-.668-.242A.855.855,0,0,1,19.094-.758ZM29.227-3.82H30.8v1.18H29.227V0H27.773V-2.641h-5.18v-.852l5.094-7.883h1.539Zm-4.992,0h3.539V-9.4l-.172.313ZM32.773-5.7l.578-5.672H39.18v1.336h-4.6l-.344,3.1a3.671,3.671,0,0,1,1.9-.492A3.138,3.138,0,0,1,38.6-6.4a4.026,4.026,0,0,1,.914,2.777,3.886,3.886,0,0,1-.949,2.77A3.46,3.46,0,0,1,35.914.156,3.6,3.6,0,0,1,33.453-.68a3.337,3.337,0,0,1-1.086-2.312h1.367a2.3,2.3,0,0,0,.7,1.473,2.162,2.162,0,0,0,1.484.5A1.95,1.95,0,0,0,37.5-1.711a2.874,2.874,0,0,0,.574-1.9,2.638,2.638,0,0,0-.621-1.832A2.113,2.113,0,0,0,35.8-6.133a2.383,2.383,0,0,0-1.484.414l-.383.313Zm15.453.852a6.61,6.61,0,0,1-.867,3.773A3.084,3.084,0,0,1,44.648.156a3.107,3.107,0,0,1-2.7-1.207,6.274,6.274,0,0,1-.906-3.605v-1.93a6.463,6.463,0,0,1,.867-3.727,3.108,3.108,0,0,1,2.719-1.219,3.136,3.136,0,0,1,2.7,1.176,6.237,6.237,0,0,1,.891,3.629ZM46.781-6.828A5.3,5.3,0,0,0,46.266-9.5a1.775,1.775,0,0,0-1.633-.84,1.751,1.751,0,0,0-1.617.836,5.171,5.171,0,0,0-.523,2.57v2.313A5.381,5.381,0,0,0,43.027-1.9a1.771,1.771,0,0,0,1.621.879,1.747,1.747,0,0,0,1.59-.828,5.186,5.186,0,0,0,.543-2.609Zm3.477,6.07a.905.905,0,0,1,.223-.625.848.848,0,0,1,.668-.25.874.874,0,0,1,.676.25.887.887,0,0,1,.23.625.839.839,0,0,1-.23.6.89.89,0,0,1-.676.242.863.863,0,0,1-.668-.242A.855.855,0,0,1,50.258-.758ZM61.422-4.852a6.61,6.61,0,0,1-.867,3.773A3.084,3.084,0,0,1,57.844.156a3.107,3.107,0,0,1-2.7-1.207,6.274,6.274,0,0,1-.906-3.605v-1.93a6.463,6.463,0,0,1,.867-3.727,3.108,3.108,0,0,1,2.719-1.219,3.136,3.136,0,0,1,2.7,1.176,6.237,6.237,0,0,1,.891,3.629ZM59.977-6.828A5.3,5.3,0,0,0,59.461-9.5a1.775,1.775,0,0,0-1.633-.84,1.751,1.751,0,0,0-1.617.836,5.171,5.171,0,0,0-.523,2.57v2.313A5.381,5.381,0,0,0,56.223-1.9a1.771,1.771,0,0,0,1.621.879,1.747,1.747,0,0,0,1.59-.828,5.186,5.186,0,0,0,.543-2.609Zm10.43,1.977a6.61,6.61,0,0,1-.867,3.773A3.084,3.084,0,0,1,66.828.156a3.107,3.107,0,0,1-2.7-1.207,6.274,6.274,0,0,1-.906-3.605v-1.93a6.463,6.463,0,0,1,.867-3.727,3.108,3.108,0,0,1,2.719-1.219,3.136,3.136,0,0,1,2.7,1.176,6.237,6.237,0,0,1,.891,3.629ZM68.961-6.828A5.3,5.3,0,0,0,68.445-9.5a1.775,1.775,0,0,0-1.633-.84,1.751,1.751,0,0,0-1.617.836,5.171,5.171,0,0,0-.523,2.57v2.313A5.381,5.381,0,0,0,65.207-1.9a1.771,1.771,0,0,0,1.621.879,1.747,1.747,0,0,0,1.59-.828,5.186,5.186,0,0,0,.543-2.609Zm10.43,1.977a6.61,6.61,0,0,1-.867,3.773A3.084,3.084,0,0,1,75.813.156a3.107,3.107,0,0,1-2.7-1.207,6.274,6.274,0,0,1-.906-3.605v-1.93a6.463,6.463,0,0,1,.867-3.727A3.108,3.108,0,0,1,75.8-11.531a3.136,3.136,0,0,1,2.7,1.176,6.237,6.237,0,0,1,.891,3.629ZM77.945-6.828A5.3,5.3,0,0,0,77.43-9.5a1.775,1.775,0,0,0-1.633-.84,1.751,1.751,0,0,0-1.617.836,5.171,5.171,0,0,0-.523,2.57v2.313A5.381,5.381,0,0,0,74.191-1.9a1.771,1.771,0,0,0,1.621.879,1.747,1.747,0,0,0,1.59-.828,5.186,5.186,0,0,0,.543-2.609Z" transform="translate(760 1993)" fill="#12263f"/>
    <g id="Grupo_88873" data-name="Grupo 88873" transform="translate(-245.485 708.951)">
      <rect id="Rectángulo_33010" data-name="Rectángulo 33010" width="130.825" height="130.825" rx="22" transform="translate(950.485 1101.557) rotate(-45)" fill="#fff" stroke="#60c1dd" stroke-width="3"/>
      <g id="Grupo_87634" data-name="Grupo 87634" transform="translate(137.707 1644.58)">
        <path id="Trazado_100919" data-name="Trazado 100919" d="M935.108-581.577H875.466a1.858,1.858,0,0,0-1.859,1.858v76.686a1.858,1.858,0,0,0,1.859,1.859h59.643a1.858,1.858,0,0,0,1.858-1.859v-76.686A1.858,1.858,0,0,0,935.108-581.577Zm-33.646,73.52A1.856,1.856,0,0,1,899.6-506.2H881.253a1.856,1.856,0,0,1-1.856-1.856v-18.352a1.858,1.858,0,0,1,1.856-1.858H899.6a1.858,1.858,0,0,1,1.858,1.858Zm0-25.236a1.859,1.859,0,0,1-1.858,1.858H881.253a1.858,1.858,0,0,1-1.856-1.858v-18.352a1.858,1.858,0,0,1,1.856-1.858H899.6a1.858,1.858,0,0,1,1.858,1.858Zm29.714,25.236a1.856,1.856,0,0,1-1.858,1.856h-18.35a1.857,1.857,0,0,1-1.859-1.856v-18.352a1.859,1.859,0,0,1,1.859-1.858h18.35a1.858,1.858,0,0,1,1.858,1.858Zm0-25.236a1.859,1.859,0,0,1-1.858,1.858h-18.35a1.859,1.859,0,0,1-1.859-1.858v-18.352a1.859,1.859,0,0,1,1.859-1.858h18.35a1.858,1.858,0,0,1,1.858,1.858Zm0-25.236a1.858,1.858,0,0,1-1.858,1.858H881.253a1.858,1.858,0,0,1-1.856-1.858v-15.947a1.858,1.858,0,0,1,1.856-1.859h48.066a1.858,1.858,0,0,1,1.858,1.859Z" transform="translate(0)" fill="#60c1dd"/>
        <rect id="Rectángulo_32833" data-name="Rectángulo 32833" width="14.638" height="4.491" transform="translate(883.164 -519.097)" fill="#60c1dd"/>
        <path id="Trazado_100920" data-name="Trazado 100920" d="M1065.089-518.361c-1.448-.528-2.045-.9-2.045-1.447,0-.479.357-.973,1.465-.973a5.3,5.3,0,0,1,2.454.6l.513-1.925a6.02,6.02,0,0,0-2.489-.562v-1.5h-1.668v1.619a3.125,3.125,0,0,0-2.882,3.033c0,1.653,1.245,2.5,3.067,3.12,1.263.426,1.824.833,1.824,1.483s-.682,1.057-1.652,1.057a6.018,6.018,0,0,1-2.832-.751l-.509,1.994a6.873,6.873,0,0,0,2.9.717v1.635h1.67v-1.755c1.976-.341,3.033-1.619,3.033-3.135C1067.936-516.708,1067.136-517.646,1065.089-518.361Z" transform="translate(-160.065 -49.208)" fill="#60c1dd"/>
        <rect id="Rectángulo_32834" data-name="Rectángulo 32834" width="15.077" height="4.625" transform="translate(912.658 -515.646)" fill="#60c1dd"/>
        <path id="Trazado_100921" data-name="Trazado 100921" d="M948.852-361.244h-4.623v5.226H939v4.624h5.228v5.227h4.623v-5.227h5.226v-4.624h-5.226Z" transform="translate(-56.057 -188.871)" fill="#60c1dd"/>
        <path id="Trazado_100922" data-name="Trazado 100922" d="M1197.553-518.361c-1.448-.528-2.047-.9-2.047-1.447,0-.479.361-.973,1.467-.973a5.3,5.3,0,0,1,2.454.6l.511-1.925a6.01,6.01,0,0,0-2.487-.562v-1.5h-1.67v1.619a3.125,3.125,0,0,0-2.882,3.033c0,1.653,1.245,2.5,3.069,3.12,1.261.426,1.824.833,1.824,1.483s-.681,1.057-1.654,1.057a6.016,6.016,0,0,1-2.83-.751l-.511,1.994a6.874,6.874,0,0,0,2.9.717v1.635h1.669v-1.755c1.978-.341,3.035-1.619,3.035-3.135C1200.4-516.708,1199.6-517.646,1197.553-518.361Z" transform="translate(-273.613 -49.208)" fill="#60c1dd"/>
        <rect id="Rectángulo_32835" data-name="Rectángulo 32835" width="15.077" height="4.623" transform="translate(912.658 -522.68)" fill="#60c1dd"/>
        <path id="Trazado_100923" data-name="Trazado 100923" d="M1131.315-518.361c-1.45-.528-2.045-.9-2.045-1.447,0-.479.358-.973,1.465-.973a5.3,5.3,0,0,1,2.454.6l.513-1.925a6.034,6.034,0,0,0-2.489-.562v-1.5h-1.67v1.619a3.124,3.124,0,0,0-2.88,3.033c0,1.653,1.245,2.5,3.069,3.12,1.259.426,1.822.833,1.822,1.483s-.683,1.057-1.654,1.057a6,6,0,0,1-2.828-.751l-.513,1.994a6.881,6.881,0,0,0,2.9.717v1.635h1.67v-1.755c1.976-.341,3.034-1.619,3.034-3.135C1134.162-516.708,1133.36-517.646,1131.315-518.361Z" transform="translate(-216.833 -49.208)" fill="#60c1dd"/>
        <path id="Trazado_100924" data-name="Trazado 100924" d="M1163.444-353.539l-3.347-3.347-3.788,3.785-3.782-3.785-3.348,3.347,3.786,3.787-3.786,3.784,3.347,3.349,3.784-3.786,3.788,3.786,3.348-3.349-3.786-3.784Z" transform="translate(-236.224 -192.607)" fill="#60c1dd"/>
      </g>
    </g>
  </g>
</svg>
