<svg xmlns="http://www.w3.org/2000/svg" width="400" height="336.121" viewBox="0 0 400 336.121">
  <g id="Grupo_90435" data-name="Grupo 90435" transform="translate(-1020 -1715.879)">
    <g id="Rectángulo_35032" data-name="Rectángulo 35032" transform="translate(1020 1820)" fill="#3b4454" stroke="#707070" stroke-width="1">
      <rect width="400" height="232" rx="16" stroke="none"/>
      <rect x="0.5" y="0.5" width="399" height="231" rx="15.5" fill="none"/>
    </g>
    <g id="Grupo_88872" data-name="Grupo 88872" transform="translate(417.507 718)">
      <rect id="Rectángulo_33009" data-name="Rectángulo 33009" width="130.825" height="130.825" rx="22" transform="translate(707.493 1092.508) rotate(-45)" fill="#fff" stroke="#3b4453" stroke-width="3"/>
      <g id="Grupo_88874" data-name="Grupo 88874" transform="translate(724.357 1013.301)">
        <path id="Trazado_102201" data-name="Trazado 102201" d="M33.334,67.268v34.108H110.08V67.268Zm73.743,28.1a3,3,0,0,0-3,3c0,.041.01.079.011.12H39.327c0-.041.012-.079.012-.12a3,3,0,0,0-3-3c-.04,0-.079.011-.12.012V73.26c.041,0,.08.012.12.012a3,3,0,0,0,3-3c0-.041-.011-.079-.012-.119h64.759c0,.04-.011.078-.011.119a3,3,0,0,0,3,3c.043,0,.08-.011.12-.012V95.383C107.157,95.382,107.12,95.371,107.077,95.371ZM79.934,84.321c0,6.3-3.684,11.41-8.227,11.41s-8.227-5.108-8.227-11.41,3.684-11.409,8.227-11.409S79.934,78.02,79.934,84.321Z" transform="translate(1.322 7.369)" fill="#3b4454"/>
        <g id="Grupo_87910" data-name="Grupo 87910" transform="translate(40.9 54.413)">
          <path id="Trazado_102202" data-name="Trazado 102202" d="M62.924,62.947a6.758,6.758,0,0,0-3.556,2.42H70.381C68.188,63.256,65.477,62.264,62.924,62.947Z" transform="translate(-33.937 -48.027)" fill="#3b4454"/>
          <path id="Trazado_102203" data-name="Trazado 102203" d="M49.6,67.986l48.537-13c.01.039.008.078.018.118a3.005,3.005,0,0,0,3.678,2.124c.039-.012.073-.032.113-.043l2.9,10.8h2.985l-4.648-17.34L38.466,67.986Z" transform="translate(-38.466 -50.646)" fill="#3b4454"/>
        </g>
        <g id="Grupo_87911" data-name="Grupo 87911" transform="translate(27.235 33.26)">
          <path id="Trazado_102204" data-name="Trazado 102204" d="M57.3,52.858c-2.259,1.3-3.469,3.875-3.555,6.869l14.632-3.921C65.039,52.305,60.573,50.97,57.3,52.858Z" transform="translate(-21.49 -29.199)" fill="#3b4454"/>
          <path id="Trazado_102205" data-name="Trazado 102205" d="M27.953,72.239l7.457-2,54.54-31.49c.019.038.029.075.049.11a3,3,0,0,0,4.1,1.1c.036-.022.063-.05.1-.071l7.3,12.643,2.884-.774L93.7,33.26,27.235,71.633Z" transform="translate(-27.235 -33.26)" fill="#3b4454"/>
        </g>
      </g>
    </g>
    <rect id="Rectángulo_35033" data-name="Rectángulo 35033" width="234" height="68" transform="translate(1105 1952)" fill="#fff"/>
    <path id="Trazado_112887" data-name="Trazado 112887" d="M7.567-3.4a1.268,1.268,0,0,0-.479-1.055,5.954,5.954,0,0,0-1.683-.782,16.147,16.147,0,0,1-1.969-.782Q.949-7.242.949-9.378a3.011,3.011,0,0,1,.62-1.876A4.008,4.008,0,0,1,3.322-12.52a6.823,6.823,0,0,1,2.549-.453,5.969,5.969,0,0,1,2.474.492,3.917,3.917,0,0,1,1.7,1.4A3.661,3.661,0,0,1,10.652-9H7.576A1.547,1.547,0,0,0,7.1-10.213a1.867,1.867,0,0,0-1.3-.431,2.106,2.106,0,0,0-1.305.365,1.119,1.119,0,0,0-.479.927,1.127,1.127,0,0,0,.527.892A6.65,6.65,0,0,0,6.4-7.633a11.36,11.36,0,0,1,2.18.918,3.663,3.663,0,0,1,2.074,3.3A3.125,3.125,0,0,1,9.387-.782,5.629,5.629,0,0,1,5.915.176,6.888,6.888,0,0,1,3.1-.382,4.247,4.247,0,0,1,1.2-1.912,3.985,3.985,0,0,1,.563-4.148H3.656a1.963,1.963,0,0,0,.532,1.516,2.513,2.513,0,0,0,1.727.488,1.985,1.985,0,0,0,1.208-.33A1.088,1.088,0,0,0,7.567-3.4ZM17.455,0a3.344,3.344,0,0,1-.281-.853A2.754,2.754,0,0,1,14.889.176,3.374,3.374,0,0,1,12.6-.637a2.588,2.588,0,0,1-.94-2.043,2.66,2.66,0,0,1,1.143-2.338,5.821,5.821,0,0,1,3.322-.791h.914v-.5q0-1.316-1.134-1.316a.927.927,0,0,0-1.055,1.042H11.892a2.655,2.655,0,0,1,1.173-2.239,4.931,4.931,0,0,1,2.993-.86,4.323,4.323,0,0,1,2.874.888,3.086,3.086,0,0,1,1.081,2.435v4.21a4.311,4.311,0,0,0,.4,2V0ZM15.6-1.934a1.652,1.652,0,0,0,.918-.237,1.487,1.487,0,0,0,.523-.536V-4.228h-.861q-1.547,0-1.547,1.389a.848.848,0,0,0,.272.655A.986.986,0,0,0,15.6-1.934ZM24.776,0H21.806V-13.5h2.971Zm1.45-4.825a5.809,5.809,0,0,1,.976-3.56,3.211,3.211,0,0,1,2.725-1.3,2.731,2.731,0,0,1,2.145,1V-13.5h2.971V0H32.379l-.149-1.02a2.8,2.8,0,0,1-2.32,1.2,3.205,3.205,0,0,1-2.689-1.3A5.993,5.993,0,0,1,26.227-4.825Zm2.962.185q0,2.531,1.477,2.531a1.458,1.458,0,0,0,1.406-.826V-6.557A1.419,1.419,0,0,0,30.683-7.4q-1.371,0-1.485,2.215Zm7.163-.2a5.613,5.613,0,0,1,.554-2.536A3.96,3.96,0,0,1,38.5-9.088a4.791,4.791,0,0,1,2.435-.6A4.373,4.373,0,0,1,44.3-8.363a5.076,5.076,0,0,1,1.23,3.6v.105a4.925,4.925,0,0,1-1.235,3.529A4.384,4.384,0,0,1,40.948.176a4.434,4.434,0,0,1-3.261-1.217,4.761,4.761,0,0,1-1.327-3.3Zm2.962.185a3.538,3.538,0,0,0,.413,1.934,1.376,1.376,0,0,0,1.222.615q1.582,0,1.617-2.435v-.3q0-2.558-1.635-2.558-1.485,0-1.608,2.206Z" transform="translate(1191 1929)" fill="#fff"/>
    <path id="Trazado_112888" data-name="Trazado 112888" d="M6.688-2.93a1.626,1.626,0,0,0-.5-1.211,4.508,4.508,0,0,0-1.7-.891A5.447,5.447,0,0,1,2.059-6.355,2.921,2.921,0,0,1,1.3-8.43a3,3,0,0,1,.746-2.1,3.17,3.17,0,0,1,2.051-.977v-1.711H5.258V-11.5A3.011,3.011,0,0,1,7.3-10.4a3.959,3.959,0,0,1,.73,2.523H6.594A2.721,2.721,0,0,0,6.07-9.631a1.72,1.72,0,0,0-1.414-.651A1.951,1.951,0,0,0,3.234-9.8a1.791,1.791,0,0,0-.492,1.342,1.636,1.636,0,0,0,.52,1.272,4.786,4.786,0,0,0,1.711.861,7.2,7.2,0,0,1,1.859.852,2.991,2.991,0,0,1,.984,1.082,3.128,3.128,0,0,1,.316,1.445A2.9,2.9,0,0,1,7.34-.82,3.516,3.516,0,0,1,5.117.133V1.625H3.961V.133A3.369,3.369,0,0,1,1.684-.9,3.493,3.493,0,0,1,.859-3.352H2.3a2.3,2.3,0,0,0,.57,1.672,2.153,2.153,0,0,0,1.617.586A2.426,2.426,0,0,0,6.1-1.586,1.662,1.662,0,0,0,6.688-2.93ZM17.383,0H9.93V-1.039l3.938-4.375a9.354,9.354,0,0,0,1.207-1.613,2.693,2.693,0,0,0,.332-1.285,2.041,2.041,0,0,0-.539-1.461,1.885,1.885,0,0,0-1.437-.57,2.232,2.232,0,0,0-1.676.613,2.343,2.343,0,0,0-.6,1.707H9.711a3.355,3.355,0,0,1,1.012-2.539,3.751,3.751,0,0,1,2.707-.969,3.6,3.6,0,0,1,2.508.832,2.838,2.838,0,0,1,.922,2.215q0,1.68-2.141,4l-3.047,3.3h5.711Zm1.711-.758a.905.905,0,0,1,.223-.625.848.848,0,0,1,.668-.25.874.874,0,0,1,.676.25.887.887,0,0,1,.23.625.839.839,0,0,1-.23.6.89.89,0,0,1-.676.242.863.863,0,0,1-.668-.242A.855.855,0,0,1,19.094-.758ZM30.258-4.852a6.61,6.61,0,0,1-.867,3.773A3.084,3.084,0,0,1,26.68.156a3.107,3.107,0,0,1-2.7-1.207,6.274,6.274,0,0,1-.906-3.605v-1.93a6.463,6.463,0,0,1,.867-3.727,3.108,3.108,0,0,1,2.719-1.219,3.136,3.136,0,0,1,2.7,1.176,6.237,6.237,0,0,1,.891,3.629ZM28.813-6.828A5.3,5.3,0,0,0,28.3-9.5a1.775,1.775,0,0,0-1.633-.84,1.751,1.751,0,0,0-1.617.836,5.171,5.171,0,0,0-.523,2.57v2.313A5.381,5.381,0,0,0,25.059-1.9a1.771,1.771,0,0,0,1.621.879,1.747,1.747,0,0,0,1.59-.828,5.186,5.186,0,0,0,.543-2.609ZM32.773-5.7l.578-5.672H39.18v1.336h-4.6l-.344,3.1a3.671,3.671,0,0,1,1.9-.492A3.138,3.138,0,0,1,38.6-6.4a4.026,4.026,0,0,1,.914,2.777,3.886,3.886,0,0,1-.949,2.77A3.46,3.46,0,0,1,35.914.156,3.6,3.6,0,0,1,33.453-.68a3.337,3.337,0,0,1-1.086-2.312h1.367a2.3,2.3,0,0,0,.7,1.473,2.162,2.162,0,0,0,1.484.5A1.95,1.95,0,0,0,37.5-1.711a2.874,2.874,0,0,0,.574-1.9,2.638,2.638,0,0,0-.621-1.832A2.113,2.113,0,0,0,35.8-6.133a2.383,2.383,0,0,0-1.484.414l-.383.313Zm15.453.852a6.61,6.61,0,0,1-.867,3.773A3.084,3.084,0,0,1,44.648.156a3.107,3.107,0,0,1-2.7-1.207,6.274,6.274,0,0,1-.906-3.605v-1.93a6.463,6.463,0,0,1,.867-3.727,3.108,3.108,0,0,1,2.719-1.219,3.136,3.136,0,0,1,2.7,1.176,6.237,6.237,0,0,1,.891,3.629ZM46.781-6.828A5.3,5.3,0,0,0,46.266-9.5a1.775,1.775,0,0,0-1.633-.84,1.751,1.751,0,0,0-1.617.836,5.171,5.171,0,0,0-.523,2.57v2.313A5.381,5.381,0,0,0,43.027-1.9a1.771,1.771,0,0,0,1.621.879,1.747,1.747,0,0,0,1.59-.828,5.186,5.186,0,0,0,.543-2.609Zm3.477,6.07a.905.905,0,0,1,.223-.625.848.848,0,0,1,.668-.25.874.874,0,0,1,.676.25.887.887,0,0,1,.23.625.839.839,0,0,1-.23.6.89.89,0,0,1-.676.242.863.863,0,0,1-.668-.242A.855.855,0,0,1,50.258-.758ZM61.422-4.852a6.61,6.61,0,0,1-.867,3.773A3.084,3.084,0,0,1,57.844.156a3.107,3.107,0,0,1-2.7-1.207,6.274,6.274,0,0,1-.906-3.605v-1.93a6.463,6.463,0,0,1,.867-3.727,3.108,3.108,0,0,1,2.719-1.219,3.136,3.136,0,0,1,2.7,1.176,6.237,6.237,0,0,1,.891,3.629ZM59.977-6.828A5.3,5.3,0,0,0,59.461-9.5a1.775,1.775,0,0,0-1.633-.84,1.751,1.751,0,0,0-1.617.836,5.171,5.171,0,0,0-.523,2.57v2.313A5.381,5.381,0,0,0,56.223-1.9a1.771,1.771,0,0,0,1.621.879,1.747,1.747,0,0,0,1.59-.828,5.186,5.186,0,0,0,.543-2.609Zm10.43,1.977a6.61,6.61,0,0,1-.867,3.773A3.084,3.084,0,0,1,66.828.156a3.107,3.107,0,0,1-2.7-1.207,6.274,6.274,0,0,1-.906-3.605v-1.93a6.463,6.463,0,0,1,.867-3.727,3.108,3.108,0,0,1,2.719-1.219,3.136,3.136,0,0,1,2.7,1.176,6.237,6.237,0,0,1,.891,3.629ZM68.961-6.828A5.3,5.3,0,0,0,68.445-9.5a1.775,1.775,0,0,0-1.633-.84,1.751,1.751,0,0,0-1.617.836,5.171,5.171,0,0,0-.523,2.57v2.313A5.381,5.381,0,0,0,65.207-1.9a1.771,1.771,0,0,0,1.621.879,1.747,1.747,0,0,0,1.59-.828,5.186,5.186,0,0,0,.543-2.609Zm10.43,1.977a6.61,6.61,0,0,1-.867,3.773A3.084,3.084,0,0,1,75.813.156a3.107,3.107,0,0,1-2.7-1.207,6.274,6.274,0,0,1-.906-3.605v-1.93a6.463,6.463,0,0,1,.867-3.727A3.108,3.108,0,0,1,75.8-11.531a3.136,3.136,0,0,1,2.7,1.176,6.237,6.237,0,0,1,.891,3.629ZM77.945-6.828A5.3,5.3,0,0,0,77.43-9.5a1.775,1.775,0,0,0-1.633-.84,1.751,1.751,0,0,0-1.617.836,5.171,5.171,0,0,0-.523,2.57v2.313A5.381,5.381,0,0,0,74.191-1.9a1.771,1.771,0,0,0,1.621.879,1.747,1.747,0,0,0,1.59-.828,5.186,5.186,0,0,0,.543-2.609Z" transform="translate(1191 1993)" fill="#12263f"/>
  </g>
</svg>
