<svg xmlns="http://www.w3.org/2000/svg" width="620" height="508.193" viewBox="0 0 620 508.193">
  <g id="Accountant-rafiki_1_" data-name="Accountant-rafiki (1)" transform="translate(-56.11 -109.71)">
    <g id="freepik--Shadow--inject-16" transform="translate(56.11 581.705)">
      <ellipse id="freepik--path--inject-16" cx="310" cy="18.099" rx="310" ry="18.099" fill="#f5f5f5"/>
    </g>
    <g id="freepik--Calculator--inject-16" transform="translate(363.401 109.71)">
      <path id="Trazado_104860" data-name="Trazado 104860" d="M474.894,444.748H258.81a7.435,7.435,0,0,1-7.483-7.994L269.491,117.7a8.506,8.506,0,0,1,8.394-7.994H494.048a7.435,7.435,0,0,1,7.483,7.994L483.288,436.77A8.506,8.506,0,0,1,474.894,444.748Z" transform="translate(-246.509 -109.71)" fill="#263238"/>
      <path id="Trazado_104861" data-name="Trazado 104861" d="M474.894,444.748H258.81a7.435,7.435,0,0,1-7.483-7.994L269.491,117.7a8.506,8.506,0,0,1,8.394-7.994H494.048a7.435,7.435,0,0,1,7.483,7.994L483.288,436.77A8.506,8.506,0,0,1,474.894,444.748Z" transform="translate(-246.509 -109.71)" opacity="0.3" style="isolation: isolate"/>
      <path id="Trazado_104862" data-name="Trazado 104862" d="M498.451,117.714,480.288,436.764a8.506,8.506,0,0,1-8.394,7.994H255.81a7.435,7.435,0,0,1-7.483-7.994l4.589-80.71,13.574-238.34a8.506,8.506,0,0,1,8.394-7.994H491.048a7.435,7.435,0,0,1,7.4,7.994Z" transform="translate(-248.305 -109.704)" fill="#263238"/>
      <path id="Trazado_104863" data-name="Trazado 104863" d="M492.84,176.42l-12.551,220.4a8.522,8.522,0,0,1-8.378,7.994h-216.1a7.419,7.419,0,0,1-7.483-7.994l12.551-220.4Z" transform="translate(-248.306 -69.761)" fill="#fff" opacity="0.3" style="isolation: isolate"/>
      <path id="Trazado_104864" data-name="Trazado 104864" d="M458.56,186.65H270.28l2.814-49.58h188.28Z" transform="translate(-235.147 -93.325)" fill="#fff" opacity="0.4" style="isolation: isolate"/>
      <path id="Trazado_104865" data-name="Trazado 104865" d="M384.815,122.83h9.8l-.879,15.637H383.92Z" transform="translate(-167.094 -101.853)" fill="#fff" opacity="0.2" style="isolation: isolate"/>
      <path id="Trazado_104866" data-name="Trazado 104866" d="M377.635,122.83h9.8l-.879,15.637H376.74Z" transform="translate(-171.394 -101.853)" fill="#fff" opacity="0.2" style="isolation: isolate"/>
      <path id="Trazado_104867" data-name="Trazado 104867" d="M370.455,122.83h9.8l-.879,15.637H369.56Z" transform="translate(-175.694 -101.853)" fill="#fff" opacity="0.2" style="isolation: isolate"/>
      <path id="Trazado_104868" data-name="Trazado 104868" d="M363.275,122.83h9.8l-.879,15.637H362.38Z" transform="translate(-179.993 -101.853)" fill="#fff" opacity="0.2" style="isolation: isolate"/>
      <path id="Trazado_104869" data-name="Trazado 104869" d="M356.1,122.83h9.8l-.879,15.637H355.2Z" transform="translate(-184.293 -101.853)" fill="#fff" opacity="0.2" style="isolation: isolate"/>
      <path id="Trazado_104870" data-name="Trazado 104870" d="M348.915,122.83h9.8l-.879,15.637H348.02Z" transform="translate(-188.593 -101.853)" fill="#fff" opacity="0.2" style="isolation: isolate"/>
      <path id="Trazado_104871" data-name="Trazado 104871" d="M304.291,131.665h-31.8l.384-6.635h31.785Z" transform="translate(-233.824 -100.535)" fill="#fff" opacity="0.3" style="isolation: isolate"/>
      <path id="Trazado_104872" data-name="Trazado 104872" d="M331.205,165.909,331.077,168H318.91l.1-1.6,7.291-6.619c1.887-1.727,2.286-2.782,2.35-3.837.112-1.727-1.055-2.782-3.437-2.782a5.644,5.644,0,0,0-4.429,1.823l-1.6-1.423a8.3,8.3,0,0,1,6.4-2.542c3.533,0,5.708,1.791,5.532,4.685-.1,1.6-.672,3.1-3.1,5.292l-5.484,4.94Z" transform="translate(-206.025 -84.975)" fill="#263238"/>
      <path id="Trazado_104873" data-name="Trazado 104873" d="M327.94,161.289a1.727,1.727,0,0,1,1.743-1.6,1.471,1.471,0,0,1,1.5,1.6,1.727,1.727,0,0,1-1.695,1.6,1.6,1.6,0,0,1-1.551-1.6Z" transform="translate(-200.618 -79.78)" fill="#263238"/>
      <path id="Trazado_104874" data-name="Trazado 104874" d="M346.171,163.815h-3.2l-.256,4.125h-2.286l.256-4.125H331.27l.1-1.695,9.321-11h2.622l-8.938,10.616h6.507l.224-3.645h2.27l-.224,3.645h3.2Z" transform="translate(-198.623 -84.912)" fill="#263238"/>
      <path id="Trazado_104875" data-name="Trazado 104875" d="M341.669,159.6c.336-5.484,3.47-8.6,7.435-8.6s6.715,3.118,6.4,8.6-3.469,8.6-7.419,8.6S341.35,165.086,341.669,159.6Zm11.4,0c.256-4.3-1.455-6.4-4.093-6.4s-4.621,2.158-4.876,6.4,1.439,6.4,4.109,6.4S352.813,163.9,353.069,159.6Z" transform="translate(-192.411 -84.983)" fill="#263238"/>
      <path id="Trazado_104876" data-name="Trazado 104876" d="M351.769,159.6c.336-5.484,3.47-8.6,7.435-8.6s6.715,3.118,6.4,8.6-3.469,8.6-7.419,8.6S351.45,165.086,351.769,159.6Zm11.4,0c.256-4.3-1.455-6.4-4.093-6.4s-4.621,2.158-4.876,6.4,1.439,6.4,4.109,6.4S362.913,163.9,363.169,159.6Z" transform="translate(-186.362 -84.983)" fill="#263238"/>
      <path id="Trazado_104877" data-name="Trazado 104877" d="M361.39,161.289a1.727,1.727,0,0,1,1.743-1.6,1.471,1.471,0,0,1,1.5,1.6,1.727,1.727,0,0,1-1.695,1.6,1.6,1.6,0,0,1-1.551-1.6Z" transform="translate(-180.586 -79.78)" fill="#263238"/>
      <path id="Trazado_104878" data-name="Trazado 104878" d="M378.53,163.247c-.192,3.054-2.91,4.956-7.051,4.956s-6.587-1.9-6.4-4.956a4.493,4.493,0,0,1,3.2-4.061,3.533,3.533,0,0,1-2.159-3.629c.16-2.814,2.718-4.557,6.4-4.557s6.044,1.743,5.884,4.557a4.109,4.109,0,0,1-2.622,3.629,3.9,3.9,0,0,1,2.75,4.061Zm-2.414,0c.112-1.855-1.471-3.006-4.157-3.006s-4.349,1.151-4.461,3.006,1.407,3.07,4.093,3.07,4.413-1.231,4.557-3.134Zm-7.595-7.531c-.1,1.6,1.215,2.7,3.549,2.7s3.837-1.039,3.933-2.7S374.661,153,372.391,153s-3.757.975-3.869,2.654Z" transform="translate(-178.38 -84.983)" fill="#263238"/>
      <path id="Trazado_104879" data-name="Trazado 104879" d="M387.77,159.4c-.336,5.756-3.789,8.826-8.538,8.826a7.722,7.722,0,0,1-4.141-.991l1.023-1.871a5.8,5.8,0,0,0,3.2.8c3.438,0,5.74-2.142,6-6.4v-.608a6.028,6.028,0,0,1-5.02,2.222c-3.374,0-5.66-2-5.484-5.1a5.836,5.836,0,0,1,6.3-5.308C385.708,151.026,388.106,154.047,387.77,159.4Zm-2.782-3.2c.112-1.727-1.2-3.2-3.837-3.2a3.581,3.581,0,0,0-3.933,3.2c-.112,1.967,1.3,3.2,3.661,3.2A3.773,3.773,0,0,0,384.988,156.206Z" transform="translate(-172.559 -85.009)" fill="#263238"/>
      <path id="Trazado_104880" data-name="Trazado 104880" d="M335.762,142.26l-.4,6.779h-.975l.352-5.948h-1.6v-.831Z" transform="translate(-197.504 -90.217)" fill="#263238"/>
      <path id="Trazado_104881" data-name="Trazado 104881" d="M335.471,146.366a.7.7,0,0,1,.7-.656.592.592,0,0,1,.608.656.7.7,0,0,1-.687.671.623.623,0,0,1-.624-.671Z" transform="translate(-196.109 -88.151)" fill="#263238"/>
      <path id="Trazado_104882" data-name="Trazado 104882" d="M339.332,142.26l-.4,6.779h-.975l.352-5.948h-1.6v-.831Z" transform="translate(-195.366 -90.217)" fill="#263238"/>
      <path id="Trazado_104883" data-name="Trazado 104883" d="M339.164,145.679c.128-2.206,1.391-3.469,3.006-3.469s2.7,1.263,2.574,3.469-1.391,3.469-2.99,3.469S339.036,147.886,339.164,145.679Zm4.6,0c.1-1.743-.592-2.606-1.6-2.606s-1.871.863-1.967,2.606.592,2.606,1.6,2.606,1.9-.879,1.9-2.606Z" transform="translate(-193.902 -90.247)" fill="#263238"/>
      <path id="Trazado_104884" data-name="Trazado 104884" d="M343.245,145.679c.128-2.206,1.391-3.469,2.99-3.469s2.718,1.263,2.59,3.469-1.407,3.469-2.99,3.469S343.1,147.886,343.245,145.679Zm4.6,0c.1-1.743-.592-2.606-1.6-2.606s-1.871.863-1.967,2.606.576,2.606,1.6,2.606S347.737,147.406,347.849,145.679Z" transform="translate(-191.46 -90.247)" fill="#263238"/>
      <path id="Trazado_104885" data-name="Trazado 104885" d="M347.121,146.366a.7.7,0,0,1,.7-.656.591.591,0,0,1,.608.656.7.7,0,0,1-.688.671.623.623,0,0,1-.624-.671Z" transform="translate(-189.132 -88.151)" fill="#263238"/>
      <path id="Trazado_104886" data-name="Trazado 104886" d="M354.038,147.138c-.08,1.231-1.167,2-2.846,2s-2.67-.767-2.59-2a1.807,1.807,0,0,1,1.3-1.6,1.439,1.439,0,0,1-.863-1.471c0-1.135,1.087-1.839,2.574-1.839s2.446.7,2.366,1.839a1.6,1.6,0,0,1-1.055,1.471A1.6,1.6,0,0,1,354.038,147.138Zm-.975,0c0-.751-.592-1.215-1.6-1.215s-1.759.464-1.807,1.215.576,1.247,1.6,1.247,1.775-.512,1.823-1.279Zm-3.07-3.038c0,.672.5,1.087,1.439,1.087s1.6-.416,1.6-1.087-.544-1.087-1.455-1.087-1.519.448-1.567,1.055Z" transform="translate(-188.247 -90.235)" fill="#263238"/>
      <path id="Trazado_104887" data-name="Trazado 104887" d="M352.635,145.679c.128-2.206,1.391-3.469,3.006-3.469s2.7,1.263,2.574,3.469-1.407,3.469-2.99,3.469S352.491,147.886,352.635,145.679Zm4.6,0c.1-1.743-.592-2.606-1.6-2.606s-1.871.863-1.967,2.606.592,2.606,1.6,2.606S357.127,147.406,357.239,145.679Z" transform="translate(-185.837 -90.247)" fill="#263238"/>
      <path id="Trazado_104888" data-name="Trazado 104888" d="M361.231,145.56h-1.775l-.112,1.743h-.815l.1-1.743H356.85v-.767h1.839l.112-1.743h.815l-.112,1.743h1.791Z" transform="translate(-183.305 -89.744)" fill="#263238"/>
      <path id="Trazado_104889" data-name="Trazado 104889" d="M362.632,142.26l-.4,6.779h-.975l.352-5.948h-1.6v-.831Z" transform="translate(-181.413 -90.217)" fill="#263238"/>
      <path id="Trazado_104890" data-name="Trazado 104890" d="M362.341,146.366a.687.687,0,0,1,.7-.656.608.608,0,0,1,.608.656.7.7,0,0,1-.688.672.623.623,0,0,1-.623-.672Z" transform="translate(-180.018 -88.151)" fill="#263238"/>
      <path id="Trazado_104891" data-name="Trazado 104891" d="M368.72,147.041c0,1.151-.975,2.079-2.7,2.079a3.725,3.725,0,0,1-2.478-.831l.5-.767a2.926,2.926,0,0,0,2.03.735c1.023,0,1.6-.464,1.679-1.2s-.448-1.183-1.6-1.183h-.56v-.687l1.855-2.094h-3.31v-.831h4.525v.656l-1.919,2.19C368.145,145.234,368.784,146,368.72,147.041Z" transform="translate(-179.299 -90.217)" fill="#263238"/>
      <path id="Trazado_104892" data-name="Trazado 104892" d="M367.4,145.679c.128-2.206,1.407-3.469,3.006-3.469s2.718,1.263,2.59,3.469-1.407,3.469-3.006,3.469S367.276,147.886,367.4,145.679Zm4.6,0c.112-1.743-.576-2.606-1.6-2.606s-1.871.863-1.983,2.606.592,2.606,1.6,2.606S371.912,147.406,372.008,145.679Z" transform="translate(-176.991 -90.247)" fill="#263238"/>
      <path id="Trazado_104893" data-name="Trazado 104893" d="M371.484,145.679c.128-2.206,1.407-3.469,3.006-3.469s2.718,1.263,2.574,3.469-1.391,3.469-2.99,3.469S371.356,147.886,371.484,145.679Zm4.6,0c.112-1.743-.592-2.606-1.6-2.606s-1.871.863-1.983,2.606.592,2.606,1.6,2.606,1.887-.879,1.982-2.606Z" transform="translate(-174.548 -90.247)" fill="#263238"/>
      <path id="Trazado_104894" data-name="Trazado 104894" d="M375.371,146.366a.687.687,0,0,1,.7-.656.608.608,0,0,1,.608.656.7.7,0,0,1-.688.672.608.608,0,0,1-.624-.672Z" transform="translate(-172.216 -88.151)" fill="#263238"/>
      <path id="Trazado_104895" data-name="Trazado 104895" d="M376.8,145.679c.128-2.206,1.391-3.469,3.006-3.469s2.718,1.263,2.574,3.469-1.391,3.469-2.99,3.469S376.676,147.886,376.8,145.679Zm4.6,0c.112-1.743-.592-2.606-1.6-2.606s-1.871.863-1.983,2.606.592,2.606,1.6,2.606S381.312,147.406,381.408,145.679Z" transform="translate(-171.362 -90.247)" fill="#263238"/>
      <path id="Trazado_104896" data-name="Trazado 104896" d="M386.035,145.587a3.373,3.373,0,0,1-3.453,3.565,3.2,3.2,0,0,1-1.679-.4l.416-.751a2.4,2.4,0,0,0,1.3.32,2.366,2.366,0,0,0,2.43-2.558v-.24a2.43,2.43,0,0,1-2.03.879,1.967,1.967,0,0,1-2.223-2.047,2.366,2.366,0,0,1,2.558-2.142C385.2,142.213,386.163,143.476,386.035,145.587Zm-1.135-1.279c0-.7-.48-1.311-1.6-1.311a1.439,1.439,0,0,0-1.6,1.311c0,.8.512,1.311,1.471,1.311a1.6,1.6,0,0,0,1.727-1.311Z" transform="translate(-168.97 -90.251)" fill="#263238"/>
      <path id="Trazado_104897" data-name="Trazado 104897" d="M480.8,109.736c-20.433,50.875-83.4,175.585-229.658,246.318l13.574-238.34a8.506,8.506,0,0,1,8.394-7.994Z" transform="translate(-246.609 -109.704)" fill="#fff" opacity="0.1" style="isolation: isolate"/>
      <path id="Trazado_104898" data-name="Trazado 104898" d="M395.011,185.38H371.38a3.422,3.422,0,0,0-3.374,3.2l-.464,8.2a2.99,2.99,0,0,0,3.006,3.2H394.18a3.422,3.422,0,0,0,3.374-3.2l.464-8.2a2.99,2.99,0,0,0-3.006-3.2Z" transform="translate(-176.906 -64.395)" fill="#263238"/>
      <path id="Trazado_104899" data-name="Trazado 104899" d="M369.941,185.29H346.294a3.406,3.406,0,0,0-3.358,3.2l-.464,8.2a2.974,2.974,0,0,0,2.99,3.2H369.11a3.422,3.422,0,0,0,3.358-3.2l.48-8.2a2.99,2.99,0,0,0-3.006-3.2Z" transform="translate(-191.92 -64.449)" fill="#263238"/>
      <path id="Trazado_104900" data-name="Trazado 104900" d="M394.2,199.64H370.57a3.406,3.406,0,0,0-3.374,3.2l-.464,8.2a2.974,2.974,0,0,0,3.006,3.2H393.37a3.437,3.437,0,0,0,3.373-3.2l.464-8.2a2.99,2.99,0,0,0-3.006-3.2Z" transform="translate(-177.392 -55.856)" fill="#263238"/>
      <path id="Trazado_104901" data-name="Trazado 104901" d="M369.137,199.54H345.49a3.422,3.422,0,0,0-3.358,3.2l-.48,8.2a2.99,2.99,0,0,0,3.006,3.2h23.647a3.406,3.406,0,0,0,3.358-3.2l.48-8.2a2.99,2.99,0,0,0-3.006-3.2Z" transform="translate(-192.41 -55.916)" fill="#263238"/>
      <path id="Trazado_104902" data-name="Trazado 104902" d="M344.023,199.64H320.44a3.422,3.422,0,0,0-3.374,3.2l-.464,8.2a2.99,2.99,0,0,0,3.006,3.2h23.631a3.422,3.422,0,0,0,3.374-3.2l.464-8.2a2.99,2.99,0,0,0-3.054-3.2Z" transform="translate(-207.411 -55.856)" fill="#263238"/>
      <path id="Trazado_104903" data-name="Trazado 104903" d="M318.961,199.73H295.33a3.421,3.421,0,0,0-3.374,3.2l-.464,8.2a2.974,2.974,0,0,0,3.006,3.2H318.13a3.422,3.422,0,0,0,3.374-3.2l.464-8.2a2.99,2.99,0,0,0-3.006-3.2Z" transform="translate(-222.449 -55.802)" fill="#263238"/>
      <path id="Trazado_104904" data-name="Trazado 104904" d="M293.887,199.82H270.24a3.422,3.422,0,0,0-3.358,3.2l-.48,8.2a2.99,2.99,0,0,0,3.006,3.2h23.647a3.406,3.406,0,0,0,3.358-3.2l.48-8.2a2.99,2.99,0,0,0-3.006-3.2Z" transform="translate(-237.473 -55.748)" fill="#263238"/>
      <path id="Trazado_104905" data-name="Trazado 104905" d="M392.58,218.77H370.2a4.045,4.045,0,0,0-4,3.805l-.655,11.56a3.534,3.534,0,0,0,3.565,3.805h22.384a4.077,4.077,0,0,0,4-3.805l.656-11.56a3.549,3.549,0,0,0-3.565-3.805Z" transform="translate(-178.105 -44.4)" fill="#263238"/>
      <path id="Trazado_104906" data-name="Trazado 104906" d="M367.515,218.65H345.132a4.045,4.045,0,0,0-4,3.789l-.672,11.576a3.549,3.549,0,0,0,3.565,3.789h22.384a4.045,4.045,0,0,0,4-3.789l.672-11.576a3.549,3.549,0,0,0-3.565-3.789Z" transform="translate(-193.123 -44.472)" fill="#263238"/>
      <path id="Trazado_104907" data-name="Trazado 104907" d="M342.42,218.77H320.036a4.077,4.077,0,0,0-4,3.805l-.656,11.56a3.549,3.549,0,0,0,3.565,3.805h22.384a4.077,4.077,0,0,0,4-3.805l.655-11.56a3.533,3.533,0,0,0-3.565-3.805Z" transform="translate(-208.143 -44.4)" fill="#263238"/>
      <path id="Trazado_104908" data-name="Trazado 104908" d="M317.345,218.89H294.962a4.061,4.061,0,0,0-4,3.805l-.672,11.56a3.565,3.565,0,0,0,3.565,3.805h22.384a4.061,4.061,0,0,0,4-3.805l.672-11.56a3.566,3.566,0,0,0-3.565-3.805Z" transform="translate(-223.167 -44.328)" fill="#263238"/>
      <path id="Trazado_104909" data-name="Trazado 104909" d="M292.251,219H269.867a4.077,4.077,0,0,0-4,3.789l-.656,11.576a3.534,3.534,0,0,0,3.5,3.821H291.1a4.061,4.061,0,0,0,4-3.789l.656-11.576a3.533,3.533,0,0,0-3.5-3.821Z" transform="translate(-238.188 -44.262)" fill="#263238"/>
      <path id="Trazado_104910" data-name="Trazado 104910" d="M363.33,292H340.946a4.077,4.077,0,0,0-4,3.789l-.656,11.576a3.533,3.533,0,0,0,3.565,3.789h22.384a4.061,4.061,0,0,0,4-3.789l.656-11.576A3.533,3.533,0,0,0,363.33,292Z" transform="translate(-195.621 -0.546)" fill="#263238"/>
      <path id="Trazado_104911" data-name="Trazado 104911" d="M338.255,292.11H315.872a4.045,4.045,0,0,0-4,3.789l-.672,11.576a3.55,3.55,0,0,0,3.565,3.789h22.384a4.045,4.045,0,0,0,4-3.789l.672-11.576a3.55,3.55,0,0,0-3.565-3.789Z" transform="translate(-210.645 -0.48)" fill="#263238"/>
      <path id="Trazado_104912" data-name="Trazado 104912" d="M313.13,292.23H290.746a4.077,4.077,0,0,0-4,3.789l-.656,11.576a3.533,3.533,0,0,0,3.565,3.789h22.384a4.061,4.061,0,0,0,4-3.789l.656-11.576a3.533,3.533,0,0,0-3.565-3.789Z" transform="translate(-225.683 -0.409)" fill="#263238"/>
      <path id="Trazado_104913" data-name="Trazado 104913" d="M288.184,292.35H265.8a4.045,4.045,0,0,0-4,3.789l-.8,11.64a3.517,3.517,0,0,0,3.549,3.789h22.384a4.045,4.045,0,0,0,4-3.789l.672-11.576a3.55,3.55,0,0,0-3.422-3.853Z" transform="translate(-240.708 -0.337)" fill="#263238"/>
      <path id="Trazado_104914" data-name="Trazado 104914" d="M390.055,273.77H367.671a4.061,4.061,0,0,0-4,3.805l-.576,10.057-.1,1.5-1.6,29.323a3.533,3.533,0,0,0,3.565,3.789h22.384a4.045,4.045,0,0,0,4-3.789l1.6-29.323.1-1.5.576-10.057a3.565,3.565,0,0,0-3.565-3.805Z" transform="translate(-180.584 -11.463)" fill="#263238"/>
      <path id="Trazado_104915" data-name="Trazado 104915" d="M364.385,273.65H342a4.045,4.045,0,0,0-4,3.789l-.672,11.576A3.549,3.549,0,0,0,340.9,292.8h22.384a4.045,4.045,0,0,0,4-3.789l.672-11.576a3.549,3.549,0,0,0-3.565-3.789Z" transform="translate(-194.998 -11.535)" fill="#263238"/>
      <path id="Trazado_104916" data-name="Trazado 104916" d="M339.29,273.77H316.907a4.077,4.077,0,0,0-4,3.805l-.656,11.56a3.533,3.533,0,0,0,3.565,3.805H338.2a4.077,4.077,0,0,0,4-3.805l.656-11.56a3.549,3.549,0,0,0-3.565-3.805Z" transform="translate(-210.017 -11.463)" fill="#263238"/>
      <path id="Trazado_104917" data-name="Trazado 104917" d="M314.263,273.9H291.752a4.045,4.045,0,0,0-4,3.789l-.672,11.576a3.549,3.549,0,0,0,3.565,3.789h22.384a4.045,4.045,0,0,0,4-3.789l.672-11.576a3.549,3.549,0,0,0-3.438-3.789Z" transform="translate(-225.089 -11.385)" fill="#263238"/>
      <path id="Trazado_104918" data-name="Trazado 104918" d="M289.13,274H266.746a4.061,4.061,0,0,0-4,3.789l-.655,11.576a3.533,3.533,0,0,0,3.565,3.789h22.384a4.077,4.077,0,0,0,4-3.789l.656-11.576A3.533,3.533,0,0,0,289.13,274Z" transform="translate(-240.055 -11.326)" fill="#263238"/>
      <path id="Trazado_104919" data-name="Trazado 104919" d="M390.49,255.44H368.106a4.061,4.061,0,0,0-4,3.789l-.655,11.576a3.533,3.533,0,0,0,3.565,3.789H389.4a4.077,4.077,0,0,0,4-3.789l.656-11.576a3.533,3.533,0,0,0-3.565-3.789Z" transform="translate(-179.356 -22.44)" fill="#263238"/>
      <path id="Trazado_104920" data-name="Trazado 104920" d="M365.42,255.32H343.036a4.045,4.045,0,0,0-4,3.789l-.656,11.576a3.533,3.533,0,0,0,3.565,3.789h22.384a4.077,4.077,0,0,0,4-3.789l.656-11.576a3.549,3.549,0,0,0-3.565-3.789Z" transform="translate(-194.369 -22.512)" fill="#263238"/>
      <path id="Trazado_104921" data-name="Trazado 104921" d="M340.33,255.44H317.946a4.077,4.077,0,0,0-4,3.789l-.656,11.576a3.55,3.55,0,0,0,3.565,3.789h22.384a4.045,4.045,0,0,0,4-3.789l.656-11.576a3.533,3.533,0,0,0-3.565-3.789Z" transform="translate(-209.394 -22.44)" fill="#263238"/>
      <path id="Trazado_104922" data-name="Trazado 104922" d="M315.25,255.56H292.866a4.045,4.045,0,0,0-4,3.789l-.656,11.576a3.534,3.534,0,0,0,3.565,3.789h22.384a4.077,4.077,0,0,0,4-3.789l.656-11.576a3.533,3.533,0,0,0-3.565-3.789Z" transform="translate(-224.413 -22.368)" fill="#263238"/>
      <path id="Trazado_104923" data-name="Trazado 104923" d="M290.129,255.68H267.746a4.077,4.077,0,0,0-4,3.805l-.656,11.56a3.565,3.565,0,0,0,3.566,3.805h22.384a4.061,4.061,0,0,0,4-3.805l.656-11.56a3.533,3.533,0,0,0-3.565-3.805Z" transform="translate(-239.456 -22.296)" fill="#263238"/>
      <path id="Trazado_104924" data-name="Trazado 104924" d="M391.529,237.11H369.146a4.077,4.077,0,0,0-4,3.789l-.656,11.576a3.549,3.549,0,0,0,3.565,3.789h22.384a4.045,4.045,0,0,0,4-3.789l.656-11.576a3.533,3.533,0,0,0-3.565-3.789Z" transform="translate(-178.733 -33.417)" fill="#263238"/>
      <path id="Trazado_104925" data-name="Trazado 104925" d="M366.46,237H344.076a4.077,4.077,0,0,0-4,3.805l-.656,11.56a3.549,3.549,0,0,0,3.565,3.805h22.384a4.061,4.061,0,0,0,4-3.805l.656-11.56A3.534,3.534,0,0,0,366.46,237Z" transform="translate(-193.746 -33.483)" fill="#263238"/>
      <path id="Trazado_104926" data-name="Trazado 104926" d="M341.38,237.11H319a4.045,4.045,0,0,0-4,3.789l-.656,11.576a3.533,3.533,0,0,0,3.565,3.789h22.384a4.077,4.077,0,0,0,4-3.789l.656-11.576a3.55,3.55,0,0,0-3.565-3.789Z" transform="translate(-208.765 -33.417)" fill="#263238"/>
      <path id="Trazado_104927" data-name="Trazado 104927" d="M316.29,237.23H293.906a4.077,4.077,0,0,0-4,3.789l-.656,11.576a3.533,3.533,0,0,0,3.565,3.789H315.2a4.045,4.045,0,0,0,4-3.789l.656-11.576a3.533,3.533,0,0,0-3.565-3.789Z" transform="translate(-223.79 -33.345)" fill="#263238"/>
      <path id="Trazado_104928" data-name="Trazado 104928" d="M291.258,237.35H268.746a4.045,4.045,0,0,0-4,3.789l-.656,11.576a3.533,3.533,0,0,0,3.565,3.789h22.384a4.077,4.077,0,0,0,4-3.789l.656-11.576a3.55,3.55,0,0,0-3.438-3.789Z" transform="translate(-238.857 -33.273)" fill="#263238"/>
      <g id="Grupo_88879" data-name="Grupo 88879" transform="translate(20.285 120.841)" opacity="0.3" style="isolation: isolate">
        <path id="Trazado_104929" data-name="Trazado 104929" d="M395.011,185.38H371.38a3.422,3.422,0,0,0-3.374,3.2l-.464,8.2a2.99,2.99,0,0,0,3.006,3.2H394.18a3.422,3.422,0,0,0,3.374-3.2l.464-8.2a2.99,2.99,0,0,0-3.006-3.2Z" transform="translate(-197.191 -185.236)" fill="#fff"/>
        <path id="Trazado_104930" data-name="Trazado 104930" d="M369.941,185.29H346.294a3.406,3.406,0,0,0-3.358,3.2l-.464,8.2a2.974,2.974,0,0,0,2.99,3.2H369.11a3.422,3.422,0,0,0,3.358-3.2l.48-8.2a2.99,2.99,0,0,0-3.006-3.2Z" transform="translate(-212.205 -185.29)" fill="#fff"/>
        <path id="Trazado_104931" data-name="Trazado 104931" d="M394.2,199.64H370.57a3.406,3.406,0,0,0-3.374,3.2l-.464,8.2a2.974,2.974,0,0,0,3.006,3.2H393.37a3.437,3.437,0,0,0,3.373-3.2l.464-8.2a2.99,2.99,0,0,0-3.006-3.2Z" transform="translate(-197.677 -176.696)" fill="#fff"/>
        <path id="Trazado_104932" data-name="Trazado 104932" d="M369.137,199.54H345.49a3.422,3.422,0,0,0-3.358,3.2l-.48,8.2a2.99,2.99,0,0,0,3.006,3.2h23.647a3.406,3.406,0,0,0,3.358-3.2l.48-8.2a2.99,2.99,0,0,0-3.006-3.2Z" transform="translate(-212.695 -176.756)" fill="#fff"/>
        <path id="Trazado_104933" data-name="Trazado 104933" d="M344.023,199.64H320.44a3.422,3.422,0,0,0-3.374,3.2l-.464,8.2a2.99,2.99,0,0,0,3.006,3.2h23.631a3.422,3.422,0,0,0,3.374-3.2l.464-8.2a2.99,2.99,0,0,0-3.054-3.2Z" transform="translate(-227.696 -176.697)" fill="#fff"/>
        <path id="Trazado_104934" data-name="Trazado 104934" d="M318.961,199.73H295.33a3.421,3.421,0,0,0-3.374,3.2l-.464,8.2a2.974,2.974,0,0,0,3.006,3.2H318.13a3.422,3.422,0,0,0,3.374-3.2l.464-8.2a2.99,2.99,0,0,0-3.006-3.2Z" transform="translate(-242.734 -176.643)" fill="#fff"/>
        <path id="Trazado_104935" data-name="Trazado 104935" d="M293.887,199.82H270.24a3.422,3.422,0,0,0-3.358,3.2l-.48,8.2a2.99,2.99,0,0,0,3.006,3.2h23.647a3.406,3.406,0,0,0,3.358-3.2l.48-8.2a2.99,2.99,0,0,0-3.006-3.2Z" transform="translate(-257.758 -176.589)" fill="#fff"/>
        <path id="Trazado_104936" data-name="Trazado 104936" d="M392.58,218.77H370.2a4.045,4.045,0,0,0-4,3.805l-.655,11.56a3.534,3.534,0,0,0,3.565,3.805h22.384a4.077,4.077,0,0,0,4-3.805l.656-11.56a3.549,3.549,0,0,0-3.565-3.805Z" transform="translate(-198.39 -165.241)" fill="#fff"/>
        <path id="Trazado_104937" data-name="Trazado 104937" d="M367.515,218.65H345.132a4.045,4.045,0,0,0-4,3.789l-.672,11.576a3.549,3.549,0,0,0,3.565,3.789h22.384a4.045,4.045,0,0,0,4-3.789l.672-11.576a3.549,3.549,0,0,0-3.565-3.789Z" transform="translate(-213.408 -165.312)" fill="#fff"/>
        <path id="Trazado_104938" data-name="Trazado 104938" d="M342.42,218.77H320.036a4.077,4.077,0,0,0-4,3.805l-.656,11.56a3.549,3.549,0,0,0,3.565,3.805h22.384a4.077,4.077,0,0,0,4-3.805l.655-11.56a3.533,3.533,0,0,0-3.565-3.805Z" transform="translate(-228.428 -165.241)" fill="#fff"/>
        <path id="Trazado_104939" data-name="Trazado 104939" d="M317.345,218.89H294.962a4.061,4.061,0,0,0-4,3.805l-.672,11.56a3.565,3.565,0,0,0,3.565,3.805h22.384a4.061,4.061,0,0,0,4-3.805l.672-11.56a3.566,3.566,0,0,0-3.565-3.805Z" transform="translate(-243.452 -165.169)" fill="#fff"/>
        <path id="Trazado_104940" data-name="Trazado 104940" d="M292.251,219H269.867a4.077,4.077,0,0,0-4,3.789l-.656,11.576a3.534,3.534,0,0,0,3.5,3.821H291.1a4.061,4.061,0,0,0,4-3.789l.656-11.576a3.533,3.533,0,0,0-3.5-3.821Z" transform="translate(-258.473 -165.103)" fill="#fff"/>
        <path id="Trazado_104941" data-name="Trazado 104941" d="M363.33,292H340.946a4.077,4.077,0,0,0-4,3.789l-.656,11.576a3.533,3.533,0,0,0,3.565,3.789h22.384a4.061,4.061,0,0,0,4-3.789l.656-11.576A3.533,3.533,0,0,0,363.33,292Z" transform="translate(-215.906 -121.387)" fill="#fff"/>
        <path id="Trazado_104942" data-name="Trazado 104942" d="M338.255,292.11H315.872a4.045,4.045,0,0,0-4,3.789l-.672,11.576a3.55,3.55,0,0,0,3.565,3.789h22.384a4.045,4.045,0,0,0,4-3.789l.672-11.576a3.55,3.55,0,0,0-3.565-3.789Z" transform="translate(-230.931 -121.321)" fill="#fff"/>
        <path id="Trazado_104943" data-name="Trazado 104943" d="M313.13,292.23H290.746a4.077,4.077,0,0,0-4,3.789l-.656,11.576a3.533,3.533,0,0,0,3.565,3.789h22.384a4.061,4.061,0,0,0,4-3.789l.656-11.576a3.533,3.533,0,0,0-3.565-3.789Z" transform="translate(-245.968 -121.25)" fill="#fff"/>
        <path id="Trazado_104944" data-name="Trazado 104944" d="M288.184,292.35H265.8a4.045,4.045,0,0,0-4,3.789l-.8,11.64a3.517,3.517,0,0,0,3.549,3.789h22.384a4.045,4.045,0,0,0,4-3.789l.672-11.576a3.55,3.55,0,0,0-3.422-3.853Z" transform="translate(-260.993 -121.178)" fill="#fff"/>
        <path id="Trazado_104945" data-name="Trazado 104945" d="M390.055,273.77H367.671a4.061,4.061,0,0,0-4,3.805l-.576,10.057-.1,1.5-1.6,29.323a3.533,3.533,0,0,0,3.565,3.789h22.384a4.045,4.045,0,0,0,4-3.789l1.6-29.323.1-1.5.576-10.057a3.565,3.565,0,0,0-3.565-3.805Z" transform="translate(-200.869 -132.304)" fill="#fff"/>
        <path id="Trazado_104946" data-name="Trazado 104946" d="M364.385,273.65H342a4.045,4.045,0,0,0-4,3.789l-.672,11.576A3.549,3.549,0,0,0,340.9,292.8h22.384a4.045,4.045,0,0,0,4-3.789l.672-11.576a3.549,3.549,0,0,0-3.565-3.789Z" transform="translate(-215.283 -132.376)" fill="#fff"/>
        <path id="Trazado_104947" data-name="Trazado 104947" d="M339.29,273.77H316.907a4.077,4.077,0,0,0-4,3.805l-.656,11.56a3.533,3.533,0,0,0,3.565,3.805H338.2a4.077,4.077,0,0,0,4-3.805l.656-11.56a3.549,3.549,0,0,0-3.565-3.805Z" transform="translate(-230.303 -132.304)" fill="#fff"/>
        <path id="Trazado_104948" data-name="Trazado 104948" d="M314.263,273.9H291.752a4.045,4.045,0,0,0-4,3.789l-.672,11.576a3.549,3.549,0,0,0,3.565,3.789h22.384a4.045,4.045,0,0,0,4-3.789l.672-11.576a3.549,3.549,0,0,0-3.438-3.789Z" transform="translate(-245.375 -132.226)" fill="#fff"/>
        <path id="Trazado_104949" data-name="Trazado 104949" d="M289.13,274H266.746a4.061,4.061,0,0,0-4,3.789l-.655,11.576a3.533,3.533,0,0,0,3.565,3.789h22.384a4.077,4.077,0,0,0,4-3.789l.656-11.576A3.533,3.533,0,0,0,289.13,274Z" transform="translate(-260.34 -132.166)" fill="#fff"/>
        <path id="Trazado_104950" data-name="Trazado 104950" d="M390.49,255.44H368.106a4.061,4.061,0,0,0-4,3.789l-.655,11.576a3.533,3.533,0,0,0,3.565,3.789H389.4a4.077,4.077,0,0,0,4-3.789l.656-11.576a3.533,3.533,0,0,0-3.565-3.789Z" transform="translate(-199.641 -143.281)" fill="#fff"/>
        <path id="Trazado_104951" data-name="Trazado 104951" d="M365.42,255.32H343.036a4.045,4.045,0,0,0-4,3.789l-.656,11.576a3.533,3.533,0,0,0,3.565,3.789h22.384a4.077,4.077,0,0,0,4-3.789l.656-11.576a3.549,3.549,0,0,0-3.565-3.789Z" transform="translate(-214.654 -143.353)" fill="#fff"/>
        <path id="Trazado_104952" data-name="Trazado 104952" d="M340.33,255.44H317.946a4.077,4.077,0,0,0-4,3.789l-.656,11.576a3.55,3.55,0,0,0,3.565,3.789h22.384a4.045,4.045,0,0,0,4-3.789l.656-11.576a3.533,3.533,0,0,0-3.565-3.789Z" transform="translate(-229.679 -143.281)" fill="#fff"/>
        <path id="Trazado_104953" data-name="Trazado 104953" d="M315.25,255.56H292.866a4.045,4.045,0,0,0-4,3.789l-.656,11.576a3.534,3.534,0,0,0,3.565,3.789h22.384a4.077,4.077,0,0,0,4-3.789l.656-11.576a3.533,3.533,0,0,0-3.565-3.789Z" transform="translate(-244.698 -143.209)" fill="#fff"/>
        <path id="Trazado_104954" data-name="Trazado 104954" d="M290.129,255.68H267.746a4.077,4.077,0,0,0-4,3.805l-.656,11.56a3.565,3.565,0,0,0,3.566,3.805h22.384a4.061,4.061,0,0,0,4-3.805l.656-11.56a3.533,3.533,0,0,0-3.565-3.805Z" transform="translate(-259.741 -143.137)" fill="#fff"/>
        <path id="Trazado_104955" data-name="Trazado 104955" d="M391.529,237.11H369.146a4.077,4.077,0,0,0-4,3.789l-.656,11.576a3.549,3.549,0,0,0,3.565,3.789h22.384a4.045,4.045,0,0,0,4-3.789l.656-11.576a3.533,3.533,0,0,0-3.565-3.789Z" transform="translate(-199.018 -154.258)" fill="#fff"/>
        <path id="Trazado_104956" data-name="Trazado 104956" d="M366.46,237H344.076a4.077,4.077,0,0,0-4,3.805l-.656,11.56a3.549,3.549,0,0,0,3.565,3.805h22.384a4.061,4.061,0,0,0,4-3.805l.656-11.56A3.534,3.534,0,0,0,366.46,237Z" transform="translate(-214.031 -154.324)" fill="#fff"/>
        <path id="Trazado_104957" data-name="Trazado 104957" d="M341.38,237.11H319a4.045,4.045,0,0,0-4,3.789l-.656,11.576a3.533,3.533,0,0,0,3.565,3.789h22.384a4.077,4.077,0,0,0,4-3.789l.656-11.576a3.55,3.55,0,0,0-3.565-3.789Z" transform="translate(-229.051 -154.258)" fill="#fff"/>
        <path id="Trazado_104958" data-name="Trazado 104958" d="M316.29,237.23H293.906a4.077,4.077,0,0,0-4,3.789l-.656,11.576a3.533,3.533,0,0,0,3.565,3.789H315.2a4.045,4.045,0,0,0,4-3.789l.656-11.576a3.533,3.533,0,0,0-3.565-3.789Z" transform="translate(-244.076 -154.186)" fill="#fff"/>
        <path id="Trazado_104959" data-name="Trazado 104959" d="M291.258,237.35H268.746a4.045,4.045,0,0,0-4,3.789l-.656,11.576a3.533,3.533,0,0,0,3.565,3.789h22.384a4.077,4.077,0,0,0,4-3.789l.656-11.576a3.55,3.55,0,0,0-3.438-3.789Z" transform="translate(-259.143 -154.114)" fill="#fff"/>
      </g>
      <g id="Grupo_88880" data-name="Grupo 88880" transform="translate(150.545 120.841)" opacity="0.4" style="isolation: isolate">
        <path id="Trazado_104960" data-name="Trazado 104960" d="M394.18,199.977H370.549a2.974,2.974,0,0,1-3.006-3.2l.464-8.2a3.422,3.422,0,0,1,3.373-3.2h23.631a2.99,2.99,0,0,1,3.006,3.2l-.464,8.2a3.421,3.421,0,0,1-3.374,3.2Z" transform="translate(-327.452 -185.236)"/>
        <path id="Trazado_104961" data-name="Trazado 104961" d="M369.11,199.887H345.463a2.974,2.974,0,0,1-2.99-3.2l.464-8.2a3.405,3.405,0,0,1,3.358-3.2h23.647a2.99,2.99,0,0,1,3.006,3.2l-.48,8.2a3.422,3.422,0,0,1-3.358,3.2Z" transform="translate(-342.465 -185.29)"/>
      </g>
      <g id="Grupo_88881" data-name="Grupo 88881" transform="translate(28.922 143.624)" opacity="0.4" style="isolation: isolate">
        <path id="Trazado_104962" data-name="Trazado 104962" d="M393.37,214.237H369.739a2.974,2.974,0,0,1-3.006-3.2l.464-8.2a3.406,3.406,0,0,1,3.374-3.2H394.2a2.99,2.99,0,0,1,3.006,3.2l-.464,8.2A3.437,3.437,0,0,1,393.37,214.237Z" transform="translate(-206.314 -199.48)"/>
        <path id="Trazado_104963" data-name="Trazado 104963" d="M368.305,214.137H344.659a2.99,2.99,0,0,1-3.006-3.2l.48-8.2a3.422,3.422,0,0,1,3.358-3.2h23.647a2.99,2.99,0,0,1,3.006,3.2l-.48,8.2A3.405,3.405,0,0,1,368.305,214.137Z" transform="translate(-221.332 -199.54)"/>
        <path id="Trazado_104964" data-name="Trazado 104964" d="M343.209,214.237H319.579a2.99,2.99,0,0,1-3.006-3.2l.464-8.2a3.421,3.421,0,0,1,3.373-3.2h23.631a2.99,2.99,0,0,1,3.006,3.2l-.464,8.2a3.421,3.421,0,0,1-3.374,3.2Z" transform="translate(-236.351 -199.48)"/>
        <path id="Trazado_104965" data-name="Trazado 104965" d="M318.13,214.327H294.5a2.974,2.974,0,0,1-3.006-3.2l.464-8.2a3.421,3.421,0,0,1,3.373-3.2h23.631a2.99,2.99,0,0,1,3.006,3.2l-.464,8.2a3.421,3.421,0,0,1-3.374,3.2Z" transform="translate(-251.371 -199.426)"/>
        <path id="Trazado_104966" data-name="Trazado 104966" d="M293.055,214.467H269.409a2.99,2.99,0,0,1-3.006-3.2l.48-8.2a3.422,3.422,0,0,1,3.358-3.2h23.647a2.99,2.99,0,0,1,3.006,3.2l-.48,8.2A3.406,3.406,0,0,1,293.055,214.467Z" transform="translate(-266.395 -199.342)"/>
      </g>
      <path id="Trazado_104967" data-name="Trazado 104967" d="M306.974,191.311H353.1a1.871,1.871,0,0,0,1.839-1.759h0a1.6,1.6,0,0,0-1.6-1.743H307.182a1.871,1.871,0,0,0-1.839,1.743h0a1.6,1.6,0,0,0,1.631,1.759Z" transform="translate(-214.154 -62.94)" opacity="0.2" style="isolation: isolate"/>
      <path id="Trazado_104968" data-name="Trazado 104968" d="M269.08,191.311h46.127a1.871,1.871,0,0,0,1.839-1.759h0a1.6,1.6,0,0,0-1.6-1.743H269.272a1.871,1.871,0,0,0-1.839,1.743h0a1.6,1.6,0,0,0,1.647,1.759Z" transform="translate(-236.857 -62.94)" opacity="0.2" style="isolation: isolate"/>
      <path id="Trazado_104969" data-name="Trazado 104969" d="M279.264,193.11h-6.124a2.862,2.862,0,0,1-2.878-3.07h0a3.2,3.2,0,0,1,3.2-3.07h6.108a2.862,2.862,0,0,1,2.894,3.07h0a3.294,3.294,0,0,1-3.2,3.07Z" transform="translate(-235.162 -63.443)" fill="#263238"/>
      <path id="Trazado_104970" data-name="Trazado 104970" d="M333.064,193.064h-6.108a2.862,2.862,0,0,1-2.894-3.07h0a3.294,3.294,0,0,1,3.2-3.054h6.124a2.846,2.846,0,0,1,2.878,3.054h0A3.2,3.2,0,0,1,333.064,193.064Z" transform="translate(-202.944 -63.461)" fill="#263238"/>
      <path id="Trazado_104971" data-name="Trazado 104971" d="M392.58,218.77H370.2a4.045,4.045,0,0,0-4,3.805l-.655,11.56a3.534,3.534,0,0,0,3.565,3.805h22.384a4.077,4.077,0,0,0,4-3.805l.656-11.56a3.549,3.549,0,0,0-3.565-3.805Z" transform="translate(-178.105 -44.4)" opacity="0.5"/>
      <path id="Trazado_104972" data-name="Trazado 104972" d="M367.515,218.65H345.132a4.045,4.045,0,0,0-4,3.789l-.672,11.576a3.549,3.549,0,0,0,3.565,3.789h22.384a4.045,4.045,0,0,0,4-3.789l.672-11.576a3.549,3.549,0,0,0-3.565-3.789Z" transform="translate(-193.123 -44.472)" opacity="0.5"/>
      <path id="Trazado_104973" data-name="Trazado 104973" d="M342.42,218.77H320.036a4.077,4.077,0,0,0-4,3.805l-.656,11.56a3.549,3.549,0,0,0,3.565,3.805h22.384a4.077,4.077,0,0,0,4-3.805l.655-11.56a3.533,3.533,0,0,0-3.565-3.805Z" transform="translate(-208.143 -44.4)" opacity="0.5"/>
      <path id="Trazado_104974" data-name="Trazado 104974" d="M317.34,218.89H294.957a4.061,4.061,0,0,0-4,3.805l-.656,11.56a3.534,3.534,0,0,0,3.549,3.805h22.384a4.061,4.061,0,0,0,4-3.805l.672-11.56a3.566,3.566,0,0,0-3.566-3.805Z" transform="translate(-223.162 -44.328)" opacity="0.5"/>
      <path id="Trazado_104975" data-name="Trazado 104975" d="M292.251,219H269.867a4.077,4.077,0,0,0-4,3.789l-.656,11.576a3.534,3.534,0,0,0,3.5,3.821H291.1a4.061,4.061,0,0,0,4-3.789l.656-11.576a3.533,3.533,0,0,0-3.5-3.821Z" transform="translate(-238.188 -44.262)" opacity="0.5"/>
      <path id="Trazado_104976" data-name="Trazado 104976" d="M363.33,292H340.946a4.077,4.077,0,0,0-4,3.789l-.656,11.576a3.533,3.533,0,0,0,3.565,3.789h22.384a4.061,4.061,0,0,0,4-3.789l.656-11.576A3.533,3.533,0,0,0,363.33,292Z" transform="translate(-195.621 -0.546)" opacity="0.5"/>
      <path id="Trazado_104977" data-name="Trazado 104977" d="M338.255,292.11H315.872a4.045,4.045,0,0,0-4,3.789l-.672,11.576a3.55,3.55,0,0,0,3.565,3.789h22.384a4.045,4.045,0,0,0,4-3.789l.672-11.576a3.55,3.55,0,0,0-3.565-3.789Z" transform="translate(-210.645 -0.48)" opacity="0.5"/>
      <path id="Trazado_104978" data-name="Trazado 104978" d="M313.13,292.23H290.746a4.077,4.077,0,0,0-4,3.789l-.656,11.576a3.533,3.533,0,0,0,3.565,3.789h22.384a4.061,4.061,0,0,0,4-3.789l.656-11.576a3.533,3.533,0,0,0-3.565-3.789Z" transform="translate(-225.683 -0.409)" opacity="0.5"/>
      <path id="Trazado_104979" data-name="Trazado 104979" d="M288.184,292.35H265.8a4.045,4.045,0,0,0-4,3.789l-.8,11.64a3.517,3.517,0,0,0,3.549,3.789h22.384a4.045,4.045,0,0,0,4-3.789l.672-11.576a3.55,3.55,0,0,0-3.422-3.853Z" transform="translate(-240.708 -0.337)" opacity="0.5"/>
      <path id="Trazado_104980" data-name="Trazado 104980" d="M390.055,273.77H367.671a4.061,4.061,0,0,0-4,3.805l-.576,10.057-.1,1.5-1.6,29.323a3.533,3.533,0,0,0,3.565,3.789h22.384a4.045,4.045,0,0,0,4-3.789l1.6-29.323.1-1.5.576-10.057a3.565,3.565,0,0,0-3.565-3.805Z" transform="translate(-180.584 -11.463)" opacity="0.3"/>
      <path id="Trazado_104981" data-name="Trazado 104981" d="M364.385,273.65H342a4.045,4.045,0,0,0-4,3.789l-.672,11.576A3.549,3.549,0,0,0,340.9,292.8h22.384a4.045,4.045,0,0,0,4-3.789l.672-11.576a3.549,3.549,0,0,0-3.565-3.789Z" transform="translate(-194.998 -11.535)" opacity="0.5"/>
      <path id="Trazado_104982" data-name="Trazado 104982" d="M339.29,273.77H316.907a4.077,4.077,0,0,0-4,3.805l-.656,11.56a3.533,3.533,0,0,0,3.565,3.805H338.2a4.077,4.077,0,0,0,4-3.805l.656-11.56a3.549,3.549,0,0,0-3.565-3.805Z" transform="translate(-210.017 -11.463)" opacity="0.5"/>
      <path id="Trazado_104983" data-name="Trazado 104983" d="M314.263,273.9H291.752a4.045,4.045,0,0,0-4,3.789l-.672,11.576a3.549,3.549,0,0,0,3.565,3.789h22.384a4.045,4.045,0,0,0,4-3.789l.672-11.576a3.549,3.549,0,0,0-3.438-3.789Z" transform="translate(-225.089 -11.385)" opacity="0.5"/>
      <path id="Trazado_104984" data-name="Trazado 104984" d="M289.13,274H266.746a4.061,4.061,0,0,0-4,3.789l-.655,11.576a3.533,3.533,0,0,0,3.565,3.789h22.384a4.077,4.077,0,0,0,4-3.789l.656-11.576A3.533,3.533,0,0,0,289.13,274Z" transform="translate(-240.055 -11.326)" opacity="0.3"/>
      <path id="Trazado_104985" data-name="Trazado 104985" d="M390.49,255.44H368.106a4.061,4.061,0,0,0-4,3.789l-.655,11.576a3.533,3.533,0,0,0,3.565,3.789H389.4a4.077,4.077,0,0,0,4-3.789l.656-11.576a3.533,3.533,0,0,0-3.565-3.789Z" transform="translate(-179.356 -22.44)" opacity="0.5"/>
      <path id="Trazado_104986" data-name="Trazado 104986" d="M365.42,255.32H343.036a4.045,4.045,0,0,0-4,3.789l-.656,11.576a3.533,3.533,0,0,0,3.565,3.789h22.384a4.077,4.077,0,0,0,4-3.789l.656-11.576a3.549,3.549,0,0,0-3.565-3.789Z" transform="translate(-194.369 -22.512)" opacity="0.5"/>
      <path id="Trazado_104987" data-name="Trazado 104987" d="M340.33,255.44H317.946a4.077,4.077,0,0,0-4,3.789l-.656,11.576a3.55,3.55,0,0,0,3.565,3.789h22.384a4.045,4.045,0,0,0,4-3.789l.656-11.576a3.533,3.533,0,0,0-3.565-3.789Z" transform="translate(-209.394 -22.44)" opacity="0.5"/>
      <path id="Trazado_104988" data-name="Trazado 104988" d="M315.25,255.56H292.867a4.045,4.045,0,0,0-4,3.789l-.656,11.576a3.534,3.534,0,0,0,3.565,3.805h22.384a4.077,4.077,0,0,0,4-3.805l.656-11.576a3.533,3.533,0,0,0-3.565-3.789Z" transform="translate(-224.414 -22.368)" opacity="0.5"/>
      <path id="Trazado_104989" data-name="Trazado 104989" d="M290.129,255.68H267.746a4.077,4.077,0,0,0-4,3.805l-.656,11.56a3.565,3.565,0,0,0,3.566,3.805h22.384a4.061,4.061,0,0,0,4-3.805l.656-11.56a3.533,3.533,0,0,0-3.565-3.805Z" transform="translate(-239.456 -22.296)" opacity="0.3"/>
      <path id="Trazado_104990" data-name="Trazado 104990" d="M391.529,237.11H369.146a4.077,4.077,0,0,0-4,3.789l-.656,11.576a3.549,3.549,0,0,0,3.565,3.789h22.384a4.045,4.045,0,0,0,4-3.789l.656-11.576a3.533,3.533,0,0,0-3.565-3.789Z" transform="translate(-178.733 -33.417)" opacity="0.5"/>
      <path id="Trazado_104991" data-name="Trazado 104991" d="M366.46,237H344.076a4.077,4.077,0,0,0-4,3.805l-.656,11.56a3.549,3.549,0,0,0,3.565,3.805h22.384a4.061,4.061,0,0,0,4-3.805l.656-11.56A3.534,3.534,0,0,0,366.46,237Z" transform="translate(-193.746 -33.483)" opacity="0.5"/>
      <path id="Trazado_104992" data-name="Trazado 104992" d="M341.38,237.11H319a4.045,4.045,0,0,0-4,3.789l-.656,11.576a3.533,3.533,0,0,0,3.565,3.789h22.384a4.077,4.077,0,0,0,4-3.789l.656-11.576a3.55,3.55,0,0,0-3.565-3.789Z" transform="translate(-208.765 -33.417)" opacity="0.5"/>
      <path id="Trazado_104993" data-name="Trazado 104993" d="M316.29,237.23H293.906a4.077,4.077,0,0,0-4,3.789l-.656,11.576a3.533,3.533,0,0,0,3.565,3.789H315.2a4.045,4.045,0,0,0,4-3.789l.656-11.576a3.533,3.533,0,0,0-3.565-3.789Z" transform="translate(-223.79 -33.345)" opacity="0.5"/>
      <path id="Trazado_104994" data-name="Trazado 104994" d="M291.258,237.35H268.746a4.045,4.045,0,0,0-4,3.789l-.656,11.576a3.533,3.533,0,0,0,3.565,3.789h22.384a4.077,4.077,0,0,0,4-3.789l.656-11.576a3.55,3.55,0,0,0-3.438-3.789Z" transform="translate(-238.857 -33.273)" opacity="0.5"/>
      <path id="Trazado_104995" data-name="Trazado 104995" d="M396.011,185.38H372.38a3.422,3.422,0,0,0-3.374,3.2l-.464,8.2a2.99,2.99,0,0,0,3.006,3.2h23.631a3.422,3.422,0,0,0,3.374-3.2l.464-8.2a2.99,2.99,0,0,0-3.006-3.2Z" transform="translate(-176.307 -64.395)" fill="#263238"/>
      <path id="Trazado_104996" data-name="Trazado 104996" d="M370.941,185.29H347.294a3.406,3.406,0,0,0-3.357,3.2l-.464,8.2a2.974,2.974,0,0,0,2.99,3.2H370.11a3.422,3.422,0,0,0,3.357-3.2l.48-8.2a2.99,2.99,0,0,0-3.006-3.2Z" transform="translate(-191.321 -64.449)" fill="#263238"/>
      <path id="Trazado_104997" data-name="Trazado 104997" d="M395.2,199.64H371.57a3.406,3.406,0,0,0-3.374,3.2l-.464,8.2a2.974,2.974,0,0,0,3.006,3.2H394.37a3.437,3.437,0,0,0,3.374-3.2l.464-8.2a2.99,2.99,0,0,0-3.006-3.2Z" transform="translate(-176.793 -55.856)" fill="#263238"/>
      <path id="Trazado_104998" data-name="Trazado 104998" d="M370.137,199.54H346.49a3.421,3.421,0,0,0-3.358,3.2l-.48,8.2a2.99,2.99,0,0,0,3.006,3.2h23.647a3.405,3.405,0,0,0,3.358-3.2l.48-8.2a2.99,2.99,0,0,0-3.006-3.2Z" transform="translate(-191.811 -55.916)" fill="#263238"/>
      <path id="Trazado_104999" data-name="Trazado 104999" d="M345.023,199.64H321.44a3.422,3.422,0,0,0-3.374,3.2l-.464,8.2a2.99,2.99,0,0,0,3.006,3.2h23.631a3.421,3.421,0,0,0,3.373-3.2l.464-8.2a2.99,2.99,0,0,0-3.054-3.2Z" transform="translate(-206.812 -55.856)" fill="#263238"/>
      <path id="Trazado_105000" data-name="Trazado 105000" d="M319.961,199.73H296.33a3.422,3.422,0,0,0-3.374,3.2l-.464,8.2a2.974,2.974,0,0,0,3.006,3.2H319.13a3.422,3.422,0,0,0,3.374-3.2l.464-8.2a2.99,2.99,0,0,0-3.006-3.2Z" transform="translate(-221.85 -55.802)" fill="#263238"/>
      <path id="Trazado_105001" data-name="Trazado 105001" d="M294.887,199.82H271.24a3.422,3.422,0,0,0-3.358,3.2l-.48,8.2a2.99,2.99,0,0,0,3.006,3.2h23.647a3.406,3.406,0,0,0,3.358-3.2l.48-8.2a2.99,2.99,0,0,0-3.006-3.2Z" transform="translate(-236.874 -55.748)" fill="#263238"/>
      <path id="Trazado_105002" data-name="Trazado 105002" d="M393.58,218.77H371.2a4.045,4.045,0,0,0-4,3.805l-.655,11.56a3.534,3.534,0,0,0,3.565,3.805h22.384a4.077,4.077,0,0,0,4-3.805l.655-11.56a3.549,3.549,0,0,0-3.565-3.805Z" transform="translate(-177.506 -44.4)" fill="#263238"/>
      <path id="Trazado_105003" data-name="Trazado 105003" d="M368.515,218.65H346.132a4.045,4.045,0,0,0-4,3.789l-.672,11.576a3.549,3.549,0,0,0,3.565,3.789h22.384a4.045,4.045,0,0,0,4-3.789l.672-11.576a3.549,3.549,0,0,0-3.565-3.789Z" transform="translate(-192.524 -44.472)" fill="#263238"/>
      <path id="Trazado_105004" data-name="Trazado 105004" d="M343.42,218.77H321.036a4.077,4.077,0,0,0-4,3.805l-.656,11.56a3.55,3.55,0,0,0,3.565,3.805h22.384a4.077,4.077,0,0,0,4-3.805l.656-11.56a3.534,3.534,0,0,0-3.565-3.805Z" transform="translate(-207.544 -44.4)" fill="#263238"/>
      <path id="Trazado_105005" data-name="Trazado 105005" d="M318.345,218.89H295.962a4.061,4.061,0,0,0-4,3.805l-.672,11.56a3.565,3.565,0,0,0,3.565,3.805h22.384a4.061,4.061,0,0,0,4-3.805l.672-11.56a3.565,3.565,0,0,0-3.565-3.805Z" transform="translate(-222.568 -44.328)" fill="#263238"/>
      <path id="Trazado_105006" data-name="Trazado 105006" d="M293.251,219H270.867a4.077,4.077,0,0,0-4,3.789l-.655,11.576a3.533,3.533,0,0,0,3.5,3.821H292.1a4.061,4.061,0,0,0,4-3.789l.656-11.576a3.534,3.534,0,0,0-3.5-3.821Z" transform="translate(-237.589 -44.262)" fill="#263238"/>
      <path id="Trazado_105007" data-name="Trazado 105007" d="M364.33,292H341.946a4.077,4.077,0,0,0-4,3.789l-.656,11.576a3.533,3.533,0,0,0,3.565,3.789h22.384a4.061,4.061,0,0,0,4-3.789l.655-11.576A3.533,3.533,0,0,0,364.33,292Z" transform="translate(-195.022 -0.546)" fill="#263238"/>
      <path id="Trazado_105008" data-name="Trazado 105008" d="M339.255,292.11H316.872a4.045,4.045,0,0,0-4,3.789l-.672,11.576a3.549,3.549,0,0,0,3.565,3.789h22.384a4.045,4.045,0,0,0,4-3.789l.672-11.576a3.549,3.549,0,0,0-3.565-3.789Z" transform="translate(-210.046 -0.48)" fill="#263238"/>
      <path id="Trazado_105009" data-name="Trazado 105009" d="M314.13,292.23H291.746a4.077,4.077,0,0,0-4,3.789l-.656,11.576a3.533,3.533,0,0,0,3.565,3.789h22.384a4.061,4.061,0,0,0,4-3.789l.656-11.576a3.533,3.533,0,0,0-3.565-3.789Z" transform="translate(-225.084 -0.409)" fill="#263238"/>
      <path id="Trazado_105010" data-name="Trazado 105010" d="M289.184,292.35H266.8a4.045,4.045,0,0,0-4,3.789l-.8,11.64a3.517,3.517,0,0,0,3.549,3.789h22.384a4.045,4.045,0,0,0,4-3.789l.672-11.576a3.549,3.549,0,0,0-3.422-3.853Z" transform="translate(-240.109 -0.337)" fill="#263238"/>
      <path id="Trazado_105011" data-name="Trazado 105011" d="M391.055,273.77H368.671a4.061,4.061,0,0,0-4,3.805l-.576,10.057-.1,1.5-1.6,29.323a3.534,3.534,0,0,0,3.565,3.789h22.384a4.045,4.045,0,0,0,4-3.789l1.6-29.323.1-1.5.576-10.057a3.565,3.565,0,0,0-3.565-3.805Z" transform="translate(-179.985 -11.463)" fill="#263238"/>
      <path id="Trazado_105012" data-name="Trazado 105012" d="M365.385,273.65H343a4.045,4.045,0,0,0-4,3.789l-.672,11.576A3.549,3.549,0,0,0,341.9,292.8h22.384a4.045,4.045,0,0,0,4-3.789l.672-11.576a3.549,3.549,0,0,0-3.565-3.789Z" transform="translate(-194.399 -11.535)" fill="#263238"/>
      <path id="Trazado_105013" data-name="Trazado 105013" d="M340.29,273.77H317.907a4.077,4.077,0,0,0-4,3.805l-.656,11.56a3.533,3.533,0,0,0,3.565,3.805H339.2a4.077,4.077,0,0,0,4-3.805l.655-11.56a3.549,3.549,0,0,0-3.565-3.805Z" transform="translate(-209.419 -11.463)" fill="#263238"/>
      <path id="Trazado_105014" data-name="Trazado 105014" d="M315.263,273.9H292.752a4.045,4.045,0,0,0-4,3.789l-.672,11.576a3.549,3.549,0,0,0,3.565,3.789h22.384a4.045,4.045,0,0,0,4-3.789l.672-11.576a3.549,3.549,0,0,0-3.438-3.789Z" transform="translate(-224.491 -11.385)" fill="#263238"/>
      <path id="Trazado_105015" data-name="Trazado 105015" d="M290.13,274H267.746a4.061,4.061,0,0,0-4,3.789l-.656,11.576a3.533,3.533,0,0,0,3.565,3.789h22.384a4.077,4.077,0,0,0,4-3.789l.655-11.576A3.533,3.533,0,0,0,290.13,274Z" transform="translate(-239.456 -11.326)" fill="#263238"/>
      <path id="Trazado_105016" data-name="Trazado 105016" d="M391.49,255.44H369.106a4.061,4.061,0,0,0-4,3.789l-.656,11.576a3.534,3.534,0,0,0,3.565,3.789H390.4a4.077,4.077,0,0,0,4-3.789l.656-11.576a3.533,3.533,0,0,0-3.565-3.789Z" transform="translate(-178.757 -22.44)" fill="#263238"/>
      <path id="Trazado_105017" data-name="Trazado 105017" d="M366.42,255.32H344.036a4.045,4.045,0,0,0-4,3.789l-.656,11.576a3.533,3.533,0,0,0,3.565,3.789h22.384a4.077,4.077,0,0,0,4-3.789l.656-11.576a3.55,3.55,0,0,0-3.565-3.789Z" transform="translate(-193.77 -22.512)" fill="#263238"/>
      <path id="Trazado_105018" data-name="Trazado 105018" d="M341.329,255.44H318.946a4.077,4.077,0,0,0-4,3.789l-.656,11.576a3.55,3.55,0,0,0,3.565,3.789h22.384a4.045,4.045,0,0,0,4-3.789l.655-11.576a3.533,3.533,0,0,0-3.565-3.789Z" transform="translate(-208.795 -22.44)" fill="#263238"/>
      <path id="Trazado_105019" data-name="Trazado 105019" d="M316.25,255.56H293.866a4.045,4.045,0,0,0-4,3.789l-.656,11.576a3.534,3.534,0,0,0,3.565,3.789h22.384a4.077,4.077,0,0,0,4-3.789l.656-11.576a3.533,3.533,0,0,0-3.565-3.789Z" transform="translate(-223.814 -22.368)" fill="#263238"/>
      <path id="Trazado_105020" data-name="Trazado 105020" d="M291.129,255.68H268.746a4.077,4.077,0,0,0-4,3.805l-.656,11.56a3.565,3.565,0,0,0,3.565,3.805h22.384a4.061,4.061,0,0,0,4-3.805l.656-11.56a3.534,3.534,0,0,0-3.565-3.805Z" transform="translate(-238.857 -22.297)" fill="#263238"/>
      <path id="Trazado_105021" data-name="Trazado 105021" d="M392.529,237.11H370.146a4.077,4.077,0,0,0-4,3.789l-.655,11.576a3.55,3.55,0,0,0,3.565,3.789h22.384a4.045,4.045,0,0,0,4-3.789l.656-11.576a3.533,3.533,0,0,0-3.565-3.789Z" transform="translate(-178.134 -33.417)" fill="#263238"/>
      <path id="Trazado_105022" data-name="Trazado 105022" d="M367.46,237H345.076a4.077,4.077,0,0,0-4,3.805l-.656,11.56a3.549,3.549,0,0,0,3.565,3.805h22.384a4.061,4.061,0,0,0,4-3.805l.656-11.56A3.533,3.533,0,0,0,367.46,237Z" transform="translate(-193.148 -33.483)" fill="#263238"/>
      <path id="Trazado_105023" data-name="Trazado 105023" d="M342.38,237.11H320a4.045,4.045,0,0,0-4,3.789l-.656,11.576a3.533,3.533,0,0,0,3.565,3.789h22.384a4.077,4.077,0,0,0,4-3.789l.656-11.576a3.549,3.549,0,0,0-3.565-3.789Z" transform="translate(-208.166 -33.417)" fill="#263238"/>
      <path id="Trazado_105024" data-name="Trazado 105024" d="M317.29,237.23H294.906a4.077,4.077,0,0,0-4,3.789l-.655,11.576a3.534,3.534,0,0,0,3.565,3.789H316.2a4.045,4.045,0,0,0,4-3.789l.655-11.576a3.533,3.533,0,0,0-3.565-3.789Z" transform="translate(-223.191 -33.345)" fill="#263238"/>
      <path id="Trazado_105025" data-name="Trazado 105025" d="M292.258,237.35H269.746a4.045,4.045,0,0,0-4,3.789l-.655,11.576a3.534,3.534,0,0,0,3.565,3.789h22.384a4.077,4.077,0,0,0,4-3.789l.656-11.576a3.549,3.549,0,0,0-3.438-3.789Z" transform="translate(-238.258 -33.273)" fill="#263238"/>
    </g>
    <g id="freepik--Plant--inject-16" transform="translate(93.767 368.857)">
      <path id="Trazado_105026" data-name="Trazado 105026" d="M108.054,373.078s-9.881,2.142-14.1,0S91.314,339.5,87,338.895c-9.913-1.5-8.218,40.179-4,48.973s25.981,5.036,25.981,5.036Z" transform="translate(-79.663 -231.634)" fill="#2e9daa"/>
      <path id="Trazado_105027" data-name="Trazado 105027" d="M108.054,373.078s-9.881,2.142-14.1,0S91.314,339.5,87,338.895c-9.913-1.5-8.218,40.179-4,48.973s25.981,5.036,25.981,5.036Z" transform="translate(-79.663 -231.634)" fill="#fff" opacity="0.2" style="isolation: isolate"/>
      <path id="Trazado_105028" data-name="Trazado 105028" d="M100.079,487.168S85.45,274.3,102.909,271.852s21.68,72.6,14.933,212.646Z" transform="translate(-70.872 -271.794)" fill="#2e9daa"/>
      <path id="Trazado_105029" data-name="Trazado 105029" d="M100.079,487.168S85.45,274.3,102.909,271.852s21.68,72.6,14.933,212.646Z" transform="translate(-70.872 -271.794)" fill="#fff" opacity="0.3" style="isolation: isolate"/>
      <path id="Trazado_105030" data-name="Trazado 105030" d="M85.1,396.66h57.446l-4.8,36.741H89.9Z" transform="translate(-76.406 -197.018)" fill="#263238"/>
      <path id="Trazado_105031" data-name="Trazado 105031" d="M109.222,326.637s15.988,1.391,16.388,0,.48-31.513,7.227-29.739,3.789,38.052,0,42.273-23.615,6.491-23.615,6.491S106.568,332.281,109.222,326.637Z" transform="translate(-62.668 -256.805)" fill="#2e9daa"/>
      <path id="Trazado_105032" data-name="Trazado 105032" d="M109.222,326.637s15.988,1.391,16.388,0,.48-31.513,7.227-29.739,3.789,38.052,0,42.273-23.615,6.491-23.615,6.491S106.568,332.281,109.222,326.637Z" transform="translate(-62.668 -256.805)" fill="#fff" opacity="0.4" style="isolation: isolate"/>
      <path id="Trazado_105033" data-name="Trazado 105033" d="M105.044,466.9q-1.679-24.286-3.086-48.589t-2.382-48.637q-1.023-24.318-1.343-48.685c-.1-8.106-.1-16.228.128-24.366.128-4.061.288-8.122.656-12.2.176-2.031.4-4.061.783-6.108a18.42,18.42,0,0,1,.783-3.07l.352-.783a5.4,5.4,0,0,1,.576-.815,1.822,1.822,0,0,1,.576-.4,1.359,1.359,0,0,1,.943,0,1.95,1.95,0,0,1,.927.847,10.664,10.664,0,0,1,1.1,3.1c.24,1.023.432,2.031.592,3.038.336,2.031.576,4.061.8,6.076.432,4.061.751,8.106,1.023,12.167.56,8.106.927,16.212,1.247,24.318q.911,24.35,1.231,48.685t.416,48.685q0,24.334-.192,48.685-.192-24.35-.592-48.669t-.863-48.669c-.4-16.228-.767-32.441-1.455-48.653-.336-8.106-.735-16.2-1.311-24.286-.288-4.029-.624-8.074-1.055-12.087-.224-2.015-.48-4.013-.815-6-.16-.975-.336-1.967-.576-2.926a9.961,9.961,0,0,0-.9-2.606c0-.176-.208-.24-.128-.208s.288,0,.144,0l-.288.416-.272.608a19.061,19.061,0,0,0-.719,2.814c-.368,1.951-.608,3.949-.783,5.948-.368,4.013-.544,7.994-.672,12.1-.256,8.09-.272,16.212-.208,24.318.112,16.212.624,32.425,1.119,48.637s1.2,32.441,1.919,48.637S104.181,450.691,105.044,466.9Z" transform="translate(-68.578 -270.971)" fill="#2e9daa"/>
      <path id="Trazado_105034" data-name="Trazado 105034" d="M110,332.528c2.063-.192,4.109-.32,6.156-.56s4.077-.4,6.092-.751a28.763,28.763,0,0,0,2.926-.639c.9-.208,1.967-.831,1.6-.927a19.966,19.966,0,0,1,0-3.2c0-1.039.128-2.079.224-3.1.368-4.109.847-8.2,1.487-12.279a116.332,116.332,0,0,1,2.334-12.151c-.224,2.047-.4,4.093-.56,6.14l-.56,6.156-1.119,12.279a55.83,55.83,0,0,0-.32,5.98v.208a3.9,3.9,0,0,1,0,.432,1.6,1.6,0,0,1-.336.656,2.462,2.462,0,0,1-.847.64,7.337,7.337,0,0,1-1.6.56,19.676,19.676,0,0,1-3.2.512A74.792,74.792,0,0,1,110,332.528Z" transform="translate(-61.495 -255.549)" fill="#2e9daa"/>
      <path id="Trazado_105035" data-name="Trazado 105035" d="M110,338.654l6.8-1.519c2.254-.464,4.525-.959,6.763-1.487a50.784,50.784,0,0,0,6.507-1.871c.208-.1.464-.256.4-.24a2.32,2.32,0,0,0,.256-.592,11.451,11.451,0,0,0,.4-1.6c.208-1.1.352-2.238.5-3.374.528-4.557.783-9.177,1.119-13.782l.464-6.923.528-6.939c.272,4.637.3,9.273.24,13.91s-.272,9.273-.767,13.926c-.144,1.167-.3,2.318-.544,3.485a12.95,12.95,0,0,1-.48,1.791,4.093,4.093,0,0,1-.464.975,2.477,2.477,0,0,1-1.007.72,39.971,39.971,0,0,1-6.907,1.695C119.273,337.647,114.685,338.271,110,338.654Z" transform="translate(-61.495 -254.705)" fill="#2e9daa"/>
      <path id="Trazado_105036" data-name="Trazado 105036" d="M100.654,377.787A38.373,38.373,0,0,1,88.5,376.38a9.816,9.816,0,0,1-1.5-.7,2.446,2.446,0,0,1-.735-.687,3.486,3.486,0,0,1-.416-.8,15.987,15.987,0,0,1-.863-3.054,60.964,60.964,0,0,1-.767-6.092c-.32-4.061-.448-8.122-.416-12.183s.16-8.106.512-12.151l.4,6.076.32,6.044c.256,4.045.432,7.994.767,12.071.16,2.015.368,4.013.672,5.964a14.919,14.919,0,0,0,.672,2.8,2.272,2.272,0,0,0,.256.56.943.943,0,0,0,.336.336,5.937,5.937,0,0,0,1.215.671,29.065,29.065,0,0,0,5.724,1.6C96.641,377.228,98.655,377.5,100.654,377.787Z" transform="translate(-77.187 -230.524)" fill="#2e9daa"/>
      <path id="Trazado_105037" data-name="Trazado 105037" d="M82.358,343.09c.224,2.35.368,4.8.576,7.083l.48,7.083c.336,4.717.608,9.449.975,14.15.192,2.35.384,4.7.688,7.019a17.7,17.7,0,0,0,.64,3.294c.256.927,1.2,1.439,2.19,1.951a29.1,29.1,0,0,0,6.715,1.823c2.318.448,4.669.72,7.019.975a41.122,41.122,0,0,1-14.214-1.6,8.364,8.364,0,0,1-1.711-.9,3.2,3.2,0,0,1-1.279-1.6,17.943,17.943,0,0,1-.847-3.629c-.368-2.382-.576-4.8-.783-7.115-.352-4.8-.56-9.481-.624-14.23S82.134,347.823,82.358,343.09Z" transform="translate(-78.173 -229.098)" fill="#2e9daa"/>
    </g>
    <g id="freepik--Character--inject-16" transform="translate(159.351 237.15)">
      <path id="Trazado_105038" data-name="Trazado 105038" d="M146.019,426.136l42.465-3.709V359.16h14.933v63.25l42.609,3.725a7.323,7.323,0,0,1,6.619,7.291v5.66H139.4v-5.66A7.323,7.323,0,0,1,146.019,426.136Z" transform="translate(-109.473 -87.768)" fill="#263238"/>
      <path id="Trazado_105039" data-name="Trazado 105039" d="M146.019,426.136l42.465-3.709V359.16h14.933v63.25l42.609,3.725a7.323,7.323,0,0,1,6.619,7.291v5.66H139.4v-5.66A7.323,7.323,0,0,1,146.019,426.136Z" transform="translate(-109.473 -87.768)" fill="#fff" opacity="0.1" style="isolation: isolate"/>
      <path id="Trazado_105040" data-name="Trazado 105040" d="M201.63,417.2a9.769,9.769,0,1,0,9.769-9.769A9.769,9.769,0,0,0,201.63,417.2Z" transform="translate(-72.207 -58.862)" fill="#263238"/>
      <path id="Trazado_105041" data-name="Trazado 105041" d="M155.318,417.2a9.753,9.753,0,1,1-2.857-6.912A9.769,9.769,0,0,1,155.318,417.2Z" transform="translate(-111.641 -58.862)" fill="#263238"/>
      <path id="Trazado_105042" data-name="Trazado 105042" d="M6.619,0h6.859a6.6,6.6,0,0,1,6.6,6.6V57.958H0V6.651A6.6,6.6,0,0,1,6.619,0Z" transform="translate(96.519 282.823) rotate(180)" fill="#263238"/>
      <path id="Trazado_105043" data-name="Trazado 105043" d="M6.619,0h6.859a6.6,6.6,0,0,1,6.6,6.6V57.958H0V6.651A6.6,6.6,0,0,1,6.619,0Z" transform="translate(96.519 282.823) rotate(180)" fill="#fff" opacity="0.2" style="isolation: isolate"/>
      <path id="Trazado_105044" data-name="Trazado 105044" d="M153.634,261s4.6,92.221,24.462,108.1H156.863S137.917,337.745,136.51,261Z" transform="translate(-111.204 -146.551)" fill="#263238"/>
      <path id="Trazado_105045" data-name="Trazado 105045" d="M153.634,261s4.6,92.221,24.462,108.1H156.863S137.917,337.745,136.51,261Z" transform="translate(-111.204 -146.551)" fill="#fff" opacity="0.1" style="isolation: isolate"/>
      <path id="Trazado_105046" data-name="Trazado 105046" d="M149.158,323.85h94.108a7.994,7.994,0,0,1,7.994,7.994v7.291H141.1v-7.291a7.994,7.994,0,0,1,8.058-7.994Z" transform="translate(-108.455 -108.914)" fill="#2e9daa"/>
      <rect id="Rectngulo_35107" data-name="Rectngulo 35107" width="118.538" height="7.642" rx="2.01" transform="translate(28.52 222.579)" fill="#263238"/>
      <rect id="Rectngulo_35108" data-name="Rectngulo 35108" width="118.538" height="7.642" rx="2.01" transform="translate(28.52 222.579)" fill="#fff" opacity="0.6" style="isolation: isolate"/>
      <path id="Trazado_105047" data-name="Trazado 105047" d="M142.263,294.16h34.023c9.961,0,17.172-8.953,16.084-20L190.916,259.4c-1.087-11.048-10.057-20-20.018-20H136.859c-9.961,0-17.156,8.954-16.068,20l1.455,14.757C123.333,285.207,132.286,294.16,142.263,294.16Z" transform="translate(-120.682 -159.486)" fill="#2e9daa"/>
      <path id="Trazado_105048" data-name="Trazado 105048" d="M245.527,261.863l9.593,1.119s6.283-2.8,6.4-3.038,8.394,3.038,8.394,3.038l1.6,6s-11.847,1.263-14.086,0l-12.663.56Z" transform="translate(-46.379 -147.19)" fill="#ebb376"/>
      <path id="Trazado_105049" data-name="Trazado 105049" d="M269.751,286.9H232.642c-3.789,0-8.938-9.241-13-18.1-3.709-8.122-6.523-15.892-6.523-15.892l3.981-9.849,3.933-9.737c7.547,5.212,16.82,40.451,16.82,40.451l31.9,4.189S270.646,286.9,269.751,286.9Z" transform="translate(-65.326 -163.127)" fill="#2e9daa"/>
      <path id="Trazado_105050" data-name="Trazado 105050" d="M248.173,261.14l-1.743,10.2h4.749v-10.2Z" transform="translate(-45.379 -146.467)" fill="#2e9daa"/>
      <path id="Trazado_105051" data-name="Trazado 105051" d="M248.173,261.14l-1.743,10.2h4.749v-10.2Z" transform="translate(-45.379 -146.467)" fill="#fff" opacity="0.6" style="isolation: isolate"/>
      <path id="Trazado_105052" data-name="Trazado 105052" d="M219.643,265.151c-3.709-8.122-6.523-15.893-6.523-15.893l3.981-9.849C218.828,243.871,222.521,255.255,219.643,265.151Z" transform="translate(-65.326 -159.48)" opacity="0.2" style="isolation: isolate"/>
      <path id="Trazado_105053" data-name="Trazado 105053" d="M243.16,227.346s-3.741,14.39.911,20.785c0,0-41.826.5-53.593-7.1s1.455-44.768,18.659-50.4S254.9,199.142,243.16,227.346Z" transform="translate(-81.568 -189.418)" fill="#263238"/>
      <path id="Trazado_105054" data-name="Trazado 105054" d="M342.381,449.528l-9.177,1.743s-50.2-120.329-58.2-120.665-89.391,37.077-109.793,16.324,9.1-70.733,9.1-70.733,49.069-7,52.762,4.077a77.721,77.721,0,0,1,2.079,9.945c.56,3.39.943,6.236.943,6.236h0c1.519-.384,50.779-13.095,70.189,0C320.029,309.789,342.381,449.528,342.381,449.528Z" transform="translate(-98.32 -138.757)" fill="#ebb376"/>
      <path id="Trazado_105055" data-name="Trazado 105055" d="M184.56,333.19s3.326.08,54.792-2.318c0,0-9.593,88.4-13.75,136.573l10.744.608s43.281-125.19,42.881-141.578-19.186-21.185-19.186-21.185S223.38,326.475,184.56,333.19Z" transform="translate(-82.429 -120.028)" fill="#ebb376"/>
      <path id="Trazado_105056" data-name="Trazado 105056" d="M184.59,327.8c.528,0,5.756-.08,45.919-1.9l-.783-11.576A226.381,226.381,0,0,1,184.59,327.8Z" transform="translate(-82.411 -114.62)" fill="#263238"/>
      <path id="Trazado_105057" data-name="Trazado 105057" d="M239.364,330.871s-9.593,88.4-13.75,136.557l10.744.608s43.281-125.174,42.881-141.562-19.186-21.185-19.186-21.185a272.762,272.762,0,0,1-30.378,14.39,226.385,226.385,0,0,1-45.135,13.478c.528,0,5.756-.08,45.919-1.9Z" transform="translate(-82.441 -120.028)" opacity="0.3" style="isolation: isolate"/>
      <path id="Trazado_105058" data-name="Trazado 105058" d="M165.213,346.93c12.231,12.455,55.368,9.177,84.995,9.177l17.843-65.888-35.91,3.07s-1.279-3.2-2.574-6.475c-1.071-2.75-2.174-5.564-2.494-6.539-3.693-11.08-52.762-4.077-52.762-4.077S144.812,326.193,165.213,346.93Z" transform="translate(-98.32 -138.757)" fill="#263238"/>
      <path id="Trazado_105059" data-name="Trazado 105059" d="M185.15,297.641,215.9,288.5s-1.279-3.2-2.574-6.475C201.346,286.9,185.15,297.641,185.15,297.641Z" transform="translate(-82.076 -133.963)" opacity="0.3" style="isolation: isolate"/>
      <path id="Trazado_105060" data-name="Trazado 105060" d="M169.393,270.61l-1.183,7.643,52.762,4.061,1.407-9.033Z" transform="translate(-92.22 -140.796)" fill="#263238"/>
      <path id="Trazado_105061" data-name="Trazado 105061" d="M169.393,270.61l-1.183,7.643,52.762,4.061,1.407-9.033Z" transform="translate(-92.22 -140.796)" opacity="0.2" style="isolation: isolate"/>
      <rect id="Rectngulo_35109" data-name="Rectngulo 35109" width="2.622" height="13.35" transform="translate(92.576 129.052) rotate(5.87)" fill="#263238"/>
      <rect id="Rectngulo_35110" data-name="Rectngulo 35110" width="11.576" height="8.778" transform="translate(106.217 131.746) rotate(3.68)" fill="#fff"/>
      <rect id="Rectngulo_35111" data-name="Rectngulo 35111" width="2.622" height="13.35" transform="translate(125.004 130.471) rotate(5.87)" fill="#263238"/>
      <path id="Trazado_105062" data-name="Trazado 105062" d="M304.6,399.263a18.678,18.678,0,0,0-6.715-.592h0s-8.458-3.278-18.994-19.682l-8.6,1.359a7.163,7.163,0,0,0-5.836,5.8,3.967,3.967,0,0,0,0,1.231,50.535,50.535,0,0,0,1.679,6.092c1.823,6.3,8.314,19.41,8.314,19.41l1.407-.608-4.8-12.407c-1.6-4.205,3.677-.752,6.523,3.31s6.811,7.994,15.988,4.221C304.179,402.989,308.384,400.686,304.6,399.263Z" transform="translate(-34.617 -75.893)" fill="#2e353a"/>
      <path id="Trazado_105063" data-name="Trazado 105063" d="M274.807,375.41s5.228,7.291,11.656,15.125,11.4,10.281,11.4,10.281-6.283,4.141-11.192.847-15.6-17.14-22.24-13.366a17.768,17.768,0,0,1,.592-4.077C265.6,382.157,274.807,375.41,274.807,375.41Z" transform="translate(-34.599 -78.037)" fill="#ebb376"/>
      <path id="Trazado_105064" data-name="Trazado 105064" d="M243.418,428.513a18.706,18.706,0,0,0-6.076-2.91h0s-6.763-6.06-10.824-25.118l-8.538-1.759a7.211,7.211,0,0,0-7.515,3.374,4.8,4.8,0,0,0-.48,1.135,51.547,51.547,0,0,0-.576,6.283c-.512,6.555.943,21.1.943,21.1l1.519-.08v-13.27c0-4.509,3.709.592,4.94,5.388s3.581,9.833,13.462,9.593C241.707,431.871,246.456,431.215,243.418,428.513Z" transform="translate(-67.613 -64.149)" fill="#2e353a"/>
      <path id="Trazado_105065" data-name="Trazado 105065" d="M224.372,395.53s2.238,8.746,5.5,18.339,7.035,13.638,7.035,13.638-7.339,1.6-10.776-3.2-8.554-21.536-16.1-20.353a17.593,17.593,0,0,1,1.983-3.6C213.292,398.616,224.372,395.53,224.372,395.53Z" transform="translate(-67.176 -65.988)" fill="#ebb376"/>
      <path id="Trazado_105066" data-name="Trazado 105066" d="M224.372,395.53s2.238,8.746,5.5,18.339,7.035,13.638,7.035,13.638-7.339,1.6-10.776-3.2-8.554-21.536-16.1-20.353a17.593,17.593,0,0,1,1.983-3.6C213.292,398.616,224.372,395.53,224.372,395.53Z" transform="translate(-67.176 -65.988)" opacity="0.3" style="isolation: isolate"/>
      <path id="Trazado_105067" data-name="Trazado 105067" d="M247.575,237.788s-5.084,30.554-10.968,38.932a8.981,8.981,0,0,1-.8.991c-4.557,4.8-10.137,15.125-12.791,20.305l-1.6,3.118-52.618-2.3s1.6-10.217,3.326-20.593c1.2-7.387,2.782-16.116,4.685-24.3.751-3.2,1.6-6.4,2.4-9.289a67.872,67.872,0,0,1,5.532-14.39,11.032,11.032,0,0,1,3.693-4.2s2.238-.208,6.108-.192h.288a128.993,128.993,0,0,1,39.731,6.619,110.884,110.884,0,0,1,13.015,5.308Z" transform="translate(-91.867 -167.594)" fill="#2e9daa"/>
      <path id="Trazado_105068" data-name="Trazado 105068" d="M188.8,226.215s7.642,18.035,21.377,18.035,14.182-10.121,14.182-10.121S210.624,225.112,188.8,226.215Z" transform="translate(-79.89 -167.438)" fill="#2e9daa"/>
      <path id="Trazado_105069" data-name="Trazado 105069" d="M206.86,225.535c-9.145-2.462-13.862.911-19.09,9.177l11.847,4.8,9.769,28.3,10.856-25.07,8.154.272S227.357,231.067,206.86,225.535Z" transform="translate(-80.507 -168.261)" fill="#2e9daa"/>
      <path id="Trazado_105070" data-name="Trazado 105070" d="M206.86,225.535c-9.145-2.462-13.862.911-19.09,9.177l11.847,4.8,9.769,28.3,10.856-25.07,8.154.272S227.357,231.067,206.86,225.535Z" transform="translate(-80.507 -168.261)" fill="#fff" opacity="0.6" style="isolation: isolate"/>
      <path id="Trazado_105071" data-name="Trazado 105071" d="M233.595,271.557a8.977,8.977,0,0,1-.8.991c-4.557,4.8-10.137,15.125-12.791,20.305-12.327-1.6-36.358-5.276-39.507-11.368-2.894-5.564-5.372-22.384-6.667-32.712.751-3.2,1.6-6.4,2.4-9.289l17.859-5s2.942,18.643,3.406,27.452C197.845,269.191,224.353,271.109,233.595,271.557Z" transform="translate(-88.855 -162.432)" opacity="0.2" style="isolation: isolate"/>
      <path id="Trazado_105072" data-name="Trazado 105072" d="M212.627,237.29c.1,3.2,1.919,4,1.919,4,.672,5.964-7.627,20.785-7.627,20.785L194,235.564c7.419-2.958,9.081-11.192,9.385-15.988a24.269,24.269,0,0,0,0-3.805l13.862,8.714a47.835,47.835,0,0,0-3.1,6.076,16.9,16.9,0,0,0-1.519,6.731Z" transform="translate(-76.776 -173.637)" fill="#ebb376"/>
      <path id="Trazado_105073" data-name="Trazado 105073" d="M213.461,223.247a50.26,50.26,0,0,0-2.462,6.4,17.587,17.587,0,0,0-.863,6.859c-7.786.608-10.872-16.58-10.872-16.58v-.1a26.431,26.431,0,0,0-.384-3.805Z" transform="translate(-73.854 -173.487)" opacity="0.2" style="isolation: isolate"/>
      <path id="Trazado_105074" data-name="Trazado 105074" d="M223.351,197.889c13.382,4.093,15.509,12.583,12.279,26.685-4.029,17.587-11.592,28.7-27.18,19.906C187.2,232.552,201.095,191.11,223.351,197.889Z" transform="translate(-74.438 -184.79)" fill="#ebb376"/>
      <path id="Trazado_105075" data-name="Trazado 105075" d="M216.9,212.18a29.054,29.054,0,0,0,2.206,6.731,3.885,3.885,0,0,1-4,.448Z" transform="translate(-64.134 -175.786)" fill="#d58745"/>
      <path id="Trazado_105076" data-name="Trazado 105076" d="M212.353,210.839c-.3,1.1-1.151,1.839-1.9,1.6s-1.071-1.279-.767-2.382,1.151-1.839,1.9-1.6S212.672,209.72,212.353,210.839Z" transform="translate(-67.453 -178.043)" fill="#263238"/>
      <path id="Trazado_105077" data-name="Trazado 105077" d="M210.62,208.522l2.686-.272S211.531,209.945,210.62,208.522Z" transform="translate(-66.823 -178.14)" fill="#263238"/>
      <path id="Trazado_105078" data-name="Trazado 105078" d="M221.047,213.1c-.32,1.1-1.167,1.839-1.9,1.6s-1.087-1.263-.783-2.382,1.167-1.839,1.9-1.6S221.3,212,221.047,213.1Z" transform="translate(-62.253 -176.69)" fill="#263238"/>
      <path id="Trazado_105079" data-name="Trazado 105079" d="M219.28,210.782l2.67-.272S220.191,212.2,219.28,210.782Z" transform="translate(-61.637 -176.786)" fill="#263238"/>
      <path id="Trazado_105080" data-name="Trazado 105080" d="M209.217,205.406a.608.608,0,0,1-.48-.256.592.592,0,0,1,.16-.815,7.818,7.818,0,0,1,6.987-.288.58.58,0,0,1-.48,1.055,6.715,6.715,0,0,0-5.868.208.576.576,0,0,1-.32.1Z" transform="translate(-68.01 -181.068)" fill="#263238"/>
      <path id="Trazado_105081" data-name="Trazado 105081" d="M224.4,209.145a.591.591,0,0,1-.448-.208,5.98,5.98,0,0,0-4.525-2.526.576.576,0,1,1,0-1.151,7.019,7.019,0,0,1,5.484,2.942.592.592,0,0,1,0,.815.639.639,0,0,1-.512.128Z" transform="translate(-61.895 -179.93)" fill="#263238"/>
      <path id="Trazado_105082" data-name="Trazado 105082" d="M202.687,218.324s9.593-9.1,11.192-17.875c0,0,29.85-2.75,22.943,24.59,0,0,9.881-23.135-12.983-30.682s-33.032,26.157-24.207,39.811C199.7,234.169,196.707,224.032,202.687,218.324Z" transform="translate(-75.295 -187.111)" fill="#263238"/>
      <path id="Trazado_105083" data-name="Trazado 105083" d="M215.949,223.051h0a7.419,7.419,0,0,1-7.387-6.3.56.56,0,0,1,.5-.64.592.592,0,0,1,.656.5,6.172,6.172,0,0,0,6.267,5.276.592.592,0,0,1,0,1.167Z" transform="translate(-68.059 -173.435)" fill="#263238"/>
      <path id="Trazado_105084" data-name="Trazado 105084" d="M198.915,207.822a.384.384,0,0,0,.208.448h.1l13.622,3.2a5.932,5.932,0,0,0,3.438,6.4,7.163,7.163,0,0,0,9.161-2.462,4.953,4.953,0,0,0,.4-.9,2.27,2.27,0,0,1,1.775-.5,1.2,1.2,0,0,1,.688.8,5.948,5.948,0,0,0,3.453,6.283,7.163,7.163,0,0,0,9.161-2.478,5.82,5.82,0,0,0-2.75-8.266,7.163,7.163,0,0,0-9.161,2.478,6.382,6.382,0,0,0-.4.9,1.743,1.743,0,0,0-.687-.432,2.478,2.478,0,0,0-1.791.176,5.932,5.932,0,0,0-3.438-6.4,7.131,7.131,0,0,0-9.145,2.478,5.228,5.228,0,0,0-.544,1.183l-13.574-3.2a.432.432,0,0,0-.512.288Zm30.842,5.292a6.251,6.251,0,0,1,7.994-2.174,5.1,5.1,0,0,1,2.414,7.227,6.22,6.22,0,0,1-7.994,2.158,5.068,5.068,0,0,1-2.414-7.211Zm-15.477-3.2a6.235,6.235,0,0,1,7.994-2.158,5.084,5.084,0,0,1,2.4,7.211,6.251,6.251,0,0,1-7.994,2.174,5.1,5.1,0,0,1-2.4-7.243Z" transform="translate(-73.841 -179.295)" fill="#263238"/>
      <g id="Grupo_88882" data-name="Grupo 88882" transform="translate(125.061 27.027)" opacity="0.3" style="isolation: isolate">
        <path id="Trazado_105085" data-name="Trazado 105085" d="M198.915,207.822a.384.384,0,0,0,.208.448h.1l13.622,3.2a5.932,5.932,0,0,0,3.438,6.4,7.163,7.163,0,0,0,9.161-2.462,4.953,4.953,0,0,0,.4-.9,2.27,2.27,0,0,1,1.775-.5,1.2,1.2,0,0,1,.688.8,5.948,5.948,0,0,0,3.453,6.283,7.163,7.163,0,0,0,9.161-2.478,5.82,5.82,0,0,0-2.75-8.266,7.163,7.163,0,0,0-9.161,2.478,6.382,6.382,0,0,0-.4.9,1.743,1.743,0,0,0-.687-.432,2.478,2.478,0,0,0-1.791.176,5.932,5.932,0,0,0-3.438-6.4,7.131,7.131,0,0,0-9.145,2.478,5.228,5.228,0,0,0-.544,1.183l-13.574-3.2a.432.432,0,0,0-.512.288Zm30.842,5.292a6.251,6.251,0,0,1,7.994-2.174,5.1,5.1,0,0,1,2.414,7.227,6.22,6.22,0,0,1-7.994,2.158,5.068,5.068,0,0,1-2.414-7.211Zm-15.477-3.2a6.235,6.235,0,0,1,7.994-2.158,5.084,5.084,0,0,1,2.4,7.211,6.251,6.251,0,0,1-7.994,2.174,5.1,5.1,0,0,1-2.4-7.243Z" transform="translate(-198.902 -206.322)" fill="#fff"/>
      </g>
      <path id="Trazado_105086" data-name="Trazado 105086" d="M204.775,213.888a6.139,6.139,0,0,0-4.685-7.307c-4.285-.815-8.858,7.115.831,12.311C202.313,219.628,203.592,218.477,204.775,213.888Z" transform="translate(-76.072 -179.174)" fill="#ebb376"/>
      <path id="Trazado_105087" data-name="Trazado 105087" d="M213.18,267.246a177.813,177.813,0,0,1,22.64-3.294c9.177-.416,19.458-.608,16.916,4.365l-37.317.352Z" transform="translate(-65.29 -144.898)" fill="#2e9daa"/>
      <path id="Trazado_105088" data-name="Trazado 105088" d="M213.18,267.246a177.813,177.813,0,0,1,22.64-3.294c9.177-.416,19.458-.608,16.916,4.365l-37.317.352Z" transform="translate(-65.29 -144.898)" fill="#fff" opacity="0.7" style="isolation: isolate"/>
      <rect id="Rectngulo_35112" data-name="Rectngulo 35112" width="43.169" height="1.455" transform="translate(146.179 122.364)" fill="#263238"/>
      <rect id="Rectngulo_35113" data-name="Rectngulo 35113" width="1.903" height="21.472" transform="translate(146.563 97.897) rotate(-24.58)" fill="#263238"/>
      <path id="Trazado_105089" data-name="Trazado 105089" d="M202.08,262.207l12.343,2.942a13.958,13.958,0,0,1,5.1-4.173,123.629,123.629,0,0,1,13.542-2.766l2.59,12.375s-17.331,1.759-18.706,1.407l-14.869-1.423Z" transform="translate(-71.937 -148.222)" fill="#ebb376"/>
      <path id="Trazado_105090" data-name="Trazado 105090" d="M183.995,225.94c-8.6,2.462-9.225,47.582-5.852,53.5s43.984,11.879,43.984,11.879l2.606-9.1s-33.7-11.688-34.247-12.615,2.206-26.749,2.206-31.865S183.995,225.94,183.995,225.94Z" transform="translate(-87.412 -167.546)" fill="#2e9daa"/>
      <path id="Trazado_105091" data-name="Trazado 105091" d="M206.2,259.94l-1.823,12.615,3.5-.5,2.318-11.3Z" transform="translate(-70.56 -147.186)" fill="#2e9daa"/>
      <path id="Trazado_105092" data-name="Trazado 105092" d="M206.2,259.94l-1.823,12.615,3.5-.5,2.318-11.3Z" transform="translate(-70.56 -147.186)" fill="#fff" opacity="0.6" style="isolation: isolate"/>
    </g>
    <g id="freepik--Table--inject-16" transform="translate(250.993 307.057)">
      <path id="Trazado_105093" data-name="Trazado 105093" d="M251.582,507.113h-9.145L240.95,273.57h12.135Z" transform="translate(-140.303 -208.93)" fill="#263238"/>
      <path id="Trazado_105094" data-name="Trazado 105094" d="M253.085,273.8l-.24,36.9L251.6,506.976h-9.145L241.19,310.7l-.24-36.9Z" transform="translate(-140.303 -208.792)" fill="#fff" opacity="0.4" style="isolation: isolate"/>
      <path id="Trazado_105095" data-name="Trazado 105095" d="M253.085,273.8l-.24,37.317H241.19l-.24-37.317Z" transform="translate(-140.303 -208.792)" opacity="0.2" style="isolation: isolate"/>
      <path id="Trazado_105096" data-name="Trazado 105096" d="M317.911,507.113h-9.145L292.33,273.57h12.135Z" transform="translate(-109.534 -208.93)" fill="#263238"/>
      <path id="Trazado_105097" data-name="Trazado 105097" d="M317.911,506.976h-9.145L293.129,284.8l-.8-11h12.135l.655,11Z" transform="translate(-109.534 -208.792)" fill="#fff" opacity="0.5" style="isolation: isolate"/>
      <path id="Trazado_105098" data-name="Trazado 105098" d="M305.121,284.24H293.129l-.8-10.44h12.135Z" transform="translate(-109.534 -208.792)" opacity="0.2" style="isolation: isolate"/>
      <path id="Trazado_105099" data-name="Trazado 105099" d="M190.305,507.113H181.16L194.606,273.57h12.135Z" transform="translate(-176.108 -208.93)" fill="#263238"/>
      <path id="Trazado_105100" data-name="Trazado 105100" d="M206.741,273.8l-.815,11L190.305,506.976H181.16L193.935,284.8l.656-11Z" transform="translate(-176.108 -208.792)" fill="#fff" opacity="0.5" style="isolation: isolate"/>
      <path id="Trazado_105101" data-name="Trazado 105101" d="M189.806,273.8h12.151l-.815,10.44H189.15Z" transform="translate(-171.323 -208.792)" opacity="0.2" style="isolation: isolate"/>
      <path id="Trazado_105102" data-name="Trazado 105102" d="M183.55,270H379.217v7.994a3.454,3.454,0,0,1-3.454,3.454H187.02a3.453,3.453,0,0,1-3.454-3.454V270Z" transform="translate(-174.676 -211.068)" fill="#263238"/>
      <path id="Trazado_105103" data-name="Trazado 105103" d="M183.55,270H379.217v7.994a3.454,3.454,0,0,1-3.454,3.454H187.02a3.453,3.453,0,0,1-3.454-3.454V270Z" transform="translate(-174.676 -211.068)" fill="#fff" opacity="0.6" style="isolation: isolate"/>
      <rect id="Rectngulo_35114" data-name="Rectngulo 35114" width="195.667" height="5.724" transform="translate(8.874 58.916)" opacity="0.2" style="isolation: isolate"/>
      <path id="Trazado_105104" data-name="Trazado 105104" d="M388.216,273.315H181.2a3.2,3.2,0,0,1-3.2-3.2h0a3.2,3.2,0,0,1,3.2-3.2H388.216a3.2,3.2,0,0,1,3.2,3.2h0A3.2,3.2,0,0,1,388.216,273.315Z" transform="translate(-178 -212.912)" fill="#263238"/>
      <path id="Trazado_105105" data-name="Trazado 105105" d="M388.216,273.315H181.2a3.2,3.2,0,0,1-3.2-3.2h0a3.2,3.2,0,0,1,3.2-3.2H388.216a3.2,3.2,0,0,1,3.2,3.2h0A3.2,3.2,0,0,1,388.216,273.315Z" transform="translate(-178 -212.912)" fill="#fff" opacity="0.6" style="isolation: isolate"/>
      <path id="Trazado_105106" data-name="Trazado 105106" d="M326.112,263.28v3.757c0,1.119-1.935,1.919-3.038,1.919H235.586c-1.135,0-2.926-.8-2.926-1.919V263.28Z" transform="translate(-145.267 -215.092)" fill="#263238"/>
      <path id="Trazado_105107" data-name="Trazado 105107" d="M326.112,263.28v3.757c0,1.119-1.935,1.919-3.038,1.919H235.586c-1.135,0-2.926-.8-2.926-1.919V263.28Z" transform="translate(-145.267 -215.092)" fill="#fff" opacity="0.6" style="isolation: isolate"/>
      <path id="Trazado_105108" data-name="Trazado 105108" d="M314.974,263.28v3.757c0,1.119-1.935,1.919-3.038,1.919h-57.7c-1.135,0-2.974-.8-2.974-1.919V263.28Z" transform="translate(-134.129 -215.092)" opacity="0.2" style="isolation: isolate"/>
      <path id="Trazado_105109" data-name="Trazado 105109" d="M327.2,235.33l-10.408,47.406a3.693,3.693,0,0,1-3.374,2.846h-56.9a2.462,2.462,0,0,1-2.142-3.2l10.409-46.894a3.2,3.2,0,0,1,3.39-2.334h56.887C326.593,233.188,327.552,233.8,327.2,235.33Z" transform="translate(-132.333 -233.141)" fill="#263238"/>
      <path id="Trazado_105110" data-name="Trazado 105110" d="M327.2,235.33l-10.408,47.406a3.693,3.693,0,0,1-3.374,2.846h-56.9a2.462,2.462,0,0,1-2.142-3.2l10.409-46.894a3.2,3.2,0,0,1,3.39-2.334h56.887C326.593,233.188,327.552,233.8,327.2,235.33Z" transform="translate(-132.333 -233.141)" fill="#fff" opacity="0.6" style="isolation: isolate"/>
      <path id="Trazado_105111" data-name="Trazado 105111" d="M326.476,235.33l-10.408,47.406a3.693,3.693,0,0,1-3.374,2.846H257.726a2.462,2.462,0,0,1-2.142-3.2l10.408-46.894a3.2,3.2,0,0,1,3.39-2.334h54.952C325.868,233.188,326.828,233.8,326.476,235.33Z" transform="translate(-131.609 -233.141)" fill="#fff" opacity="0.4" style="isolation: isolate"/>
      <path id="Trazado_105112" data-name="Trazado 105112" d="M280.394,258.311c2.654,0,5.372-2.846,6.06-6.4s-.9-6.4-3.565-6.4a3.949,3.949,0,0,0-1.471.288,8.122,8.122,0,0,1-4.525,5.788v.288C276.061,255.465,277.66,258.311,280.394,258.311Z" transform="translate(-118.911 -225.727)" opacity="0.2" style="isolation: isolate"/>
    </g>
  </g>
</svg>
