<svg xmlns="http://www.w3.org/2000/svg" width="482" height="482" viewBox="0 0 482 482">
  <g id="Grupo_90432" data-name="Grupo 90432" transform="translate(-264.999 -524.172)">
    <g id="Grupo_88415" data-name="Grupo 88415" transform="translate(0 -892)">
      <rect id="Rectángulo_33014" data-name="Rectángulo 33014" width="340.825" height="340.825" rx="65.683" transform="translate(264.999 1657.172) rotate(-45)" fill="#3b4454"/>
    </g>
    <g id="Accountant-pana" transform="translate(296.686 564.556)">
      <g id="freepik--background-complete--inject-2" transform="translate(50.652 29.705)">
        <path id="Trazado_104381" data-name="Trazado 104381" d="M121.175,409.38l-1.317,1.409L80.48,457.723l87.31.05,24.016-48.141Z" transform="translate(-57.671 -91.002)" fill="#ebebeb"/>
        <path id="Trazado_104382" data-name="Trazado 104382" d="M100.191,411.99l-1.317,1.459L55.01,461.976l85.08.059,30.733-49.785Z" transform="translate(-53.559 -91.423)" fill="#fafafa"/>
        <path id="Trazado_104383" data-name="Trazado 104383" d="M100.109,412h19.379l51.244.109h.335l-.176.285-30.7,49.751-.067.1H128.343l-73.424-.084H54.5l.277-.31,32.846-36.217,9.224-10.063,2.432-2.65c.553-.6.839-.9.839-.9l-.839.939q-.839.914-2.39,2.683l-9.1,10.138L55.087,462.1l-.134-.31h85.08l-.184.1c11.2-18.121,21.685-35.094,30.75-49.768l.168.294-51.152-.277-14.381-.075-3.79-.042h-.973Z" transform="translate(-53.477 -91.425)" fill="#e0e0e0"/>
        <path id="Trazado_104384" data-name="Trazado 104384" d="M136.222,460.88a3.172,3.172,0,0,1-.6,0h-8l-20.855-.126L85.9,460.5l-6.339-.1-1.677-.05a2.872,2.872,0,0,1-.6-.05,2.623,2.623,0,0,1,.6-.042h7.991l20.863.126,20.855.252,6.323.126,1.677.059A2.865,2.865,0,0,1,136.222,460.88Z" transform="translate(-57.155 -99.216)" fill="#e0e0e0"/>
        <path id="Trazado_104385" data-name="Trazado 104385" d="M139.5,454.621a3.193,3.193,0,0,1-.587.042h-7.841l-20.352-.117-20.343-.218-6.163-.126-1.677-.059a4.584,4.584,0,0,1-.587-.042,2.454,2.454,0,0,1,.587-.042h1.677L90.377,454l20.352.126,20.352.243,6.172.126,1.677.059a2.643,2.643,0,0,1,.57.067Z" transform="translate(-57.909 -98.206)" fill="#e0e0e0"/>
        <path id="Trazado_104386" data-name="Trazado 104386" d="M144.225,448.375a3.14,3.14,0,0,1-.579,0h-7.731l-19.983-.117-19.974-.243-6.021-.042-1.677-.05a3.491,3.491,0,0,1-.57-.05,2.373,2.373,0,0,1,.57-.042h7.731l19.983.117,19.974.252,6.054.117,1.677.059A2.639,2.639,0,0,1,144.225,448.375Z" transform="translate(-58.835 -97.209)" fill="#e0e0e0"/>
        <path id="Trazado_104387" data-name="Trazado 104387" d="M149.691,442.57a3.665,3.665,0,0,1-.562,0h-7.547l-19.563-.109-19.58-.168-5.929-.126-1.618-.059a4.2,4.2,0,0,1-.562-.042,2.252,2.252,0,0,1,.562-.067h7.547l19.572.117,19.572.235,5.929.126,1.61.059A2.465,2.465,0,0,1,149.691,442.57Z" transform="translate(-59.907 -96.268)" fill="#e0e0e0"/>
        <path id="Trazado_104388" data-name="Trazado 104388" d="M153.563,436.475a2.26,2.26,0,0,1-.562.042h-7.547l-19.572-.117-19.572-.235-5.929-.126-1.61-.05a2.463,2.463,0,0,1-.562-.05,3.658,3.658,0,0,1,.562,0h7.547l19.572.109,19.563.243,5.937.126,1.61.05Z" transform="translate(-60.534 -95.288)" fill="#e0e0e0"/>
        <path id="Trazado_104389" data-name="Trazado 104389" d="M159.273,430.41a3.662,3.662,0,0,1-.562,0h-7.547l-19.572-.109-19.563-.243-5.937-.126-1.61-.059a4.19,4.19,0,0,1-.562-.042,2.257,2.257,0,0,1,.562-.042h7.547l19.572.109,19.563.243,5.937.126,1.61.059A2.466,2.466,0,0,1,159.273,430.41Z" transform="translate(-61.456 -94.296)" fill="#e0e0e0"/>
        <path id="Trazado_104390" data-name="Trazado 104390" d="M163.465,424.458a2.653,2.653,0,0,1-.562,0h-7.547l-19.563-.2-19.572-.31-5.929-.151-1.61-.059a2.7,2.7,0,0,1-.562-.059,3.654,3.654,0,0,1,.562,0h7.539l19.572.2,19.572.335,5.929.143,1.61.067a2.463,2.463,0,0,1,.562.034Z" transform="translate(-62.134 -93.309)" fill="#e0e0e0"/>
        <path id="Trazado_104391" data-name="Trazado 104391" d="M169.913,418.838a2.255,2.255,0,0,1-.562,0H161.8l-19.572-.2-19.563-.335-5.929-.151-1.618-.059a2.461,2.461,0,0,1-.562-.05,2.937,2.937,0,0,1,.562-.042h7.547l19.572.2,19.563.335,5.937.151,1.61.059a3.29,3.29,0,0,1,.562.092Z" transform="translate(-63.173 -92.393)" fill="#e0e0e0"/>
        <path id="Trazado_104392" data-name="Trazado 104392" d="M79.87,229.529c0-5.87,3.564-9.669,8.6-9.669s8.553,3.706,8.553,9.669-3.514,9.669-8.553,9.669S79.87,235.44,79.87,229.529Zm12.209,0c0-3.757-1.434-5.56-3.606-5.56s-3.606,1.853-3.606,5.56,1.476,5.56,3.606,5.56S92.079,233.285,92.079,229.529Zm17.006-9.274h5.87L91.341,255.331h-5.87Zm-5.685,25.8c0-5.87,3.564-9.669,8.553-9.669s8.6,3.757,8.6,9.669-3.564,9.677-8.6,9.677S103.4,251.968,103.4,246.056Zm12.159,0c0-3.706-1.434-5.56-3.606-5.56s-3.606,1.8-3.606,5.56,1.484,5.568,3.606,5.568S115.559,249.771,115.559,246.056Z" transform="translate(-57.573 -60.405)" fill="#ebebeb"/>
        <path id="Trazado_104393" data-name="Trazado 104393" d="M400.913,62.329a38.439,38.439,0,1,1-43.722-32.184,38.439,38.439,0,0,1,43.722,32.184Z" transform="translate(-97.063 -29.705)" fill="#f5f5f5"/>
        <path id="Trazado_104394" data-name="Trazado 104394" d="M393.633,65.455a29.3,29.3,0,1,1-33.324-24.519A29.3,29.3,0,0,1,393.633,65.455Z" transform="translate(-98.823 -31.464)" fill="#ebebeb"/>
        <path id="Trazado_104395" data-name="Trazado 104395" d="M393.39,64.333c-.168,0-.486-1.224-1.291-3.354a30.826,30.826,0,0,0-4.679-8.386,29.951,29.951,0,0,0-4.654-4.688,29.349,29.349,0,0,0-6.423-3.924,27.947,27.947,0,0,0-3.824-1.392,26.776,26.776,0,0,0-4.151-.839,29.215,29.215,0,0,0-4.386-.235,30.482,30.482,0,0,0-4.495.461,32.125,32.125,0,0,0-4.369,1.157,28.418,28.418,0,0,0-3.983,1.778,26.837,26.837,0,0,0-3.589,2.256,26.392,26.392,0,0,0-3.086,2.65,29.08,29.08,0,0,0-4.612,5.945,29.591,29.591,0,0,0-2.667,6.021,30.933,30.933,0,0,0-1.375,9.484c0,2.3.159,3.581,0,3.606s-.57-1.208-.839-3.555a27.043,27.043,0,0,1,.755-9.97,29.422,29.422,0,0,1,2.566-6.49,29.819,29.819,0,0,1,4.763-6.482,28.84,28.84,0,0,1,3.262-2.918,29.5,29.5,0,0,1,8.151-4.436,32.194,32.194,0,0,1,4.713-1.266,32.965,32.965,0,0,1,4.847-.486,30.305,30.305,0,0,1,4.729.285,29.25,29.25,0,0,1,4.461.99A28.578,28.578,0,0,1,377.3,42.1a29.349,29.349,0,0,1,11.4,9.518,27.1,27.1,0,0,1,4.243,9.056C393.5,63,393.525,64.308,393.39,64.333Z" transform="translate(-98.731 -31.248)" fill="#e0e0e0"/>
        <path id="Trazado_104396" data-name="Trazado 104396" d="M373.669,88.293l.839,5.031-4.495.746-.839-4.9c-4.495.461-8.989-.218-11.782-1.744l1.56-5.87a18.448,18.448,0,0,0,9.224,1.753l-1.241-7.505c-5.191-.394-11.035-1.132-12.1-7.547-.788-4.771,2-9.434,8.964-11.413l-.839-5.031,4.495-.746.839,4.9A20.628,20.628,0,0,1,377.87,57.2l-1.333,5.87a18.7,18.7,0,0,0-7.237-1.157l1.266,7.639c5.182.344,10.9,1.1,11.991,7.438C383.329,81.66,380.579,86.273,373.669,88.293Zm-7.815-19.119-1.065-6.381c-2.289.931-3.019,2.39-2.767,3.874S363.8,68.873,365.854,69.174Zm9.518,9.551c-.26-1.576-1.677-2.214-3.748-2.566l1.031,6.2c2.2-.864,2.994-2.2,2.75-3.631Z" transform="translate(-101.944 -33.154)" fill="#e0e0e0"/>
        <path id="Trazado_104397" data-name="Trazado 104397" d="M455.5,328.2a30.783,30.783,0,1,1-18.448-39.37A30.783,30.783,0,0,1,455.5,328.2Z" transform="translate(-108.569 -71.24)" fill="#f5f5f5"/>
        <path id="Trazado_104398" data-name="Trazado 104398" d="M450.046,327.11a23.48,23.48,0,1,1-14.054-30,23.48,23.48,0,0,1,14.054,30Z" transform="translate(-109.978 -72.647)" fill="#ebebeb"/>
        <path id="Trazado_104399" data-name="Trazado 104399" d="M450.521,326.257a14.091,14.091,0,0,1,.386-2.859,24.906,24.906,0,0,0-.092-7.681,24.217,24.217,0,0,0-1.459-5.031,23.373,23.373,0,0,0-3.019-5.216,22.55,22.55,0,0,0-4.746-4.637A22.857,22.857,0,0,0,438.6,299a23.945,23.945,0,0,0-3.354-1.4,24.454,24.454,0,0,0-3.522-.839,22.638,22.638,0,0,0-3.505-.294,21.5,21.5,0,0,0-3.354.235,20.354,20.354,0,0,0-3.178.688,23.327,23.327,0,0,0-5.526,2.415,23.816,23.816,0,0,0-4.193,3.212,24.778,24.778,0,0,0-4.62,6.138c-.839,1.618-1.258,2.574-1.392,2.516s.059-1.065.755-2.826a21.8,21.8,0,0,1,4.352-6.708,23.96,23.96,0,0,1,4.293-3.589,24.32,24.32,0,0,1,5.828-2.734,22.133,22.133,0,0,1,3.4-.8,22.7,22.7,0,0,1,3.648-.294,23.115,23.115,0,0,1,3.748.235,24.251,24.251,0,0,1,7.4,2.423,24.5,24.5,0,0,1,3.22,2.013,23.975,23.975,0,0,1,5.031,5.031,23.479,23.479,0,0,1,4.478,11.111,21.735,21.735,0,0,1-.478,8A7.205,7.205,0,0,1,450.521,326.257Z" transform="translate(-110.211 -72.49)" fill="#e0e0e0"/>
        <path id="Trazado_104400" data-name="Trazado 104400" d="M427.671,334.645l-1.342,3.857-3.446-1.2,1.308-3.757a17.2,17.2,0,0,1-7.631-5.736l3.354-3.547a14.792,14.792,0,0,0,5.87,4.771l2-5.752c-3.505-2.264-7.337-5.031-5.627-9.945,1.266-3.656,5.031-5.87,10.675-4.6l1.325-3.824,3.446,1.2-1.308,3.757a16.461,16.461,0,0,1,6.272,4.528l-3.195,3.639a15,15,0,0,0-4.654-3.623l-2.029,5.87c3.514,2.222,7.27,4.956,5.585,9.819C437,333.672,433.306,335.869,427.671,334.645Zm1.836-16.427,1.677-4.9c-1.971-.218-3.044.528-3.438,1.677S428.157,317.2,429.507,318.218Zm3.052,10.356c.411-1.208-.361-2.205-1.677-3.237l-1.677,4.755C431.1,330.31,432.174,329.681,432.56,328.574Z" transform="translate(-111.93 -74.136)" fill="#e0e0e0"/>
        <rect id="Rectángulo_34956" data-name="Rectángulo 34956" width="190.62" height="124.215" transform="translate(9.425 19.811)" fill="#f5f5f5"/>
        <rect id="Rectángulo_34957" data-name="Rectángulo 34957" width="190.62" height="123.947" transform="translate(0 13.094)" fill="#ebebeb"/>
      </g>
      <g id="freepik--Desk--inject-2" transform="translate(37 339.547)">
        <path id="Trazado_104401" data-name="Trazado 104401" d="M393.788,399.426c0,.117-79.881.218-178.4.218S37,399.544,37,399.426s79.864-.226,178.419-.226S393.788,399.3,393.788,399.426Z" transform="translate(-37 -399.2)" fill="#263238"/>
      </g>
      <g id="freepik--Sheet--inject-2" transform="translate(216.56 342.096)">
        <path id="Trazado_104402" data-name="Trazado 104402" d="M415.88,453.935l-74.807,2.423-58-53.818h72.686Z" transform="translate(-256.287 -402.288)" fill="#f5f5f5"/>
        <path id="Trazado_104403" data-name="Trazado 104403" d="M383.949,463.495l-74.807,2.423L251.13,412.1h72.686Z" transform="translate(-251.13 -403.832)" fill="#f5f5f5"/>
        <path id="Trazado_104404" data-name="Trazado 104404" d="M398.959,457.133l-74.807,2.423L266.14,405.73h72.694Z" transform="translate(-253.553 -402.803)" fill="#e0e0e0"/>
        <path id="Trazado_104405" data-name="Trazado 104405" d="M327.786,402.54H255.1l58,53.818,77.2-2.5Z" transform="translate(-251.771 -402.288)" fill="#f5f5f5"/>
        <path id="Trazado_104406" data-name="Trazado 104406" d="M327.7,402.492l.293.218.839.7,3.354,2.734,12.763,10.4L390.3,453.66l.394.319h-.512l-74.036,2.432-3.161.1h-.092l-.067-.059-57.894-53.827-.344-.327h.47l52.779.084,14.717.05h-.034l-14.733.05-52.728.084.126-.327,58.028,53.8-.159-.059,3.161-.1,74.044-2.373-.117.335-45.206-37.207c-5.459-4.52-9.761-8.067-12.7-10.5l-3.354-2.784-.839-.721Z" transform="translate(-251.689 -402.24)" fill="#263238"/>
        <path id="Trazado_104407" data-name="Trazado 104407" d="M362.886,439.545c0,.126-11.589.587-25.895,1.031s-25.9.713-25.911.6,11.589-.587,25.895-1.031S362.886,439.427,362.886,439.545Z" transform="translate(-260.809 -408.258)" fill="#263238"/>
        <path id="Trazado_104408" data-name="Trazado 104408" d="M370.1,445c0,.117-11.74.579-26.305,1.023s-26.314.713-26.322.587,11.74-.579,26.314-1.023S370.1,444.9,370.1,445Z" transform="translate(-261.84 -409.14)" fill="#263238"/>
        <path id="Trazado_104409" data-name="Trazado 104409" d="M377.8,450.515c0,.117-11.857.6-26.49,1.073s-26.5.763-26.507.637,11.857-.6,26.49-1.073S377.8,450.4,377.8,450.515Z" transform="translate(-263.024 -410.029)" fill="#263238"/>
        <path id="Trazado_104410" data-name="Trazado 104410" d="M358.335,434.585c0,.126-11.933.6-26.649,1.065s-26.666.755-26.666.629,11.924-.6,26.649-1.065S358.327,434.467,358.335,434.585Z" transform="translate(-259.83 -407.458)" fill="#263238"/>
        <path id="Trazado_104411" data-name="Trazado 104411" d="M329.676,414.061c0,.117-11.069.428-24.729.7s-24.729.377-24.737.252,11.069-.428,24.729-.688S329.676,413.944,329.676,414.061Z" transform="translate(-255.825 -404.141)" fill="#263238"/>
        <path id="Trazado_104412" data-name="Trazado 104412" d="M336.754,419.541c0,.117-11.4.436-25.484.7s-25.492.394-25.5.268,11.413-.436,25.492-.7S336.754,419.415,336.754,419.541Z" transform="translate(-256.722 -405.025)" fill="#263238"/>
        <path id="Trazado_104413" data-name="Trazado 104413" d="M343.641,424.993c0,.126-11.966.453-26.742.738s-26.75.411-26.75.294,11.966-.453,26.741-.73S343.641,424.893,343.641,424.993Z" transform="translate(-257.43 -405.908)" fill="#263238"/>
        <path id="Trazado_104414" data-name="Trazado 104414" d="M351.02,430.492c0,.117-11.975.444-26.742.73s-26.758.419-26.758.293,11.975-.444,26.75-.73S351.011,430.374,351.02,430.492Z" transform="translate(-258.619 -406.794)" fill="#263238"/>
        <path id="Trazado_104415" data-name="Trazado 104415" d="M325.116,409.1a2.179,2.179,0,0,1-.52.05l-1.484.067-5.467.143-18.037.327-18.046.159H274.61a2.251,2.251,0,0,1-.52,0,2.094,2.094,0,0,1,.52-.05l1.484-.067,5.467-.143,18.037-.327,18.029-.2h6.96A2.331,2.331,0,0,1,325.116,409.1Z" transform="translate(-254.837 -403.341)" fill="#263238"/>
      </g>
      <g id="freepik--calculator-2--inject-2" transform="translate(244.442 340.888)">
        <path id="Trazado_104416" data-name="Trazado 104416" d="M303.457,420.883,284.38,403.416l66.045-2.616,19.4,10.742Z" transform="translate(-284.38 -400.8)" fill="#455a64"/>
        <path id="Trazado_104417" data-name="Trazado 104417" d="M293.516,406.451l3.715,3.178-.017-2.264-3.924-2.935Z" transform="translate(-285.818 -401.386)" fill="#263238"/>
        <path id="Trazado_104418" data-name="Trazado 104418" d="M297.173,407.464l5.35-.184-4.3-3.119-4.931.226Z" transform="translate(-285.818 -401.342)" fill="#2e9daa"/>
        <path id="Trazado_104419" data-name="Trazado 104419" d="M297.92,408.064l.059,2.122,5.216-.335.075-1.971Z" transform="translate(-286.566 -401.943)" fill="#263238"/>
        <path id="Trazado_104420" data-name="Trazado 104420" d="M302.522,407.233a30.327,30.327,0,0,1-4.31-2.767l-.252-.185.134.042a27.265,27.265,0,0,1-4.8,0,27.916,27.916,0,0,1,4.788-.453h.075l.059.042.26.176A31.621,31.621,0,0,1,302.522,407.233Z" transform="translate(-285.818 -401.296)" fill="#263238"/>
        <path id="Trazado_104421" data-name="Trazado 104421" d="M297.953,410.225c-.117,0-.226-.47-.243-1.048s.075-1.057.193-1.057.226.47.243,1.048S298.045,410.216,297.953,410.225Z" transform="translate(-286.532 -401.982)" fill="#455a64"/>
        <path id="Trazado_104422" data-name="Trazado 104422" d="M304.195,406.251l3.706,3.178-.017-2.264-3.924-2.935Z" transform="translate(-287.541 -401.354)" fill="#263238"/>
        <path id="Trazado_104423" data-name="Trazado 104423" d="M307.851,407.264l5.342-.184-4.3-3.119-4.931.226Z" transform="translate(-287.541 -401.31)" fill="#e0e0e0"/>
        <path id="Trazado_104424" data-name="Trazado 104424" d="M308.6,407.864l.05,2.122,5.224-.344.067-1.962Z" transform="translate(-288.29 -401.911)" fill="#263238"/>
        <path id="Trazado_104425" data-name="Trazado 104425" d="M313.222,407.025a30.018,30.018,0,0,1-4.3-2.767l-.26-.185h.143a27.339,27.339,0,0,1-4.813,0,27.913,27.913,0,0,1,4.788-.453h.075l.059.042.26.176a30.078,30.078,0,0,1,4.05,3.186Z" transform="translate(-287.546 -401.255)" fill="#263238"/>
        <path id="Trazado_104426" data-name="Trazado 104426" d="M308.591,410.025c-.126,0-.235-.47-.252-1.048s.075-1.057.193-1.057.235.461.243,1.048S308.709,410.016,308.591,410.025Z" transform="translate(-288.248 -401.949)" fill="#455a64"/>
        <path id="Trazado_104427" data-name="Trazado 104427" d="M314.406,406.111l3.715,3.178-.017-2.264-3.924-2.935Z" transform="translate(-289.191 -401.331)" fill="#263238"/>
        <path id="Trazado_104428" data-name="Trazado 104428" d="M318.063,407.124l5.35-.176-4.3-3.128-4.931.226Z" transform="translate(-289.191 -401.288)" fill="#455a64"/>
        <path id="Trazado_104429" data-name="Trazado 104429" d="M318.81,407.726l.059,2.122,5.224-.335.067-1.962Z" transform="translate(-289.939 -401.89)" fill="#263238"/>
        <path id="Trazado_104430" data-name="Trazado 104430" d="M323.412,406.9a30.562,30.562,0,0,1-4.3-2.776l-.26-.176.143.042a27.793,27.793,0,0,1-4.813,0,27.467,27.467,0,0,1,4.788-.444h.092l.059.042.26.184A29.945,29.945,0,0,1,323.412,406.9Z" transform="translate(-289.191 -401.244)" fill="#263238"/>
        <path id="Trazado_104431" data-name="Trazado 104431" d="M318.811,409.885c-.126,0-.235-.461-.252-1.04s.075-1.057.193-1.065.235.47.243,1.048S318.929,409.885,318.811,409.885Z" transform="translate(-289.898 -401.927)" fill="#455a64"/>
        <path id="Trazado_104432" data-name="Trazado 104432" d="M325.055,405.811l3.706,3.178-.017-2.264-3.924-2.935Z" transform="translate(-290.909 -401.283)" fill="#263238"/>
        <path id="Trazado_104433" data-name="Trazado 104433" d="M328.7,406.824l5.35-.185-4.3-3.119-4.931.226Z" transform="translate(-290.909 -401.239)" fill="#455a64"/>
        <path id="Trazado_104434" data-name="Trazado 104434" d="M329.45,407.424l.059,2.122,5.224-.344.067-1.962Z" transform="translate(-291.656 -401.84)" fill="#263238"/>
        <path id="Trazado_104435" data-name="Trazado 104435" d="M334.052,406.585a30.012,30.012,0,0,1-4.3-2.767l-.26-.185h.143a27.345,27.345,0,0,1-4.813,0,27.913,27.913,0,0,1,4.788-.453h.075l.059.042.26.176a30.076,30.076,0,0,1,4.05,3.187Z" transform="translate(-290.909 -401.184)" fill="#263238"/>
        <path id="Trazado_104436" data-name="Trazado 104436" d="M329.451,409.595c-.126,0-.235-.47-.252-1.048s.075-1.057.193-1.057.235.461.243,1.048S329.569,409.595,329.451,409.595Z" transform="translate(-291.616 -401.88)" fill="#455a64"/>
        <path id="Trazado_104437" data-name="Trazado 104437" d="M335.845,405.541l3.706,3.178-.017-2.264-3.924-2.935Z" transform="translate(-292.651 -401.239)" fill="#263238"/>
        <path id="Trazado_104438" data-name="Trazado 104438" d="M339.5,406.554l5.35-.176-4.31-3.128-4.931.226Z" transform="translate(-292.651 -401.195)" fill="#455a64"/>
        <path id="Trazado_104439" data-name="Trazado 104439" d="M340.25,407.156l.05,2.122,5.224-.335.075-1.962Z" transform="translate(-293.4 -401.798)" fill="#263238"/>
        <path id="Trazado_104440" data-name="Trazado 104440" d="M344.842,406.348a30.015,30.015,0,0,1-4.3-2.767l-.252-.176h.134a27.346,27.346,0,0,1-4.813,0,27.723,27.723,0,0,1,4.788-.444h.143l.252.184a30.464,30.464,0,0,1,4.05,3.2Z" transform="translate(-292.651 -401.149)" fill="#263238"/>
        <path id="Trazado_104441" data-name="Trazado 104441" d="M340.243,409.315c-.117,0-.235-.461-.243-1.048s.067-1.048.184-1.057.235.47.252,1.048S340.36,409.315,340.243,409.315Z" transform="translate(-293.359 -401.835)" fill="#455a64"/>
        <path id="Trazado_104442" data-name="Trazado 104442" d="M346.146,405.061l3.715,3.178-.017-2.264-3.924-2.935Z" transform="translate(-294.315 -401.162)" fill="#263238"/>
        <path id="Trazado_104443" data-name="Trazado 104443" d="M349.8,406.074l5.35-.184-4.3-3.119L345.92,403Z" transform="translate(-294.315 -401.118)" fill="#455a64"/>
        <path id="Trazado_104444" data-name="Trazado 104444" d="M350.55,406.674l.059,2.122,5.224-.344.067-1.962Z" transform="translate(-295.063 -401.719)" fill="#263238"/>
        <path id="Trazado_104445" data-name="Trazado 104445" d="M355.152,405.835a30.013,30.013,0,0,1-4.3-2.767l-.26-.184h.134a27.262,27.262,0,0,1-4.8,0,27.914,27.914,0,0,1,4.788-.453h.075l.059.042.26.176a31.625,31.625,0,0,1,4.05,3.187Z" transform="translate(-294.315 -401.063)" fill="#263238"/>
        <path id="Trazado_104446" data-name="Trazado 104446" d="M350.543,408.835c-.117,0-.226-.47-.243-1.048s.075-1.057.193-1.057.226.461.243,1.048S350.669,408.826,350.543,408.835Z" transform="translate(-295.022 -401.757)" fill="#455a64"/>
        <path id="Trazado_104447" data-name="Trazado 104447" d="M356.225,404.481l3.706,3.178-.017-2.272-3.924-2.927Z" transform="translate(-295.941 -401.068)" fill="#263238"/>
        <path id="Trazado_104448" data-name="Trazado 104448" d="M359.881,405.494l5.342-.185-4.3-3.119-4.931.226Z" transform="translate(-295.941 -401.024)" fill="#455a64"/>
        <path id="Trazado_104449" data-name="Trazado 104449" d="M360.63,406.094l.05,2.122,5.224-.344.067-1.962Z" transform="translate(-296.69 -401.625)" fill="#263238"/>
        <path id="Trazado_104450" data-name="Trazado 104450" d="M365.221,405.263a29.287,29.287,0,0,1-4.31-2.767l-.252-.184.134.042a27.345,27.345,0,0,1-4.813,0,28.188,28.188,0,0,1,4.788-.453h.075l.067.042.252.176A30.385,30.385,0,0,1,365.221,405.263Z" transform="translate(-295.939 -400.978)" fill="#263238"/>
        <path id="Trazado_104451" data-name="Trazado 104451" d="M360.623,408.255c-.117,0-.235-.47-.243-1.048s.067-1.057.185-1.057.235.461.252,1.048S360.74,408.246,360.623,408.255Z" transform="translate(-296.65 -401.664)" fill="#455a64"/>
        <path id="Trazado_104452" data-name="Trazado 104452" d="M300.636,413.571l3.715,3.178-.017-2.264-3.924-2.935Z" transform="translate(-286.968 -402.535)" fill="#263238"/>
        <path id="Trazado_104453" data-name="Trazado 104453" d="M304.293,414.584l5.35-.184-4.3-3.119-4.931.226Z" transform="translate(-286.968 -402.492)" fill="#455a64"/>
        <path id="Trazado_104454" data-name="Trazado 104454" d="M305.04,415.184l.059,2.122,5.216-.335L310.39,415Z" transform="translate(-287.715 -403.093)" fill="#263238"/>
        <path id="Trazado_104455" data-name="Trazado 104455" d="M309.642,414.345a30.33,30.33,0,0,1-4.31-2.767l-.252-.185h.134a27.265,27.265,0,0,1-4.8,0,27.916,27.916,0,0,1,4.788-.453h.075l.059.042.26.176a31.618,31.618,0,0,1,4.05,3.187Z" transform="translate(-286.968 -402.437)" fill="#263238"/>
        <path id="Trazado_104456" data-name="Trazado 104456" d="M305.033,417.345c-.117,0-.226-.47-.243-1.048s.075-1.057.193-1.057.226.461.243,1.048S305.159,417.336,305.033,417.345Z" transform="translate(-287.675 -403.131)" fill="#455a64"/>
        <path id="Trazado_104457" data-name="Trazado 104457" d="M311.315,413.371l3.706,3.178L315,414.285l-3.924-2.935Z" transform="translate(-288.691 -402.503)" fill="#263238"/>
        <path id="Trazado_104458" data-name="Trazado 104458" d="M314.962,414.384l5.35-.184-4.3-3.119-4.931.226Z" transform="translate(-288.691 -402.46)" fill="#455a64"/>
        <path id="Trazado_104459" data-name="Trazado 104459" d="M315.71,414.984l.059,2.122,5.224-.344.067-1.962Z" transform="translate(-289.438 -403.06)" fill="#263238"/>
        <path id="Trazado_104460" data-name="Trazado 104460" d="M320.312,414.153a30.015,30.015,0,0,1-4.3-2.767l-.26-.185.143.042a27.345,27.345,0,0,1-4.813,0,27.907,27.907,0,0,1,4.788-.453h.075l.059.042.26.176a29.3,29.3,0,0,1,4.05,3.145Z" transform="translate(-288.691 -402.413)" fill="#263238"/>
        <path id="Trazado_104461" data-name="Trazado 104461" d="M315.711,417.145c-.126,0-.235-.47-.252-1.048s.075-1.057.193-1.057.235.461.243,1.048S315.829,417.136,315.711,417.145Z" transform="translate(-289.397 -403.099)" fill="#455a64"/>
        <path id="Trazado_104462" data-name="Trazado 104462" d="M321.526,413.231l3.715,3.178-.017-2.264L321.3,411.21Z" transform="translate(-290.341 -402.481)" fill="#263238"/>
        <path id="Trazado_104463" data-name="Trazado 104463" d="M325.182,414.244l5.35-.176-4.3-3.128-4.931.226Z" transform="translate(-290.341 -402.437)" fill="#455a64"/>
        <path id="Trazado_104464" data-name="Trazado 104464" d="M325.93,414.846l.059,2.122,5.224-.335.067-1.962Z" transform="translate(-291.088 -403.039)" fill="#263238"/>
        <path id="Trazado_104465" data-name="Trazado 104465" d="M330.532,414.024a31.511,31.511,0,0,1-4.3-2.776l-.26-.176.143.042a27.793,27.793,0,0,1-4.813,0,27.461,27.461,0,0,1,4.788-.444h.075l.059.042.26.184a29.947,29.947,0,0,1,4.05,3.128Z" transform="translate(-290.341 -402.393)" fill="#263238"/>
        <path id="Trazado_104466" data-name="Trazado 104466" d="M325.951,417c-.126,0-.235-.461-.252-1.04s.075-1.057.193-1.065.235.47.243,1.048S326.052,417,325.951,417Z" transform="translate(-291.051 -403.076)" fill="#455a64"/>
        <path id="Trazado_104467" data-name="Trazado 104467" d="M332.166,412.931l3.715,3.178-.017-2.272-3.924-2.927Z" transform="translate(-292.058 -402.432)" fill="#263238"/>
        <path id="Trazado_104468" data-name="Trazado 104468" d="M335.823,413.944l5.35-.184-4.3-3.119-4.931.226Z" transform="translate(-292.058 -402.389)" fill="#455a64"/>
        <path id="Trazado_104469" data-name="Trazado 104469" d="M336.57,414.544l.059,2.122,5.224-.344.067-1.962Z" transform="translate(-292.806 -402.989)" fill="#263238"/>
        <path id="Trazado_104470" data-name="Trazado 104470" d="M341.222,413.713a30.016,30.016,0,0,1-4.3-2.767l-.26-.184.143.042a27.345,27.345,0,0,1-4.813,0,27.913,27.913,0,0,1,4.788-.453h.076l.059.042.26.176A30.762,30.762,0,0,1,341.222,413.713Z" transform="translate(-292.066 -402.342)" fill="#263238"/>
        <path id="Trazado_104471" data-name="Trazado 104471" d="M336.571,416.7c-.126,0-.235-.47-.252-1.048s.075-1.057.193-1.057.235.461.243,1.048S336.689,416.7,336.571,416.7Z" transform="translate(-292.765 -403.028)" fill="#455a64"/>
        <path id="Trazado_104472" data-name="Trazado 104472" d="M342.965,412.661l3.706,3.178-.017-2.264-3.924-2.935Z" transform="translate(-293.8 -402.389)" fill="#263238"/>
        <path id="Trazado_104473" data-name="Trazado 104473" d="M346.621,413.674l5.35-.176-4.31-3.128-4.931.226Z" transform="translate(-293.8 -402.345)" fill="#455a64"/>
        <path id="Trazado_104474" data-name="Trazado 104474" d="M347.37,414.276l.05,2.122,5.224-.335.075-1.962Z" transform="translate(-294.549 -402.947)" fill="#263238"/>
        <path id="Trazado_104475" data-name="Trazado 104475" d="M351.962,413.436a30.008,30.008,0,0,1-4.3-2.767l-.252-.176h.134a27.345,27.345,0,0,1-4.813,0,28.188,28.188,0,0,1,4.788-.453h.143l.252.184a30.465,30.465,0,0,1,4.05,3.212Z" transform="translate(-293.8 -402.292)" fill="#263238"/>
        <path id="Trazado_104476" data-name="Trazado 104476" d="M347.363,416.435c-.117,0-.235-.461-.243-1.048s.067-1.048.184-1.057.235.47.252,1.048S347.48,416.435,347.363,416.435Z" transform="translate(-294.509 -402.984)" fill="#455a64"/>
        <path id="Trazado_104477" data-name="Trazado 104477" d="M353.266,412.181l3.715,3.178-.017-2.272-3.924-2.927Z" transform="translate(-295.465 -402.311)" fill="#263238"/>
        <path id="Trazado_104478" data-name="Trazado 104478" d="M356.923,413.194l5.35-.185-4.3-3.119-4.931.226Z" transform="translate(-295.465 -402.268)" fill="#455a64"/>
        <path id="Trazado_104479" data-name="Trazado 104479" d="M357.67,413.794l.059,2.122,5.216-.344.075-1.962Z" transform="translate(-296.212 -402.868)" fill="#263238"/>
        <path id="Trazado_104480" data-name="Trazado 104480" d="M362.272,412.963a30.328,30.328,0,0,1-4.31-2.767l-.252-.185.134.042a27.265,27.265,0,0,1-4.8,0,27.907,27.907,0,0,1,4.788-.453h.075l.059.042.26.176A30.753,30.753,0,0,1,362.272,412.963Z" transform="translate(-295.465 -402.221)" fill="#263238"/>
        <path id="Trazado_104481" data-name="Trazado 104481" d="M357.663,415.955c-.117,0-.226-.47-.243-1.048s.075-1.057.193-1.057.226.461.243,1.048S357.789,415.946,357.663,415.955Z" transform="translate(-296.172 -402.907)" fill="#455a64"/>
        <path id="Trazado_104482" data-name="Trazado 104482" d="M363.345,411.6l3.706,3.178-.017-2.272-3.924-2.927Z" transform="translate(-297.091 -402.217)" fill="#263238"/>
        <path id="Trazado_104483" data-name="Trazado 104483" d="M367,412.614l5.35-.184-4.31-3.119-4.931.226Z" transform="translate(-297.091 -402.174)" fill="#455a64"/>
        <path id="Trazado_104484" data-name="Trazado 104484" d="M367.75,413.214l.05,2.122,5.224-.344.075-1.962Z" transform="translate(-297.84 -402.774)" fill="#263238"/>
        <path id="Trazado_104485" data-name="Trazado 104485" d="M372.342,412.353a30.016,30.016,0,0,1-4.3-2.767l-.252-.184.134.042a27.345,27.345,0,0,1-4.813,0,27.185,27.185,0,0,1,4.788-.453h.143l.252.176A29.3,29.3,0,0,1,372.342,412.353Z" transform="translate(-297.091 -402.122)" fill="#263238"/>
        <path id="Trazado_104486" data-name="Trazado 104486" d="M367.743,415.375c-.117,0-.235-.47-.243-1.048s.067-1.057.184-1.057.235.461.252,1.048S367.86,415.366,367.743,415.375Z" transform="translate(-297.799 -402.813)" fill="#455a64"/>
        <path id="Trazado_104487" data-name="Trazado 104487" d="M388.378,407.249l-74.883,4.075-9.945,9.4-19.169-16.8v4.88l19.857,19.027,10.96-10.658,74.321-4.436Z" transform="translate(-284.38 -401.304)" fill="#263238"/>
        <path id="Trazado_104488" data-name="Trazado 104488" d="M308.06,429.524l67.663-3.958,17.618-11.136-76.116,2.985Z" transform="translate(-288.203 -403)" fill="#263238"/>
        <path id="Trazado_104489" data-name="Trazado 104489" d="M393.341,414.43a.7.7,0,0,1-.226.042l-.679.059-2.608.193-9.593.646-31.672,1.954L319.028,419l.1-.042-8.059,7.74c-.948.889-1.677,1.593-2.214,2.1l-.587.528a1.116,1.116,0,0,1-.21.176,1.867,1.867,0,0,1,.176-.21l.553-.57,2.155-2.155,7.958-7.841.042-.042H319l29.534-1.811,31.672-1.828,9.61-.5,2.608-.109h.914Z" transform="translate(-288.203 -403)" fill="#455a64"/>
        <path id="Trazado_104490" data-name="Trazado 104490" d="M320.8,418.595a10.675,10.675,0,0,1-1.065-2.859,11.277,11.277,0,0,1-.646-2.985,10.676,10.676,0,0,1,1.065,2.859,11.279,11.279,0,0,1,.646,2.985Z" transform="translate(-289.984 -402.729)" fill="#455a64"/>
      </g>
      <g id="freepik--calculator-1--inject-2" transform="translate(281.765 95.865)">
        <path id="Trazado_104491" data-name="Trazado 104491" d="M406.157,244.633l-67.21-12.863a3.79,3.79,0,0,1-3.01-4.436l21.626-113a5.392,5.392,0,0,1,6.3-4.277l64.082,12.268a5.383,5.383,0,0,1,4.277,6.3l-21.61,113.02A3.79,3.79,0,0,1,406.157,244.633Z" transform="translate(-330.016 -108.823)" fill="#455a64"/>
        <g id="Grupo_88853" data-name="Grupo 88853" transform="translate(5.802 1.126)" opacity="0.4">
          <path id="Trazado_104492" data-name="Trazado 104492" d="M406.1,244.613l-67.21-12.863a3.79,3.79,0,0,1-3.01-4.436l21.626-113a5.384,5.384,0,0,1,6.3-4.277l64.082,12.268a5.392,5.392,0,0,1,4.277,6.3L410.533,241.644A3.79,3.79,0,0,1,406.1,244.613Z" transform="translate(-335.808 -109.945)"/>
        </g>
        <path id="Trazado_104493" data-name="Trazado 104493" d="M399.178,243.272,331.967,230.4a3.782,3.782,0,0,1-3.01-4.428l21.635-113a5.367,5.367,0,0,1,6.3-4.268l64.082,12.26a5.384,5.384,0,0,1,4.268,6.306l-21.626,113a3.8,3.8,0,0,1-4.436,3.01Z" transform="translate(-328.889 -108.602)" fill="#455a64"/>
        <rect id="Rectángulo_34958" data-name="Rectángulo 34958" width="25.635" height="11.329" rx="2.42" transform="matrix(0.982, 0.188, -0.188, 0.982, 14.806, 95.641)" fill="#455a64"/>
        <g id="Grupo_88854" data-name="Grupo 88854" transform="translate(12.675 95.641)" opacity="0.2">
          <rect id="Rectángulo_34959" data-name="Rectángulo 34959" width="25.635" height="11.329" rx="2.42" transform="matrix(0.982, 0.188, -0.188, 0.982, 2.131, 0)"/>
        </g>
        <rect id="Rectángulo_34960" data-name="Rectángulo 34960" width="25.492" height="64.988" transform="matrix(0.188, -0.982, 0.982, 0.188, 21.472, 37.396)" fill="#fafafa"/>
        <path id="Trazado_104494" data-name="Trazado 104494" d="M418.268,160.564a2.037,2.037,0,0,1,.075-.453c.075-.293.134-.73.235-1.291.218-1.14.528-2.818.939-4.981.839-4.319,2-10.566,3.463-18.331l.059.092-63.822-12.184h0l.126-.084c-1.677,8.755-3.3,17.216-4.8,25.031l-.084-.117c18.448,3.555,34.381,6.616,45.735,8.8l13.283,2.566,3.555.7.922.184.319.067-.31-.05-.906-.168-3.539-.671-13.274-2.516-45.819-8.721h-.109v-.1c1.493-7.824,3.111-16.285,4.788-25.039v-.109h.109l63.814,12.251h.075v.075c-1.509,7.773-2.717,14.037-3.555,18.356-.419,2.155-.746,3.824-.964,4.956l-.26,1.283C418.293,160.422,418.268,160.564,418.268,160.564Z" transform="translate(-332.995 -110.957)" fill="#263238"/>
        <rect id="Rectángulo_34961" data-name="Rectángulo 34961" width="11.044" height="11.044" rx="2.08" transform="matrix(0.982, 0.188, -0.188, 0.982, 23.088, 48.081)" fill="#455a64"/>
        <g id="Grupo_88855" data-name="Grupo 88855" transform="translate(21.011 48.081)" opacity="0.2">
          <rect id="Rectángulo_34962" data-name="Rectángulo 34962" width="11.044" height="11.044" rx="2.08" transform="matrix(0.982, 0.188, -0.188, 0.982, 2.077, 0)"/>
        </g>
        <rect id="Rectángulo_34963" data-name="Rectángulo 34963" width="11.044" height="11.044" rx="2.08" transform="matrix(0.982, 0.188, -0.188, 0.982, 21.408, 47.754)" fill="#263238"/>
        <path id="Trazado_104495" data-name="Trazado 104495" d="M360.708,170.579l-.839,4.52-1.048-.193.7-3.681-.906-.176.159-.839Z" transform="translate(-333.689 -118.549)" fill="#fff"/>
        <rect id="Rectángulo_34964" data-name="Rectángulo 34964" width="11.044" height="11.044" rx="2.08" transform="matrix(0.982, 0.188, -0.188, 0.982, 38.215, 50.967)" fill="#455a64"/>
        <g id="Grupo_88856" data-name="Grupo 88856" transform="translate(36.138 50.967)" opacity="0.2">
          <rect id="Rectángulo_34965" data-name="Rectángulo 34965" width="11.044" height="11.044" rx="2.08" transform="matrix(0.982, 0.188, -0.188, 0.982, 2.077, 0)"/>
        </g>
        <rect id="Rectángulo_34966" data-name="Rectángulo 34966" width="11.044" height="11.044" rx="2.08" transform="matrix(0.982, 0.188, -0.188, 0.982, 36.535, 50.648)" fill="#263238"/>
        <path id="Trazado_104496" data-name="Trazado 104496" d="M379.571,178.047l-.159.839-3.421-.654.134-.679,2.054-1.308c.478-.31.587-.528.629-.746.075-.352-.134-.612-.612-.7a1.149,1.149,0,0,0-1.023.277l-.671-.637a2.147,2.147,0,0,1,1.962-.495c1.006.193,1.577.839,1.417,1.677a1.836,1.836,0,0,1-1.023,1.283l-1.233.78Z" transform="translate(-336.494 -119.14)" fill="#fff"/>
        <rect id="Rectángulo_34967" data-name="Rectángulo 34967" width="11.044" height="11.044" rx="2.08" transform="matrix(0.982, 0.188, -0.188, 0.982, 53.898, 53.971)" fill="#455a64"/>
        <g id="Grupo_88857" data-name="Grupo 88857" transform="translate(51.821 53.971)" opacity="0.2">
          <rect id="Rectángulo_34968" data-name="Rectángulo 34968" width="11.044" height="11.044" rx="2.08" transform="matrix(0.982, 0.188, -0.188, 0.982, 2.077, 0)"/>
        </g>
        <rect id="Rectángulo_34969" data-name="Rectángulo 34969" width="11.044" height="11.044" rx="2.08" transform="matrix(0.982, 0.188, -0.188, 0.982, 52.227, 53.655)" fill="#263238"/>
        <path id="Trazado_104497" data-name="Trazado 104497" d="M398.272,181.063c-.151.763-.839,1.35-2.155,1.107a3.186,3.186,0,0,1-1.627-.839l.553-.73a2.188,2.188,0,0,0,1.216.654c.52.1.889-.05.956-.419s-.143-.6-.738-.713l-.478-.092.134-.7,1.132-.839-1.929-.369.159-.839,3.17.6-.134.679-1.208.99A1.308,1.308,0,0,1,398.272,181.063Z" transform="translate(-339.48 -119.692)" fill="#fff"/>
        <rect id="Rectángulo_34970" data-name="Rectángulo 34970" width="11.044" height="11.044" rx="2.08" transform="matrix(0.982, 0.188, -0.188, 0.982, 69.582, 56.977)" fill="#455a64"/>
        <g id="Grupo_88858" data-name="Grupo 88858" transform="translate(67.505 56.977)" opacity="0.2">
          <rect id="Rectángulo_34971" data-name="Rectángulo 34971" width="11.044" height="11.044" rx="2.08" transform="matrix(0.982, 0.188, -0.188, 0.982, 2.077, 0)"/>
        </g>
        <rect id="Rectángulo_34972" data-name="Rectángulo 34972" width="11.044" height="11.044" rx="2.08" transform="matrix(0.982, 0.188, -0.188, 0.982, 67.943, 56.657)" fill="#263238"/>
        <rect id="Rectángulo_34973" data-name="Rectángulo 34973" width="0.419" height="4.931" transform="matrix(0.188, -0.982, 0.982, 0.188, 69.87, 62.666)" fill="#fff"/>
        <path id="Trazado_104498" data-name="Trazado 104498" d="M416.219,181.1a.839.839,0,1,1-.637-.939A.839.839,0,0,1,416.219,181.1Z" transform="translate(-342.719 -120.152)" fill="#fff"/>
        <path id="Trazado_104499" data-name="Trazado 104499" d="M415.259,186.145a.839.839,0,1,1-.637-.939A.839.839,0,0,1,415.259,186.145Z" transform="translate(-342.564 -120.966)" fill="#fff"/>
        <g id="Grupo_88859" data-name="Grupo 88859" transform="translate(18.177 64.094)" opacity="0.2">
          <path id="Trazado_104500" data-name="Trazado 104500" d="M360.087,197.584l-8.587-1.677a1.157,1.157,0,0,1-.914-1.35l1.677-8.587a1.149,1.149,0,0,1,1.342-.914l8.6,1.677a1.132,1.132,0,0,1,.914,1.342l-1.677,8.6a1.157,1.157,0,0,1-1.35.914Z" transform="translate(-350.566 -185.036)"/>
        </g>
        <rect id="Rectángulo_34974" data-name="Rectángulo 34974" width="11.044" height="11.044" rx="2.08" transform="matrix(0.982, 0.188, -0.188, 0.982, 18.365, 63.644)" fill="#263238"/>
        <path id="Trazado_104501" data-name="Trazado 104501" d="M357.433,193.406l-.738-.143-.184.948-1.015-.193.176-.948-2.432-.47.134-.7,2.683-2.457,1.1.21-2.516,2.34,1.216.235.159-.839.99.184-.159.839.73.143Z" transform="translate(-332.821 -121.653)" fill="#fff"/>
        <rect id="Rectángulo_34975" data-name="Rectángulo 34975" width="11.044" height="11.044" rx="2.08" transform="matrix(0.982, 0.188, -0.188, 0.982, 35.17, 66.865)" fill="#455a64"/>
        <g id="Grupo_88860" data-name="Grupo 88860" transform="translate(33.093 66.865)" opacity="0.2">
          <rect id="Rectángulo_34976" data-name="Rectángulo 34976" width="11.044" height="11.044" rx="2.08" transform="matrix(0.982, 0.188, -0.188, 0.982, 2.077, 0)"/>
        </g>
        <rect id="Rectángulo_34977" data-name="Rectángulo 34977" width="11.044" height="11.044" rx="2.08" transform="matrix(0.982, 0.188, -0.188, 0.982, 33.5, 66.54)" fill="#263238"/>
        <path id="Trazado_104502" data-name="Trazado 104502" d="M375.439,196.285c-.159.839-.88,1.392-2.172,1.14a3.161,3.161,0,0,1-1.627-.839l.562-.721a2.222,2.222,0,0,0,1.207.654c.528.1.889-.059.964-.428s-.126-.629-.939-.788l-1.157-.218L373,192.57l2.75.528-.159.839-1.887-.361-.235.839.369.075C375.179,194.792,375.59,195.5,375.439,196.285Z" transform="translate(-335.791 -122.158)" fill="#fff"/>
        <rect id="Rectángulo_34978" data-name="Rectángulo 34978" width="11.044" height="11.044" rx="2.08" transform="matrix(0.982, 0.188, -0.188, 0.982, 50.855, 69.863)" fill="#455a64"/>
        <g id="Grupo_88861" data-name="Grupo 88861" transform="translate(48.778 69.863)" opacity="0.2">
          <rect id="Rectángulo_34979" data-name="Rectángulo 34979" width="11.044" height="11.044" rx="2.08" transform="matrix(0.982, 0.188, -0.188, 0.982, 2.077, 0)"/>
        </g>
        <rect id="Rectángulo_34980" data-name="Rectángulo 34980" width="11.044" height="11.044" rx="2.08" transform="matrix(0.982, 0.188, -0.188, 0.982, 49.175, 69.545)" fill="#263238"/>
        <path id="Trazado_104503" data-name="Trazado 104503" d="M394.546,199.984a1.585,1.585,0,0,1-2,1.174,1.975,1.975,0,0,1-1.585-2.625,2.239,2.239,0,0,1,2.767-2,2.515,2.515,0,0,1,1.2.553l-.537.7a1.493,1.493,0,0,0-.8-.394,1.233,1.233,0,0,0-1.526,1.073,1.56,1.56,0,0,1,1.191-.193,1.467,1.467,0,0,1,1.291,1.711Zm-1.023-.143a.7.7,0,0,0-.637-.839.721.721,0,0,0-.914.528c-.075.386.159.721.662.839a.7.7,0,0,0,.864-.528Z" transform="translate(-338.899 -122.789)" fill="#fff"/>
        <rect id="Rectángulo_34981" data-name="Rectángulo 34981" width="11.044" height="11.044" rx="2.08" transform="matrix(0.982, 0.188, -0.188, 0.982, 66.538, 72.867)" fill="#455a64"/>
        <g id="Grupo_88862" data-name="Grupo 88862" transform="translate(64.461 72.867)" opacity="0.2">
          <rect id="Rectángulo_34982" data-name="Rectángulo 34982" width="11.044" height="11.044" rx="2.08" transform="matrix(0.982, 0.188, -0.188, 0.982, 2.077, 0)"/>
        </g>
        <rect id="Rectángulo_34983" data-name="Rectángulo 34983" width="11.044" height="11.044" rx="2.08" transform="matrix(0.982, 0.188, -0.188, 0.982, 64.859, 72.549)" fill="#263238"/>
        <rect id="Rectángulo_34984" data-name="Rectángulo 34984" width="4.931" height="0.419" transform="matrix(0.836, -0.549, 0.549, 0.836, 67.088, 80.173)" fill="#fff"/>
        <rect id="Rectángulo_34985" data-name="Rectángulo 34985" width="0.419" height="4.931" transform="matrix(0.827, -0.562, 0.562, 0.827, 67.705, 77.066)" fill="#fff"/>
        <rect id="Rectángulo_34986" data-name="Rectángulo 34986" width="11.044" height="11.044" rx="2.08" transform="matrix(0.982, 0.188, -0.188, 0.982, 17.016, 79.734)" fill="#455a64"/>
        <g id="Grupo_88863" data-name="Grupo 88863" transform="translate(14.939 79.734)" opacity="0.2">
          <rect id="Rectángulo_34987" data-name="Rectángulo 34987" width="11.044" height="11.044" rx="2.08" transform="matrix(0.982, 0.188, -0.188, 0.982, 2.077, 0)"/>
        </g>
        <rect id="Rectángulo_34988" data-name="Rectángulo 34988" width="11.044" height="11.044" rx="2.08" transform="matrix(0.982, 0.188, -0.188, 0.982, 15.353, 79.417)" fill="#263238"/>
        <path id="Trazado_104504" data-name="Trazado 104504" d="M353.984,208.438l-.126.679-2.415,3.522-1.14-.218,2.323-3.354-1.5-.285-.134.738-.931-.176.3-1.593Z" transform="translate(-332.307 -124.609)" fill="#fff"/>
        <rect id="Rectángulo_34989" data-name="Rectángulo 34989" width="11.044" height="11.044" rx="2.08" transform="matrix(0.982, 0.188, -0.188, 0.982, 32.16, 82.621)" fill="#455a64"/>
        <g id="Grupo_88864" data-name="Grupo 88864" transform="translate(30.083 82.621)" opacity="0.2">
          <rect id="Rectángulo_34990" data-name="Rectángulo 34990" width="11.044" height="11.044" rx="2.08" transform="matrix(0.982, 0.188, -0.188, 0.982, 2.077, 0)"/>
        </g>
        <rect id="Rectángulo_34991" data-name="Rectángulo 34991" width="11.044" height="11.044" rx="2.08" transform="matrix(0.982, 0.188, -0.188, 0.982, 30.48, 82.303)" fill="#263238"/>
        <path id="Trazado_104505" data-name="Trazado 104505" d="M372.262,215.285c-.159.839-1.023,1.241-2.172,1.023s-1.8-.906-1.635-1.753a1.174,1.174,0,0,1,.872-.948,1.056,1.056,0,0,1-.344-1.031c.151-.788.956-1.149,1.979-.956s1.677.839,1.509,1.627a1.082,1.082,0,0,1-.713.839A1.157,1.157,0,0,1,372.262,215.285Zm-1.048-.235c.075-.4-.21-.713-.73-.839s-.889.084-.964.486.2.713.713.839.889-.067.964-.461Zm-1.182-2.214c-.067.335.159.6.587.688s.755-.075.839-.419-.176-.629-.6-.7-.771.1-.839.461Z" transform="translate(-335.273 -125.226)" fill="#fff"/>
        <rect id="Rectángulo_34992" data-name="Rectángulo 34992" width="11.044" height="11.044" rx="2.08" transform="matrix(0.982, 0.188, -0.188, 0.982, 47.835, 85.625)" fill="#455a64"/>
        <g id="Grupo_88865" data-name="Grupo 88865" transform="translate(45.758 85.625)" opacity="0.2">
          <rect id="Rectángulo_34993" data-name="Rectángulo 34993" width="11.044" height="11.044" rx="2.08" transform="matrix(0.982, 0.188, -0.188, 0.982, 2.077, 0)"/>
        </g>
        <rect id="Rectángulo_34994" data-name="Rectángulo 34994" width="11.044" height="11.044" rx="2.08" transform="matrix(0.982, 0.188, -0.188, 0.982, 46.164, 85.307)" fill="#263238"/>
        <path id="Trazado_104506" data-name="Trazado 104506" d="M390.958,217.8a2.247,2.247,0,0,1-2.776,2,2.457,2.457,0,0,1-1.182-.587l.537-.7a1.442,1.442,0,0,0,.8.394,1.233,1.233,0,0,0,1.526-1.073,1.576,1.576,0,0,1-1.2.184,1.459,1.459,0,0,1-1.291-1.677,1.585,1.585,0,0,1,2-1.174A1.991,1.991,0,0,1,390.958,217.8Zm-1.023-1.015c.075-.386-.159-.721-.654-.839a.7.7,0,1,0-.252,1.358.721.721,0,0,0,.906-.52Z" transform="translate(-338.271 -125.796)" fill="#fff"/>
        <rect id="Rectángulo_34995" data-name="Rectángulo 34995" width="11.044" height="11.044" rx="2.08" transform="matrix(0.982, 0.188, -0.188, 0.982, 63.518, 88.63)" fill="#455a64"/>
        <g id="Grupo_88866" data-name="Grupo 88866" transform="translate(61.441 88.63)" opacity="0.2">
          <rect id="Rectángulo_34996" data-name="Rectángulo 34996" width="11.044" height="11.044" rx="2.08" transform="matrix(0.982, 0.188, -0.188, 0.982, 2.077, 0)"/>
        </g>
        <rect id="Rectángulo_34997" data-name="Rectángulo 34997" width="11.044" height="11.044" rx="2.08" transform="matrix(0.982, 0.188, -0.188, 0.982, 61.839, 88.312)" fill="#263238"/>
        <rect id="Rectángulo_34998" data-name="Rectángulo 34998" width="0.419" height="4.922" transform="matrix(0.19, -0.982, 0.982, 0.19, 64.098, 95.625)" fill="#fff"/>
        <rect id="Rectángulo_34999" data-name="Rectángulo 34999" width="11.044" height="11.044" rx="2.08" transform="matrix(0.982, 0.188, -0.188, 0.982, 44.788, 101.532)" fill="#455a64"/>
        <g id="Grupo_88867" data-name="Grupo 88867" transform="translate(42.711 101.532)" opacity="0.2">
          <rect id="Rectángulo_35000" data-name="Rectángulo 35000" width="11.044" height="11.044" rx="2.08" transform="matrix(0.982, 0.188, -0.188, 0.982, 2.077, 0)"/>
        </g>
        <rect id="Rectángulo_35001" data-name="Rectángulo 35001" width="11.044" height="11.044" rx="2.08" transform="matrix(0.982, 0.188, -0.188, 0.982, 43.119, 101.206)" fill="#263238"/>
        <rect id="Rectángulo_35002" data-name="Rectángulo 35002" width="11.044" height="11.044" rx="2.08" transform="matrix(0.982, 0.188, -0.188, 0.982, 60.472, 104.536)" fill="#2e9daa"/>
        <g id="Grupo_88868" data-name="Grupo 88868" transform="translate(58.395 104.536)" opacity="0.4">
          <rect id="Rectángulo_35003" data-name="Rectángulo 35003" width="11.044" height="11.044" rx="2.08" transform="matrix(0.982, 0.188, -0.188, 0.982, 2.077, 0)"/>
        </g>
        <rect id="Rectángulo_35004" data-name="Rectángulo 35004" width="11.044" height="11.044" rx="2.08" transform="matrix(0.982, 0.188, -0.188, 0.982, 58.794, 104.21)" fill="#2e9daa"/>
        <rect id="Rectángulo_35005" data-name="Rectángulo 35005" width="0.419" height="4.931" transform="translate(60.862 109.801) rotate(-79.17)" fill="#fff"/>
        <rect id="Rectángulo_35006" data-name="Rectángulo 35006" width="0.419" height="4.931" transform="translate(60.503 111.649) rotate(-79.17)" fill="#fff"/>
        <rect id="Rectángulo_35007" data-name="Rectángulo 35007" width="26.666" height="11.329" rx="2.5" transform="matrix(0.982, 0.188, -0.188, 0.982, 11.757, 95.059)" fill="#263238"/>
        <path id="Trazado_104507" data-name="Trazado 104507" d="M356.127,230.695c.285-1.493,1.275-2.18,2.39-1.962s1.769,1.216,1.484,2.709-1.266,2.18-2.382,1.962S355.842,232.187,356.127,230.695Zm2.826.545c.193-1.031-.084-1.526-.6-1.627s-.964.26-1.157,1.291.084,1.518.6,1.618S358.752,232.3,358.953,231.24Z" transform="translate(-333.276 -127.99)" fill="#fff"/>
        <rect id="Rectángulo_35008" data-name="Rectángulo 35008" width="4.931" height="0.419" transform="matrix(0.203, -0.979, 0.979, 0.203, 46.814, 110.018)" fill="#fff"/>
        <rect id="Rectángulo_35009" data-name="Rectángulo 35009" width="0.419" height="4.931" transform="translate(45.041 107.382) rotate(-79.17)" fill="#fff"/>
        <path id="Trazado_104508" data-name="Trazado 104508" d="M387.544,144.2l-1.3,6.759-.319-.059,1.241-6.457-1.677-.327.059-.3Z" transform="translate(-338.027 -114.286)" fill="#263238"/>
        <path id="Trazado_104509" data-name="Trazado 104509" d="M392.987,152.037l-.059.3-4.578-.839v-.235L391.8,148.9c.99-.671,1.258-1.124,1.367-1.677.168-.9-.344-1.6-1.526-1.828a2.516,2.516,0,0,0-2.18.428l-.185-.252a2.893,2.893,0,0,1,2.432-.47c1.291.252,1.987,1.073,1.778,2.163-.117.637-.428,1.157-1.484,1.878l-3.111,2.113Z" transform="translate(-338.489 -114.48)" fill="#263238"/>
        <path id="Trazado_104510" data-name="Trazado 104510" d="M399.5,151.6c-.218,1.124-1.157,1.761-2.641,1.476a3.086,3.086,0,0,1-2.172-1.384l.218-.2a2.843,2.843,0,0,0,2,1.283c1.3.252,2.1-.26,2.281-1.233s-.344-1.736-1.778-2.013l-.377-.067v-.235l2.633-2.34-3.723-.713.05-.3,4.193.8-.05.235-2.667,2.34C399.084,149.551,399.721,150.474,399.5,151.6Z" transform="translate(-339.513 -114.619)" fill="#263238"/>
        <path id="Trazado_104511" data-name="Trazado 104511" d="M407.279,153.132l-1.467-.285-.377,1.954-.319-.059.377-1.954-3.883-.746.042-.226,4.612-3.866.377.075-4.553,3.815,3.463.654.327-1.719.319.067-.327,1.677,1.467.277Z" transform="translate(-340.63 -114.955)" fill="#263238"/>
        <path id="Trazado_104512" data-name="Trazado 104512" d="M409.693,156.4a1.941,1.941,0,0,1-.126.344l-.6,1.233-.252-.05.553-1.275a.327.327,0,0,1-.218-.377.319.319,0,0,1,.377-.252.327.327,0,0,1,.26.377Z" transform="translate(-341.778 -116.256)" fill="#263238"/>
        <path id="Trazado_104513" data-name="Trazado 104513" d="M416.909,155l-1.467-.285-.369,1.954-.319-.059.369-1.954-3.883-.746.05-.226,4.612-3.866.377.075-4.553,3.815,3.455.662.327-1.677.319.059-.327,1.719,1.467.277Z" transform="translate(-342.184 -115.257)" fill="#263238"/>
        <path id="Trazado_104514" data-name="Trazado 104514" d="M423.07,156.1c-.21,1.1-1.132,1.8-2.667,1.509a3.077,3.077,0,0,1-2.163-1.384l.226-.193a2.851,2.851,0,0,0,1.987,1.283c1.325.252,2.1-.319,2.289-1.275s-.3-1.786-2.231-2.155l-1.317-.252.973-3.111,3.48.662-.05.3-3.22-.621-.788,2.516,1.048.2C422.718,153.992,423.313,154.9,423.07,156.1Z" transform="translate(-343.315 -115.37)" fill="#263238"/>
      </g>
      <g id="freepik--Window--inject-2" transform="translate(37.839 40.317)">
        <rect id="Rectángulo_35010" data-name="Rectángulo 35010" width="186.981" height="124.693" transform="translate(0.218 0.352)" fill="#fafafa"/>
        <rect id="Rectángulo_35011" data-name="Rectángulo 35011" width="30.758" height="12.344" transform="translate(34.917 44.963)" fill="#2e9daa"/>
        <rect id="Rectángulo_35012" data-name="Rectángulo 35012" width="30.758" height="12.344" transform="translate(127.2 44.963)" fill="#2e9daa"/>
        <rect id="Rectángulo_35013" data-name="Rectángulo 35013" width="30.758" height="12.344" transform="translate(127.2 69.474)" fill="#2e9daa"/>
        <rect id="Rectángulo_35014" data-name="Rectángulo 35014" width="30.758" height="12.344" transform="translate(127.2 81.726)" fill="#2e9daa"/>
        <rect id="Rectángulo_35015" data-name="Rectángulo 35015" width="30.758" height="12.344" transform="translate(65.676 69.692)" fill="#455a64"/>
        <rect id="Rectángulo_35016" data-name="Rectángulo 35016" width="30.758" height="12.344" transform="translate(96.392 82.178)" fill="#455a64"/>
        <rect id="Rectángulo_35017" data-name="Rectángulo 35017" width="30.758" height="12.838" transform="translate(65.676 106.664)" fill="#ebebeb"/>
        <rect id="Rectángulo_35018" data-name="Rectángulo 35018" width="30.758" height="12.344" transform="translate(127.2 106.832)" fill="#2e9daa"/>
        <rect id="Rectángulo_35019" data-name="Rectángulo 35019" width="166.092" height="12.058" transform="translate(15.421 32.905)" fill="#e0e0e0"/>
        <rect id="Rectángulo_35020" data-name="Rectángulo 35020" width="29.123" height="86.857" transform="translate(5.794 32.905)" fill="#e0e0e0"/>
        <path id="Trazado_104515" data-name="Trazado 104515" d="M74.372,168.8H44.41V81.1H74.372Zm-29.123-.839H73.533V81.939H45.249Z" transform="translate(-39.035 -48.614)" fill="#e0e0e0"/>
        <rect id="Rectángulo_35021" data-name="Rectángulo 35021" width="186.981" height="14.146" transform="translate(0.218 0.352)" fill="#2e9daa"/>
        <rect id="Rectángulo_35022" data-name="Rectángulo 35022" width="28.788" height="8.092" transform="translate(6.13 19.647)" fill="#ebebeb"/>
        <rect id="Rectángulo_35023" data-name="Rectángulo 35023" width="27.765" height="8.092" transform="translate(38.288 19.647)" fill="#ebebeb"/>
        <rect id="Rectángulo_35024" data-name="Rectángulo 35024" width="27.765" height="8.092" transform="translate(68.736 19.647)" fill="#ebebeb"/>
        <rect id="Rectángulo_35025" data-name="Rectángulo 35025" width="27.765" height="8.092" transform="translate(99.184 19.647)" fill="#ebebeb"/>
        <rect id="Rectángulo_35026" data-name="Rectángulo 35026" width="27.765" height="8.092" transform="translate(129.632 19.647)" fill="#ebebeb"/>
        <rect id="Rectángulo_35027" data-name="Rectángulo 35027" width="22.817" height="8.092" transform="translate(160.08 19.647)" fill="#ebebeb"/>
        <path id="Trazado_104516" data-name="Trazado 104516" d="M44.908,168.154H57.973l36.4-.059,126.236-.1-.2.21V81.615h0l.218.218L44.908,81.716l.159-.159c0,26.691-.059,48.318-.084,63.286v.1c0-14.993-.05-36.662-.084-63.386v-.168h.159l175.719-.059H221v.226h0v86.79h-.21l-126.538-.084L57.9,168.2H45.713Z" transform="translate(-39.114 -48.652)" fill="#263238"/>
        <path id="Trazado_104517" data-name="Trazado 104517" d="M221.029,95.958c0,.117-39.345.218-87.855.218s-87.864-.117-87.864-.218,39.328-.218,87.864-.218S221.029,95.815,221.029,95.958Z" transform="translate(-39.18 -50.978)" fill="#263238"/>
        <path id="Trazado_104518" data-name="Trazado 104518" d="M221.029,110.648c0,.126-39.345.218-87.855.218s-87.864-.092-87.864-.218,39.328-.218,87.864-.218S221.029,110.531,221.029,110.648Z" transform="translate(-39.18 -53.35)" fill="#263238"/>
        <path id="Trazado_104519" data-name="Trazado 104519" d="M221.029,125.368c0,.117-39.345.218-87.855.218s-87.864-.1-87.864-.218,39.328-.218,87.864-.218S221.029,125.242,221.029,125.368Z" transform="translate(-39.18 -55.726)" fill="#263238"/>
        <path id="Trazado_104520" data-name="Trazado 104520" d="M221.029,140.078c0,.126-39.345.218-87.855.218s-87.864-.092-87.864-.218,39.328-.218,87.864-.218S221.029,139.977,221.029,140.078Z" transform="translate(-39.18 -58.101)" fill="#263238"/>
        <path id="Trazado_104521" data-name="Trazado 104521" d="M221.029,154.8c0,.117-39.345.218-87.855.218s-87.864-.084-87.864-.218,39.328-.218,87.864-.218S221.029,154.681,221.029,154.8Z" transform="translate(-39.18 -60.477)" fill="#263238"/>
        <path id="Trazado_104522" data-name="Trazado 104522" d="M221.029,169.518c0,.117-39.345.218-87.855.218s-87.864-.1-87.864-.218,39.328-.218,87.864-.218S221.029,169.392,221.029,169.518Z" transform="translate(-39.18 -62.854)" fill="#263238"/>
        <path id="Trazado_104523" data-name="Trazado 104523" d="M79.6,168.549c-.126,0-.218-19.337-.218-43.186s.092-43.194.218-43.194.218,19.337.218,43.194S79.715,168.549,79.6,168.549Z" transform="translate(-44.681 -48.787)" fill="#263238"/>
        <path id="Trazado_104524" data-name="Trazado 104524" d="M116.278,168.29c-.117,0-.218-19.287-.218-43.06s.1-43.06.218-43.06.218,19.287.218,43.06S116.4,168.29,116.278,168.29Z" transform="translate(-50.602 -48.787)" fill="#263238"/>
        <path id="Trazado_104525" data-name="Trazado 104525" d="M152.958,168.549c-.126,0-.218-19.337-.218-43.186s.092-43.194.218-43.194.218,19.337.218,43.194S153.084,168.549,152.958,168.549Z" transform="translate(-56.524 -48.787)" fill="#263238"/>
        <path id="Trazado_104526" data-name="Trazado 104526" d="M189.648,168.549c-.117,0-.218-19.337-.218-43.186s.1-43.194.218-43.194.218,19.337.218,43.194S189.774,168.549,189.648,168.549Z" transform="translate(-62.448 -48.787)" fill="#263238"/>
        <path id="Trazado_104527" data-name="Trazado 104527" d="M226.338,168.549c-.126,0-.218-19.337-.218-43.186s.092-43.194.218-43.194.218,19.337.218,43.194S226.455,168.549,226.338,168.549Z" transform="translate(-68.371 -48.787)" fill="#263238"/>
        <path id="Trazado_104528" data-name="Trazado 104528" d="M50.6,50.853A1.786,1.786,0,1,1,48.825,49,1.811,1.811,0,0,1,50.6,50.853Z" transform="translate(-39.458 -43.432)" fill="#fff"/>
        <path id="Trazado_104529" data-name="Trazado 104529" d="M57.832,50.853A1.786,1.786,0,1,1,56.046,49a1.811,1.811,0,0,1,1.786,1.853Z" transform="translate(-40.625 -43.432)" fill="#fff"/>
        <path id="Trazado_104530" data-name="Trazado 104530" d="M65.062,50.853A1.786,1.786,0,1,1,63.276,49a1.811,1.811,0,0,1,1.786,1.853Z" transform="translate(-41.793 -43.432)" fill="#fff"/>
        <path id="Trazado_104531" data-name="Trazado 104531" d="M225.2,167.4c0-1.426-.067-48.728-.176-124.685l.176.168L38.226,42.9h0l.218-.218V167.363l-.2-.2,134.731.1,38.481.05h.084l-38.431.05-134.865.1H38V42.36H225.392v.176C225.266,118.668,225.2,165.98,225.2,167.4Z" transform="translate(-38 -42.36)" fill="#263238"/>
      </g>
      <g id="freepik--Character--inject-2" transform="translate(48.092 66.444)">
        <path id="Trazado_104532" data-name="Trazado 104532" d="M233.786,218.64l-9.7,12.042L183.64,241.935l6.046,65.332c1.862,25.6,4.478,31.865,6.289,48.9v13.878H310.857L326.9,237.44l-39.63-9.107-8.52-9.694Z" transform="translate(-71.766 -96.947)" fill="#2e9daa"/>
        <path id="Trazado_104533" data-name="Trazado 104533" d="M241.39,244.584,246.337,310l5.291,33.207L290.462,234.84l-31.328,37.123Z" transform="translate(-81.09 -99.562)" fill="#fff"/>
        <path id="Trazado_104534" data-name="Trazado 104534" d="M252.93,347.133s.05-.109.151-.319.285-.52.486-.906L255.5,342.4c1.677-3.036,4.092-7.388,7.077-12.771l23.48-42.045,12.813-22.817.042.252-5.576-4.713-.2-.168.235-.143,7.941-4.679-.084.168c-.839-7.74-1.576-14.054-2.071-18.448-.235-2.18-.411-3.883-.545-5.031-.05-.562-.092-1.006-.126-1.325a1.481,1.481,0,0,1,0-.453,2.112,2.112,0,0,0,.075.453L298.74,232c.151,1.174.361,2.876.637,5.031.528,4.4,1.283,10.708,2.214,18.448v.109l-.092.059-7.924,4.713v-.3l5.585,4.688.134.109-.084.143-12.771,22.817-23.614,42.012-7.2,12.7c-.839,1.484-1.509,2.641-1.979,3.446l-.52.889A1.291,1.291,0,0,1,252.93,347.133Z" transform="translate(-82.953 -98.818)" fill="#263238"/>
        <path id="Trazado_104535" data-name="Trazado 104535" d="M248.261,347.58a1.6,1.6,0,0,1-.109-.3c-.075-.226-.168-.528-.285-.914-.252-.839-.6-2.013-1.057-3.53-.906-3.086-2.2-7.547-3.8-12.981s-3.53-12-5.534-19.287c-1.87-7.329-3.656-15.438-5.543-23.949-2.566-11.673-4.88-22.6-6.8-31.865v-.159l.151-.059,5.291-1.853V253l-6.44-3.413-.126-.059.05-.126,4.8-12.042,1.317-3.245.344-.839a2.674,2.674,0,0,1,.134-.277,1.675,1.675,0,0,1-.092.293c-.075.21-.176.495-.31.839-.293.771-.7,1.87-1.241,3.27l-4.662,12.092-.075-.193,6.465,3.354.352.184-.377.134-5.283,1.87.126-.21c1.962,9.224,4.293,20.125,6.859,31.865,1.887,8.5,3.656,16.62,5.509,23.941s3.9,13.811,5.442,19.287l3.664,13.031c.419,1.518.746,2.709.973,3.547l.243.922A1.86,1.86,0,0,1,248.261,347.58Z" transform="translate(-78.284 -99.265)" fill="#263238"/>
        <path id="Trazado_104536" data-name="Trazado 104536" d="M169.986,246.43s-8.889,4.335-15.161,24.268c-4.553,14.49-23.069,64.376-23.069,64.376l-20.511-5.987s-15.094,18.8-11.673,25.35,28.4,20.125,28.4,20.125h29.249a24.058,24.058,0,0,0,8.386-12.193l16.729-56.334Z" transform="translate(-58.113 -101.433)" fill="#2e9daa"/>
        <path id="Trazado_104537" data-name="Trazado 104537" d="M351.183,241.07a36.058,36.058,0,0,1,12.872,13.224c5.107,9.082,45.886,75.47,49.265,91.176,5.031,23.48-5.031,28.184-5.031,28.184H394.2l-34.884-.151-4.4-27.295,15.5-3.312-28.737-31.865-1.9,3.245-5.618-45.483Z" transform="translate(-96.067 -100.568)" fill="#2e9daa"/>
        <path id="Trazado_104538" data-name="Trazado 104538" d="M188.048,279.11c.126,0,1.166,11.279,2.323,25.207s2,25.232,1.887,25.241-1.157-11.279-2.323-25.207S187.93,279.118,188.048,279.11Z" transform="translate(-72.476 -106.709)" fill="#263238"/>
        <path id="Trazado_104539" data-name="Trazado 104539" d="M350.534,264.05c.117,0-1.493,14.1-3.589,31.446s-3.891,31.4-4.017,31.4,1.484-14.088,3.589-31.446S350.417,264.008,350.534,264.05Z" transform="translate(-97.482 -104.278)" fill="#263238"/>
        <path id="Trazado_104540" data-name="Trazado 104540" d="M364.3,392.918s.134-.176.394-.5a15.779,15.779,0,0,0,1.048-1.484,24.612,24.612,0,0,0,2.7-6.1,29.432,29.432,0,0,0,.973-4.52,21.283,21.283,0,0,0,.226-5.258,12.352,12.352,0,0,0-1.945-5.409,14.708,14.708,0,0,0-4.419-4.327l-.369-.243-.47-.252.5-.151a109.132,109.132,0,0,1,21.543-4.017c2.792-.243,5.031-.344,6.616-.394h1.8a2.792,2.792,0,0,1,.629,0,3.784,3.784,0,0,1-.629.067l-1.795.117c-1.56.1-3.815.252-6.591.528a116.773,116.773,0,0,0-21.45,4.134l.042-.4.4.235a14.992,14.992,0,0,1,4.545,4.461,12.721,12.721,0,0,1,1.987,5.593,21.567,21.567,0,0,1-.268,5.367,29.342,29.342,0,0,1-1.04,4.545,23.318,23.318,0,0,1-2.851,6.113,13.2,13.2,0,0,1-1.124,1.451A2.435,2.435,0,0,1,364.3,392.918Z" transform="translate(-100.633 -119.807)" fill="#263238"/>
        <path id="Trazado_104541" data-name="Trazado 104541" d="M253.008,394.367c-.117,0-.218-5.618-.218-12.578s.1-12.578.218-12.578.218,5.618.218,12.578S253.134,394.367,253.008,394.367Z" transform="translate(-82.93 -121.256)" fill="#263238"/>
        <path id="Trazado_104542" data-name="Trazado 104542" d="M324.379,331.123a5.757,5.757,0,0,1,0-.6c0-.411,0-.964,0-1.677,0-1.476,0-3.581-.075-6.23l.134.134-34.75.084c.092-.092-.226.218.21-.218h0v8.486l-.218-.21,24.737.092,7.329.059h2.692a6.211,6.211,0,0,1-.654,0h-1.937l-7.279.059-24.888.1h-.21v-8.713h0c.436-.436.126-.117.226-.218l34.75.092h.126v.126c0,2.683-.05,4.813-.067,6.306v1.677a4.2,4.2,0,0,1-.126.646Z" transform="translate(-88.852 -113.675)" fill="#263238"/>
        <path id="Trazado_104543" data-name="Trazado 104543" d="M187.155,270.467c-.117,0-1.258-4.822-2.516-10.826s-2.239-10.9-2.122-10.9,1.258,4.822,2.516,10.826S187.273,270.442,187.155,270.467Z" transform="translate(-71.584 -101.806)" fill="#263238"/>
        <g id="Grupo_88869" data-name="Grupo 88869" transform="translate(171.906 156.661)" opacity="0.3">
          <path id="Trazado_104544" data-name="Trazado 104544" d="M255.23,348.564l49.6-76.082-7.161-6.918,4.092-5.224-7.933,4.7,5.585,4.7Z" transform="translate(-255.23 -260.34)"/>
        </g>
        <g id="Grupo_88870" data-name="Grupo 88870" transform="translate(49.376 247.434)" opacity="0.3">
          <path id="Trazado_104545" data-name="Trazado 104545" d="M109.11,368.59v4.226l56.3.176v-4.4Z" transform="translate(-109.11 -368.59)"/>
        </g>
        <path id="Trazado_104546" data-name="Trazado 104546" d="M190.875,168.96a8.335,8.335,0,0,0,7.832-3.5c-2.021.31-4.193.6-6.021-.335s-2.851-3.614-1.426-5.031c1.115-1.149,2.952-.948,4.545-1.065a9.828,9.828,0,0,0,8.386-6.415c1.35-3.874.117-8.092-.369-12.167a33.542,33.542,0,0,1,14.021-30.918l25.5-14.742c9.224,11.84,12.134,27.79,10.214,42.682s-8.235,28.9-15.832,41.861a48.874,48.874,0,0,1-7.7,10.583c-3.128,3.036-7.1,5.425-11.455,5.87a11.807,11.807,0,0,1,1.887-10.666,25.735,25.735,0,0,1-18.96-6.792l5.459-4.193a19.949,19.949,0,0,1-16.083-5.174Z" transform="translate(-72.889 -76.952)" fill="#263238"/>
        <path id="Trazado_104547" data-name="Trazado 104547" d="M293.368,127.522c-.453-10.65-7.086-19.572-17.341-22.5l-31.941-9.132c-13.87-1.9-23.647,14.951-24.964,28.888-1.451,15.488-2.516,31.865-1.057,43.479,2.977,23.4,20.729,26.909,20.729,26.909s-.587,21.09-.771,27.89l16.26,33.995,31.538-43.487,7.648-85.742C293.485,127.413,293.418,128.058,293.368,127.522Z" transform="translate(-77.212 -77.106)" fill="#af7e69"/>
        <path id="Trazado_104548" data-name="Trazado 104548" d="M226.79,152.876a2.994,2.994,0,0,0,2.784,3.1,2.859,2.859,0,0,0,3.161-2.6,2.985,2.985,0,0,0-2.784-3.1,2.859,2.859,0,0,0-3.161,2.6Z" transform="translate(-78.732 -85.907)" fill="#263238"/>
        <path id="Trazado_104549" data-name="Trazado 104549" d="M223.312,140.8c.361.4,2.675-1.208,5.87-1.1s5.518,1.786,5.87,1.409c.176-.176-.176-.889-1.182-1.677a8.209,8.209,0,0,0-4.688-1.6,7.908,7.908,0,0,0-4.7,1.358C223.5,139.926,223.136,140.613,223.312,140.8Z" transform="translate(-78.164 -83.9)" fill="#263238"/>
        <path id="Trazado_104550" data-name="Trazado 104550" d="M259.19,152.876a2.994,2.994,0,0,0,2.784,3.1,2.859,2.859,0,0,0,3.161-2.6,2.985,2.985,0,0,0-2.784-3.1,2.868,2.868,0,0,0-3.161,2.6Z" transform="translate(-83.963 -85.907)" fill="#263238"/>
        <path id="Trazado_104551" data-name="Trazado 104551" d="M259.7,141.838c.361.4,2.675-1.208,5.87-1.1s5.518,1.786,5.87,1.409c.176-.176-.176-.889-1.182-1.677a8.167,8.167,0,0,0-4.687-1.6,7.866,7.866,0,0,0-4.7,1.358C259.886,140.965,259.526,141.653,259.7,141.838Z" transform="translate(-84.039 -84.067)" fill="#263238"/>
        <path id="Trazado_104552" data-name="Trazado 104552" d="M245.321,167.019c0-.176-1.971-.587-5.191-1.1-.839-.109-1.593-.3-1.677-.839a5.217,5.217,0,0,1,.621-2.415l2.616-6.172c3.648-8.788,6.306-16.033,5.954-16.176s-3.631,6.843-7.254,15.664l-2.516,6.214a4.759,4.759,0,0,0-.52,3.212,2.054,2.054,0,0,0,1.308,1.241,5.426,5.426,0,0,0,1.392.235C243.275,167.128,245.3,167.2,245.321,167.019Z" transform="translate(-80.418 -84.302)" fill="#263238"/>
        <path id="Trazado_104553" data-name="Trazado 104553" d="M273.98,205.48s-8.033,15.782-31.27,12.88l.151-5.476a58.615,58.615,0,0,0,31.119-7.4Z" transform="translate(-81.303 -94.822)" fill="#7c5142"/>
        <path id="Trazado_104554" data-name="Trazado 104554" d="M261.308,129.622c.293.839,3.514.57,7.27,1.14s6.767,1.677,7.3.922c.235-.369-.268-1.208-1.476-2.1a12.8,12.8,0,0,0-11.094-1.568C261.886,128.54,261.19,129.2,261.308,129.622Z" transform="translate(-84.303 -82.216)" fill="#263238"/>
        <path id="Trazado_104555" data-name="Trazado 104555" d="M224.895,129.071c.537.746,2.776.059,5.442.109s4.9.637,5.442-.109c.235-.361-.092-1.107-1.057-1.828a7.882,7.882,0,0,0-8.771,0C224.97,127.965,224.652,128.711,224.895,129.071Z" transform="translate(-78.414 -81.976)" fill="#263238"/>
        <path id="Trazado_104556" data-name="Trazado 104556" d="M259.657,179a4.193,4.193,0,0,0-4.243-3.3,4.394,4.394,0,0,0-3.438,2.3,5.4,5.4,0,0,0-.31,4.193l.059.3a4.78,4.78,0,0,0,5.342,1.3A4.478,4.478,0,0,0,259.657,179Z" transform="translate(-82.703 -90.014)" fill="#7c5142"/>
        <path id="Trazado_104557" data-name="Trazado 104557" d="M249,182.085c0-.486,3.254-.243,5.778-2.834s2.432-6.08,2.885-6.071c.21,0,.57.839.495,2.281a8.092,8.092,0,0,1-2.222,5.082,7.077,7.077,0,0,1-4.83,2.172C249.746,182.731,249,182.3,249,182.085Z" transform="translate(-82.318 -89.608)" fill="#263238"/>
        <path id="Trazado_104558" data-name="Trazado 104558" d="M280.35,86.844c-3.6-5.711-12.092-11.673-18.75-12.838-7.547-1.325-12.142,0-17.132,4.528,0,0-3.874,3.74-7.547,4.444s-6.708.109-11.01,2.331c-5.929,3.027-8.528,10.952-11.27,17.014-3.413,7.547-8.268,14.465-10.5,22.431s-1.04,17.744,5.669,22.582c-1.149-6.1-2.1-12.822.411-18.339a16,16,0,0,0,.4,6.608c1.258-3.589,2.583-7.287,5.182-10.063,2.457-2.616,5.87-4.193,8.386-6.708,3.715-3.732,5.425-9.409,9.937-12.117,4.7-2.818,10.641-1.409,16.109-1.384A30.876,30.876,0,0,0,274.3,93.787l-1.358-.117A38.4,38.4,0,0,0,280.35,86.844Z" transform="translate(-74.911 -73.517)" fill="#263238"/>
        <path id="Trazado_104559" data-name="Trazado 104559" d="M325.989,146.024c-2.088-6.851-5.761-13.115-8.05-19.9-2.239-6.608-3.161-13.668-6.13-19.974-4-8.486-11.463-19.488-23.094-18.876l-.839.7a24.888,24.888,0,0,0-11.74,1.4l-.184,9.065L273.73,100.4c.931,1.8,1.82,3.539,2.675,5.249a56.9,56.9,0,0,0,2.96,9.979,25.8,25.8,0,0,0,5.585,8.486c20.041,47.982,1.862,51.009,10.9,78.505l5.677-15.74a28.008,28.008,0,0,0,11.228-12.1l1.006,5.031a28.905,28.905,0,0,0,7.824-17.87l2.683,4.763C328.37,160.833,328.077,152.867,325.989,146.024Z" transform="translate(-86.311 -75.735)" fill="#263238"/>
        <path id="Trazado_104560" data-name="Trazado 104560" d="M295.175,155c.31-.78,14.792-5.543,14.549,9.7-.235,14.809-15.094,11.463-15.094,11.035S295.175,155,295.175,155Z" transform="translate(-89.685 -86.46)" fill="#af7e69"/>
        <path id="Trazado_104561" data-name="Trazado 104561" d="M300.187,171.158c.067-.05.252.184.688.394a2.558,2.558,0,0,0,1.92.075c1.576-.545,2.943-3,3.069-5.669a8.528,8.528,0,0,0-.654-3.706,2.968,2.968,0,0,0-1.9-2.021,1.325,1.325,0,0,0-1.534.679c-.21.411-.117.7-.193.73s-.319-.252-.185-.839a1.677,1.677,0,0,1,.6-.914,1.954,1.954,0,0,1,1.434-.352,3.614,3.614,0,0,1,2.65,2.348,8.755,8.755,0,0,1,.839,4.142c-.151,2.985-1.736,5.752-3.891,6.323a2.717,2.717,0,0,1-2.348-.436C300.2,171.519,300.128,171.183,300.187,171.158Z" transform="translate(-90.58 -87.401)" fill="#7c5142"/>
        <path id="Trazado_104562" data-name="Trazado 104562" d="M301.626,176.573a2.918,2.918,0,1,1-.7.2" transform="translate(-90.417 -90.149)" fill="#fff"/>
        <path id="Trazado_104563" data-name="Trazado 104563" d="M300.876,176.754a3.874,3.874,0,0,0-1.384,1.945,2.516,2.516,0,0,0,.512,2.34,2.591,2.591,0,0,0,4.6-1.317,2.516,2.516,0,0,0-.839-2.256,3.958,3.958,0,0,0-2.214-.914c0-.042.235-.151.7-.143a3,3,0,0,1,1.828.7,2.968,2.968,0,0,1,1.107,2.7,3.178,3.178,0,0,1-5.685,1.635,2.96,2.96,0,0,1-.495-2.876A3.044,3.044,0,0,1,300.189,177C300.65,176.745,300.868,176.712,300.876,176.754Z" transform="translate(-90.364 -90.129)" fill="#263238"/>
        <path id="Trazado_104564" data-name="Trazado 104564" d="M275.194,104.163c.293.117,1.677-4.906,5.786-9.56s8.847-6.708,8.7-7.027c-.042-.109-1.291.243-3.128,1.249A23.966,23.966,0,0,0,276.016,100.9,8.341,8.341,0,0,0,275.194,104.163Z" transform="translate(-86.543 -75.784)" fill="#455a64"/>
        <path id="Trazado_104565" data-name="Trazado 104565" d="M108.521,361.095,97.469,348.105s-7.757,0-11.631-3.69-11.052-7.17-8.142-13.761c0,0-3.488-4.075-.679-8.528l.092-1.166s-8.721-3.69-6.205-8.142,7.371-2.516,7.371-2.516-9.526-6.44-11.245-8.2c-4.6-4.713.344-7.891,5.451-5.031,8.486,4.629,37,18.071,38.951,27.765v4.193s7.941,9.736,7.941,10.314S118.793,355.082,108.521,361.095Z" transform="translate(-52.646 -109.434)" fill="#af7e69"/>
        <path id="Trazado_104566" data-name="Trazado 104566" d="M50.23,256.665C49.886,256.229,93.6,326.7,93.6,326.7l1.987,23.647h68.225l-6.331-26.918s-11.79-31.613-11.656-31.982c.26-.721-22.079-35.848-22.079-35.848Z" transform="translate(-50.228 -102.914)" fill="#fff"/>
        <path id="Trazado_104567" data-name="Trazado 104567" d="M50.23,256.634l1.342-.042,3.883-.075,14.809-.268,53.483-.839h.084l.05.084c5.87,9.224,12.276,19.287,18.935,30.188.839,1.367,1.677,2.742,2.457,4.193.2.361.4.713.579,1.09a2.156,2.156,0,0,1,.134.31.336.336,0,0,1,0,.151v.075h0v.067l.184.57.839,2.323,3.421,9.409,7.212,19.463h0c1.92,8.168,3.941,16.729,5.987,25.442.117.495.235.989.344,1.476l.067.268H95.353v-.184q-1.031-12.419-1.971-23.647v.084l-31.37-50.858-8.746-14.255c-.989-1.635-1.753-2.893-2.281-3.748-.243-.428-.436-.746-.57-.973a2.265,2.265,0,0,1-.184-.335l43.529,69.935v.084q.956,11.228,2,23.647l-.2-.184h68.225l-.21.268-.352-1.476-5.979-25.442h0q-3.681-9.945-7.2-19.471-1.736-4.771-3.413-9.409c-.277-.78-.545-1.56-.839-2.331l-.184-.6v-.075a.436.436,0,0,1,0-.151v-.076c-.151-.067.226.05.134,0a.269.269,0,0,0-.117,0h0a1.527,1.527,0,0,0-.109-.252c-.168-.352-.369-.713-.562-1.065-.8-1.409-1.627-2.784-2.449-4.193-6.65-10.9-13.056-21.023-18.884-30.247l.151.084-53.609.788-14.784.168H51.513C50.674,256.651,50.23,256.634,50.23,256.634Z" transform="translate(-50.228 -102.883)" fill="#263238"/>
        <path id="Trazado_104568" data-name="Trazado 104568" d="M145.473,300.229h-2.356l-6.423-.126c-5.417-.117-12.9-.327-21.165-.461s-15.756-.117-21.165.059c-2.709.067-4.9.184-6.407.268l-1.744.1a4.854,4.854,0,0,1-.612,0,2.762,2.762,0,0,1,.6-.092l1.736-.184c1.509-.143,3.7-.3,6.415-.411,5.417-.252,12.905-.31,21.182-.184s15.756.386,21.165.6l6.415.26,1.744.084a2.725,2.725,0,0,1,.612.092Z" transform="translate(-55.938 -109.942)" fill="#263238"/>
        <path id="Trazado_104569" data-name="Trazado 104569" d="M158.711,336.869c0,.117-9.669-.931-21.551-2.356s-21.517-2.667-21.5-2.784,9.66.931,21.551,2.356S158.711,336.751,158.711,336.869Z" transform="translate(-60.791 -115.203)" fill="#263238"/>
        <path id="Trazado_104570" data-name="Trazado 104570" d="M92,341.557l12.763-.839c1.342-.084,2.818-.226,3.757-1.191,1.157-1.208.587-3.933-.88-4.738l-14.624-3.53" transform="translate(-56.972 -115.129)" fill="#af7e69"/>
        <path id="Trazado_104571" data-name="Trazado 104571" d="M93,331.29a7.641,7.641,0,0,1,1.132.193l3.086.679,10.457,2.449h.059a3.052,3.052,0,0,1,1.224,1.417,4.117,4.117,0,0,1,.377,1.862,2.65,2.65,0,0,1-.755,1.87,3.7,3.7,0,0,1-1.677.906,20.4,20.4,0,0,1-3.514.361l-5.92.327-3.983.184a8.935,8.935,0,0,1-1.467,0,9.969,9.969,0,0,1,1.451-.176l3.983-.319,5.87-.428a21.115,21.115,0,0,0,3.438-.369,3.413,3.413,0,0,0,1.518-.839,2.222,2.222,0,0,0,.621-1.576,3.287,3.287,0,0,0-1.375-2.885h.05l-10.423-2.591-3.052-.839a5.872,5.872,0,0,1-1.1-.226Z" transform="translate(-56.975 -115.134)" fill="#7c5142"/>
        <path id="Trazado_104572" data-name="Trazado 104572" d="M96.824,325.83a62.663,62.663,0,0,1,11.346,3.195,2.516,2.516,0,0,1,1.677,2.927,2.046,2.046,0,0,1-.839,1.56,4.05,4.05,0,0,1-1.795.495,45.8,45.8,0,0,1-10.851-.662c-3.656-.512-8.721,0-10.843,1.124" transform="translate(-55.925 -114.252)" fill="#af7e69"/>
        <path id="Trazado_104573" data-name="Trazado 104573" d="M85.55,334.464a2.5,2.5,0,0,1,.361-.218,8.4,8.4,0,0,1,1.124-.436,20.65,20.65,0,0,1,4.36-.755A27.771,27.771,0,0,1,94.455,333a33.673,33.673,0,0,1,3.488.352,45.773,45.773,0,0,0,7.933.528,17.8,17.8,0,0,0,2.054-.184,1.962,1.962,0,0,0,1.5-.948,2.607,2.607,0,0,0-.679-3.212,8.329,8.329,0,0,0-1.6-.7l-1.593-.562c-1.031-.361-2-.671-2.885-.931-1.778-.537-3.237-.889-4.251-1.132a14.962,14.962,0,0,1-1.568-.386,1.566,1.566,0,0,1,.419,0,9.066,9.066,0,0,1,1.191.193c1.023.185,2.516.495,4.293.99.9.252,1.878.545,2.918.889l1.61.545a8.773,8.773,0,0,1,1.677.721,2.516,2.516,0,0,1,1.082,1.677,3.6,3.6,0,0,1-.243,2.063,1.853,1.853,0,0,1-.771.839A3.353,3.353,0,0,1,108,334.1a16.5,16.5,0,0,1-2.122.2,44.585,44.585,0,0,1-8.008-.562,34.242,34.242,0,0,0-3.446-.394,27.871,27.871,0,0,0-3.027,0,23.477,23.477,0,0,0-4.327.6C86.078,334.23,85.567,334.5,85.55,334.464Z" transform="translate(-55.93 -114.249)" fill="#7c5142"/>
        <path id="Trazado_104574" data-name="Trazado 104574" d="M81.265,313.22l10.063,5.61a10.246,10.246,0,0,1,4.017,3.245c.914,1.484.839,3.723-.629,4.671-1.14.755-2.65.47-3.975.134a98.481,98.481,0,0,1-11.061-3.513" transform="translate(-54.983 -112.216)" fill="#af7e69"/>
        <path id="Trazado_104575" data-name="Trazado 104575" d="M79.68,323.366a9.679,9.679,0,0,1,1.409.436c.906.3,2.205.746,3.832,1.249s3.572,1.057,5.752,1.6a6.256,6.256,0,0,0,3.354.193,2.331,2.331,0,0,0,1.3-1.065,3.178,3.178,0,0,0,.386-1.727,4.453,4.453,0,0,0-1.618-3.128,15.848,15.848,0,0,0-2.893-1.937L86,316.038l-3.488-2.029a9.716,9.716,0,0,1-1.249-.788,8.217,8.217,0,0,1,1.333.646l3.555,1.9,5.241,2.868a15.68,15.68,0,0,1,2.985,1.945,5.921,5.921,0,0,1,1.224,1.493A4.377,4.377,0,0,1,96.149,324a3.631,3.631,0,0,1-.444,1.971,2.776,2.776,0,0,1-1.5,1.317,6.549,6.549,0,0,1-3.6-.2c-2.18-.57-4.126-1.166-5.744-1.677s-2.91-1.031-3.8-1.384l-1.015-.419a1.324,1.324,0,0,1-.369-.243Z" transform="translate(-54.983 -112.216)" fill="#7c5142"/>
        <path id="Trazado_104576" data-name="Trazado 104576" d="M362.139,391.531l-4.78-1.358-15.178-1.417-4.251-5.643,2.96-12.193,18.993-4.52C368.638,372.639,366.265,383.037,362.139,391.531Z" transform="translate(-96.676 -120.802)" fill="#af7e69"/>
        <path id="Trazado_104577" data-name="Trazado 104577" d="M312.088,359.85a13.115,13.115,0,0,0-5.333.419,7.086,7.086,0,0,0-4.193,5.534c-.495,3.908-.646,7.077-.922,10.717a3.4,3.4,0,0,0,.989,2.574c1.2,1.224,3.354.839,4.6-.369a11.387,11.387,0,0,0,2.381-4.478c.6-1.6,1.224-5.434,2.155-5.769,2.65-.956,6.247,3.6,8.235,1.367l3.614-8.8C317.991,360.5,317.681,360.395,312.088,359.85Z" transform="translate(-90.816 -119.727)" fill="#af7e69"/>
        <path id="Trazado_104578" data-name="Trazado 104578" d="M312.048,359.829h.8l2.289.193,8.386.839h.218l-.084.2-3.572,8.822h0a2.055,2.055,0,0,1-1.736.679,5.653,5.653,0,0,1-1.786-.537,19.747,19.747,0,0,0-3.354-1.476l-.453-.067h-.444a3.853,3.853,0,0,0-.428.084c-.151,0-.184.092-.293.2a5.872,5.872,0,0,0-.746,1.719c-.394,1.258-.646,2.583-1.124,3.9a16.051,16.051,0,0,1-1.551,3.413,5.333,5.333,0,0,1-1.3,1.375,4.327,4.327,0,0,1-1.719.721,3.354,3.354,0,0,1-1.845-.159,3.018,3.018,0,0,1-1.367-1.216,3.522,3.522,0,0,1-.553-1.677c0-.612.067-1.124.1-1.677.159-2.163.3-4.193.495-6.155.092-.956.193-1.887.3-2.776a7.548,7.548,0,0,1,.663-2.516,6.767,6.767,0,0,1,6.272-4.084,15.938,15.938,0,0,1,2.13.042l.545.059.184.042a7,7,0,0,1-.738,0,17.245,17.245,0,0,0-2.1.042,7.127,7.127,0,0,0-3.161.839,7.035,7.035,0,0,0-2.851,3.187,7.345,7.345,0,0,0-.6,2.44c-.1.889-.193,1.82-.277,2.776-.176,1.929-.3,3.983-.453,6.155,0,.528-.109,1.115-.092,1.618a3.136,3.136,0,0,0,.5,1.484,2.515,2.515,0,0,0,1.166,1.04,2.9,2.9,0,0,0,1.61.134,4.193,4.193,0,0,0,2.734-1.92,15.135,15.135,0,0,0,1.5-3.354c.461-1.266.721-2.6,1.115-3.874a6,6,0,0,1,.839-1.87.838.838,0,0,1,.218-.21.73.73,0,0,1,.277-.126,3.788,3.788,0,0,1,.52-.1h.52l.5.084a18.849,18.849,0,0,1,3.463,1.509,5.174,5.174,0,0,0,1.677.512,1.677,1.677,0,0,0,1.409-.537l-.042.059c1.358-3.262,2.591-6.239,3.648-8.788l.134.218c-3.555-.361-6.423-.721-8.386-.948l-2.281-.277-.6-.084A.57.57,0,0,1,312.048,359.829Z" transform="translate(-90.777 -119.707)" fill="#7c5142"/>
        <path id="Trazado_104579" data-name="Trazado 104579" d="M345.138,360.288s-1.887-.587-4.428,1.275c0,0-.956-4.193-4.3-5.031-2.432-.6-5.526,1.9-5.526,1.9s-2.1-4.193-7.69-2.449c-4.62,1.451-14.331,30.146-15.161,32.066-.956,2.205,2.969,4.964,5.132,2.742s9.895-15.094,9.895-15.094l-5.073,17.878a3.479,3.479,0,0,0,.059,1.769,3.727,3.727,0,0,0,6.65.528c3.153-4.268,6.356-13.048,6.356-13.048l3.094-6.708s-5.778,17.861-3.673,19.488,4.788,1,6.708-3.195,8.914-17.484,8.914-17.484l3.354-1.744-1.224,4.193s-6.356,3.354-4.931,6.289,4.436,2.1,7.379.7,5.509-8.293,7.077-11.128c1.409-2.516,1.543-10-4.486-10.289a4.612,4.612,0,0,0-3.455,1.375l-.3.3S348.483,360.884,345.138,360.288Z" transform="translate(-91.825 -119.051)" fill="#af7e69"/>
        <path id="Trazado_104580" data-name="Trazado 104580" d="M345.106,360.262l.4.084a2.791,2.791,0,0,1,.486.151,3.486,3.486,0,0,1,.646.294,6.474,6.474,0,0,1,2.859,3.774h-.109a4.905,4.905,0,0,1,3.086-1.677,5.618,5.618,0,0,1,4.1,1.249,6.75,6.75,0,0,1,1.987,4.6,10.647,10.647,0,0,1-.176,2.809,7.369,7.369,0,0,1-.444,1.426c-.21.47-.461.88-.679,1.342-.889,1.82-1.753,3.79-2.851,5.761a19.011,19.011,0,0,1-1.929,2.885,6.448,6.448,0,0,1-1.325,1.241,9.822,9.822,0,0,1-1.677.839,7.974,7.974,0,0,1-3.706.763,3.1,3.1,0,0,1-1.82-.839,3.85,3.85,0,0,1-.646-.78l-.252-.444-.168-.5a2.868,2.868,0,0,1,.411-2.029,7.094,7.094,0,0,1,1.325-1.593,17.207,17.207,0,0,1,3.421-2.415l-.092.109,1.224-4.193.26.21c-1.015.545-2.163,1.149-3.354,1.753l.084-.075q-2.516,4.8-5.14,9.92l-2.633,5.224-1.249,2.65a9.451,9.451,0,0,1-1.753,2.516,4,4,0,0,1-2.885,1.249,3.648,3.648,0,0,1-1.568-.453,4.35,4.35,0,0,1-.679-.453,1.451,1.451,0,0,1-.4-.8,10.5,10.5,0,0,1,.059-3.2c.143-1.048.335-2.088.553-3.136.9-4.193,2.1-8.335,3.421-12.578l.4.159-3.086,6.708h0c-.7,1.9-1.526,3.9-2.423,5.87-.662,1.467-1.367,2.91-2.138,4.31-.386.7-.8,1.384-1.233,2.054a8.186,8.186,0,0,1-1.535,1.945,3.782,3.782,0,0,1-2.281.88,4.126,4.126,0,0,1-2.34-.7,3.48,3.48,0,0,1-1.484-1.92,3.765,3.765,0,0,1-.1-1.224,6,6,0,0,1,.268-1.157q2.516-8.88,4.9-17.249l.377.168q-2.9,4.83-5.828,9.367c-.981,1.5-1.962,2.985-3.01,4.4a6.549,6.549,0,0,1-1.878,1.9,3.144,3.144,0,0,1-2.65,0,3.782,3.782,0,0,1-1.937-1.761,2.415,2.415,0,0,1-.21-1.333c.126-.47.293-.839.428-1.208l1.677-4.578c1.107-3.01,2.205-5.87,3.354-8.671s2.214-5.417,3.354-7.908a62.127,62.127,0,0,1,3.614-6.96,11.16,11.16,0,0,1,2.306-2.826,2.659,2.659,0,0,1,.839-.428l.839-.218a8.216,8.216,0,0,1,1.677-.176,5.87,5.87,0,0,1,5.216,2.935h-.168a10.44,10.44,0,0,1,3.664-1.853,4.05,4.05,0,0,1,1.845-.059,4.569,4.569,0,0,1,1.568.679,6.28,6.28,0,0,1,1.9,2.163,9.124,9.124,0,0,1,.9,2.231h-.084a6.532,6.532,0,0,1,3.354-1.325,2.977,2.977,0,0,1,1.14.1h-.277a4.005,4.005,0,0,0-.839,0,6.709,6.709,0,0,0-3.254,1.358l-.067.05v-.084a9.277,9.277,0,0,0-.906-2.189,6.28,6.28,0,0,0-1.945-2.13,4.5,4.5,0,0,0-1.509-.637,3.975,3.975,0,0,0-1.769.076,10.063,10.063,0,0,0-3.564,1.836l-.109.075-.059-.117a5.685,5.685,0,0,0-5.031-2.784,8.495,8.495,0,0,0-1.635.184l-.839.21a2.3,2.3,0,0,0-.713.394,10.9,10.9,0,0,0-2.231,2.759A62.3,62.3,0,0,0,316.8,366.2q-1.677,3.748-3.354,7.908t-3.3,8.629c-.553,1.5-1.107,3.036-1.677,4.587-.134.377-.319.8-.4,1.14a2.038,2.038,0,0,0,.176,1.107,3.438,3.438,0,0,0,1.744,1.568,2.742,2.742,0,0,0,2.323,0,6.1,6.1,0,0,0,1.736-1.786c1.031-1.409,2.013-2.885,2.994-4.386q2.918-4.528,5.8-9.367l.839-1.342-.428,1.509c-1.577,5.56-3.212,11.32-4.88,17.241a4.9,4.9,0,0,0-.252,1.082,3.136,3.136,0,0,0,.084,1.082,3.053,3.053,0,0,0,1.308,1.677,3.79,3.79,0,0,0,2.08.637,3.463,3.463,0,0,0,2.029-.8,7.707,7.707,0,0,0,1.459-1.761c.428-.662.839-1.342,1.216-2.029.763-1.384,1.459-2.818,2.122-4.277.889-1.979,1.677-3.983,2.415-5.87h0l3.094-6.708.4.159c-1.317,4.193-2.516,8.386-3.413,12.5-.218,1.031-.411,2.071-.553,3.1a10.342,10.342,0,0,0-.067,3.044,1.1,1.1,0,0,0,.268.579,3.435,3.435,0,0,0,.6.4,3.136,3.136,0,0,0,1.384.4,3.564,3.564,0,0,0,2.574-1.132c1.426-1.384,2.054-3.354,2.977-5.107l2.65-5.224c1.769-3.413,3.5-6.708,5.157-9.912v-.05h.05l3.354-1.744.386-.2-.126.419-1.224,4.193v.075h-.067a16.773,16.773,0,0,0-3.354,2.356,6.768,6.768,0,0,0-1.266,1.509,2.516,2.516,0,0,0-.369,1.778,3.069,3.069,0,0,0,2.591,2.289,7.756,7.756,0,0,0,3.547-.738,10.57,10.57,0,0,0,1.61-.771,6.774,6.774,0,0,0,1.266-1.182,18.818,18.818,0,0,0,1.9-2.834c1.1-1.945,1.962-3.908,2.868-5.736.218-.453.486-.9.679-1.333a6.654,6.654,0,0,0,.436-1.367,10.163,10.163,0,0,0,.184-2.742,6.524,6.524,0,0,0-1.887-4.469,5.467,5.467,0,0,0-3.941-1.233,4.855,4.855,0,0,0-3.019,1.61l-.075.092v-.117a6.44,6.44,0,0,0-2.767-3.748,6.769,6.769,0,0,0-1.585-.654Z" transform="translate(-91.793 -119.024)" fill="#7c5142"/>
        <path id="Trazado_104581" data-name="Trazado 104581" d="M342.173,369.64a20.746,20.746,0,0,1-1.6,5.593c-.579,1.5-1.149,2.834-1.568,3.8a7.362,7.362,0,0,1-.763,1.526,37.085,37.085,0,0,1,1.929-5.484c.579-1.484,1.073-2.843,1.409-3.832A9.226,9.226,0,0,1,342.173,369.64Z" transform="translate(-96.726 -121.325)" fill="#7c5142"/>
        <path id="Trazado_104582" data-name="Trazado 104582" d="M330.246,367.5c.117.059-.948,2.4-2.13,5.35a35.544,35.544,0,0,1-2.306,5.283,6.64,6.64,0,0,1,.478-1.627c.344-.981.839-2.34,1.426-3.815s1.2-2.8,1.677-3.732a6.382,6.382,0,0,1,.855-1.459Z" transform="translate(-94.719 -120.98)" fill="#7c5142"/>
      </g>
    </g>
  </g>
</svg>
