<svg xmlns="http://www.w3.org/2000/svg" width="400" height="336.121" viewBox="0 0 400 336.121">
  <g id="Grupo_90433" data-name="Grupo 90433" transform="translate(-180 -1715.879)">
    <g id="Rectángulo_35028" data-name="Rectángulo 35028" transform="translate(180 1820)" fill="#3b4454" stroke="#707070" stroke-width="1">
      <rect width="400" height="232" rx="16" stroke="none"/>
      <rect x="0.5" y="0.5" width="399" height="231" rx="15.5" fill="none"/>
    </g>
    <g id="Grupo_88412" data-name="Grupo 88412" transform="translate(-422.493 718)">
      <rect id="Rectángulo_33009" data-name="Rectángulo 33009" width="130.825" height="130.825" rx="22" transform="translate(707.493 1092.508) rotate(-45)" fill="#fff" stroke="#3b4453" stroke-width="3"/>
      <g id="Grupo_87633" data-name="Grupo 87633" transform="translate(578.521 754.365)">
        <path id="Trazado_100913" data-name="Trazado 100913" d="M340.513,555.062c-4.159-2.619-10.649,1.2-12.774,2.6l-21.885,10.946a2.779,2.779,0,1,0,2.486,4.972l22.041-11.019a3.03,3.03,0,0,0,.306-.18c2.733-1.826,6-2.949,6.838-2.624a5,5,0,0,1,.063,2.671c-1.071,7.395-21.692,17.086-35.338,23.5-4.565,2.147-8.875,4.169-12.425,6.032-4.626,2.418-22.719-1.344-34.09-4.792a2.774,2.774,0,0,0-2.808.733l-9.918,10.286a2.779,2.779,0,0,0,4,3.858l8.747-9.071c7.357,2.137,29.036,7.9,36.649,3.907,3.442-1.8,7.7-3.8,12.21-5.925,17.331-8.144,36.972-17.376,38.475-27.727C343.669,559.249,342.8,556.5,340.513,555.062Z" transform="translate(-65.54 -213.856)" fill="#3b4454"/>
        <path id="Trazado_100914" data-name="Trazado 100914" d="M465.215,409.98a13.59,13.59,0,1,0,13.591,13.589A13.588,13.588,0,0,0,465.215,409.98ZM471.045,421h-.465a8.674,8.674,0,0,0-2.013-1.484,4.984,4.984,0,0,0-2.392-.583,4.1,4.1,0,0,0-3.911,2.741h3.126l-.51,1.412h-2.931c-.016.154-.028.318-.04.489s-.015.344-.015.51c0,.147,0,.293.012.438s.018.283.03.414h2.257l-.51,1.409h-1.46a4.17,4.17,0,0,0,1.474,2.079,4.029,4.029,0,0,0,2.5.779,5.4,5.4,0,0,0,2.462-.576,6.475,6.475,0,0,0,1.965-1.489h.422V430.9a14.962,14.962,0,0,1-2.729,1.056,11.237,11.237,0,0,1-2.77.3,7.976,7.976,0,0,1-5.077-1.557,7.168,7.168,0,0,1-2.56-4.352h-1.3l.5-1.409h.611c-.007-.138-.017-.281-.022-.426s-.011-.288-.011-.435c0-.166,0-.335.011-.5s.019-.325.03-.489h-1.122l.5-1.412h.831a7.215,7.215,0,0,1,2.594-4.244,7.9,7.9,0,0,1,5.02-1.547,11.636,11.636,0,0,1,2.974.337,13.456,13.456,0,0,1,2.518.969Z" transform="translate(-238.172 -94.984)" fill="#3b4454"/>
        <path id="Trazado_100915" data-name="Trazado 100915" d="M636.068,337.137v-1.611a2.028,2.028,0,0,0-.829.229.622.622,0,0,0-.365.562.6.6,0,0,0,.238.506A2.464,2.464,0,0,0,636.068,337.137Z" transform="translate(-389.249 -33.602)" fill="#3b4454"/>
        <path id="Trazado_100916" data-name="Trazado 100916" d="M222.638,596.273c1.98.66,3.693,1.231,5.019,1.566a3.782,3.782,0,0,1,1.022.386,4.447,4.447,0,0,1-3.225,1.348c-5.229.295-11.047-.335-20.616-1.676a2.781,2.781,0,0,0-.774,5.508c8.483,1.189,15.466,2.069,21.7,1.721,4.549-.26,8.229-3.074,8.557-6.552.214-2.266-1.069-5.068-5.317-6.133-1.117-.278-2.733-.819-4.6-1.444-7.918-2.645-19.881-6.643-28.673-3.224-10,3.891-30.729,15.843-31.607,16.346a2.781,2.781,0,0,0,2.781,4.817c.212-.124,21.235-12.245,30.84-15.981C204.663,590.264,215.917,594.026,222.638,596.273Z" transform="translate(0 -240.474)" fill="#3b4454"/>
        <path id="Trazado_100917" data-name="Trazado 100917" d="M596.047,294.768a10.285,10.285,0,1,0,10.286,10.286A10.284,10.284,0,0,0,596.047,294.768Zm3.249,13.7a4.394,4.394,0,0,1-2.623.953v2.523h-1.207v-2.481a10.977,10.977,0,0,1-1.8-.19,6.465,6.465,0,0,1-1.6-.449V306.8h.313a6.171,6.171,0,0,0,1.469.56,10.262,10.262,0,0,0,1.65.271v-1.91l-.673-.15a9.556,9.556,0,0,1-1.176-.344,3.142,3.142,0,0,1-.928-.51,2.188,2.188,0,0,1-.6-.787,2.774,2.774,0,0,1-.215-1.159,2.183,2.183,0,0,1,.944-1.767,4.912,4.912,0,0,1,2.617-.89V298.5h1.207v1.6a11.043,11.043,0,0,1,1.5.18,6.409,6.409,0,0,1,1.355.354v1.992h-.305a5.2,5.2,0,0,0-1.151-.471,6.454,6.454,0,0,0-1.4-.232v1.763l.556.11a5.142,5.142,0,0,1,2.314.927,2.145,2.145,0,0,1,.741,1.732A2.557,2.557,0,0,1,599.3,308.467Z" transform="translate(-348.76)" fill="#3b4454"/>
        <path id="Trazado_100918" data-name="Trazado 100918" d="M648.872,358.874a.649.649,0,0,0-.372-.6,2.383,2.383,0,0,0-.745-.253v1.728a2,2,0,0,0,.789-.269A.674.674,0,0,0,648.872,358.874Z" transform="translate(-399.868 -52.147)" fill="#3b4454"/>
      </g>
    </g>
    <rect id="Rectángulo_35029" data-name="Rectángulo 35029" width="234" height="68" transform="translate(265 1952)" fill="#fff"/>
    <path id="Trazado_112883" data-name="Trazado 112883" d="M4.254,0H1.178V-12.8H4.254ZM8.982-9.51l.1,1.116a3.225,3.225,0,0,1,2.716-1.292,2.713,2.713,0,0,1,2.219.888,4.226,4.226,0,0,1,.76,2.672V0H11.8V-6a1.6,1.6,0,0,0-.29-1.059A1.342,1.342,0,0,0,10.459-7.4a1.413,1.413,0,0,0-1.292.686V0H6.205V-9.51Zm7.084,4.685a6.421,6.421,0,0,1,.475-2.549A3.821,3.821,0,0,1,17.9-9.083a3.591,3.591,0,0,1,2.065-.6,2.855,2.855,0,0,1,2.32,1l.105-.826h2.689V-.36A4.009,4.009,0,0,1,24.5,1.824a3.75,3.75,0,0,1-1.692,1.424,6.219,6.219,0,0,1-2.566.5,5.365,5.365,0,0,1-2.026-.4,3.657,3.657,0,0,1-1.5-1.028L17.956.58a2.716,2.716,0,0,0,2.18.976A1.764,1.764,0,0,0,22.1-.466v-.3a2.781,2.781,0,0,1-2.153.94,3.437,3.437,0,0,1-2.812-1.332A5.517,5.517,0,0,1,16.066-4.72Zm2.971.185a3.383,3.383,0,0,0,.439,1.85,1.386,1.386,0,0,0,1.23.681,1.573,1.573,0,0,0,1.4-.642v-4a1.534,1.534,0,0,0-1.38-.65,1.4,1.4,0,0,0-1.239.708A3.858,3.858,0,0,0,19.037-4.641ZM32.52-6.829l-.976-.07a1.752,1.752,0,0,0-1.793.879V0H26.789V-9.51h2.777l.1,1.222a2.294,2.294,0,0,1,2.083-1.4,2.888,2.888,0,0,1,.826.105Zm5.5,7a4.889,4.889,0,0,1-3.542-1.305,4.507,4.507,0,0,1-1.354-3.4v-.246a5.84,5.84,0,0,1,.541-2.575,3.955,3.955,0,0,1,1.578-1.727,4.763,4.763,0,0,1,2.461-.611,4.117,4.117,0,0,1,3.164,1.244,4.887,4.887,0,0,1,1.16,3.467v1.151H36.141a2.135,2.135,0,0,0,.694,1.257,2.066,2.066,0,0,0,1.389.457,2.662,2.662,0,0,0,2.2-.984l1.354,1.6A3.784,3.784,0,0,1,40.206-.277,5.3,5.3,0,0,1,38.021.176ZM37.688-7.4q-1.3,0-1.547,1.723h2.988v-.229a1.467,1.467,0,0,0-.36-1.1A1.434,1.434,0,0,0,37.688-7.4ZM48.2-2.672a.684.684,0,0,0-.4-.606,6.016,6.016,0,0,0-1.5-.475A6.853,6.853,0,0,1,44.473-4.4a3.062,3.062,0,0,1-1.1-.971A2.319,2.319,0,0,1,43-6.68a2.628,2.628,0,0,1,1.081-2.158,4.453,4.453,0,0,1,2.83-.848,4.934,4.934,0,0,1,3.023.853,2.666,2.666,0,0,1,1.143,2.241H48.1q0-1.143-1.2-1.143a1.194,1.194,0,0,0-.782.259.8.8,0,0,0-.316.646.737.737,0,0,0,.387.642,3.654,3.654,0,0,0,1.235.4,10.671,10.671,0,0,1,1.49.378A2.706,2.706,0,0,1,51.056-2.76,2.491,2.491,0,0,1,49.9-.642a5.068,5.068,0,0,1-2.993.817,5.172,5.172,0,0,1-2.18-.439,3.645,3.645,0,0,1-1.494-1.2A2.707,2.707,0,0,1,42.7-3.05h2.769a1.145,1.145,0,0,0,.439.962,1.808,1.808,0,0,0,1.081.3,1.422,1.422,0,0,0,.91-.246A.787.787,0,0,0,48.2-2.672Zm3.867-2.171a5.613,5.613,0,0,1,.554-2.536,3.96,3.96,0,0,1,1.591-1.709,4.791,4.791,0,0,1,2.435-.6,4.373,4.373,0,0,1,3.366,1.323,5.076,5.076,0,0,1,1.23,3.6v.105a4.925,4.925,0,0,1-1.235,3.529A4.384,4.384,0,0,1,56.663.176,4.434,4.434,0,0,1,53.4-1.042a4.761,4.761,0,0,1-1.327-3.3Zm2.962.185a3.538,3.538,0,0,0,.413,1.934,1.376,1.376,0,0,0,1.222.615q1.582,0,1.617-2.435v-.3q0-2.558-1.635-2.558-1.485,0-1.608,2.206Zm12.5,1.986a.684.684,0,0,0-.4-.606,6.016,6.016,0,0,0-1.5-.475A6.853,6.853,0,0,1,63.8-4.4a3.062,3.062,0,0,1-1.1-.971,2.319,2.319,0,0,1-.378-1.31A2.628,2.628,0,0,1,63.4-8.837a4.453,4.453,0,0,1,2.83-.848,4.934,4.934,0,0,1,3.023.853A2.666,2.666,0,0,1,70.4-6.592H67.43q0-1.143-1.2-1.143a1.194,1.194,0,0,0-.782.259.8.8,0,0,0-.316.646.737.737,0,0,0,.387.642,3.654,3.654,0,0,0,1.235.4,10.671,10.671,0,0,1,1.49.378A2.706,2.706,0,0,1,70.383-2.76,2.491,2.491,0,0,1,69.227-.642a5.068,5.068,0,0,1-2.993.817,5.172,5.172,0,0,1-2.18-.439,3.645,3.645,0,0,1-1.494-1.2,2.707,2.707,0,0,1-.536-1.591h2.769a1.145,1.145,0,0,0,.439.962,1.808,1.808,0,0,0,1.081.3,1.422,1.422,0,0,0,.91-.246A.787.787,0,0,0,67.526-2.672Z" transform="translate(351 1929)" fill="#fff"/>
    <path id="Trazado_112884" data-name="Trazado 112884" d="M6.688-2.93a1.626,1.626,0,0,0-.5-1.211,4.508,4.508,0,0,0-1.7-.891A5.447,5.447,0,0,1,2.059-6.355,2.921,2.921,0,0,1,1.3-8.43a3,3,0,0,1,.746-2.1,3.17,3.17,0,0,1,2.051-.977v-1.711H5.258V-11.5A3.011,3.011,0,0,1,7.3-10.4a3.959,3.959,0,0,1,.73,2.523H6.594A2.721,2.721,0,0,0,6.07-9.631a1.72,1.72,0,0,0-1.414-.651A1.951,1.951,0,0,0,3.234-9.8a1.791,1.791,0,0,0-.492,1.342,1.636,1.636,0,0,0,.52,1.272,4.786,4.786,0,0,0,1.711.861,7.2,7.2,0,0,1,1.859.852,2.991,2.991,0,0,1,.984,1.082,3.128,3.128,0,0,1,.316,1.445A2.9,2.9,0,0,1,7.34-.82,3.516,3.516,0,0,1,5.117.133V1.625H3.961V.133A3.369,3.369,0,0,1,1.684-.9,3.493,3.493,0,0,1,.859-3.352H2.3a2.3,2.3,0,0,0,.57,1.672,2.153,2.153,0,0,0,1.617.586A2.426,2.426,0,0,0,6.1-1.586,1.662,1.662,0,0,0,6.688-2.93Zm5.344-3.461h1.086a2.387,2.387,0,0,0,1.609-.539,1.8,1.8,0,0,0,.586-1.414,1.764,1.764,0,0,0-1.992-2,2.072,2.072,0,0,0-1.5.535,1.873,1.873,0,0,0-.559,1.418H9.82a2.9,2.9,0,0,1,.988-2.246,3.6,3.6,0,0,1,2.512-.895,3.558,3.558,0,0,1,2.523.852,3.076,3.076,0,0,1,.914,2.367,2.5,2.5,0,0,1-.48,1.438,2.9,2.9,0,0,1-1.309,1.039,2.8,2.8,0,0,1,1.449.984,2.734,2.734,0,0,1,.512,1.68,3.1,3.1,0,0,1-1,2.43,3.745,3.745,0,0,1-2.6.9,3.844,3.844,0,0,1-2.605-.867A2.877,2.877,0,0,1,9.719-3h1.453a1.859,1.859,0,0,0,.586,1.438,2.229,2.229,0,0,0,1.57.539,2.187,2.187,0,0,0,1.6-.547,2.108,2.108,0,0,0,.555-1.57,1.912,1.912,0,0,0-.609-1.523,2.655,2.655,0,0,0-1.758-.547H12.031ZM19.094-.758a.905.905,0,0,1,.223-.625.848.848,0,0,1,.668-.25.874.874,0,0,1,.676.25.887.887,0,0,1,.23.625.839.839,0,0,1-.23.6.89.89,0,0,1-.676.242.863.863,0,0,1-.668-.242A.855.855,0,0,1,19.094-.758Zm4.7-4.945.578-5.672H30.2v1.336h-4.6l-.344,3.1a3.671,3.671,0,0,1,1.9-.492A3.138,3.138,0,0,1,29.617-6.4a4.026,4.026,0,0,1,.914,2.777,3.886,3.886,0,0,1-.949,2.77A3.46,3.46,0,0,1,26.93.156,3.6,3.6,0,0,1,24.469-.68a3.337,3.337,0,0,1-1.086-2.312H24.75a2.3,2.3,0,0,0,.7,1.473,2.162,2.162,0,0,0,1.484.5,1.95,1.95,0,0,0,1.582-.687,2.874,2.874,0,0,0,.574-1.9,2.638,2.638,0,0,0-.621-1.832,2.113,2.113,0,0,0-1.652-.691,2.383,2.383,0,0,0-1.484.414l-.383.313Zm15.453.852a6.61,6.61,0,0,1-.867,3.773A3.084,3.084,0,0,1,35.664.156a3.107,3.107,0,0,1-2.7-1.207,6.274,6.274,0,0,1-.906-3.605v-1.93a6.463,6.463,0,0,1,.867-3.727,3.108,3.108,0,0,1,2.719-1.219,3.136,3.136,0,0,1,2.7,1.176,6.237,6.237,0,0,1,.891,3.629ZM37.8-6.828A5.3,5.3,0,0,0,37.281-9.5a1.775,1.775,0,0,0-1.633-.84,1.751,1.751,0,0,0-1.617.836,5.171,5.171,0,0,0-.523,2.57v2.313A5.381,5.381,0,0,0,34.043-1.9a1.771,1.771,0,0,0,1.621.879,1.747,1.747,0,0,0,1.59-.828A5.186,5.186,0,0,0,37.8-4.461Zm10.43,1.977a6.61,6.61,0,0,1-.867,3.773A3.084,3.084,0,0,1,44.648.156a3.107,3.107,0,0,1-2.7-1.207,6.274,6.274,0,0,1-.906-3.605v-1.93a6.463,6.463,0,0,1,.867-3.727,3.108,3.108,0,0,1,2.719-1.219,3.136,3.136,0,0,1,2.7,1.176,6.237,6.237,0,0,1,.891,3.629ZM46.781-6.828A5.3,5.3,0,0,0,46.266-9.5a1.775,1.775,0,0,0-1.633-.84,1.751,1.751,0,0,0-1.617.836,5.171,5.171,0,0,0-.523,2.57v2.313A5.381,5.381,0,0,0,43.027-1.9a1.771,1.771,0,0,0,1.621.879,1.747,1.747,0,0,0,1.59-.828,5.186,5.186,0,0,0,.543-2.609Zm3.477,6.07a.905.905,0,0,1,.223-.625.848.848,0,0,1,.668-.25.874.874,0,0,1,.676.25.887.887,0,0,1,.23.625.839.839,0,0,1-.23.6.89.89,0,0,1-.676.242.863.863,0,0,1-.668-.242A.855.855,0,0,1,50.258-.758ZM61.422-4.852a6.61,6.61,0,0,1-.867,3.773A3.084,3.084,0,0,1,57.844.156a3.107,3.107,0,0,1-2.7-1.207,6.274,6.274,0,0,1-.906-3.605v-1.93a6.463,6.463,0,0,1,.867-3.727,3.108,3.108,0,0,1,2.719-1.219,3.136,3.136,0,0,1,2.7,1.176,6.237,6.237,0,0,1,.891,3.629ZM59.977-6.828A5.3,5.3,0,0,0,59.461-9.5a1.775,1.775,0,0,0-1.633-.84,1.751,1.751,0,0,0-1.617.836,5.171,5.171,0,0,0-.523,2.57v2.313A5.381,5.381,0,0,0,56.223-1.9a1.771,1.771,0,0,0,1.621.879,1.747,1.747,0,0,0,1.59-.828,5.186,5.186,0,0,0,.543-2.609Zm10.43,1.977a6.61,6.61,0,0,1-.867,3.773A3.084,3.084,0,0,1,66.828.156a3.107,3.107,0,0,1-2.7-1.207,6.274,6.274,0,0,1-.906-3.605v-1.93a6.463,6.463,0,0,1,.867-3.727,3.108,3.108,0,0,1,2.719-1.219,3.136,3.136,0,0,1,2.7,1.176,6.237,6.237,0,0,1,.891,3.629ZM68.961-6.828A5.3,5.3,0,0,0,68.445-9.5a1.775,1.775,0,0,0-1.633-.84,1.751,1.751,0,0,0-1.617.836,5.171,5.171,0,0,0-.523,2.57v2.313A5.381,5.381,0,0,0,65.207-1.9a1.771,1.771,0,0,0,1.621.879,1.747,1.747,0,0,0,1.59-.828,5.186,5.186,0,0,0,.543-2.609Zm10.43,1.977a6.61,6.61,0,0,1-.867,3.773A3.084,3.084,0,0,1,75.813.156a3.107,3.107,0,0,1-2.7-1.207,6.274,6.274,0,0,1-.906-3.605v-1.93a6.463,6.463,0,0,1,.867-3.727A3.108,3.108,0,0,1,75.8-11.531a3.136,3.136,0,0,1,2.7,1.176,6.237,6.237,0,0,1,.891,3.629ZM77.945-6.828A5.3,5.3,0,0,0,77.43-9.5a1.775,1.775,0,0,0-1.633-.84,1.751,1.751,0,0,0-1.617.836,5.171,5.171,0,0,0-.523,2.57v2.313A5.381,5.381,0,0,0,74.191-1.9a1.771,1.771,0,0,0,1.621.879,1.747,1.747,0,0,0,1.59-.828,5.186,5.186,0,0,0,.543-2.609Z" transform="translate(347 1993)" fill="#12263f"/>
  </g>
</svg>
